<?xml version="1.0" encoding="utf-8"?>
<!-- Generator: Adobe Illustrator 24.1.2, SVG Export Plug-In . SVG Version: 6.00 Build 0)  -->
<svg version="1.1" id="Layer_1" xmlns:v="https://vecta.io/nano"
	 xmlns="http://www.w3.org/2000/svg" xmlns:xlink="http://www.w3.org/1999/xlink" x="0px" y="0px" viewBox="0 0 64 64"
	 style="enable-background:new 0 0 64 64;" xml:space="preserve">
<style type="text/css">
	.st0{clip-path:url(#XMLID_3_);}
	.st1{fill:#BDC2C4;}
	.st2{fill-rule:evenodd;clip-rule:evenodd;fill:#BDC2C4;}
</style>
<g>
	<defs>
		<path id="XMLID_1_" d="M64,32c0,17.7-14.3,32-32,32S0,49.7,0,32S14.3,0,32,0S64,14.3,64,32z"/>
	</defs>
	<use xlink:href="#XMLID_1_"  style="overflow:visible;fill:#E9EAEB;"/>
	<clipPath id="XMLID_3_">
		<use xlink:href="#XMLID_1_"  style="overflow:visible;"/>
	</clipPath>
	<g class="st0">
		<path class="st1" d="M42,39.9c-1-0.8-2-1.6-3-2.4c-3-2.4-6-4.9-9-7.3c0,0,0,0,0,0c-0.7-0.5-0.7-0.6-0.2-1.3c1-1.7,2-3.4,3.1-5.1
			c0.9-1.4,0.6-3.3-0.8-4.5c-1.4-1.1-3.3-1.1-4.7,0.2c-1.5,1.4-3.2,2.8-4.7,4.2c-0.2,0.2-0.4,0.2-0.6,0c-0.5-0.5-1.1-0.9-1.6-1.3
			c-0.1-0.1-0.3-0.2-0.3-0.4c0.1-1.8,0.3-3.6,1.6-5c0.9-1,2-1.4,3.3-1.5c1.7-0.1,3.3-0.1,5-0.1c0.4,0,0.6-0.1,0.6-0.6
			c0-1.1,0-2.2,0-3.3c0-0.7,0.4-1.2,1.1-1.4c0.4-0.1,1.1,0.2,1.4,0.6c0.2,0.2,0.2,0.5,0.2,0.7c0,1.1,0,2.1,0,3.2
			c0,0.6,0.2,0.7,0.7,0.7c1.5,0,3.1,0,4.6,0.1c2.5,0.1,4.2,1.6,4.8,4c0.5,2.1,0.3,4.3,0.2,6.4c-0.1,1.9-0.4,3.9-0.6,5.8
			c-0.2,1.8-0.4,3.5-0.6,5.3c-0.1,0.7-0.1,1.5-0.3,2.2C42.1,39.4,42.1,39.6,42,39.9z"/>
		<path class="st1" d="M39.4,44.1c-0.1,0.6-0.1,1.2-0.2,1.9c0,0.3,0,0.6,0.3,0.8c0,0,0.1,0.1,0.1,0.1c1,0.6,1.3,1.5,1,2.7
			c-0.3,1.3-0.4,2.6-1,3.9c-0.8,1.8-2.2,2.8-4,3.3c-0.7,0.2-1.3,0.4-2,0.4c-0.4,0-0.4,0.2-0.3,0.5c0,1.8-0.3,3.5-0.3,5.3
			c0,0.9-0.2,1.6-1.1,1.5c-0.7,0-1.2-0.7-1.2-1.6c0.1-1.7-0.2-3.3-0.2-5c0-0.5-0.1-0.7-0.7-0.8c-1.8-0.2-3.6-0.7-4.8-2.2
			c-0.9-1.1-1.3-2.3-1.6-3.7c-0.3-2-0.7-4.1-1-6.2c-0.2-1.7-0.5-3.3-0.7-5c-0.2-1.6-0.4-3.1-0.6-4.7c0-0.1-0.1-0.3,0-0.4
			c0.2-0.1,0.2,0.1,0.3,0.2c4.5,4.2,9.3,8.1,14.3,11.7c0.3,0.2,0.7,0.4,1.1,0.5c0.3,0.1,0.7-0.2,0.9-0.5c0.5-0.5,0.8-1,1-1.7
			C39.1,44.8,39.2,44.4,39.4,44.1C39.4,44.1,39.4,44.1,39.4,44.1z"/>
		<path class="st1" d="M21.5,32c0-0.9,0.6-1.8,1.4-2.1c1-0.4,2-0.1,2.7,0.7c0.5,0.6,0.9,1.2,1.3,1.8c0.3,0.5,0.4,0.5,0.7,0
			c0.2-0.3,0.4-0.6,0.5-0.9c0.2-0.3,0.3-0.3,0.6-0.1c2.1,1.7,4.1,3.3,6.2,5c3.5,2.9,7.1,5.7,10.6,8.6c2.2,1.8,4.4,3.6,6.6,5.4
			c0.6,0.5,0.6,1,0.2,1.7c-0.3,0.4-0.6,0.7-1.1,0.9c-0.6,0.3-1,0.2-1.6-0.2c-2.9-2.3-5.8-4.6-8.6-7c-0.3-0.3-0.4-0.5-0.4-0.9
			c0-0.2,0-0.5,0-0.7c-0.1-0.7-0.3-1.4-0.9-1.8c-0.3-0.2-0.6-0.5-1-0.8c-0.1-0.1-0.2-0.3-0.4-0.2c-0.1,0.1-0.1,0.3-0.1,0.4
			c-0.1,0.8-0.1,1.6-0.3,2.4c0,0.1,0,0.3-0.1,0.4c-0.3,0.9-0.5,1-1.3,0.5c-3.3-2.4-6.5-4.9-9.6-7.6c-1.7-1.5-3.4-3-5-4.5
			C21.7,32.7,21.4,32.4,21.5,32z"/>
		<path class="st1" d="M19.6,31.6c0.2-0.6,0.2-1.2,0.4-1.7c1-2,2.4-3.6,4.1-5c1.5-1.3,3-2.6,4.5-4c0.7-0.6,1.6-0.7,2.3-0.2
			c0.6,0.5,0.7,1.4,0.3,2.2c-1.3,2.1-2.5,4.2-3.8,6.3c-0.2,0.3-0.2,0.4-0.6,0.1c-1.7-1.8-4.2-1.8-6-0.1C20.4,29.6,19.7,31,19.6,31.6
			z"/>
		<path class="st1" d="M11.4,17.4c1,0.8,1.9,1.5,2.7,2.2c2.2,1.8,4.3,3.5,6.5,5.3c0.3,0.3,0.4,0.4,0.1,0.8c-0.9,1-1.6,2-2.2,3.2
			c-0.1,0.3-0.2,0.2-0.4,0c-1.6-1.8-3.1-3.7-4.3-5.7c-0.9-1.4-1.6-2.8-2.1-4.3C11.6,18.5,11.4,18,11.4,17.4z"/>
	</g>
</g>
<path class="st2" d="M64,33l-2-0.1l0-0.9l0-0.9l2-0.1l0,1L64,33z M63.9,29.1l-2,0.2l-0.2-1.8l2-0.3L63.9,29.1z M63.3,25.3l-2,0.4
	l-0.4-1.8l1.9-0.5L63.3,25.3L63.3,25.3z M62.3,21.6l-1.9,0.7l-0.6-1.7l1.8-0.8L62.3,21.6L62.3,21.6z M60.8,18L59,18.9l-0.8-1.6
	l1.7-1L60.8,18L60.8,18z M58.9,14.6l-1.7,1.1l-1-1.5l1.6-1.2L58.9,14.6L58.9,14.6z M56.6,11.5L55,12.8l-1.2-1.4l1.5-1.4L56.6,11.5
	L56.6,11.5z M53.9,8.7l-1.4,1.5L51.2,9l1.3-1.5L53.9,8.7z M51,6.2l-1.2,1.6l-1.5-1l1.1-1.7L51,6.2L51,6.2z M47.7,4.1l-1,1.7L45.1,5
	L46,3.2L47.7,4.1L47.7,4.1z M44.3,2.4l-0.8,1.8l-1.7-0.6l0.7-1.9L44.3,2.4z M40.6,1.2l-0.5,1.9l-1.8-0.4l0.4-2L40.6,1.2L40.6,1.2z
	 M36.8,0.4l-0.3,2l-1.8-0.2l0.2-2L36.8,0.4L36.8,0.4z M33,0l-1,0l-1,0l0.1,2L32,2l0.9,0C32.9,2,33,0,33,0z M29.1,0.1l0.2,2l-1.8,0.2
	l-0.3-2C27.2,0.4,29.1,0.1,29.1,0.1z M25.3,0.7l0.4,2l-1.8,0.4l-0.5-1.9L25.3,0.7L25.3,0.7z M21.6,1.7l0.7,1.9l-1.7,0.6l-0.8-1.8
	C19.8,2.4,21.6,1.7,21.6,1.7z M18,3.2L18.9,5l-1.6,0.8l-1-1.7L18,3.2L18,3.2z M14.6,5.1l1.1,1.7l-1.5,1L13,6.2L14.6,5.1L14.6,5.1z
	 M11.5,7.4L12.8,9l-1.4,1.2l-1.4-1.5L11.5,7.4L11.5,7.4z M8.7,10.1l1.5,1.4L9,12.8l-1.5-1.3L8.7,10.1z M6.2,13l1.6,1.2l-1,1.5
	l-1.7-1.1L6.2,13L6.2,13z M4.1,16.3l1.7,1L5,18.9L3.2,18L4.1,16.3L4.1,16.3z M2.4,19.8l1.8,0.8l-0.6,1.7l-1.9-0.7
	C1.7,21.6,2.4,19.8,2.4,19.8z M1.2,23.4l1.9,0.5l-0.4,1.8l-2-0.4L1.2,23.4L1.2,23.4z M0.4,27.2l2,0.3l-0.2,1.8l-2-0.2
	C0.1,29.1,0.4,27.2,0.4,27.2z M0,31l0,1l0,1l2-0.1L2,32l0-0.9C2,31.1,0,31,0,31z M0.1,34.9l2-0.2l0.2,1.8l-2,0.3L0.1,34.9L0.1,34.9z
	 M0.7,38.7l2-0.4l0.4,1.8l-1.9,0.5L0.7,38.7L0.7,38.7z M1.7,42.4l1.9-0.7l0.6,1.7l-1.8,0.8C2.4,44.2,1.7,42.4,1.7,42.4z M3.2,46
	L5,45.1l0.8,1.6l-1.7,1L3.2,46L3.2,46z M5.1,49.4l1.7-1.1l1,1.5L6.2,51L5.1,49.4L5.1,49.4z M7.4,52.5L9,51.2l1.2,1.4l-1.5,1.4
	L7.4,52.5L7.4,52.5z M10.1,55.3l1.4-1.5l1.4,1.2l-1.3,1.5L10.1,55.3L10.1,55.3z M13,57.8l1.2-1.6l1.5,1l-1.1,1.7L13,57.8L13,57.8z
	 M16.3,59.9l1-1.7l1.6,0.8L18,60.8L16.3,59.9L16.3,59.9z M19.8,61.6l0.8-1.8l1.7,0.6l-0.7,1.9L19.8,61.6L19.8,61.6z M23.4,62.8
	l0.5-1.9l1.8,0.4l-0.4,2L23.4,62.8L23.4,62.8z M27.2,63.6l0.3-2l1.8,0.2l-0.2,2L27.2,63.6z M31,64l0.1-2l0.9,0l0.9,0l0.1,2l-1,0
	C31.7,64,31.4,64,31,64L31,64z M34.9,63.9l-0.2-2l1.8-0.2l0.3,2L34.9,63.9L34.9,63.9z M38.7,63.3l-0.4-2l1.8-0.4l0.5,1.9L38.7,63.3
	L38.7,63.3z M42.4,62.3l-0.7-1.9l1.7-0.6l0.8,1.8L42.4,62.3L42.4,62.3z M46,60.8L45.1,59l1.6-0.8l1,1.7L46,60.8L46,60.8z M49.4,58.9
	l-1.1-1.7l1.5-1l1.2,1.6L49.4,58.9L49.4,58.9z M52.5,56.6L51.2,55l1.4-1.2l1.4,1.5L52.5,56.6L52.5,56.6z M55.3,53.9l-1.5-1.4
	l1.2-1.4l1.5,1.3L55.3,53.9L55.3,53.9z M57.8,51l-1.6-1.2l1-1.5l1.7,1.1L57.8,51L57.8,51z M59.9,47.7l-1.7-1l0.8-1.6l1.8,0.9
	L59.9,47.7L59.9,47.7z M61.6,44.2l-1.8-0.8l0.6-1.7l1.9,0.7L61.6,44.2L61.6,44.2z M62.8,40.6l-1.9-0.5l0.4-1.8l2,0.4L62.8,40.6
	L62.8,40.6z M63.6,36.8l-2-0.3l0.2-1.8l2,0.2L63.6,36.8L63.6,36.8z"/>
<path class="st1" d="M50.8,35.3V35c0-0.4,0.1-0.8,0.3-1.1c0.2-0.3,0.4-0.6,0.7-0.8c0.3-0.2,0.5-0.5,0.8-0.7c0.3-0.2,0.5-0.4,0.6-0.6
	c0.2-0.2,0.3-0.5,0.3-0.7c0-0.4-0.1-0.7-0.4-0.9c-0.3-0.2-0.8-0.3-1.4-0.3c-0.4,0-0.9,0.1-1.3,0.2c-0.4,0.1-0.8,0.2-1.1,0.4v-2.1
	c0.4-0.2,0.8-0.3,1.4-0.5c0.5-0.1,1.1-0.2,1.8-0.2c1.2,0,2.2,0.3,2.8,0.8c0.6,0.5,1,1.3,1,2.2c0,0.6-0.1,1.1-0.4,1.4
	c-0.2,0.4-0.6,0.7-1.1,1.1l-1,0.8c-0.3,0.2-0.4,0.5-0.4,1v0.2L50.8,35.3L50.8,35.3z M50.6,38.1v-1.8h2.7v1.8
	C53.3,38.1,50.6,38.1,50.6,38.1z"/>
</svg>
