<?xml version="1.0" encoding="utf-8"?>
<!-- Generator: Adobe Illustrator 24.1.2, SVG Export Plug-In . SVG Version: 6.00 Build 0)  -->
<svg version="1.1" id="Layer_1" xmlns:v="https://vecta.io/nano"
	 xmlns="http://www.w3.org/2000/svg" xmlns:xlink="http://www.w3.org/1999/xlink" x="0px" y="0px" viewBox="0 0 193 230"
	 style="enable-background:new 0 0 193 230;" xml:space="preserve">
<style type="text/css">
	.st0{fill:none;}
	.st1{opacity:0.1;}
	.st2{fill:#EAEAEA;}
	.st3{fill:#E5BE97;}
	.st4{fill:#604221;}
	.st5{fill:#604221;stroke:#604221;stroke-width:5;stroke-miterlimit:10;}
	.st6{fill:#7E3629;}
	.st7{fill:#3F7D3B;}
	.st8{fill:#B8703E;}
	.st9{fill:#ADE8A8;}
	.st10{fill:#6BB267;}
	.st11{fill:#C5795B;}
	.st12{fill:#CCCDCD;}
	.st13{fill:#F8E8CE;}
	.st14{fill:#FF5A5A;}
	.st15{fill:#FFFFFF;}
	.st16{fill:#EFD2AF;}
	.st17{fill:#F57745;}
</style>
<rect class="st0" width="192.2" height="230"/>
<g class="st1">
	<ellipse class="st2" cx="121.9" cy="211.4" rx="77.7" ry="18.3"/>
	<g>
		<g>
			<ellipse class="st3" cx="123.6" cy="38.3" rx="69" ry="60.2"/>
			<path class="st4" d="M123.6,102.1c-40,0-72.6-28.6-72.6-63.8s32.6-63.8,72.6-63.8c40,0,72.6,28.6,72.6,63.8
				S163.6,102.1,123.6,102.1z M123.6-18.3c-36.1,0-65.5,25.4-65.5,56.7S87.5,95,123.6,95c36.1,0,65.5-25.4,65.5-56.7
				S159.7-18.3,123.6-18.3z"/>
		</g>
		<g>
			<path class="st5" d="M172.2,32.6c-2.3-1.4-3.1-2.5-1.7-4.6c1.2-1.7,4.8-6,5.2-6.6c0.2-0.2-1.1-10.4-8.1-10.1
				c-0.6,0-7.3-0.4-9.1-2.9c-1.3-1.9-3-3.7-5.4-4.3c-1.3-0.3-1.7-0.9-2-2.1c-0.9-3.6-3.5-5.4-7.5-5.4c-1.7,0-3.3,0.1-5,0.2
				c-1-0.3-1.5-1.1-2.1-1.8c-4.1-4.5-8.5-4.8-12.7-0.7c-0.3,0.2-0.5,0.5-0.8,0.7c-0.7-0.5-1-1.2-1.1-1.8c-0.6-2.9-2.7-3.9-5.6-4.3
				c-4.2-0.6-8.4-1.3-12.6-1.7c-2.6-0.3-3.7,0.7-4.4,2.8c-1.3,4-2.4,8-3,12.1c-0.1,0.6-0.2,1.3-0.4,2.2c-1.3-1.3-2.6-2.3-4-3.2
				c-17-6.4-22.1,28.7-22.1,31c0,5.9,26.7,7.5,52,27.5c0.7-0.5,1.1-0.8,1.2-0.8c6.4-4.7,13.8-7.5,21.6-9.6
				C153.2,47,193.4,45.9,172.2,32.6z M125-2.2c0.4-0.5,6.4-2.6,7.7-1c1.4,1.6,2.7,3.3,4.9,4.1c1.9,0.4,3.8,0.1,5.7-0.1
				c1.3-0.1,2.6,0.1,3.3,1.4c0.6,1.3,0.8,2.5-0.3,3.7c-0.8,0.8-1.4,1.7-2.1,2.6c-0.3,0.7-0.2,1.7-1.4,1.8c-1.2,0-1.3-0.9-1.6-1.7
				c-2.6-6-9.5-7.6-14.5-3.4c-1.2,1-2.2,2.2-3.2,3.4c-0.8,1-2.1,1.6-3.3,0.8c-1.3-0.8-0.3-1.8,0.1-2.7C121.5,3.6,122.9,0.6,125-2.2z
				 M132.9,18c-0.1-1.6,0.4-2.6,2.1-3c1-0.3,2-0.8,3.2-1.3c0.1,1.2-0.3,2.2-0.6,3.2c-0.6,2.7-1.3,5.3-1.7,8c-0.2,1.5-0.9,1.6-2.2,1
				c-1.1-0.2-0.8-0.9-0.8-1.5C132.8,22.2,133,20.1,132.9,18z M134.7,10.9c-0.1,0.1-0.2,0.2-0.4,0.3c-4.6,0.9-6.1,3.7-5.6,7.8
				c0.1,1.5,0.2,3.1,0.3,4.6c0.2,1.6-0.8,2.3-2.3,2.8c-1.8,0.6-2.7,0.3-3.5-1.4c-2.4-5-8-7.4-13.6-6.1c-0.8,0.2-1.5,0.3-2.3,0.4
				c-0.3,0.1-0.6,0.3-0.9,0.4c-0.1,0-0.2,0-0.3,0.1l0.3-0.1c0.3-0.2,0.6-0.4,0.9-0.6c0.9-1.3,1.9-2.6,2.8-3.9
				c0.4-0.6,0.8-1.2,1.8-1.1c0.3-2,1.8-2.2,3.5-1.8c1.2,0.3,2.4,0.8,3.6,1.2c2.3,0.7,4.5,0.6,6.5-0.7c1.5-1.3,2.6-2.9,3.9-4.3
				c2.3-2.6,7-2.6,9.5-0.1c0.8,0.7,0.9,1.2-0.3,1.5C137.2,10.2,136,10.6,134.7,10.9z M118.7-4c1.4,1.2,1.5,2.3,0.7,3.6
				c-1.1,1.9-2.2,3.9-2.5,6.1c-0.3,2.5-1.7,2.7-4,2C114.4,3.6,116.7,0,118.7-4z M98.8,11.3c0.1-0.7,0.2-1.4,0.3-2.2
				c0.1-0.8,0.2-1.6,0.3-2.5c0.3-4.9,1.9-9.6,3.4-14.2c0.3-1,1-1.3,2.1-1.1c2.8,0.4,5.5,0.8,8.3,1.1c2.2,0.2,2.4,1,1.1,2.4
				c-1.5,3.5-3,6.9-4.4,10.4c-1.1,3-2.2,6-4.4,8.5c-1.1,1.2-2.1,3.1-4.3,2.3C99.2,15.3,98.5,13.4,98.8,11.3z M95.8,31.5
				c-0.3,2.2-0.5,4.4-0.8,6.7c-0.2,1.3-1.3,0.9-2,0.7c-1.3-0.5-2.4-1.2-3.6-1.8c-0.6,0.1-1.1,0-1.7-0.2c-0.7-0.2-1.7-0.5-1.2-1.5
				c1.1-2.5,2.3-5.1,5.7-5.5l0,0c0.4-0.5,0.9-0.5,1.4-0.4c1,0,2.1-0.5,2.8,0.4C96.9,30.4,96.2,31,95.8,31.5z M82.9,33.6
				c-0.7,2.2-2.3,0.9-3.6,0.5c-1.1-0.1-2.1-0.3-3-0.8c-1.2,0-2.4,0.1-2.4-1.6c-0.2-8.9,2.3-16.9,8.3-23.7c1-1.1,2.2-2.1,3.7-2.6
				c2.9-1.1,4.9-0.5,6.6,2.2c0.6,2.1,1.1,4.3,1.9,6.4c1.4,3.8,3.8,6.6,8.5,6.9c0.4,0,0.7,0,1.1-0.1c0.3,0,0.3,0.1,0.1,0.2
				c-1.3,1.9-3.6,3-4.7,5c-0.5,0.8-1.4,0.5-2.1,0.3C90.3,24.5,84.6,27.7,82.9,33.6z M137.6,47.3l-0.6,0.1c-0.1,0-0.2-0.1-0.3-0.1
				c-4.8,2.3-9.8,4.1-14.3,6.9c-0.8,0.5-1.7,0.4-2.4-0.3c-4-3.8-9.2-6.1-13.9-9c-1-0.6-1.7-1.2-0.8-2.3c0.9-1.7,2.2-3.2,4.1-4
				c1.4-0.8,2.8-0.9,4.4-0.1c3,1.4,5.9,3.1,9.1,4.1c1.1-0.5,0.7-1.2,0.2-1.8c-3.7-3.4-7.2-7.1-13-6.9c-3.9,1.4-6.8,3.8-8.2,7.5
				c-0.3,0.8-1,0.8-1.7,0.4c-1.5-0.2-2.4-1-2.2-2.4c0.9-6.3,3.4-11.7,9.3-15.2c2.8-1.7,5.8-2.1,9-0.5c0.9,0.5,1.8,1.1,1.9,2.2
				c4,5.8,4,5.8,11,4.2c2.7-0.6,5.1,0.2,6.9,2.2c3.7,4,3.7,8.7,3.7,13.4C140.1,47,138.5,46.8,137.6,47.3z M138.8,28.5
				c-0.6-0.6-0.1-1.3,0.1-1.9c0.4-1.3,0.8-2.7,1.2-4c0.3-0.8,0.5-1.6,0.8-2.3c0.3-1.1,0.5-2.3,0.8-3.4c0.7-2.6,0.7-2.6,3.5-1.6
				c0.9,0,1.6,0.4,2.3,0.8c0.2,0,0.5,0,0.7,0.1c4.9,2.2,4.7,1,2.2,5.3c-2.4,4.3-4.7,8.6-7.3,13.3C142,32.4,140.7,30.3,138.8,28.5z
				 M152.2,42.6c-0.3,1.2-1.3,1.3-2.3,1.2c-0.5,0.1-1,0.3-1.6,0.4c-1.2,0.1-2.9,1.1-3.4,0.2c-0.6-1.2-0.8-3,0.1-4.4
				c0.8-1.2,1.6-2.3,2.3-3.4c0.1-1.2,0.6-1.6,1.8-0.8C151,36.9,152.6,40.5,152.2,42.6z M167.1,42.5c-2.9,0.1-5.9,0.1-8.8,0.4
				c-1.5,0.1-2.2-0.1-2.1-1.7c0.3-3.8-1.4-6.7-4.8-8.9c-1.2-0.7-1.4-1.5-0.7-2.6c1.5-2.4,2.9-4.8,4.4-7.1c0.7-1.4,1.3-3,2.1-4.3
				c1-1.6,0.3-2.4-1.3-3.1c-2-0.9-3.9-1.8-5.9-2.7c-0.9-0.1-2.4-0.2-2.4-1c0-1.2,1-2.2,2.1-2.9c1-0.7,2-0.8,3,0
				c1.3,1,2.3,2.3,3.2,3.6c2.7,3.1,6.2,3.9,10.3,3.5c1.7-0.2,3.8-1,5.3,0.8c1.5,2.1,0,3.5-1.2,4.9c-1.4,1.6-2.8,3.3-3.9,5.1
				c-2.2,3.6-1.2,7,2.7,9.3c1.4,0.8,3.5,1.3,2.9,3.5C171.6,41.1,169.5,42.5,167.1,42.5z"/>
			<path class="st6" d="M123.1,42.5c1.1-0.5,0.7-1.2,0.2-1.8c-3.7-3.4-7.2-7.1-13-6.9c1.6-2.7,4.4-3.4,7.5-1.9
				c1.4,0.7,2.7,1.6,4.2,2.3c3,1.5,6.9,1.2,8.9-0.7c2.3-2.2,3.3-2.1,5.1,0.6c2.8,4.3,2.2,8.7,1,13.1c-4.8,2.3-9.8,4.1-14.3,6.9
				c-0.8,0.5-1.7,0.4-2.4-0.3c-4-3.8-9.2-6.1-13.9-9c-1-0.6-1.7-1.2-0.8-2.3c3.9-1.8,7.6-1.8,10.9,1.4c0.6,0.6,1.4,1,2.2,1.4
				c1.3,0.7,2.6,0.8,3.9,0.1C123.9,44.8,123.2,43.6,123.1,42.5z"/>
			<path class="st7" d="M171.6,16.4c1.5,2.1,0,3.5-1.2,4.9c-1.4,1.6-2.8,3.3-3.9,5.1c-2.2,3.6-1.2,7,2.7,9.3
				c1.4,0.8,3.5,1.3,2.9,3.5c-0.5,1.9-2.6,3.2-5.1,3.3c-2.9,0.1-5.9,0.1-8.8,0.4c-1.5,0.1-2.2-0.1-2.1-1.7c0.3-3.8-1.4-6.7-4.8-8.9
				c-1.2-0.7-1.4-1.5-0.7-2.6c1.5-2.4,2.9-4.8,4.4-7.1c1.5,1.8,3.2,1.8,5.3,1.1C164.9,22.2,168.3,19.4,171.6,16.4z M154.2,30
				c1.7,0.2,3.2-0.8,4.7-1.3c0.7-0.2,1.1-0.8,0.8-1.6c-0.3-0.9-1.1-1.1-1.9-1c-1.6,0.3-2.9,1.1-3.9,2.2
				C153.5,28.8,153.5,29.4,154.2,30z M159.8,33c-0.8-0.2-1.6-0.2-2.1,0.4c-0.4,0.5-0.1,1,0.5,1.2c0.7,0.3,1.4,0.2,1.9-0.4
				C160.5,33.8,160.5,33.4,159.8,33z"/>
			<path class="st8" d="M136.8,47.2c1.2-4.4,1.8-8.8-1-13.1c-1.8-2.7-2.8-2.8-5.1-0.6c-2,1.9-5.9,2.3-8.9,0.7
				c-1.4-0.7-2.7-1.6-4.2-2.3c-3.1-1.5-5.9-0.8-7.5,1.9c-3.9,1.4-6.8,3.8-8.2,7.5c-0.3,0.8-1,0.8-1.7,0.4c0.5-4.5,2.5-8.5,5.2-12.1
				c0.6-0.8,1.3-1,2.4-0.7c3,0.9,4.4,0.2,5-2.7c0.3-1.2,0.8-1.5,2.1-1.5c1.3,0,2.3,0.3,3.4,1c4,5.8,4,5.8,11,4.2
				c2.7-0.6,5.1,0.2,6.9,2.2c3.7,4,3.7,8.7,3.7,13.4c0,1.3-1.6,1.1-2.5,1.6c-0.2,0-0.4,0.1-0.6,0.1C137,47.3,136.9,47.3,136.8,47.2z
				"/>
			<path class="st7" d="M104,20.9c-1.3,1.9-3.6,3-4.7,5c-0.5,0.8-1.4,0.5-2.1,0.3c-6.8-1.8-12.5,1.5-14.3,7.4
				c-0.7,2.2-2.3,0.9-3.6,0.5c-0.5-3.1-0.3-6.2,1.2-9c1.7,0.2,2.4-0.4,1.8-2c-0.2-0.6-0.2-1.2-0.3-1.7c1-0.9,2-1.9,3-2.8
				c-0.1,0.9-0.2,1.9-0.2,2.8c0,1.1,0.3,2.2,1.7,2.3c1.3,0,1.5-1.1,1.5-2c0-1.7,0-3.3,0-5c3.1,0.6,6.1,0.9,8.5,3.4
				c2.4,2.5,3.3,2.4,6.3,0.8c0.4,0,0.7,0,1.1-0.1L104,20.9z M93.9,22.6c0.3-0.8,0.5-1.6-0.4-2.2c-0.6-0.4-1.3-0.3-1.6,0.3
				c-0.4,0.8-0.6,1.7,0.5,2.3C93,23.5,93.5,23.2,93.9,22.6z"/>
			<path class="st9" d="M76.2,33.3c-1.2,0-2.4,0.1-2.4-1.6c-0.2-8.9,2.3-16.9,8.3-23.7c1-1.1,2.2-2.1,3.7-2.6
				c2.9-1.1,4.9-0.5,6.6,2.2C84.8,9.3,82.1,15.1,79.7,21c-0.1,0.3-0.2,0.5-0.3,0.8C77.3,25.4,76.6,29.3,76.2,33.3z"/>
			<path class="st9" d="M99.1,9.2c0.1-0.8,0.2-1.6,0.3-2.5c1.1-3.4,2.7-6.6,4.4-9.8c0.6-1.1,1.1-2.5,2.9-2.4
				c2.5,0.1,5.1,0.3,7.6,0.4c-1.5,3.5-3,6.9-4.4,10.4c-1.1,0.2-1.7,1-2.5,1.4C104.9,8.2,102.5,10,99.1,9.2z"/>
			<path class="st10" d="M147.6,16.1c0.2,0,0.5,0,0.7,0.1c4.9,2.2,4.7,1,2.2,5.3c-2.4,4.3-4.7,8.6-7.3,13.3
				c-1.3-2.5-2.6-4.6-4.4-6.4c-0.6-0.6-0.1-1.3,0.1-1.9c0.4-1.3,0.8-2.7,1.2-4c2.6-1.9,4.7-4.3,7.7-5.8
				C148.1,16.7,147.8,16.4,147.6,16.1z"/>
			<path class="st10" d="M79.7,21c2.5-5.9,5.2-11.7,12.7-13.5c0.6,2.2,1.1,4.3,1.9,6.4c1.4,3.8,3.8,6.6,8.5,6.9
				c-3.1,1.6-3.9,1.7-6.3-0.8c-2.4-2.5-5.5-2.8-8.5-3.4c-2.9-1.7-2.3,0.9-3,2c-1,0.9-2,1.9-3,2.8C81.3,20.6,80.5,20.5,79.7,21z"/>
			<path class="st10" d="M171.6,16.4c-3.3,2.9-6.7,5.8-11.2,7.3c-2.1,0.7-3.8,0.7-5.3-1.1c0.7-1.4,1.3-3,2.1-4.3
				c1-1.6,0.3-2.4-1.3-3.1c-2-0.9-3.9-1.8-5.9-2.7c1.7-2.2,3.8-1.2,5.9-0.4c2.7,3.1,6.2,3.9,10.3,3.5
				C168,15.4,170.1,14.6,171.6,16.4z"/>
			<path class="st7" d="M144.2,8.5c-0.3,0.7-0.2,1.7-1.4,1.8c-1.2,0-1.3-0.9-1.6-1.7c-2.6-6-9.5-7.6-14.5-3.4
				c-1.2,1-2.2,2.2-3.2,3.4c-0.8,1-2.1,1.6-3.3,0.8c-1.3-0.8-0.3-1.8,0.1-2.7c1.3-3.1,2.7-6.2,4.8-8.9c0.7-1,0.7-1,1.3-1.2
				c1.7-0.5,4.1,0.9,5,2.5c1.3,2.3,3.3,3.1,5.7,3.5C140.7,3.2,143.1,5.2,144.2,8.5z"/>
			<path class="st7" d="M128.7,18.9c0.1,1.5,0.2,3.1,0.3,4.6c0.2,1.6-0.8,2.3-2.3,2.8c-1.8,0.6-2.7,0.3-3.5-1.4
				c-2.4-5-8-7.4-13.6-6.1c-0.8,0.2-1.5,0.3-2.3,0.4c0,0-0.1-0.2-0.1-0.2c0.9-1.3,1.9-2.6,2.8-3.9c0.4-0.6,0.8-1.2,1.8-1.1
				c0.9,0.2,1.7,0.4,2.6,0.5c2.4,0.2,4.6,0.7,6.1,2.6C122.8,20,125.6,20.2,128.7,18.9z"/>
			<path class="st11" d="M118.4,25.8c-1-0.7-2.1-1-3.4-1c-1.2,0-1.8,0.2-2.1,1.5c-0.6,2.9-2.1,3.6-5,2.7c-1.1-0.4-1.8-0.1-2.4,0.7
				c-2.8,3.6-4.7,7.6-5.2,12.1c-1.5-0.2-2.4-1-2.2-2.4c0.9-6.3,3.4-11.7,9.3-15.2c2.8-1.7,5.8-2.1,9-0.5
				C117.5,24.1,118.3,24.7,118.4,25.8z"/>
			<path class="st10" d="M128.7,18.9c-3.1,1.3-5.9,1.1-8.2-1.7c-1.5-1.9-3.8-2.4-6.1-2.6c-0.9-0.1-1.7-0.3-2.6-0.5
				c0.3-2,1.8-2.2,3.5-1.8c1.2,0.3,2.4,0.8,3.6,1.2c2.3,0.7,4.5,0.6,6.5-0.7c1.8,0.2,2.8-1.1,4-1.9c1.7-1,3.4-1.5,5.2-0.1
				c-0.1,0.1-0.2,0.2-0.4,0.3C129.7,12,128.2,14.8,128.7,18.9z"/>
			<path class="st10" d="M99.1,9.2c3.4,0.8,5.8-1,8.4-2.4c0.8-0.5,1.5-1.3,2.5-1.4c-1.1,3-2.2,6-4.4,8.5c-1.1,1.2-2.1,3.1-4.3,2.3
				c-2.2-0.8-2.8-2.7-2.5-4.8C98.9,10.6,99,9.9,99.1,9.2z"/>
			<path class="st8" d="M123.1,42.5c0.1,1.1,0.8,2.3-0.6,3c-1.3,0.6-2.6,0.5-3.9-0.1c-0.8-0.4-1.6-0.8-2.2-1.4
				c-3.4-3.2-7.1-3.2-10.9-1.4c0.9-1.7,2.2-3.2,4.1-4c1.9,2.2,2.7,2.2,4.4-0.1C117,39.8,119.9,41.5,123.1,42.5z"/>
			<path class="st12" d="M114.4-5.1c-2.5-0.2-5.1-0.3-7.6-0.4c-1.8-0.1-2.3,1.3-2.9,2.4c-1.7,3.2-3.3,6.4-4.4,9.8
				c0.3-4.9,1.9-9.6,3.4-14.2c0.3-1,1-1.3,2.1-1.1c2.8,0.4,5.5,0.8,8.3,1.1C115.5-7.3,115.6-6.5,114.4-5.1z"/>
			<path class="st9" d="M134.7,10.9c-1.8-1.5-3.5-1-5.2,0.1c-1.3,0.8-2.2,2.1-4,1.9c1.5-1.3,2.6-2.9,3.9-4.3c2.3-2.6,7-2.6,9.5-0.1
				c0.8,0.7,0.9,1.2-0.3,1.5C137.2,10.2,136,10.6,134.7,10.9z"/>
			<path class="st6" d="M149.9,43.8c-0.5,0.1-1,0.3-1.6,0.4c-1.2,0.1-2.9,1.1-3.4,0.2c-0.6-1.2-0.8-3,0.1-4.4
				c0.8-1.2,1.6-2.3,2.3-3.4C150.1,38.4,150.7,40.9,149.9,43.8z"/>
			<path class="st10" d="M112.9,7.7c1.5-4.1,3.8-7.8,5.8-11.7c1.4,1.2,1.5,2.3,0.7,3.6c-1.1,1.9-2.2,3.9-2.5,6.1
				C116.6,8.2,115.2,8.4,112.9,7.7z"/>
			<path class="st6" d="M95.8,31.5c-0.3,2.2-0.5,4.4-0.8,6.7c-0.2,1.3-1.3,0.9-2,0.7c-1.3-0.5-2.4-1.2-3.6-1.8
				C90.6,34.3,92,31.7,95.8,31.5z"/>
			<path class="st10" d="M76.2,33.3c0.4-4,1.1-7.9,3.1-11.5c0.4,1.1,0.7,2.2,1.1,3.3c-1.5,2.8-1.7,5.9-1.2,9
				C78.2,34,77.2,33.8,76.2,33.3z"/>
			<path class="st12" d="M133.6,25.9c-1.1-0.2-0.8-0.9-0.8-1.5c0-2.1,0.2-4.2,0.1-6.4c-0.1-1.6,0.4-2.6,2.1-3c1-0.3,2-0.8,3.2-1.3
				c0.1,1.2-0.3,2.2-0.6,3.2c-2.1,0.1-2.8,1.4-3,3C134.1,21.8,133.9,23.8,133.6,25.9z"/>
			<path class="st9" d="M156,12c-2.1-0.8-4.2-1.8-5.9,0.4c-0.9-0.1-2.4-0.2-2.4-1c0-1.2,1-2.2,2.1-2.9c1-0.7,2-0.8,3,0
				C154.1,9.4,155.1,10.7,156,12z"/>
			<path class="st9" d="M133.6,25.9c0.3-2,0.5-4,0.9-6c0.3-1.6,0.9-3,3-3c-0.6,2.7-1.3,5.3-1.7,8C135.5,26.3,134.9,26.4,133.6,25.9z
				"/>
			<path class="st8" d="M149.9,43.8c0.8-2.9,0.2-5.4-2.6-7.3c0.1-1.2,0.6-1.6,1.8-0.8c1.9,1.2,3.5,4.8,3.1,6.9
				C151.9,43.8,150.9,43.8,149.9,43.8z"/>
			<path class="st9" d="M147.6,16.1c0.2,0.2,0.5,0.6,0.2,0.7c-3,1.5-5.1,3.9-7.7,5.8c0.3-0.8,0.5-1.6,0.8-2.3c1.5-1.6,1.8-4.1,4.3-5
				C146.1,15.3,146.8,15.8,147.6,16.1z"/>
			<path class="st10" d="M146.6,2.2c-0.6-1.3-1.9-1.5-3.3-1.4c-1.9,0.2-3.8,0.5-5.7,0.1c-2.2-0.8-3.5-2.4-4.9-4.1
				c-3.2-3.8-5.6-0.9-7.2,0.3c1.8,0.1,4.9,0.5,5.8,2.1c1.3,2.3,3.3,3.1,5.7,3.5c3.7,0.6,6,2.5,7.2,5.8c0.7-0.9,1.3-1.8,2.1-2.6
				C147.3,4.7,147.2,3.4,146.6,2.2z"/>
			<path class="st11" d="M96.4,29.8c-5.9-3.7-8.9,3-10,5.5c-0.5,1,0.5,1.2,1.2,1.5c0.5,0.3,1.1,0.4,1.7,0.2c1.3-2.7,2.6-5.3,6.4-5.5
				C96.2,31,97,30.2,96.4,29.8z"/>
			<path class="st12" d="M145.3,15.3c-2.5,0.8-2.8,3.4-4.3,5c0.3-1.1,0.5-2.3,0.8-3.4C142.5,14.3,142.5,14.3,145.3,15.3z"/>
			<path class="st11" d="M114,38.4c-1.6,2.3-2.5,2.3-4.4,0.1C111,37.7,112.5,37.7,114,38.4z"/>
			<path class="st10" d="M125-2.2"/>
			<path class="st7" d="M106.4,19.7c0.3-0.2,0.6-0.4,0.9-0.6c0,0,0.1,0.2,0.1,0.2C107,19.4,106.7,19.6,106.4,19.7
				C106.4,19.7,106.4,19.7,106.4,19.7z"/>
			<path class="st6" d="M137,47.4c0.2,0,0.4-0.1,0.6-0.1C137.4,47.3,137.2,47.4,137,47.4z"/>
			<path class="st7" d="M103.9,20.7c0.3,0,0.3,0.1,0.1,0.2C104,20.9,103.9,20.7,103.9,20.7z"/>
			<path class="st5" d="M154.2,30c-0.8-0.6-0.7-1.2-0.3-1.7c1.1-1.1,2.3-2,3.9-2.2c0.8-0.1,1.6,0.1,1.9,1c0.3,0.8-0.2,1.4-0.8,1.6
				C157.4,29.2,156,30.2,154.2,30z"/>
			<path class="st5" d="M159.8,33c0.6,0.4,0.7,0.8,0.3,1.3c-0.5,0.6-1.2,0.7-1.9,0.4c-0.6-0.2-0.9-0.7-0.5-1.2
				C158.2,32.8,159,32.8,159.8,33z"/>
			<path class="st5" d="M88,15.7c0,1-0.2,7.9-1.5,7.9c-1.4,0-1.9-5.4-1.7-6.4C85.3,14.3,88,14,88,15.7z"/>
			<path class="st5" d="M80.5,25.1c-0.4-1.1-0.7-2.2-1.1-3.3c0.1-0.3,0.2-0.5,0.3-0.8c0.8-0.5,1.6-0.4,2.3,0.3
				c0.1,0.6,0.2,1.2,0.3,1.7C82.8,24.7,82.2,25.3,80.5,25.1z"/>
			<path class="st5" d="M93.9,22.6c-0.4,0.6-0.9,0.9-1.6,0.5c-1-0.6-0.9-1.5-0.5-2.3c0.3-0.6,1-0.7,1.6-0.3
				C94.4,21,94.2,21.8,93.9,22.6z"/>
		</g>
		<g>
			<path class="st13" d="M67.9,191.8l-5.9-44c-0.1-1.7,0.1-3.4,0.6-5.1c17.1-52.6,60.3-93.5,114.2-107.5c8.2-2.1,16.4,3.8,16.6,12.3
				c0,0.1,0,0.1,0,0.2c0,0.4,0,0.7,0,1.1l-12.5,143c0,12.3-10,22.3-22.3,22.3H90.2C77.9,214.1,67.9,204.1,67.9,191.8z"/>
			<path class="st4" d="M158.6,217.7H90.2c-14.2,0-25.7-11.5-25.9-25.6l-5.9-43.8c0-0.1,0-0.2,0-0.2c-0.1-2.2,0.1-4.3,0.8-6.4
				c8.6-26.4,23.9-50.5,44.2-69.7c20.4-19.2,45.5-33.1,72.4-40.1c5-1.3,10.2-0.3,14.4,2.8c4.1,3.1,6.5,7.7,6.7,12.7l0,0.2
				c0,0.4,0,0.9,0,1.4c0,0,0,0.1,0,0.1L184.5,192C184.4,206.2,172.8,217.7,158.6,217.7z M65.5,147.5l5.9,43.9c0,0.2,0,0.3,0,0.5
				c0,10.4,8.4,18.8,18.8,18.8h68.4c10.4,0,18.8-8.4,18.8-18.8c0-0.1,0-0.2,0-0.3l12.5-143c0-0.3,0-0.5,0-0.7l0-0.2
				c-0.1-2.9-1.5-5.5-3.8-7.3c-2.4-1.8-5.5-2.4-8.4-1.7c-25.8,6.7-49.8,20-69.4,38.4C88.9,95.4,74.2,118.5,66,143.8
				C65.6,145,65.4,146.2,65.5,147.5z"/>
		</g>
		<path class="st3" d="M159.3,69.4c-6-5.8-12.4-10.9-19.4-15.4c-8,4.6-15.5,10.1-22.4,16.4c-10.2,9.4-18.8,20.4-25.5,32.5l4.2,57.2
			c-0.1,10.8,8.6,19.7,19.4,19.8l50.1,0.7c7-2.9,13.7-9.8,13.9-17.8l5.2-59.4C178.6,90.9,169.4,79.1,159.3,69.4z"/>
		<g>
			<path class="st13" d="M178.5,191.8l5.9-44c0.1-1.7-0.1-3.4-0.6-5.1C166.6,90.1,123.5,49.2,69.6,35.2c-8.2-2.1-16.4,3.8-16.6,12.3
				c0,0.1,0,0.1,0,0.2c0,0.4,0,0.7,0,1.1l12.5,143c0,12.3,10,22.3,22.3,22.3h68.4C168.4,214.1,178.5,204.1,178.5,191.8z"/>
			<path class="st4" d="M156.2,217.7H87.7c-14.2,0-25.8-11.5-25.9-25.7L49.4,49.1c0,0,0-0.1,0-0.1c0-0.5,0-1,0-1.4l0-0.2
				c0.2-5,2.6-9.7,6.7-12.7c4.1-3.1,9.4-4.1,14.4-2.8c27,7,52,20.9,72.4,40.1c20.3,19.2,35.6,43.3,44.2,69.7c0.7,2.1,1,4.2,0.8,6.4
				c0,0.1,0,0.2,0,0.2l-5.9,43.8C181.9,206.2,170.3,217.7,156.2,217.7z M56.5,48.5l12.5,143c0,0.1,0,0.2,0,0.3
				c0,10.4,8.4,18.8,18.8,18.8h68.4c10.4,0,18.8-8.4,18.8-18.8c0-0.2,0-0.3,0-0.5l5.9-43.9c0.1-1.2-0.1-2.4-0.5-3.6
				c-8.2-25.3-22.9-48.4-42.4-66.8c-19.5-18.4-43.5-31.7-69.4-38.4c-2.9-0.8-5.9-0.1-8.4,1.7c-2.3,1.8-3.8,4.4-3.8,7.3l0,0.1
				C56.5,48,56.5,48.2,56.5,48.5z"/>
		</g>
	</g>
	<g>
		<path class="st4" d="M91.9,149.7c-5.7,0-10.4,4.7-10.4,10.4c0,5.7,4.7,10.4,10.4,10.4c5.7,0,10.4-4.7,10.4-10.4
			C102.2,154.4,97.6,149.7,91.9,149.7z"/>
		<path class="st4" d="M154,149.7c-5.7,0-10.4,4.7-10.4,10.4c0,5.7,4.7,10.4,10.4,10.4c5.7,0,10.4-4.7,10.4-10.4
			C164.4,154.4,159.7,149.7,154,149.7z"/>
		<path class="st4" d="M140.3,177.7L140.3,177.7c-0.5-2-2.5-3.5-5-3.5h-23.9c-2.5,0-4.6,1.5-5,3.5l-0.1,0l0,0.7l0,0.1l0,0
			c0.1,7.9,7.7,14.3,17,14.3c9.3,0,16.9-6.5,17-14.4L140.3,177.7z"/>
		<path class="st14" d="M133.1,183.4C133.1,183.4,133.1,183.4,133.1,183.4L133.1,183.4c0-1-1.2-1.8-2.6-1.8h-14.3
			c-1.4,0-2.6,0.8-2.6,1.8l0,0c0,0,0,0,0,0c0,0,0,0,0,0l0,0c0,3.9,4.4,7,9.7,7C128.7,190.5,133.1,187.3,133.1,183.4L133.1,183.4
			C133.1,183.4,133.1,183.4,133.1,183.4z"/>
		<path class="st15" d="M152.6,156.6c0,1.2-1,2.1-2.1,2.1c-1.2,0-2.1-1-2.1-2.1c0-1.2,1-2.1,2.1-2.1
			C151.6,154.4,152.6,155.4,152.6,156.6z"/>
		<path class="st15" d="M90.3,156.6c0,1.2-1,2.1-2.1,2.1c-1.2,0-2.1-1-2.1-2.1c0-1.2,1-2.1,2.1-2.1
			C89.4,154.4,90.3,155.4,90.3,156.6z"/>
	</g>
	<g>
		<path class="st16" d="M147.5,114.8H98.4c-1.3,0-2.3-1.8-2.3-4.1l0,0c0-2.2,1-4.1,2.3-4.1h49.1c1.3,0,2.3,1.8,2.3,4.1l0,0
			C149.8,113,148.8,114.8,147.5,114.8z"/>
		<path class="st16" d="M147.5,144H98.4c-1.3,0-2.3-1.8-2.3-4.1l0,0c0-2.2,1-4.1,2.3-4.1h49.1c1.3,0,2.3,1.8,2.3,4.1l0,0
			C149.8,142.2,148.8,144,147.5,144z"/>
		<path class="st16" d="M147.5,129H98.4c-1.3,0-2.3-1.8-2.3-4.1l0,0c0-2.2,1-4.1,2.3-4.1h49.1c1.3,0,2.3,1.8,2.3,4.1l0,0
			C149.8,127.1,148.8,129,147.5,129z"/>
	</g>
	<g>
		<path class="st17" d="M71.6,35.7v48c0,3.2,2.6,5.8,5.8,5.8h0.1c3.2,0,5.8-2.6,5.8-5.8V39.6C79.5,38.1,75.6,36.8,71.6,35.7z"/>
		<path class="st4" d="M77.5,92.6L77.5,92.6c-4.9,0-8.9-3.9-8.9-8.8v-48c0-0.9,0.4-1.8,1.2-2.4c0.7-0.6,1.7-0.7,2.6-0.5
			c4.1,1.1,8.1,2.4,12,4c1.1,0.4,1.9,1.5,1.9,2.8v44.2C86.3,88.6,82.3,92.6,77.5,92.6z M74.5,39.7v44.1c0,1.6,1.3,2.9,2.9,2.9h0.1
			c1.6,0,2.9-1.3,2.9-2.9V41.7C78.4,41,76.5,40.3,74.5,39.7z"/>
	</g>
	<g>
		<path class="st17" d="M99.3,76.4L99.3,76.4c3.3,0,5.9-2.6,5.9-5.8V50.8c-3.8-2.4-7.7-4.7-11.7-6.7v26.4
			C93.5,73.7,96.1,76.4,99.3,76.4z"/>
		<path class="st4" d="M99.4,79.3L99.4,79.3c-4.9,0-8.9-3.9-8.9-8.8V44.1c0-1,0.5-2,1.4-2.5c0.9-0.5,2-0.6,2.9-0.1
			c4.1,2.1,8.2,4.4,12,6.9c0.8,0.5,1.4,1.5,1.4,2.5v19.7C108.2,75.4,104.2,79.3,99.4,79.3z M96.4,49v21.5c0,1.6,1.3,2.9,2.9,2.9h0.1
			c1.6,0,2.9-1.3,2.9-2.9V52.5C100.3,51.3,98.4,50.1,96.4,49z"/>
	</g>
</g>
</svg>
