<?xml version="1.0" encoding="utf-8"?>
<!-- Generator: Adobe Illustrator 24.1.2, SVG Export Plug-In . SVG Version: 6.00 Build 0)  -->
<svg version="1.1" id="Layer_1" xmlns="http://www.w3.org/2000/svg" xmlns:xlink="http://www.w3.org/1999/xlink" x="0px" y="0px"
	 viewBox="0 0 800 800" style="enable-background:new 0 0 800 800;" xml:space="preserve">
<style type="text/css">
	.st0{fill:#EAEAEA;}
	.st1{fill:#E5BE97;}
	.st2{fill:#604221;}
	.st3{fill:#604221;stroke:#604221;stroke-width:5;stroke-miterlimit:10;}
	.st4{fill:#7E3629;}
	.st5{fill:#3F7D3B;}
	.st6{fill:#B8703E;}
	.st7{fill:#ADE8A8;}
	.st8{fill:#6BB267;}
	.st9{fill:#C5795B;}
	.st10{fill:#CCCDCD;}
	.st11{fill:#F8E8CE;}
	.st12{fill:#FF5A5A;}
	.st13{fill:#FFFFFF;}
	.st14{fill:#EFD2AF;}
	.st15{fill:#F57745;}
</style>
<g>
	<ellipse class="st0" cx="402.4" cy="678.4" rx="196.8" ry="46.3"/>
	<g>
		<g>
			<ellipse class="st1" cx="406.8" cy="239.8" rx="174.9" ry="152.6"/>
			<path class="st2" d="M406.8,401.3c-101.4,0-183.9-72.5-183.9-161.6S305.4,78.2,406.8,78.2c101.4,0,183.9,72.5,183.9,161.6
				S508.2,401.3,406.8,401.3z M406.8,96.2c-91.5,0-165.9,64.4-165.9,143.6s74.4,143.6,165.9,143.6c91.5,0,165.9-64.4,165.9-143.6
				S498.3,96.2,406.8,96.2z"/>
		</g>
		<g>
			<path class="st3" d="M529.8,225.3c-5.9-3.7-7.8-6.2-4.2-11.6c2.9-4.3,12.2-15.1,13.2-16.6c0.4-0.6-2.9-26.3-20.5-25.6
				c-1.6,0.1-18.4-0.9-22.9-7.3c-3.4-4.7-7.5-9.3-13.8-10.8c-3.4-0.8-4.4-2.4-5.1-5.3c-2.3-9.1-8.8-13.7-18.9-13.6
				c-4.2,0-8.4,0.3-12.6,0.5c-2.5-0.8-3.9-2.7-5.4-4.5c-10.3-11.5-21.5-12.1-32.3-1.7c-0.6,0.6-1.3,1.2-1.9,1.9
				c-1.8-1.3-2.5-3-2.9-4.5c-1.6-7.3-6.7-9.9-14.1-11c-10.6-1.6-21.2-3.2-31.8-4.4c-6.6-0.7-9.4,1.7-11.2,7
				c-3.4,10-6.1,20.2-7.7,30.6c-0.2,1.6-0.6,3.2-1,5.5c-3.4-3.3-6.6-5.8-10.2-8c-43.1-16.2-55.9,72.7-55.9,78.4
				c-0.1,14.9,67.7,19,131.8,69.8c1.8-1.3,2.8-2,3.1-2c16.1-11.9,35-18.9,54.7-24.3C481.6,261.9,583.7,259,529.8,225.3z
				 M410.2,137.2c1-1.2,16.3-6.6,19.6-2.6c3.5,4.2,6.9,8.3,12.5,10.3c4.9,1,9.6,0.3,14.4-0.2c3.4-0.3,6.7,0.3,8.2,3.5
				c1.6,3.2,1.9,6.4-0.8,9.4c-1.9,2.1-3.6,4.4-5.3,6.6c-0.7,1.8-0.4,4.4-3.4,4.5c-3,0.1-3.3-2.3-4.2-4.2
				c-6.7-15.3-24.2-19.3-36.8-8.5c-3.1,2.6-5.7,5.6-8.2,8.7c-2.1,2.6-5.2,4-8.4,2.1c-3.4-2-0.8-4.6,0.2-6.9
				C401.3,151.9,405,144.1,410.2,137.2z M430.3,188.2c-0.3-4.1,1.1-6.5,5.3-7.6c2.6-0.7,5-2.1,8-3.4c0.3,3.1-0.7,5.5-1.6,8
				c-1.5,6.8-3.3,13.5-4.4,20.4c-0.6,3.7-2.3,4-5.5,2.6c-2.9-0.4-2-2.4-2-3.9C430.1,198.9,430.6,193.5,430.3,188.2z M434.8,170.3
				c-0.3,0.2-0.6,0.6-0.9,0.6c-11.7,2.2-15.5,9.3-14.2,19.7c0.3,3.9,0.4,7.8,0.8,11.7c0.4,4.1-2.1,5.7-5.8,7.1
				c-4.4,1.6-6.8,0.8-8.9-3.5c-6.2-12.7-20.4-18.9-34.5-15.4c-1.9,0.5-3.9,0.8-5.8,1.1c-0.8,0.4-1.6,0.7-2.3,1.1
				c-0.3,0-0.5,0.1-0.8,0.1l0.8-0.2c0.7-0.5,1.5-1,2.2-1.4c2.3-3.3,4.7-6.6,7-9.9c1.1-1.6,2.1-3.1,4.5-2.8c0.7-5,4.5-5.5,8.8-4.5
				c3.1,0.7,6.1,2.1,9.1,3.1c5.9,1.8,11.5,1.5,16.5-1.9c3.9-3.2,6.5-7.3,9.8-10.9c5.9-6.6,17.7-6.6,24.2-0.3c1.9,1.9,2.3,3-0.8,3.7
				C441.2,168.5,438,169.4,434.8,170.3z M394.3,132.5c3.5,3.2,3.7,5.9,1.7,9.2c-2.9,4.8-5.6,9.9-6.3,15.4c-0.8,6.3-4.3,6.8-10.1,5.1
				C383.5,151.9,389.2,142.6,394.3,132.5z M343.9,171.4c0.3-1.8,0.5-3.6,0.7-5.5c0.3-2.1,0.6-4.2,0.9-6.2c0.8-12.5,4.8-24.2,8.7-36
				c0.9-2.6,2.5-3.3,5.4-2.8c7,1.1,14,2.1,21,2.8c5.7,0.5,6,2.6,2.9,6.1c-3.7,8.8-7.5,17.6-11.2,26.3c-2.8,7.6-5.5,15.3-11,21.6
				c-2.8,3.1-5.4,7.8-10.9,5.8C344.8,181.5,343.2,176.7,343.9,171.4z M336.2,222.4c-0.7,5.6-1.3,11.3-2,16.9
				c-0.4,3.3-3.3,2.4-5.1,1.7c-3.2-1.2-6.1-3-9.2-4.5c-1.5,0.4-2.9,0.1-4.3-0.5c-1.9-0.6-4.3-1.1-3.1-3.7
				c2.9-6.4,5.8-12.8,14.6-13.9l0,0c0.9-1.1,2.2-1.3,3.7-1.1c2.5-0.1,5.3-1.2,7.1,1.1C338.9,219.6,337.2,221.1,336.2,222.4z
				 M303.5,227.9c-1.7,5.7-5.8,2.3-9.1,1.2c-2.7-0.1-5.2-0.7-7.6-1.9c-3.1,0-6,0.1-6.1-4.2c-0.5-22.6,5.9-42.8,21.1-60.2
				c2.5-2.9,5.6-5.2,9.3-6.7c7.3-2.9,12.5-1.1,16.6,5.5c1.6,5.4,2.9,11,4.8,16.3c3.4,9.7,9.8,16.6,21.6,17.4
				c0.9-0.1,1.9-0.1,2.8-0.2c0.7,0,0.8,0.2,0.1,0.5c-3.4,4.7-9,7.6-12,12.7c-1.2,2.1-3.4,1.3-5.4,0.8
				C322.3,204.8,307.8,213,303.5,227.9z M442.2,262.5l-1.4,0.2c-0.2-0.1-0.4-0.2-0.7-0.4c-12.1,5.8-24.9,10.4-36.1,17.6
				c-1.9,1.2-4.3,1-6.1-0.7c-10.2-9.7-23.3-15.4-35.2-22.9c-2.5-1.6-4.4-3.1-1.9-5.8c2.4-4.4,5.6-8.1,10.5-10.2
				c3.5-2.1,7.2-2.2,11-0.3c7.7,3.4,14.9,7.9,23.1,10.5c2.8-1.2,1.8-3.1,0.4-4.5c-9.3-8.6-18.2-18-33-17.5
				c-9.8,3.7-17.2,9.5-20.7,19c-0.8,2.1-2.4,2.1-4.3,1c-3.8-0.5-6.1-2.5-5.5-6.1c2.3-15.9,8.7-29.6,23.7-38.4
				c7.1-4.2,14.8-5.4,22.9-1.4c2.4,1.2,4.5,2.8,4.9,5.5c10,14.7,10,14.6,27.9,10.7c6.8-1.5,12.9,0.6,17.5,5.6
				c9.2,10,9.4,22.1,9.5,34C448.5,261.7,444.3,261.2,442.2,262.5z M445.2,214.8c-1.5-1.4-0.3-3.2,0.2-4.8c1-3.4,2.1-6.7,3.1-10.1
				c0.7-2,1.4-3.9,2-5.9c0.7-2.9,1.4-5.8,2.1-8.6c1.8-6.6,1.8-6.6,8.8-4c2.2,0.1,4,1.1,5.9,2c0.6,0.1,1.3,0,1.8,0.2
				c12.4,5.5,11.8,2.6,5.6,13.5c-6.2,10.8-11.9,21.9-18.4,33.8C453.2,224.7,450,219.3,445.2,214.8z M479.1,250.5
				c-0.6,3.1-3.2,3.2-5.9,3.2c-1.3,0.3-2.6,0.8-4,1c-3,0.3-7.4,2.9-8.7,0.4c-1.6-3.1-2.1-7.6,0.3-11.1c1.9-2.9,4-5.8,5.9-8.7
				c0.2-3,1.5-4,4.6-2.1C476.2,236.2,480.2,245.2,479.1,250.5z M516.8,250.4c-7.4,0.2-14.9,0.4-22.3,1c-3.8,0.3-5.6-0.1-5.3-4.3
				c0.7-9.5-3.6-17.1-12.3-22.6c-3-1.9-3.5-3.7-1.8-6.5c3.8-6,7.5-12,11.2-18.1c1.8-3.7,3.2-7.5,5.4-10.9c2.5-4,0.8-6.2-3.2-8
				c-5-2.2-9.9-4.5-14.8-6.7c-2.4-0.3-6-0.6-6.1-2.6c-0.1-3,2.5-5.6,5.2-7.5c2.4-1.7,5.1-2,7.7-0.1c3.4,2.5,5.8,5.7,8.1,9
				c6.9,8,15.7,10,26.1,9c4.4-0.4,9.5-2.5,13.4,2.1c3.7,5.2,0.1,8.9-2.9,12.3c-3.6,4.1-7,8.4-9.9,13c-5.7,9.1-3.1,17.7,6.8,23.5
				c3.6,2.1,8.9,3.2,7.4,8.9C528.4,246.9,523.1,250.2,516.8,250.4z"/>
			<path class="st4" d="M405.4,250.4c2.8-1.2,1.8-3.1,0.4-4.5c-9.3-8.6-18.2-18-33-17.5c4-6.7,11-8.6,18.9-4.7
				c3.6,1.8,7,4.1,10.5,5.9c7.6,3.9,17.5,3,22.5-1.9c5.7-5.5,8.3-5.4,12.8,1.5c7.1,10.8,5.6,21.9,2.5,33.1
				c-12.1,5.8-24.9,10.4-36.1,17.6c-1.9,1.2-4.3,1-6.1-0.7c-10.2-9.7-23.3-15.4-35.2-22.9c-2.5-1.6-4.4-3.1-1.9-5.8
				c9.8-4.6,19.1-4.5,27.7,3.5c1.6,1.5,3.6,2.5,5.6,3.5c3.2,1.7,6.7,1.9,9.9,0.4C407.4,256.2,405.6,253.1,405.4,250.4z"/>
			<path class="st5" d="M528.3,184.2c3.7,5.2,0.1,8.9-2.9,12.3c-3.6,4.1-7,8.4-9.9,13c-5.7,9.1-3.1,17.7,6.8,23.5
				c3.6,2.1,8.9,3.2,7.4,8.9c-1.3,4.9-6.6,8.2-12.9,8.4c-7.4,0.2-14.9,0.4-22.3,1c-3.8,0.3-5.6-0.1-5.3-4.3
				c0.7-9.5-3.6-17.1-12.3-22.6c-3-1.9-3.5-3.7-1.8-6.5c3.8-6,7.5-12,11.2-18.1c3.7,4.6,8,4.6,13.4,2.8
				C511.3,199,519.8,191.7,528.3,184.2z M484.3,218.6c4.4,0.6,8-1.9,12-3.3c1.7-0.6,2.8-2.1,2.1-4.1c-0.8-2.2-2.7-2.8-4.9-2.5
				c-4.1,0.7-7.3,2.9-9.9,5.6C482.5,215.6,482.4,217.1,484.3,218.6z M498.5,226.2c-2-0.5-4.1-0.5-5.4,1.1c-1,1.3-0.3,2.5,1.2,3.1
				c1.8,0.7,3.6,0.6,4.8-0.9C500.2,228.4,500.1,227.2,498.5,226.2z"/>
			<path class="st6" d="M440.1,262.4c3.1-11.1,4.6-22.3-2.5-33.1c-4.5-6.9-7.1-7-12.8-1.5c-5,4.8-15,5.7-22.5,1.9
				c-3.6-1.8-6.9-4.1-10.5-5.9c-7.9-3.8-14.9-2-18.9,4.7c-9.8,3.7-17.2,9.5-20.7,19c-0.8,2.1-2.4,2.1-4.3,1
				c1.3-11.5,6.2-21.5,13.3-30.7c1.6-2,3.3-2.6,6.2-1.7c7.5,2.3,11.2,0.5,12.8-6.8c0.7-3.1,2.1-3.8,5.2-3.7c3.2,0.1,5.9,0.8,8.5,2.6
				c10,14.7,10,14.6,27.9,10.7c6.8-1.5,12.9,0.6,17.5,5.6c9.2,10,9.4,22.1,9.5,34c0,3.4-4.2,2.8-6.3,4.1c-0.5,0.1-0.9,0.1-1.4,0.2
				C440.5,262.6,440.3,262.5,440.1,262.4z"/>
			<path class="st5" d="M357,195.7c-3.4,4.7-9,7.6-12,12.7c-1.2,2.1-3.4,1.3-5.4,0.8c-17.3-4.5-31.8,3.7-36.1,18.7
				c-1.7,5.7-5.8,2.3-9.1,1.2c-1.3-8-0.7-15.6,3.1-22.8c4.4,0.5,6-1.1,4.6-5.1c-0.5-1.4-0.6-2.9-0.9-4.4c2.6-2.3,5.1-4.7,7.7-7
				c-0.2,2.4-0.6,4.7-0.6,7.1c0,2.7,0.7,5.6,4.3,5.7c3.3,0.1,3.8-2.7,3.9-5.2c0.1-4.2,0-8.4,0-12.7c7.8,1.5,15.5,2.4,21.6,8.6
				c6.1,6.3,8.3,6.2,16,2.1c0.9-0.1,1.9-0.1,2.8-0.2L357,195.7z M331.5,199.9c0.8-2,1.2-4-1.1-5.5c-1.6-1-3.3-0.7-4.1,0.9
				c-1.1,2.1-1.4,4.4,1.2,5.9C329.2,202.2,330.5,201.3,331.5,199.9z"/>
			<path class="st7" d="M286.7,227.1c-3.1,0-6,0.1-6.1-4.2c-0.5-22.6,5.9-42.8,21.1-60.2c2.5-2.9,5.6-5.2,9.3-6.7
				c7.3-2.9,12.5-1.1,16.6,5.5c-19.1,4.6-26,19.1-32.3,34.2c-0.3,0.7-0.5,1.4-0.8,2C289.5,207,287.6,216.9,286.7,227.1z"/>
			<path class="st7" d="M344.6,165.9c0.3-2.1,0.6-4.2,0.9-6.2c2.8-8.7,6.8-16.8,11.2-24.8c1.6-2.9,2.8-6.4,7.4-6.2
				c6.4,0.3,12.9,0.7,19.3,1.1c-3.7,8.8-7.5,17.6-11.2,26.3c-2.7,0.4-4.3,2.4-6.4,3.6C359.4,163.4,353.3,168.1,344.6,165.9z"/>
			<path class="st8" d="M467.5,183.5c0.6,0.1,1.3,0,1.8,0.2c12.4,5.5,11.8,2.6,5.6,13.5c-6.2,10.8-11.9,21.9-18.4,33.8
				c-3.2-6.3-6.5-11.7-11.2-16.2c-1.5-1.4-0.3-3.2,0.2-4.8c1-3.4,2.1-6.7,3.1-10.1c6.6-4.8,11.9-10.9,19.4-14.6
				C468.8,185,467.9,184.1,467.5,183.5z"/>
			<path class="st8" d="M295.4,195.8c6.3-15,13.1-29.6,32.3-34.2c1.6,5.5,2.9,11,4.8,16.3c3.4,9.7,9.8,16.6,21.6,17.4
				c-7.7,4.1-9.9,4.2-16-2.1c-6-6.2-13.8-7.1-21.6-8.6c-7.2-4.2-5.9,2.2-7.5,5c-2.6,2.3-5.1,4.7-7.7,7
				C299.4,194.9,297.5,194.6,295.4,195.8z"/>
			<path class="st8" d="M528.3,184.2c-8.4,7.5-17,14.7-28.4,18.4c-5.4,1.8-9.7,1.8-13.4-2.8c1.8-3.7,3.2-7.5,5.4-10.9
				c2.5-4,0.8-6.2-3.2-8c-5-2.2-9.9-4.5-14.8-6.7c4.3-5.5,9.6-3.2,14.9-1.1c6.9,8,15.7,10,26.1,9
				C519.2,181.7,524.4,179.6,528.3,184.2z"/>
			<path class="st5" d="M458.9,164.1c-0.7,1.8-0.4,4.4-3.4,4.5c-3,0.1-3.3-2.3-4.2-4.2c-6.7-15.3-24.2-19.3-36.8-8.5
				c-3.1,2.6-5.7,5.6-8.2,8.7c-2.1,2.6-5.2,4-8.4,2.1c-3.4-2-0.8-4.6,0.2-6.9c3.3-7.9,7-15.6,12.2-22.6c1.8-2.6,1.8-2.6,3.2-3
				c4.4-1.2,10.5,2.3,12.7,6.4c3.2,5.8,8.3,7.9,14.5,8.8C449.9,150.8,456,155.8,458.9,164.1z"/>
			<path class="st5" d="M419.7,190.6c0.3,3.9,0.4,7.8,0.8,11.7c0.4,4.1-2.1,5.7-5.8,7.1c-4.4,1.6-6.8,0.8-8.9-3.5
				c-6.2-12.7-20.4-18.9-34.5-15.4c-1.9,0.5-3.9,0.8-5.8,1.1c0,0-0.2-0.4-0.2-0.4c2.3-3.3,4.7-6.6,7-9.9c1.1-1.6,2.1-3.1,4.5-2.8
				c2.2,0.4,4.3,0.9,6.5,1.2c6,0.6,11.7,1.9,15.6,6.6C404.8,193.4,411.8,193.9,419.7,190.6z"/>
			<path class="st9" d="M393.6,208c-2.5-1.8-5.3-2.5-8.5-2.6c-3.1-0.1-4.5,0.6-5.2,3.7c-1.6,7.3-5.2,9.2-12.8,6.8
				c-2.8-0.9-4.6-0.3-6.2,1.7c-7.1,9.2-12,19.2-13.3,30.7c-3.8-0.5-6.1-2.5-5.5-6.1c2.3-15.9,8.7-29.6,23.7-38.4
				c7.1-4.2,14.8-5.4,22.9-1.4C391.1,203.7,393.3,205.3,393.6,208z"/>
			<path class="st8" d="M419.7,190.6c-7.9,3.3-14.9,2.8-20.7-4.4c-3.9-4.7-9.6-6-15.6-6.6c-2.2-0.2-4.3-0.8-6.5-1.2
				c0.7-5,4.5-5.5,8.8-4.5c3.1,0.7,6.1,2.1,9.1,3.1c5.9,1.8,11.5,1.5,16.5-1.9c4.6,0.6,7.1-2.8,10.3-4.7c4.3-2.6,8.6-3.9,13.2-0.2
				c-0.3,0.2-0.6,0.6-0.9,0.6C422.2,173.1,418.3,180.2,419.7,190.6z"/>
			<path class="st8" d="M344.6,165.9c8.6,2.1,14.8-2.5,21.2-6.1c2.1-1.2,3.7-3.2,6.4-3.6c-2.8,7.6-5.5,15.3-11,21.6
				c-2.8,3.1-5.4,7.8-10.9,5.8c-5.5-2.1-7.2-6.9-6.4-12.2C344.1,169.6,344.4,167.7,344.6,165.9z"/>
			<path class="st6" d="M405.4,250.4c0.3,2.7,2,5.8-1.5,7.5c-3.2,1.6-6.6,1.3-9.9-0.4c-2-1-4-2.1-5.6-3.5c-8.6-8-17.9-8-27.7-3.5
				c2.4-4.4,5.6-8,10.5-10.2c4.8,5.6,6.9,5.6,11-0.3C390,243.4,397.2,247.9,405.4,250.4z"/>
			<path class="st10" d="M383.4,129.8c-6.4-0.4-12.9-0.8-19.3-1.1c-4.6-0.2-5.8,3.3-7.4,6.2c-4.4,8-8.5,16.1-11.2,24.8
				c0.8-12.5,4.8-24.2,8.7-36c0.9-2.6,2.5-3.3,5.4-2.8c7,1.1,14,2.1,21,2.8C386.2,124.2,386.5,126.3,383.4,129.8z"/>
			<path class="st7" d="M434.8,170.3c-4.6-3.7-8.9-2.5-13.2,0.2c-3.2,1.9-5.6,5.3-10.3,4.7c3.9-3.2,6.5-7.3,9.8-10.9
				c5.9-6.6,17.7-6.6,24.2-0.3c1.9,1.9,2.3,3-0.8,3.7C441.2,168.5,438,169.4,434.8,170.3z"/>
			<path class="st4" d="M473.3,253.7c-1.3,0.3-2.6,0.8-4,1c-3,0.3-7.4,2.9-8.7,0.4c-1.6-3.1-2.1-7.6,0.3-11.1c1.9-2.9,4-5.8,5.9-8.7
				C473.8,240.1,475.3,246.4,473.3,253.7z"/>
			<path class="st8" d="M379.6,162.3c3.9-10.4,9.6-19.7,14.7-29.7c3.5,3.2,3.7,5.9,1.7,9.2c-2.9,4.8-5.6,9.9-6.3,15.4
				C388.9,163.4,385.4,163.9,379.6,162.3z"/>
			<path class="st4" d="M336.2,222.4c-0.7,5.6-1.3,11.3-2,16.9c-0.4,3.3-3.3,2.4-5.1,1.7c-3.2-1.2-6.1-3-9.2-4.5
				C323.1,229.6,326.6,223,336.2,222.4z"/>
			<path class="st8" d="M286.7,227.1c0.9-10.2,2.8-20.1,7.9-29.2c0.9,2.8,1.9,5.6,2.8,8.4c-3.8,7.2-4.4,14.8-3.1,22.8
				C291.6,228.9,289.1,228.4,286.7,227.1z"/>
			<path class="st10" d="M432,208.2c-2.9-0.4-2-2.4-2-3.9c0.1-5.4,0.6-10.7,0.2-16.1c-0.3-4.1,1.1-6.5,5.3-7.6c2.6-0.7,5-2.1,8-3.4
				c0.3,3.1-0.7,5.5-1.6,8c-5.3,0.2-7,3.6-7.7,7.7C433.4,197.9,432.8,203,432,208.2z"/>
			<path class="st7" d="M488.8,173.2c-5.3-2.1-10.6-4.5-14.9,1.1c-2.4-0.3-6-0.6-6.1-2.6c-0.1-3,2.5-5.6,5.2-7.5
				c2.4-1.7,5.1-2,7.7-0.1C484.1,166.6,486.5,169.8,488.8,173.2z"/>
			<path class="st7" d="M432,208.2c0.7-5.1,1.4-10.2,2.2-15.3c0.7-4.1,2.4-7.5,7.7-7.7c-1.5,6.8-3.3,13.5-4.4,20.4
				C436.9,209.2,435.2,209.6,432,208.2z"/>
			<path class="st6" d="M473.3,253.7c2-7.3,0.5-13.6-6.5-18.5c0.2-3,1.5-4,4.6-2.1c4.8,3.1,8.8,12,7.7,17.4
				C478.5,253.6,475.9,253.7,473.3,253.7z"/>
			<path class="st7" d="M467.5,183.5c0.4,0.6,1.3,1.5,0.5,1.9c-7.5,3.7-12.9,9.8-19.4,14.6c0.7-2,1.4-3.9,2-5.9
				c3.8-4.1,4.6-10.5,11-12.6C463.8,181.5,465.6,182.6,467.5,183.5z"/>
			<path class="st8" d="M464.9,148.2c-1.6-3.3-4.8-3.9-8.2-3.5c-4.8,0.5-9.5,1.2-14.4,0.2c-5.6-1.9-9-6.1-12.5-10.3
				c-8.1-9.7-14.2-2.4-18.3,0.7c4.5,0.2,12.3,1.2,14.6,5.3c3.2,5.8,8.3,7.9,14.5,8.8c9.3,1.4,15.3,6.4,18.2,14.7
				c1.8-2.2,3.4-4.5,5.3-6.6C466.9,154.6,466.5,151.4,464.9,148.2z"/>
			<path class="st9" d="M337.9,218.2c-15-9.3-22.5,7.6-25.4,14c-1.2,2.5,1.2,3.1,3.1,3.7c1.4,0.6,2.8,0.9,4.3,0.5
				c3.2-6.9,6.7-13.5,16.3-14C337.2,221.1,339.3,219.1,337.9,218.2z"/>
			<path class="st10" d="M461.6,181.5c-6.4,2.1-7.2,8.5-11,12.6c0.7-2.9,1.4-5.8,2.1-8.6C454.5,178.9,454.6,178.9,461.6,181.5z"/>
			<path class="st9" d="M382.3,240c-4.2,5.9-6.3,5.9-11,0.3C374.8,238.2,378.5,238.1,382.3,240z"/>
			<path class="st8" d="M410.2,137.2"/>
			<path class="st5" d="M363.1,192.6c0.7-0.5,1.5-1,2.2-1.4c0,0,0.2,0.4,0.2,0.4C364.7,191.9,363.9,192.3,363.1,192.6
				C363.1,192.6,363.1,192.6,363.1,192.6z"/>
			<path class="st4" d="M440.8,262.7c0.5-0.1,0.9-0.1,1.4-0.2C441.7,262.6,441.2,262.6,440.8,262.7z"/>
			<path class="st5" d="M356.9,195.2c0.7,0,0.8,0.2,0.1,0.5C357,195.7,356.9,195.2,356.9,195.2z"/>
			<path class="st3" d="M484.3,218.6c-1.9-1.6-1.8-3.1-0.7-4.2c2.7-2.7,5.8-5,9.9-5.6c2.1-0.3,4.1,0.3,4.9,2.5
				c0.7,1.9-0.4,3.4-2.1,4.1C492.3,216.7,488.7,219.2,484.3,218.6z"/>
			<path class="st3" d="M498.5,226.2c1.6,1,1.7,2.1,0.7,3.3c-1.2,1.5-3,1.7-4.8,0.9c-1.5-0.6-2.3-1.9-1.2-3.1
				C494.5,225.8,496.5,225.7,498.5,226.2z"/>
			<path class="st3" d="M316.4,182.4c-0.1,2.4-0.5,20.1-3.9,20c-3.6-0.1-4.8-13.7-4.3-16.3C309.6,179,316.6,178.2,316.4,182.4z"/>
			<path class="st3" d="M297.4,206.3c-0.9-2.8-1.9-5.6-2.8-8.4c0.3-0.7,0.5-1.4,0.8-2c2.1-1.2,4.1-1,5.8,0.9c0.3,1.5,0.4,3,0.9,4.4
				C303.4,205.2,301.8,206.7,297.4,206.3z"/>
			<path class="st3" d="M331.5,199.9c-1,1.4-2.3,2.3-4,1.3c-2.6-1.5-2.3-3.8-1.2-5.9c0.8-1.6,2.5-1.9,4.1-0.9
				C332.7,195.9,332.3,197.9,331.5,199.9z"/>
		</g>
		<g>
			<path class="st11" d="M265.5,628.7l-15-111.5c-0.3-4.3,0.3-8.7,1.6-12.8C295.6,371,404.8,267.4,541.5,231.9
				c20.7-5.4,41.4,9.7,42.2,31.1c0,0.2,0,0.3,0,0.5c0,0.9,0,1.9-0.1,2.8L552,628.7c0,31.1-25.4,56.5-56.5,56.5H322.1
				C291,685.2,265.5,659.8,265.5,628.7z"/>
			<path class="st2" d="M495.5,694.2H322.1c-35.9,0-65.2-29-65.5-64.9l-14.9-110.9c0-0.2,0-0.4-0.1-0.6c-0.4-5.5,0.3-10.9,2-16.2
				c21.8-67,60.6-128,112.1-176.6c51.7-48.8,115.2-83.9,183.6-101.7c12.7-3.3,25.9-0.7,36.4,7.2c10.3,7.7,16.5,19.5,16.9,32.3l0,0.6
				c0,1,0,2.2-0.1,3.5c0,0.1,0,0.1,0,0.2l-31.5,362C560.8,665,531.5,694.2,495.5,694.2z M259.4,516.3l15,111.2
				c0.1,0.4,0.1,0.8,0.1,1.2c0,26.2,21.3,47.6,47.6,47.6h173.4c26.2,0,47.6-21.3,47.6-47.6c0-0.3,0-0.5,0-0.8l31.6-362.3
				c0-0.8,0.1-1.4,0.1-1.9l0-0.4c-0.2-7.3-3.8-14.1-9.7-18.5c-6.1-4.6-13.8-6.1-21.2-4.2c-65.5,17-126.3,50.7-175.8,97.4
				c-49.3,46.5-86.4,105-107.3,169.1C259.7,510.1,259.3,513.2,259.4,516.3z"/>
		</g>
		<path class="st1" d="M497.1,318.4c-15.1-14.6-31.5-27.7-49-39c-20.3,11.7-39.3,25.7-56.6,41.6c-25.9,23.8-47.7,51.6-64.5,82.2
			l10.7,144.9c-0.2,27.4,21.9,49.9,49.3,50.3l127.1,1.7c17.8-7.4,34.7-24.8,35.1-45.2l13.1-150.4C546,373.1,522.7,343.2,497.1,318.4
			z"/>
		<g>
			<path class="st11" d="M545.8,628.7l15-111.5c0.3-4.3-0.3-8.7-1.6-12.8C515.7,371,406.5,267.4,269.8,231.9
				c-20.7-5.4-41.4,9.7-42.2,31.1c0,0.2,0,0.3,0,0.5c0,0.9,0,1.9,0.1,2.8l31.6,362.4c0,31.1,25.4,56.5,56.5,56.5h173.4
				C520.3,685.2,545.8,659.8,545.8,628.7z"/>
			<path class="st2" d="M489.2,694.2H315.8c-36,0-65.3-29.2-65.5-65.1l-31.5-362c0-0.1,0-0.1,0-0.2c-0.1-1.4-0.1-2.5-0.1-3.6l0-0.5
				c0.4-12.8,6.6-24.6,16.9-32.3c10.5-7.9,23.8-10.5,36.4-7.2c68.4,17.8,131.9,52.9,183.6,101.7c51.5,48.6,90.3,109.7,112.1,176.6
				c1.7,5.3,2.4,10.7,2,16.2c0,0.2,0,0.4-0.1,0.6l-14.9,110.9C554.4,665.1,525.1,694.2,489.2,694.2z M236.7,265.6l31.6,362.3
				c0,0.3,0,0.5,0,0.8c0,26.2,21.3,47.6,47.6,47.6h173.4c26.2,0,47.6-21.3,47.6-47.6c0-0.4,0-0.8,0.1-1.2l15-111.2
				c0.2-3.1-0.2-6.2-1.2-9.2c-20.9-64.1-58-122.6-107.3-169.1c-49.5-46.7-110.3-80.4-175.8-97.4c-7.4-1.9-15.1-0.4-21.2,4.2
				c-6,4.4-9.5,11.2-9.7,18.5l0,0.4C236.6,264.2,236.6,264.8,236.7,265.6z"/>
		</g>
	</g>
	<g>
		<path class="st2" d="M326.3,522c-14.5,0-26.3,11.8-26.3,26.3c0,14.5,11.8,26.3,26.3,26.3c14.5,0,26.3-11.8,26.3-26.3
			C352.6,533.7,340.8,522,326.3,522z"/>
		<path class="st2" d="M483.7,522c-14.5,0-26.3,11.8-26.3,26.3c0,14.5,11.8,26.3,26.3,26.3c14.5,0,26.3-11.8,26.3-26.3
			C510,533.7,498.2,522,483.7,522z"/>
		<path class="st2" d="M449,593h-0.2c-1-5-6.3-8.8-12.5-8.8h-60.5c-6.3,0-11.5,3.8-12.5,8.8l-0.2,0l0.1,1.7l0,0.2l0,0.1
			c0.2,20,19.4,36.3,43,36.3c23.6,0,42.9-16.4,43-36.5L449,593z"/>
		<path class="st12" d="M430.8,607.4C430.8,607.4,430.8,607.4,430.8,607.4L430.8,607.4c0-2.5-3-4.5-6.6-4.5H388
			c-3.6,0-6.6,2-6.6,4.5l0,0c0,0,0,0,0,0c0,0,0,0,0,0l0,0c0,9.9,11.1,17.8,24.7,17.8C419.7,625.3,430.7,617.3,430.8,607.4
			L430.8,607.4C430.8,607.4,430.8,607.4,430.8,607.4z"/>
		<path class="st13" d="M480.1,539.3c0,3-2.4,5.4-5.4,5.4c-3,0-5.4-2.4-5.4-5.4c0-3,2.4-5.4,5.4-5.4
			C477.6,533.9,480.1,536.3,480.1,539.3z"/>
		<path class="st13" d="M322.4,539.3c0,3-2.4,5.4-5.4,5.4c-3,0-5.4-2.4-5.4-5.4c0-3,2.4-5.4,5.4-5.4
			C320,533.9,322.4,536.3,322.4,539.3z"/>
	</g>
	<g>
		<path class="st14" d="M467.3,433.7H342.8c-3.2,0-5.8-4.6-5.8-10.3l0,0c0-5.6,2.6-10.3,5.8-10.3h124.4c3.2,0,5.8,4.6,5.8,10.3l0,0
			C473,429,470.4,433.7,467.3,433.7z"/>
		<path class="st14" d="M467.3,507.6H342.8c-3.2,0-5.8-4.6-5.8-10.3l0,0c0-5.6,2.6-10.3,5.8-10.3h124.4c3.2,0,5.8,4.6,5.8,10.3l0,0
			C473,503,470.4,507.6,467.3,507.6z"/>
		<path class="st14" d="M467.3,469.4H342.8c-3.2,0-5.8-4.6-5.8-10.3l0,0c0-5.6,2.6-10.3,5.8-10.3h124.4c3.2,0,5.8,4.6,5.8,10.3l0,0
			C473,464.8,470.4,469.4,467.3,469.4z"/>
	</g>
	<g>
		<path class="st15" d="M274.8,233.2v121.7c0,8.1,6.7,14.8,14.8,14.8h0.2c8.1,0,14.8-6.7,14.8-14.8V243
			C294.9,239.3,285,236,274.8,233.2z"/>
		<path class="st2" d="M289.8,377.2h-0.2c-12.3,0-22.3-10-22.3-22.3V233.2c0-2.3,1.1-4.6,3-6c1.9-1.4,4.3-1.9,6.6-1.3
			c10.3,2.8,20.5,6.2,30.5,10.1c2.9,1.1,4.8,3.9,4.8,7v111.9C312.1,367.2,302.1,377.2,289.8,377.2z M282.3,243.2v111.7
			c0,4,3.3,7.3,7.3,7.3h0.2c4,0,7.3-3.3,7.3-7.3V248.2C292.2,246.4,287.3,244.8,282.3,243.2z"/>
	</g>
	<g>
		<path class="st15" d="M345.1,336.1h0.2c8.1,0,14.8-6.7,14.8-14.8v-49.9c-9.6-6.2-19.5-11.9-29.8-17v66.9
			C330.3,329.5,337,336.1,345.1,336.1z"/>
		<path class="st2" d="M345.3,343.7h-0.2c-12.3,0-22.3-10-22.3-22.3v-66.9c0-2.6,1.3-5,3.6-6.4c2.2-1.4,5-1.5,7.3-0.3
			c10.4,5.2,20.7,11.1,30.5,17.4c2.1,1.4,3.4,3.8,3.4,6.3v49.9C367.6,333.7,357.6,343.7,345.3,343.7z M337.9,266.9v54.5
			c0,4,3.3,7.3,7.3,7.3h0.2c4,0,7.3-3.3,7.3-7.3v-45.8C347.8,272.5,342.9,269.6,337.9,266.9z"/>
	</g>
</g>
</svg>
