<svg width="84" height="138" viewBox="0 0 84 138" fill="none" xmlns="http://www.w3.org/2000/svg">
<path d="M42.1298 70.3885C63.7687 70.3885 81.3104 55.0828 81.3104 36.2023C81.3104 17.3218 63.7687 2.01611 42.1298 2.01611C20.491 2.01611 2.94922 17.3218 2.94922 36.2023C2.94922 55.0828 20.491 70.3885 42.1298 70.3885Z" fill="#E5BE97"/>
<path d="M42.1306 72.3786C19.4155 72.3786 0.933594 56.1401 0.933594 36.1759C0.933594 16.2117 19.4155 0 42.1306 0C64.8458 0 83.3277 16.2384 83.3277 36.2027C83.3277 56.1669 64.8458 72.3786 42.1306 72.3786ZM42.1306 4.0329C21.6323 4.0329 4.9665 18.4552 4.9665 36.2027C4.9665 53.9501 21.6323 68.3724 42.1306 68.3724C62.629 68.3724 79.2948 53.9501 79.2948 36.2027C79.2948 18.4552 62.629 4.0329 42.1306 4.0329Z" fill="#604221"/>
<path d="M38.0033 18.976C38.3772 18.6555 38.5508 18.2281 38.6577 17.7608C38.7779 17.2533 38.8713 16.7459 39.0716 16.2518C39.2853 15.7577 39.5524 15.2903 39.8462 14.8362C40.1667 14.3288 40.3403 13.8213 40.18 13.2204C40.14 13.0602 40.0732 12.9133 40.0064 12.7664C39.9797 12.7129 39.726 12.339 39.7393 12.3257C39.3921 12.94 39.0449 13.5676 38.7111 14.1952C38.0434 15.3971 37.3757 16.599 36.748 17.8142C37.0552 18.2682 37.2956 18.7623 37.4692 19.2965C37.6695 19.2163 37.8431 19.1095 38.0033 18.976Z" fill="#EA9622"/>
<path d="M65.8619 26.8818C66.2091 26.9752 66.5563 27.0821 66.8901 27.2156C67.5712 26.5479 68.1855 25.8134 68.7196 25.0256C69.0401 24.5715 69.3339 24.0641 69.4407 23.5299C68.4125 22.6753 67.037 23.4498 65.9153 23.6234C64.847 23.797 63.7252 23.5166 62.7771 22.9958C61.8156 22.4749 61.0144 21.7271 60.2799 20.9259C60.2532 20.8992 60.2265 20.8591 60.1998 20.8324C59.7457 20.8191 59.2917 20.8591 58.8911 21.0594C58.4771 21.2731 58.1566 21.7004 58.0898 22.1544C58.8243 22.4482 59.5588 22.7821 60.2665 23.1426C60.7206 23.383 61.228 23.6768 61.4417 24.1709C61.7221 24.852 61.3082 25.533 60.9476 26.0805C60.6805 26.4945 60.4134 26.9218 60.1464 27.3358C61.7889 26.5212 63.8054 26.361 65.8619 26.8818Z" fill="#6BB267"/>
<path d="M66.8887 27.215C67.3828 27.402 67.8502 27.6156 68.3042 27.8827C68.638 27.5088 68.9585 27.1215 69.239 26.7209C69.9067 25.7594 70.5477 24.4641 69.4393 23.5293C69.3324 24.0635 69.0253 24.5709 68.7182 25.0249C68.184 25.8128 67.5697 26.5473 66.8887 27.215Z" fill="#3F7D3B"/>
<path d="M58.8894 21.0454C59.29 20.8451 59.744 20.8051 60.1981 20.8184C59.8642 20.4445 59.5304 20.0706 59.1298 19.7902C58.6891 19.483 58.1149 19.3094 57.5941 19.4563C56.9931 19.6299 56.5925 20.2041 56.3388 20.765C56.272 20.8986 56.2186 21.0588 56.2453 21.2057C56.2987 21.4594 56.5925 21.5796 56.8329 21.6597C57.2602 21.8066 57.6742 21.9535 58.0882 22.1271C58.1416 21.6998 58.4754 21.2591 58.8894 21.0454Z" fill="#ADE8A8"/>
<path d="M42.7572 16.0111C43.2246 16.0912 43.6652 16.2915 44.1326 16.3048C44.8671 16.3182 45.5482 15.9042 46.2426 15.6639C47.3109 15.3033 48.5261 15.3834 49.541 15.8775C50.0351 16.1179 50.4758 16.4384 50.9966 16.5853C51.4506 16.7055 51.9314 16.6788 52.3854 16.7455C53.3068 16.8924 54.1481 17.4399 54.6422 18.2278C54.7224 18.3614 54.8025 18.5083 54.8692 18.6551C55.2699 18.2679 55.6304 17.8005 55.7907 17.2663C55.9643 16.7055 55.8841 16.0378 55.4835 15.5971C54.9627 15.0362 54.0947 14.9962 53.3469 15.1297C52.5991 15.2632 51.8512 15.5303 51.0901 15.4235C49.6478 15.2232 48.7531 13.8076 47.7249 12.7794C47.1239 12.1785 46.3093 11.6443 45.468 11.7912C44.8938 11.898 44.4131 12.2986 43.9991 12.7126C43.0376 13.6875 42.2764 14.8225 41.582 16.0111C41.9693 15.9443 42.3699 15.9309 42.7572 16.0111Z" fill="#6BB267"/>
<path d="M39.955 19.6438C40.0752 20.1513 40.7295 20.365 41.237 20.2715C42.3053 20.0578 42.9329 19.0028 43.654 18.2016C44.5488 17.2134 45.7373 16.519 47.0192 16.2119C47.4866 16.105 47.9807 16.0383 48.4615 16.105C49.3428 16.2386 50.104 16.7861 50.6916 17.4538C51.2792 18.1215 51.7198 18.896 52.2273 19.6171C52.5611 20.0979 53.1754 20.7789 53.8164 20.3783C53.9767 20.2848 54.0835 20.1112 54.1102 19.9376C54.1503 19.6839 54.0568 19.4569 54.2304 19.2299C54.3906 19.0296 54.6177 18.896 54.8046 18.7224C54.818 18.7091 54.8447 18.6824 54.858 18.669C54.7913 18.5221 54.7245 18.3752 54.631 18.2417C54.1369 17.4538 53.2956 16.8929 52.3742 16.7594C51.9068 16.6926 51.4394 16.7193 50.9854 16.5991C50.4646 16.4656 50.0105 16.1317 49.5298 15.8914C48.5149 15.3973 47.2997 15.3171 46.2314 15.6777C45.5236 15.9181 44.8559 16.3321 44.1214 16.3187C43.654 16.3053 43.2 16.1184 42.746 16.0249C42.3587 15.9581 41.9714 15.9581 41.5842 16.0383C41.0767 16.9063 40.6227 17.8143 40.182 18.7091C40.0351 18.9895 39.8749 19.3233 39.955 19.6438Z" fill="#3F7D3B"/>
<path d="M41.7848 24.9053C42.0385 25.1056 42.2789 25.3059 42.5727 25.4528C43.5075 25.9202 44.1485 25.1724 44.8829 24.705C45.0832 24.5848 45.2969 24.5047 45.5239 24.4646C45.5373 24.3979 45.5506 24.3444 45.564 24.2777C45.7376 23.4497 46.1783 22.6885 46.7926 22.1143C47.2733 21.6603 47.8742 21.3799 48.4885 21.1528C48.5286 21.1395 48.582 21.1261 48.622 21.1128C48.5953 21.0861 48.582 21.0594 48.5553 21.0327C48.355 20.8056 48.0345 20.6854 47.7407 20.6854C47.1398 20.6721 46.619 21.0059 46.1249 21.2997C45.4305 21.7137 44.6693 22.0476 43.8814 21.8472C43.868 21.8606 43.8413 21.874 43.828 21.8873C43.3606 22.2879 42.7864 22.6485 42.1454 22.6752C41.8115 22.6885 41.5311 22.5817 41.2507 22.4348C40.9302 22.2746 40.6097 22.1277 40.2892 21.9941C39.9153 21.8472 39.528 21.7137 39.1274 21.6202C38.6733 21.5134 38.1926 21.4333 37.7252 21.4333C37.6718 22.1143 37.5115 22.782 37.2578 23.4364C38.8736 23.3162 40.4494 23.8637 41.7848 24.9053Z" fill="#6BB267"/>
<path d="M42.5593 25.453C42.2788 25.3062 42.0251 25.1058 41.7714 24.9055C40.4493 23.8639 38.8736 23.3031 37.231 23.4099C36.9906 24.0242 36.6702 24.6251 36.2695 25.186C36.7236 25.1459 37.1776 25.1459 37.6316 25.186C38.2326 25.2527 38.8201 25.3996 39.381 25.6266C40.6229 26.1608 41.6645 27.149 42.2388 28.3776C42.4658 28.8583 42.6394 29.3257 43.1468 29.5928C43.6142 29.8332 44.2152 29.8198 44.6558 29.5127C45.3235 29.0453 45.4437 28.1238 45.4304 27.3627C45.4037 26.3745 45.3502 25.4263 45.5372 24.4515C45.3102 24.4916 45.0832 24.5717 44.8962 24.6919C44.135 25.1726 43.494 25.9204 42.5593 25.453Z" fill="#3F7D3B"/>
<path d="M46.097 21.2723C46.5911 20.9786 47.1119 20.6447 47.7128 20.6581C48.02 20.6581 48.3271 20.7783 48.5274 21.0053C48.5541 21.032 48.5675 21.0587 48.5942 21.0854C49.3153 20.8183 50.0498 20.5913 50.7842 20.4043C50.9712 20.3509 51.1848 20.2975 51.2917 20.1239C51.4119 19.9102 51.305 19.6432 51.1848 19.4562C51.0647 19.2425 50.9044 19.0823 50.7175 18.9354C49.1818 17.7603 47.1787 18.6283 45.9367 19.7767C45.2156 20.431 44.588 21.1922 43.8535 21.8332C44.6548 22.0335 45.4159 21.6863 46.097 21.2723Z" fill="#ADE8A8"/>
<path d="M47.1546 31.6491C45.9127 31.5689 44.7109 32.2233 43.4556 32.1966C42.5208 32.1832 41.5994 31.7692 40.9718 31.0748C40.4509 30.514 40.1438 29.7929 39.7031 29.1652C39.4227 29.0584 39.1423 28.9649 38.8485 28.8981C38.1674 28.7379 37.3929 28.6444 36.6985 28.7512C36.2044 28.8314 35.8305 29.0851 35.6836 29.5792C35.5233 30.0866 35.55 30.6742 35.2028 31.1015C34.9625 31.4087 34.5885 31.5689 34.2013 31.5956C33.8674 31.6224 33.5603 31.5689 33.2532 31.4621C32.719 31.2618 32.2249 31.0615 31.7174 31.4354C31.4771 31.609 31.3035 31.836 31.1432 32.0764C30.4889 33.0245 29.9681 34.0661 29.5541 35.1478C29.1401 36.2028 28.8998 37.3779 28.3255 38.3661C28.3122 38.3795 28.3122 38.3928 28.2988 38.4195C28.3656 38.4596 28.4324 38.4863 28.4991 38.513C29.1134 38.7133 29.6075 38.2993 30.0081 37.8854C31.2233 36.6034 32.2115 34.9742 33.7606 34.1863C33.814 33.8792 34.0277 33.5854 34.2681 33.3584C35.0426 32.6506 36.1109 32.3034 37.1525 32.4236C38.8618 32.6105 40.2239 33.9593 41.8932 34.3733C43.0683 34.6671 44.3637 34.44 45.3919 33.7723C45.7658 33.532 46.0863 33.2382 46.4869 33.0379C46.8742 32.8376 47.3416 32.7174 47.7556 32.8776C48.0627 32.9978 48.3031 33.2515 48.5034 33.5186C49.3046 34.5736 49.7987 35.9223 49.8522 37.2577C49.9056 38.9136 49.1978 40.3692 48.5435 41.8515C48.8773 41.6913 49.2245 41.5577 49.5584 41.4108C50.1726 41.1704 50.7736 41.077 51.3612 40.89C51.7484 40.7698 52.0155 40.3826 52.0021 39.9686C51.922 38.099 51.468 36.0559 50.6801 34.4C49.9723 32.9845 48.7037 31.7559 47.1546 31.6491Z" fill="#B8703E"/>
<path d="M36.4169 38.927C37.3651 39.4879 38.1797 40.3292 39.2613 40.6363C39.6887 40.7565 40.1561 40.7832 40.57 40.6363C40.984 40.4894 41.3446 40.1422 41.4514 39.7149C41.6116 39.0338 41.1977 38.4196 40.7036 37.9522C39.7688 37.5516 38.8741 37.0441 37.9259 36.6702C36.4704 36.096 34.761 35.8422 33.4256 36.8571C32.9716 37.191 32.6511 37.6717 32.5176 38.2059C33.8396 37.9655 35.2551 38.2326 36.4169 38.927Z" fill="#B8703E"/>
<path d="M49.8241 37.2443C49.7707 35.9089 49.2899 34.5735 48.4753 33.5052C48.275 33.2381 48.0347 32.9844 47.7275 32.8642C47.3136 32.7039 46.8462 32.8107 46.4589 33.0244C46.0716 33.2247 45.7378 33.5185 45.3639 33.7589C44.349 34.4266 43.0536 34.6402 41.8651 34.3598C40.1959 33.9592 38.8338 32.6104 37.1245 32.4101C36.0962 32.2899 35.0145 32.6371 34.24 33.3449C33.9996 33.5586 33.786 33.8657 33.7325 34.1729C33.8527 34.1061 33.9729 34.0527 34.0931 33.9993C35.5086 33.425 37.1645 33.652 38.5266 34.3732C39.9288 35.121 40.9303 36.2961 41.8785 37.5247C41.972 37.6449 42.0521 37.7918 42.0521 37.952C42.0521 38.3126 41.6915 38.3259 41.4378 38.2325C41.1841 38.1523 40.9437 38.0455 40.7033 37.952C41.1841 38.4194 41.6114 39.0203 41.4512 39.7148C41.3443 40.1421 40.9838 40.4893 40.5698 40.6362C40.1558 40.7831 39.6884 40.7564 39.2611 40.6362C38.1794 40.3157 37.3648 39.4877 36.4167 38.9269C35.2549 38.2325 33.8394 37.9654 32.5307 38.2058C32.4773 38.4328 32.4506 38.6731 32.4773 38.9269C32.5841 40.1821 33.6925 40.7831 34.694 41.3039C36.7238 42.3455 38.7536 43.4672 40.4897 44.9495C40.7567 45.1765 41.0372 45.4303 41.3844 45.4703C41.7316 45.5104 42.0654 45.3368 42.3859 45.1765C44.4024 44.0815 46.4322 42.7995 48.5288 41.838C49.1698 40.3558 49.8909 38.8868 49.8241 37.2443Z" fill="#7E3629"/>
<path d="M29.5524 35.1483C29.9798 34.08 30.4872 33.0251 31.1416 32.0769C31.3018 31.8366 31.4888 31.6095 31.7158 31.4359C32.2232 31.062 32.7173 31.2757 33.2515 31.4626C33.5586 31.5828 33.8658 31.6229 34.1996 31.5962C34.5869 31.5695 34.9608 31.4092 35.2012 31.1021C35.535 30.6748 35.5217 30.0872 35.6819 29.5797C35.8422 29.0856 36.2027 28.8319 36.6968 28.7518C37.3912 28.645 38.1658 28.7384 38.8468 28.8987C39.1273 28.9655 39.421 29.0589 39.7015 29.1658C39.5412 28.9387 39.3676 28.7251 39.154 28.5381C38.0322 27.5366 36.3096 27.5766 34.8673 28.004C31.2083 29.099 28.3239 32.3974 27.6695 36.1499C27.5627 36.7508 27.5093 37.4052 27.8431 37.9527C27.95 38.1396 28.1102 38.2999 28.2972 38.4067C28.3105 38.3934 28.3105 38.38 28.3239 38.3533C28.8847 37.3785 29.1251 36.2167 29.5524 35.1483Z" fill="#CE876E"/>
<path d="M35.2022 16.3046C35.6562 15.2496 36.1369 14.208 36.6577 13.1931C36.8714 12.7658 37.0984 12.3384 37.3388 11.9245C37.3121 11.8176 37.272 11.6974 37.1919 11.604C36.7779 11.0164 35.8432 11.1099 35.2155 11.0832C34.3742 11.0431 33.5329 11.0164 32.6916 11.0832C32.6916 11.0965 32.6916 11.1099 32.6916 11.1232C32.6783 11.2033 32.6783 11.2701 32.6515 11.3369C32.5981 11.5772 32.4779 11.8043 32.3711 12.0179C32.1441 12.472 31.8503 12.8993 31.4764 13.2465C31.3028 13.4067 31.0491 13.5536 30.8488 13.3667C30.6752 13.1931 30.7152 12.8993 30.7286 12.6856C30.7553 12.3651 30.8221 12.058 30.9422 11.7642C30.5149 12.0981 30.1543 12.5387 29.8606 13.0462C29.6736 13.3667 29.5134 13.6872 29.3531 14.021C29.1929 14.5952 29.046 15.1695 28.9258 15.757C29.0994 15.7036 29.273 15.6502 29.4466 15.6101C31.5565 15.0359 33.6264 15.303 35.2022 16.3046ZM32.6382 12.699C32.6649 12.6189 32.7317 12.5387 32.7717 12.4586C32.8385 12.3251 32.8385 12.1648 32.9186 12.0313C33.0255 11.8443 33.2792 11.7508 33.4928 11.8176C33.6264 11.8577 33.7332 11.9512 33.8 12.0713C33.8668 12.1782 33.8801 12.3117 33.8534 12.4453C33.8267 12.5654 33.7866 12.699 33.7466 12.8192C33.6531 13.0729 33.3326 13.2198 33.0789 13.2064C32.8118 13.2064 32.5447 12.9794 32.6382 12.699Z" fill="#FFAF3C"/>
<path d="M30.9416 11.7512C31.0218 11.5509 31.1286 11.3506 31.2488 11.1636C31.409 10.9232 31.6361 10.6962 31.9165 10.6027C32.1301 10.5226 32.4373 10.536 32.5975 10.7229C32.6777 10.8164 32.7044 10.9499 32.7044 11.0835C33.5457 11.0301 34.387 11.0434 35.2283 11.0835C35.8559 11.1102 36.7773 11.0167 37.2047 11.6043C37.2714 11.6978 37.3115 11.8046 37.3516 11.9248C37.3649 11.8981 37.3783 11.8714 37.3916 11.8447C37.5786 11.5108 37.9792 11.0434 37.632 10.6962C37.4183 10.5093 37.0311 10.4558 36.7907 10.4425C35.669 10.3357 34.5339 10.2422 33.4121 10.1487C32.9715 10.1086 32.5174 10.0686 32.0767 10.0285C31.7295 10.0018 31.3423 10.0152 31.0485 10.2422C30.7013 10.5093 30.541 10.9366 30.3674 11.3239C30.1671 11.7912 29.9668 12.2586 29.8066 12.7394C29.6597 13.1667 29.5261 13.5807 29.3926 14.0214C29.5528 13.6875 29.7131 13.367 29.9 13.0465C30.1538 12.5257 30.5143 12.085 30.9416 11.7512Z" fill="#F9CB3A"/>
<path d="M50.2918 22.5017C49.6641 22.889 49.0232 23.2629 48.3955 23.6501C48.302 23.7036 48.2219 23.757 48.1418 23.8371C48.035 23.9439 48.0082 24.0908 47.9815 24.2511C47.7946 25.72 47.7145 27.2156 47.8213 28.6979C47.8346 28.9517 47.8346 29.2455 48.1284 29.3256C48.1685 29.3389 48.302 29.3656 48.4623 29.3924C48.1418 28.057 48.1818 26.6548 48.4089 25.2927C48.4489 25.0122 48.5157 24.7185 48.7027 24.5048C48.8228 24.3713 48.9697 24.2911 49.13 24.211C49.544 23.9973 49.9846 23.8237 50.4253 23.6902C50.5188 23.3563 50.6123 23.0225 50.7058 22.6886C50.7191 22.6486 50.7325 22.5952 50.7191 22.5418C50.6924 22.3548 50.4387 22.4082 50.2918 22.5017Z" fill="#F9CB3A"/>
<path d="M48.7166 24.491C48.5296 24.7047 48.4628 24.9985 48.4228 25.2789C48.1958 26.641 48.1557 28.0432 48.4762 29.3786C48.8635 29.4454 49.4377 29.5255 49.451 29.3252C49.6513 27.4423 49.9451 25.5193 50.4392 23.6631C49.9852 23.7966 49.5579 23.9702 49.1439 24.1839C48.9836 24.2774 48.8234 24.3575 48.7166 24.491Z" fill="#EA9622"/>
<path d="M28.2327 17.374C27.6718 17.6411 27.151 17.975 26.6836 18.3489C26.6969 18.3756 26.7103 18.4156 26.7103 18.4423C27.1643 18.0284 27.6851 17.6678 28.2327 17.374Z" fill="white"/>
<path d="M36.444 20.525C36.3239 19.2831 35.7096 18.2015 34.708 17.4937L34.6947 17.4803C33.84 16.8794 32.7717 16.5723 31.5832 16.5723C30.9823 16.5723 30.3813 16.6524 29.7671 16.8126C29.4065 16.9061 29.0459 17.0263 28.6987 17.1732C28.5385 17.24 28.3782 17.3067 28.2313 17.3869C27.6838 17.694 27.1764 18.0546 26.709 18.4552C26.7357 18.562 26.7758 18.6688 26.8025 18.7757C27.2966 18.3617 27.8574 18.0011 28.4717 17.7074C28.5251 17.6806 28.5785 17.6673 28.632 17.6673C28.7254 17.6673 28.8189 17.6806 28.899 17.7207C29.0326 17.8008 29.1127 17.9344 29.1261 18.0813L29.2863 19.8173L29.6335 23.5831L29.727 24.5179C30.0742 24.6381 30.4214 24.7316 30.7953 24.785H30.8087C30.8487 24.7983 30.9021 24.7983 30.9422 24.8117L30.8354 23.73L30.4748 19.8306L30.2611 17.6139C30.2478 17.4937 30.2879 17.3602 30.368 17.2667C30.4481 17.1732 30.5683 17.1064 30.6885 17.0931C32.0506 16.9729 33.2658 17.3201 34.1605 17.9878C34.2406 18.0412 34.3208 18.108 34.3875 18.1747C35.1487 18.8424 35.6428 19.7639 35.7496 20.8589C35.7897 21.3263 35.763 21.7937 35.6695 22.2611C35.5493 22.8353 35.3223 23.4095 35.0152 23.957C34.668 24.5446 34.2273 25.1055 33.6798 25.5862C33.3059 25.9201 32.8919 26.2272 32.4512 26.4809C32.4646 26.6278 32.4646 26.7881 32.4378 26.9483C33.1723 26.5477 33.8267 26.0536 34.4009 25.4794C34.935 24.9319 35.3891 24.3309 35.7363 23.6899C36.0701 23.0489 36.3105 22.3679 36.404 21.6868C36.4707 21.2996 36.4841 20.9123 36.444 20.525Z" fill="#EE1822"/>
<path d="M27.8034 22.8622C27.8034 22.9289 27.8167 22.9824 27.8301 23.0358C27.8835 23.1025 27.9235 23.1693 27.9636 23.2494C28.1639 23.4898 28.4043 23.6768 28.6447 23.8904C28.6714 23.9038 28.7114 23.9038 28.7381 23.9171L28.4978 21.3799C28.0304 21.7671 27.7499 22.328 27.8034 22.8622Z" fill="#EE1822"/>
<path d="M31.502 20.605L31.7423 23.1022V23.1422C31.9426 22.982 32.1162 22.7817 32.2364 22.568C32.3967 22.2876 32.4768 21.9671 32.4501 21.6599C32.3967 21.1124 32.0228 20.7385 31.502 20.605Z" fill="#EE1822"/>
<path d="M27.0938 20.4582C27.1739 20.5116 27.2808 20.5516 27.3742 20.5783C27.4811 20.6051 27.5879 20.6318 27.7081 20.6585C27.6814 20.5383 27.6413 20.4448 27.6013 20.338C27.5612 20.2311 27.5211 20.1377 27.4544 20.0709C27.441 20.0575 27.4143 20.0308 27.4009 20.0175C27.2808 19.9374 27.1072 19.9641 27.027 20.0842C27.027 20.0976 27.0137 20.0976 27.0137 20.111C27.027 20.2178 27.0404 20.3113 27.0404 20.4181C27.0537 20.4315 27.0804 20.4448 27.0938 20.4582Z" fill="#F6C547"/>
<path d="M32.9047 24.4376C32.9848 24.5711 33.145 24.6112 33.2786 24.5311C33.4121 24.4509 33.4522 24.2907 33.372 24.1572C33.3186 24.0637 33.2385 23.9836 33.145 23.9168C33.0649 23.8367 32.9714 23.7699 32.8646 23.7031C32.8512 23.8233 32.8379 23.9435 32.8379 24.0637C32.8379 24.1839 32.8379 24.2907 32.878 24.3975C32.878 24.3975 32.8913 24.4242 32.9047 24.4376Z" fill="#F6C547"/>
<path d="M34.2523 22.3809C34.1588 22.3542 34.052 22.3408 33.9452 22.3408C33.8383 22.3408 33.7315 22.3408 33.6113 22.3542C33.6647 22.461 33.7315 22.5545 33.7983 22.6346C33.865 22.7281 33.9318 22.8082 34.0119 22.8616C34.0253 22.875 34.052 22.8883 34.0787 22.9017C34.2256 22.9551 34.3725 22.875 34.4259 22.7414C34.466 22.5812 34.3859 22.4209 34.2523 22.3809Z" fill="#F6C547"/>
<path d="M34.24 20.9658C34.2667 20.9658 34.2934 20.9525 34.3067 20.9525C34.4536 20.8991 34.5204 20.7522 34.467 20.6053C34.4136 20.4584 34.2667 20.3916 34.1198 20.445C34.0263 20.4851 33.9328 20.5385 33.8393 20.6053C33.7459 20.672 33.6657 20.7522 33.5723 20.8323C33.6791 20.8724 33.7993 20.8991 33.9061 20.9258C34.0397 20.9658 34.1465 20.9792 34.24 20.9658Z" fill="#F6C547"/>
<path d="M33.4782 19.4166C33.4916 19.4033 33.505 19.3899 33.5183 19.3632C33.6118 19.243 33.5851 19.0694 33.4649 18.9893C33.3447 18.8958 33.1711 18.9225 33.091 19.0427C33.0242 19.1362 32.9708 19.243 32.9307 19.3499C32.8907 19.4567 32.8506 19.5769 32.8105 19.7104C32.9307 19.6704 33.0509 19.6303 33.1577 19.5902C33.2779 19.5368 33.3848 19.4834 33.4782 19.4166Z" fill="#F6C547"/>
<path d="M31.7678 18.3884C31.6209 18.3617 31.4873 18.4685 31.4606 18.6154C31.4473 18.7356 31.4606 18.8558 31.474 18.976C31.4873 19.0961 31.514 19.2163 31.5541 19.3499C31.6476 19.2564 31.7277 19.1629 31.7945 19.0561C31.8746 18.9626 31.9414 18.8558 31.9814 18.7489C31.9948 18.7356 31.9948 18.7089 31.9948 18.6822C32.0215 18.5353 31.9147 18.4017 31.7678 18.3884Z" fill="#F6C547"/>
<path d="M35.7742 20.8725C35.6674 19.7774 35.1733 18.856 34.4121 18.1883C34.332 18.1215 34.2652 18.0548 34.1851 18.0014C33.2904 17.3203 32.0752 16.9864 30.7131 17.1066C30.5929 17.12 30.4727 17.1734 30.3926 17.2802C30.3124 17.3737 30.2724 17.5073 30.2857 17.6274L30.4994 19.8442L30.86 23.7436L30.9668 24.8252C31.1404 24.8653 31.3006 24.9054 31.4475 24.9855C31.5277 25.0255 31.6078 25.079 31.6879 25.1324C31.7814 25.1992 31.8615 25.2793 31.955 25.3594C31.9817 25.3861 32.0218 25.4262 32.0485 25.4529C32.0618 25.4662 32.0752 25.4796 32.0885 25.5063C32.1019 25.533 32.1286 25.5464 32.1419 25.5731L32.1553 25.5864C32.1686 25.5998 32.1686 25.6131 32.182 25.6131C32.2621 25.7333 32.3289 25.8668 32.3823 26.0004C32.3823 26.0137 32.3957 26.0271 32.3957 26.0404C32.409 26.0805 32.409 26.1206 32.4224 26.1606C32.4491 26.2675 32.4624 26.3743 32.4758 26.4811C32.9165 26.2274 33.3304 25.9203 33.7044 25.5864C34.2385 25.1057 34.6926 24.5448 35.0398 23.9572C35.3469 23.4231 35.5739 22.8488 35.6941 22.2613C35.7876 21.8072 35.8143 21.3398 35.7742 20.8725ZM34.3053 20.9526C34.2786 20.9659 34.2519 20.9659 34.2385 20.9659C34.1317 20.9793 34.0249 20.9526 33.918 20.9259C33.8112 20.8992 33.7044 20.8725 33.5842 20.8324C33.6643 20.7523 33.7578 20.6721 33.8512 20.6054C33.9447 20.5386 34.0248 20.4718 34.1317 20.4451C34.2786 20.3917 34.4255 20.4718 34.4789 20.6054C34.5323 20.7523 34.4522 20.9125 34.3053 20.9526ZM34.4121 22.7153C34.3587 22.8622 34.2118 22.929 34.0649 22.8756C34.0382 22.8622 34.0248 22.8488 33.9981 22.8355C33.918 22.7821 33.8512 22.702 33.7845 22.6085C33.7177 22.5284 33.6643 22.4349 33.5975 22.328C33.7177 22.3147 33.8245 22.3147 33.9314 22.3147C34.0382 22.3147 34.145 22.328 34.2385 22.3547C34.3854 22.4215 34.4655 22.5818 34.4121 22.7153ZM32.9298 19.3501C32.9699 19.2299 33.0233 19.1231 33.0901 19.043C33.1835 18.9228 33.3438 18.8961 33.464 18.9895C33.5842 19.083 33.6109 19.2433 33.5174 19.3635C33.504 19.3768 33.4907 19.4035 33.4773 19.4169C33.3839 19.4836 33.277 19.5371 33.1702 19.5905C33.0634 19.6439 32.9432 19.684 32.823 19.7107C32.8363 19.5771 32.8764 19.4569 32.9298 19.3501ZM31.995 18.6824C31.995 18.7091 31.9817 18.7225 31.9817 18.7492C31.9416 18.856 31.8749 18.9628 31.7947 19.0563C31.7146 19.1498 31.6345 19.2566 31.5544 19.3501C31.5143 19.2166 31.5009 19.0964 31.4742 18.9762C31.4609 18.856 31.4475 18.7358 31.4609 18.6156C31.4876 18.4687 31.6211 18.3619 31.768 18.3886C31.9149 18.402 32.0218 18.5355 31.995 18.6824ZM32.8631 23.7035C32.9699 23.7703 33.0634 23.8504 33.1435 23.9172C33.237 23.9973 33.3171 24.0774 33.3705 24.1575C33.4506 24.2911 33.4106 24.4513 33.277 24.5315C33.1435 24.6116 32.9832 24.5715 32.9031 24.438C32.8898 24.4246 32.8764 24.3979 32.8764 24.3712C32.8497 24.2644 32.8363 24.1575 32.8363 24.0374C32.8363 23.9439 32.8363 23.8237 32.8631 23.7035ZM31.7413 23.1426V23.1026L31.501 20.6054C32.0218 20.7389 32.3957 21.1262 32.4357 21.6603C32.4624 21.9675 32.3823 22.2746 32.2221 22.5684C32.1152 22.7821 31.9416 22.969 31.7413 23.1426Z" fill="#BD1622"/>
<path d="M29.6592 23.5837L29.312 19.8179L29.1517 18.0819C29.1384 17.935 29.0449 17.8014 28.9247 17.7213C28.8446 17.6679 28.7511 17.6545 28.6576 17.6679C28.6042 17.6679 28.5508 17.6813 28.4974 17.708C27.8831 17.9884 27.3222 18.349 26.8281 18.7763C26.8682 18.9499 26.9082 19.1368 26.935 19.3104C26.9617 19.4974 26.9884 19.6977 27.0151 19.8847C27.0284 19.9648 27.0284 20.0316 27.0418 20.1117C27.0418 20.0983 27.0551 20.0983 27.0551 20.085C27.1353 19.9648 27.3089 19.9247 27.4291 20.0182C27.4558 20.0316 27.4691 20.0449 27.4825 20.0716C27.5492 20.1517 27.5893 20.2452 27.6294 20.3387C27.6694 20.4455 27.7095 20.539 27.7362 20.6592C27.616 20.6458 27.5092 20.6191 27.4023 20.5791C27.2955 20.5524 27.202 20.5123 27.1219 20.4589C27.0952 20.4455 27.0818 20.4322 27.0685 20.4055C27.0952 20.6592 27.1219 20.9129 27.1486 21.1666C27.2154 21.5673 27.3089 21.9545 27.4424 22.3284C27.5225 22.4887 27.5893 22.6356 27.6828 22.7825C27.7362 22.8626 27.7896 22.9427 27.8564 23.0228C27.843 22.9694 27.8297 22.9027 27.8297 22.8492C27.7763 22.3151 28.07 21.7542 28.5374 21.367L28.7778 23.9042C28.7511 23.8909 28.711 23.8909 28.6843 23.8775C28.7244 23.9042 28.7511 23.9443 28.7912 23.971C28.8045 23.9843 28.8045 23.9843 28.8179 23.9977C28.9514 24.0912 29.1117 24.1713 29.2452 24.2514C29.2585 24.2648 29.2853 24.2648 29.2986 24.2781C29.4188 24.3449 29.539 24.4117 29.6725 24.4651C29.7126 24.4784 29.7526 24.4918 29.7927 24.5051L29.6592 23.5837Z" fill="#BD1622"/>
<path d="M57.9009 25.693C57.714 25.1722 57.1397 24.9986 56.6724 24.8117C56.3385 24.6915 55.9779 24.5846 55.6307 24.4912C55.5907 24.5713 55.5373 24.6381 55.4438 24.6781C55.3236 24.7315 55.1767 24.7048 55.0699 24.6113C54.9898 24.5446 54.963 24.4511 54.9497 24.3576C54.8429 24.3443 54.7227 24.3309 54.6158 24.3176C54.5758 24.3176 54.5491 24.3042 54.509 24.3042C54.509 24.3309 54.4956 24.3443 54.4956 24.371C54.4823 24.4377 54.4689 24.5045 54.4556 24.5713C54.4422 24.7048 54.4289 24.8517 54.4422 24.9853C54.4556 25.1188 54.4823 25.2523 54.4556 25.3992C54.4155 25.5862 54.2419 25.7197 54.055 25.7197C53.9081 25.7197 53.7612 25.6262 53.6677 25.5061C53.5742 25.3992 53.5208 25.2523 53.4807 25.1188C53.4807 25.1188 53.4807 25.1188 53.4807 25.1054C53.414 24.9051 53.3739 24.6781 53.4006 24.4644C53.2537 24.5446 53.1335 24.6514 53.0267 24.7849C52.6929 25.2924 52.5193 25.9601 52.2922 26.521C52.1186 26.975 51.9317 27.4157 51.7314 27.8564C51.5311 28.5641 51.3308 29.2852 51.1171 29.993C50.9969 30.407 51.0503 30.8477 51.2773 31.2082V31.2216C51.6913 31.8759 52.2789 32.4101 52.7196 33.0511C52.9733 33.425 53.2003 33.879 53.3472 34.3731C53.4006 34.5601 53.6544 34.5734 53.7345 34.4132L57.8341 26.7747C57.9543 26.4141 58.0211 26.0402 57.9009 25.693Z" fill="#FFAF3C"/>
<path d="M53.0278 24.7979C53.1212 24.651 53.2548 24.5442 53.4017 24.4774C53.415 24.3839 53.4417 24.3038 53.4818 24.2237C53.5886 24.0234 53.7756 23.8765 54.0026 23.8631C54.2029 23.8498 54.4566 23.9165 54.51 24.1436C54.5234 24.197 54.51 24.2637 54.4967 24.3172C54.5368 24.3172 54.5768 24.3172 54.6035 24.3305C54.7104 24.3439 54.8305 24.3572 54.9374 24.3706C54.9107 24.1836 54.9908 23.9699 55.111 23.8498C55.1644 23.7963 55.2445 23.7429 55.338 23.7429C55.3514 23.7429 55.3781 23.7429 55.3914 23.7429C55.4715 23.7563 55.5383 23.8097 55.5784 23.8765C55.6852 24.0367 55.7119 24.3038 55.6184 24.4908C55.979 24.5709 56.3262 24.6777 56.66 24.8112C57.1274 24.9849 57.7016 25.1718 57.8886 25.6926C58.0088 26.0398 57.9554 26.4137 57.8619 26.7743L58.77 25.065C58.997 24.651 58.7833 24.1302 58.3426 23.9833L56.393 23.3423C55.8989 23.2488 55.3914 23.1954 54.884 23.1821C54.4299 23.1687 53.9492 23.2221 53.5619 23.4759C52.9343 23.8898 52.734 24.6243 52.4135 25.2653C52.2132 26.0532 51.9861 26.9479 51.7324 27.856C51.9194 27.4153 52.1063 26.9746 52.2933 26.5206C52.5337 25.9597 52.6939 25.3053 53.0278 24.7979Z" fill="#EA9622"/>
<path d="M53.5765 23.4763C53.9638 23.2226 54.4445 23.1691 54.8985 23.1825C55.3926 23.1958 55.9134 23.2493 56.4075 23.3427L53.9371 22.5281C53.5097 22.3813 53.0557 22.635 52.9622 23.0757C52.842 23.6098 52.6551 24.3844 52.4414 25.2791C52.7485 24.6247 52.9489 23.8769 53.5765 23.4763Z" fill="#F9CB3A"/>
<path d="M72.3911 24.6514C72.351 23.9703 72.1908 23.2759 71.8035 22.7017C70.9889 21.4865 69.6401 20.712 68.1578 20.7921C67.5703 20.8188 66.9827 20.9256 66.4218 21.0859C66.128 21.166 65.8209 21.2595 65.5271 21.3129C65.3402 21.3262 65.1665 21.3262 64.9796 21.3129C64.7259 21.2595 64.4721 21.1927 64.2318 21.0992C63.8712 20.9256 63.5374 20.7253 63.2035 20.4983C62.6827 20.071 62.2153 19.5902 61.7613 19.0961C61.0135 18.2682 60.1722 17.5471 59.0771 17.2399C58.7967 17.1598 58.5029 17.1064 58.1824 17.093C58.1824 17.0263 58.1958 16.9595 58.1958 16.9061C58.2358 16.5455 58.1557 16.185 58.1023 15.8377C58.0489 15.4772 57.8886 15.1567 57.7417 14.8228C57.6216 14.5825 57.4613 14.3555 57.2877 14.1418C57.2343 14.075 57.1809 14.0083 57.1275 13.9548C56.3262 13.1135 55.1377 12.7263 54.0026 12.7396C53.2014 12.7396 52.4402 12.9666 51.6657 13.1135C51.5722 13.1135 51.4921 13.1269 51.3986 13.1269C51.3852 13.1269 51.3585 13.1135 51.3452 13.1135C51.2517 13.0601 51.1716 13.0201 51.0914 12.9533C50.6641 12.5794 50.2769 12.1387 49.903 11.7114C49.6759 11.4576 49.4356 11.2039 49.1818 10.9769C48.7679 10.603 48.3005 10.2291 47.793 9.9887C47.112 9.66821 46.4042 9.41448 45.643 9.4679C44.9086 9.50796 44.2142 9.69491 43.5865 10.0822C43.226 10.3092 42.8921 10.5763 42.585 10.8567C42.4247 10.9903 42.2511 11.1371 42.0909 11.2974C42.0508 11.3375 42.0107 11.3775 41.9573 11.4176C41.944 11.4309 41.9306 11.4309 41.9306 11.4443C41.7837 11.2707 41.717 11.0704 41.6769 10.8834C41.2229 8.84026 39.6604 8.34616 38.1915 8.11914C35.8546 7.77194 33.4375 7.39803 31.0471 7.13095C29.4981 6.9707 28.6167 7.51822 28.1226 8.96045C27.2947 11.4042 26.7204 13.6744 26.3732 15.8912C26.3599 15.9446 26.3599 16.0114 26.3465 16.0648C26.3465 16.0514 26.3332 16.0514 26.3332 16.0381C26.2397 15.9179 26.1329 15.811 26.026 15.7176C25.7857 15.5173 25.5453 15.3169 25.2916 15.1567C25.0111 14.9831 24.6773 14.8629 24.3835 14.7427C23.9562 14.5691 23.4888 14.5157 23.0347 14.4623C22.7543 14.4356 22.4739 14.4356 22.1801 14.4756C21.6993 14.5424 21.2319 14.5958 20.7646 14.7694C20.3105 14.943 19.8565 15.13 19.4292 15.3837C18.7615 15.7843 18.1472 16.2918 17.573 16.8259C16.5981 17.7474 15.7568 18.8157 15.0357 19.9374C14.3012 21.0725 13.7404 22.3011 13.2329 23.5563C12.7922 24.6514 12.4317 25.7731 12.1512 26.9082C12.0043 27.5091 11.8574 28.1101 11.764 28.7243C11.6304 29.5523 11.5102 30.4069 11.537 31.2616C11.5637 32.2097 11.7506 33.238 12.2981 34.0392C12.7789 34.7603 13.4065 35.3613 14.181 35.7619C14.8087 36.0824 15.4897 36.3361 16.1841 36.5097C16.4646 36.5765 16.745 36.6566 17.0388 36.6967C17.7599 36.8169 18.3341 36.8569 19.0552 36.6967C19.2556 36.6566 19.4559 36.5765 19.6562 36.483C19.9233 36.8703 20.2838 37.2175 20.6978 37.4445C21.0049 37.6181 21.3521 37.7516 21.6993 37.8184C21.9931 37.8718 22.2869 37.9119 22.5673 38.0054C23.1683 38.3259 23.7158 38.7532 24.3034 39.087C24.4636 39.1805 24.6372 39.2473 24.8108 39.3274C24.9444 39.3808 25.0779 39.4476 25.2114 39.4877C25.4117 39.5411 25.6922 39.5811 25.8925 39.5811C25.9593 39.5811 26.026 39.5811 26.0928 39.5678C26.1462 39.6345 26.1863 39.688 26.2397 39.7547C26.6403 40.2355 27.1878 40.5293 27.7754 40.7296C28.0692 40.8364 28.403 40.8631 28.6968 40.8765C29.0173 40.8898 29.3512 40.8498 29.6717 40.7563C29.9521 40.6762 30.2058 40.5693 30.4328 40.4358C30.513 40.6227 30.5931 40.8231 30.6999 40.9967C31.1807 41.7712 31.8617 42.3721 32.6229 42.8395C33.1571 43.1734 33.7446 43.4404 34.3055 43.7476C35.6943 44.482 37.0564 45.2699 38.3117 46.2047C38.4986 46.3516 38.6856 46.5119 38.8726 46.6721C39.1263 46.8858 39.3934 47.0994 39.6738 47.2864C39.7406 47.3264 39.794 47.3665 39.8608 47.3932C40.1011 47.5134 40.3549 47.6336 40.6219 47.7004C41.2095 47.8339 41.6368 47.8205 42.2111 47.7137C42.5449 47.6469 42.8654 47.4867 43.1725 47.3532C43.5064 47.2063 43.8135 47.0193 44.134 46.8457C45.416 46.1246 46.6713 45.3768 47.9666 44.6957C48.6076 44.3619 49.2486 44.0414 49.903 43.7476C50.4638 43.5339 51.0247 43.387 51.6123 43.2268C52.2399 43.0532 52.8408 42.7861 53.3082 42.3187C53.7489 42.5991 54.2163 42.7594 54.7638 42.7727C54.9374 42.7727 55.0709 42.746 55.2579 42.7327C55.4315 42.706 55.5917 42.6926 55.752 42.6525C56.1126 42.5324 56.4464 42.3721 56.7803 42.2119C57.3011 42.0116 57.8352 41.878 58.3827 41.7578C58.8101 41.6644 59.224 41.5041 59.5979 41.3038C59.6514 41.2771 59.7048 41.237 59.7582 41.2103C59.865 41.1435 59.9585 41.0634 60.0653 40.9833C60.4927 41.2771 61.0268 41.424 61.5343 41.4373C61.8013 41.4373 62.0818 41.424 62.3489 41.4106C62.6827 41.3973 63.0166 41.3839 63.3504 41.3572C61.6144 40.7429 60.092 39.6746 58.9302 38.3659C58.9436 38.5662 58.9035 38.7532 58.8101 38.9268C58.5563 39.3541 58.0088 39.4476 57.5147 39.5411C57.488 39.5411 57.448 39.5544 57.4212 39.5678C56.7535 39.7147 56.0992 39.9417 55.4849 40.2355C55.1911 40.3824 54.8172 40.5426 54.5501 40.3557C54.3632 40.2355 54.3098 39.9951 54.2697 39.7814C54.1362 39.1805 54.016 38.5529 54.1629 37.9519C54.3632 37.1374 55.0576 36.5364 55.3514 35.7485C55.3514 35.7352 55.3647 35.7085 55.3647 35.6951C55.525 35.2678 55.6585 34.7336 56.0992 34.6268C56.2194 34.6001 56.3262 34.6134 56.4464 34.6402C56.6467 34.6802 56.8203 34.8138 56.9806 34.9473C56.7135 34.0659 56.6066 33.1445 56.7001 32.2498C56.8737 30.447 57.7684 28.8846 59.2374 27.8563C59.5045 27.6694 59.7983 27.4958 60.092 27.3489C60.3591 26.9216 60.6262 26.5076 60.8933 26.0936C61.2538 25.5461 61.6812 24.8517 61.3874 24.184C61.1737 23.6899 60.6663 23.3961 60.2122 23.1557C59.5045 22.7952 58.77 22.4613 58.0355 22.1675C57.6215 22.0073 57.2076 21.847 56.7803 21.7001C56.5265 21.62 56.2461 21.4998 56.1927 21.2461C56.166 21.0992 56.2194 20.9523 56.2862 20.8054C56.5399 20.2312 56.9405 19.6703 57.5414 19.4967C58.0622 19.3498 58.6231 19.5234 59.0771 19.8306C59.4911 20.111 59.8116 20.4849 60.1455 20.8588C60.1722 20.8856 60.1989 20.9256 60.2256 20.9523C60.96 21.7536 61.7746 22.5014 62.7228 23.0222C63.6843 23.543 64.7926 23.8234 65.861 23.6498C66.9827 23.4762 68.3715 22.7017 69.3864 23.5563C70.4814 24.4911 69.8538 25.7865 69.1861 26.748C68.9057 27.1486 68.5852 27.5358 68.2513 27.9097C68.9457 28.297 69.5867 28.7644 70.1609 29.2719C70.2678 29.1517 70.3746 29.0315 70.4681 28.8979C70.8019 28.4706 71.1491 28.0433 71.4296 27.5893C71.6967 27.1486 71.9103 26.6812 72.0839 26.2004C72.1373 26.0535 72.1774 25.92 72.2041 25.7731C72.3376 25.3858 72.4044 25.0119 72.3911 24.6514ZM57.1942 40.0485V40.0619V40.0485ZM41.5968 16.0247C42.2778 14.8362 43.0524 13.7011 44.0138 12.7263C44.4278 12.3123 44.8952 11.8983 45.4828 11.8048C46.3241 11.658 47.1387 12.1788 47.7396 12.793C48.7679 13.8213 49.6626 15.2368 51.1048 15.4371C51.866 15.544 52.6138 15.2769 53.3616 15.1433C54.1095 15.0098 54.9908 15.0499 55.4983 15.6107C55.8989 16.0514 55.979 16.7058 55.8054 17.28C55.6452 17.8141 55.2846 18.2815 54.884 18.6688C54.8706 18.6821 54.8439 18.7089 54.8306 18.7222C54.6436 18.8958 54.4166 19.0293 54.2563 19.2297C54.0827 19.4567 54.1629 19.6837 54.1362 19.9374C54.1095 20.1244 53.9893 20.2846 53.8424 20.3781C53.2014 20.7787 52.5871 20.0977 52.2533 19.6169C51.7458 18.8958 51.3051 18.1213 50.7175 17.4536C50.13 16.7859 49.3688 16.2384 48.4874 16.1048C48.0067 16.0381 47.5126 16.0915 47.0452 16.2117C45.7632 16.5188 44.5614 17.2266 43.68 18.2014C42.9589 19.0026 42.3179 20.0576 41.2629 20.2713C40.7421 20.3781 40.1011 20.1644 39.9809 19.6436C39.9008 19.3231 40.0611 18.9893 40.208 18.6821C40.6353 17.8008 41.0893 16.8927 41.5968 16.0247ZM28.9238 15.7443C29.044 15.1567 29.1909 14.5825 29.3512 14.0083C29.4714 13.5809 29.6049 13.1536 29.7651 12.7263C29.9387 12.2455 30.1257 11.7781 30.326 11.3107C30.4996 10.9235 30.6465 10.4828 31.0071 10.2291C31.3009 10.0021 31.6881 9.9887 32.0353 10.0154C32.4894 10.0421 32.93 10.0955 33.3707 10.1356C34.4925 10.2291 35.6275 10.3226 36.7493 10.4294C36.9896 10.4561 37.3769 10.5095 37.5906 10.6831C37.9511 11.0437 37.5372 11.4977 37.3502 11.8316C37.3369 11.8583 37.3235 11.885 37.3101 11.9117C37.0698 12.3257 36.8428 12.753 36.6291 13.1803C36.1083 14.1952 35.6275 15.2368 35.1735 16.2918C35.2403 16.3318 35.3204 16.3853 35.3872 16.4253C35.9213 16.7992 36.3754 17.2666 36.7359 17.7741C37.3636 16.5589 38.0313 15.357 38.699 14.1551C39.0462 13.5409 39.38 12.9132 39.7272 12.2856C39.7139 12.3123 39.9676 12.6862 39.9943 12.7263C40.0611 12.8732 40.1278 13.0201 40.1679 13.1803C40.3281 13.7812 40.1545 14.2887 39.834 14.7961C39.5403 15.2502 39.2732 15.7176 39.0595 16.2117C38.8592 16.6924 38.7657 17.1999 38.6455 17.7207C38.5387 18.1881 38.3518 18.6154 37.9912 18.9359C37.8309 19.0694 37.6573 19.1762 37.457 19.2564C37.5639 19.6169 37.644 19.9908 37.6707 20.3781C37.6974 20.712 37.7108 21.0458 37.6841 21.393C38.1514 21.393 38.6455 21.4731 39.0862 21.58C39.4868 21.6734 39.8741 21.807 40.248 21.9539C40.5819 22.0874 40.9024 22.2343 41.2095 22.3946C41.5033 22.5414 41.7704 22.6483 42.1042 22.6349C42.7319 22.6082 43.3194 22.2477 43.7868 21.847C43.8002 21.8337 43.8269 21.8203 43.8402 21.807C44.5747 21.166 45.2024 20.4048 45.9235 19.7505C47.1654 18.6154 49.1685 17.734 50.7042 18.9092C50.8911 19.0561 51.0514 19.2297 51.1716 19.43C51.2918 19.6169 51.3852 19.884 51.2784 20.0977C51.1849 20.2713 50.9579 20.338 50.771 20.3781C50.0231 20.5651 49.302 20.8054 48.5809 21.0592C48.5408 21.0725 48.4874 21.0859 48.4474 21.0992C47.8331 21.3262 47.2322 21.6067 46.7514 22.0607C46.1371 22.6349 45.6964 23.4095 45.5228 24.224C45.5095 24.2908 45.4961 24.3442 45.4828 24.411C45.3092 25.3858 45.3492 26.334 45.3759 27.3222C45.4027 28.0834 45.2691 29.0048 44.6014 29.4722C44.1741 29.7793 43.5598 29.7927 43.0924 29.5523C42.585 29.2986 42.4114 28.8312 42.1843 28.3371C41.6101 27.1085 40.5685 26.107 39.3266 25.5862C38.7657 25.3458 38.1782 25.2122 37.5772 25.1455C37.1232 25.0921 36.6692 25.1054 36.2151 25.1455C35.0667 26.7747 33.3039 28.1101 31.2474 28.7511C31.1139 28.7911 30.967 28.8312 30.8335 28.8712C30.1925 29.0315 29.5515 29.125 28.9238 29.1517C28.6968 29.4054 28.4431 29.6191 28.1226 29.7392C27.495 29.9663 26.8139 29.6992 26.1596 29.5389C23.7158 28.9647 20.9649 30.2868 19.8965 32.5436C19.5627 33.238 19.309 34.0659 18.6012 34.3597C18.5344 34.3864 18.4543 34.4131 18.3875 34.4265C17.9869 34.5066 17.5462 34.4265 17.1456 34.333C16.8385 34.2662 16.518 34.1861 16.1975 34.0793C15.3829 33.8256 14.6217 33.4517 14.2077 32.7305C13.8472 32.1029 13.8205 31.3417 13.8605 30.634C13.8873 30.0197 13.9674 29.4188 14.0876 28.8178C14.8621 24.9585 16.3978 21.0592 19.309 18.3617C19.99 17.734 20.7646 17.1598 21.6593 16.9061C22.554 16.6523 23.5822 16.7458 24.3034 17.3467C24.5704 17.5738 24.7841 17.8542 24.9444 18.1613C25.2916 17.8008 25.6788 17.4536 26.0928 17.1464C26.9742 16.5589 27.9223 16.0648 28.9238 15.7443ZM50.7175 22.675C50.6107 23.0088 50.5172 23.3293 50.4371 23.6765C49.9564 25.5194 49.6492 27.4557 49.4489 29.3386C49.4222 29.5389 48.8613 29.4588 48.4741 29.392C48.3138 29.3653 48.1803 29.3386 48.1402 29.3253C47.8464 29.2585 47.8464 28.9514 47.8331 28.6976C47.7263 27.2153 47.8064 25.7197 47.9933 24.2508C48.0067 24.1039 48.0334 23.957 48.1536 23.8368C48.2203 23.7567 48.3138 23.7032 48.4073 23.6498C49.0349 23.2626 49.6759 22.8887 50.3036 22.5014C50.4505 22.4079 50.7042 22.3545 50.7443 22.5281C50.7443 22.5815 50.7309 22.6216 50.7175 22.675ZM27.1745 32.0762C27.1478 32.2364 27.0676 32.37 26.9742 32.5169C26.9341 32.5836 26.8807 32.6504 26.8406 32.7172C26.1462 33.7855 26.2797 34.9473 26.3866 36.2159C26.4266 36.4162 26.4534 36.6299 26.4133 36.8302C26.3732 37.0172 26.2397 37.2041 26.0394 37.2442C25.8257 37.2842 25.6254 37.1507 25.4518 37.0572C24.8375 36.71 24.2633 36.2426 23.6223 35.9355C23.3686 35.8153 23.1015 35.7218 22.8211 35.6684C22.4071 35.5883 21.913 35.5883 21.6459 35.2544C21.4055 34.9473 21.4723 34.4933 21.5925 34.1194C21.913 33.0777 22.4872 32.0762 23.3686 31.4218C23.5021 31.3284 23.649 31.2349 23.7959 31.1548C24.6239 30.7141 25.6388 30.6206 26.4667 31.0346C26.5869 31.1013 26.7071 31.1681 26.8139 31.2616C27.0543 31.4753 27.2279 31.7691 27.1745 32.0762ZM51.3318 40.8765C50.7443 41.0634 50.1433 41.1569 49.529 41.3973C49.1818 41.5308 48.848 41.6777 48.5141 41.838C46.4042 42.7994 44.3878 44.0681 42.3713 45.1765C42.0642 45.3501 41.7303 45.5237 41.3698 45.4702C41.0225 45.4302 40.7421 45.1765 40.475 44.9494C38.739 43.4538 36.7092 42.3454 34.6794 41.3038C33.6779 40.783 32.5695 40.1821 32.4626 38.9268C32.4359 38.6864 32.4626 38.446 32.5161 38.2057C32.6496 37.6715 32.9701 37.2041 33.4241 36.8569C34.7595 35.8554 36.4688 36.0957 37.9244 36.67C38.8726 37.0439 39.7673 37.5513 40.7021 37.9519C40.9424 38.0588 41.1828 38.1523 41.4365 38.2324C41.6902 38.3125 42.0508 38.3125 42.0508 37.9519C42.0508 37.7917 41.9707 37.6582 41.8772 37.5246C40.9291 36.2827 39.9275 35.1075 38.5254 34.3731C37.1766 33.652 35.5074 33.4116 34.0918 33.9992C33.9716 34.0526 33.8515 34.106 33.7313 34.1728C32.1822 34.974 31.194 36.5898 29.9788 37.8718C29.5915 38.2858 29.0841 38.6998 28.4698 38.4995C28.403 38.4728 28.3363 38.446 28.2695 38.406C28.0825 38.2991 27.9223 38.1389 27.8155 37.9519C27.495 37.4044 27.535 36.7501 27.6419 36.1492C28.2962 32.3833 31.1807 29.0849 34.8397 28.0032C36.2819 27.5759 38.0045 27.5225 39.1263 28.5374C39.3399 28.7243 39.5135 28.938 39.6738 29.165C40.1145 29.7927 40.435 30.5138 40.9424 31.0746C41.5701 31.7691 42.4915 32.183 43.4263 32.1964C44.6815 32.2231 45.87 31.5687 47.1253 31.6489C48.6744 31.7557 49.943 32.9843 50.6241 34.3864C51.4253 36.0423 51.866 38.0855 51.9461 39.955C51.9862 40.369 51.7324 40.7429 51.3318 40.8765ZM56.4063 23.3427L58.356 23.9837C58.7967 24.1306 59.0104 24.6514 58.7834 25.0654L57.8753 26.7747L53.7756 34.4131C53.6821 34.5734 53.4418 34.56 53.3883 34.3731C53.2414 33.8923 53.0144 33.4383 52.7607 33.051C52.32 32.41 51.7324 31.8759 51.3185 31.2215V31.2082C51.0915 30.8476 51.0247 30.4069 51.1582 29.993C51.3719 29.2852 51.5856 28.5641 51.7725 27.8563C52.0262 26.9349 52.2533 26.0535 52.4536 25.2657C52.6806 24.3709 52.8542 23.5964 52.9744 23.0623C53.0678 22.6216 53.5219 22.3678 53.9492 22.5147L56.4063 23.3427Z" fill="#604221"/>
<path d="M25.0805 18.3355C25.0538 18.282 25.0271 18.242 25.0138 18.1886C24.8535 17.8814 24.6398 17.5876 24.3728 17.374C23.6517 16.7864 22.6234 16.6796 21.7287 16.9333C20.834 17.187 20.0594 17.7612 19.3784 18.3889C16.4672 21.073 14.9315 24.9857 14.157 28.845C14.0368 29.446 13.9567 30.0469 13.9299 30.6612C13.8899 31.3689 13.9166 32.1435 14.2772 32.7578C14.6911 33.4789 15.4523 33.8528 16.2669 34.1065C16.307 32.1568 16.6809 30.2339 17.2684 28.3643C17.0014 28.1907 16.7877 27.9236 16.6542 27.6165C16.3737 26.9755 16.4138 26.0541 16.9346 25.5333C17.2417 25.2261 17.8694 24.9991 18.2433 25.3196C18.2833 25.3597 18.3234 25.4131 18.3501 25.4665C19.5653 22.6621 21.3147 19.6575 24.3594 18.6292C24.4796 18.5892 24.5864 18.5491 24.7066 18.5224C24.8001 18.4957 24.8802 18.4823 24.9737 18.4556C25.0271 18.4423 25.0805 18.4289 25.1206 18.4289C25.1072 18.3889 25.0939 18.3622 25.0805 18.3355Z" fill="#ADE8A8"/>
<path d="M18.4573 28.4973C18.03 28.6843 17.6027 28.6041 17.2555 28.3638C16.6679 30.2333 16.294 32.1563 16.2539 34.106C16.561 34.1995 16.8815 34.2796 17.202 34.3597C17.616 34.4532 18.0433 34.5467 18.444 34.4532C18.4172 34.3998 18.3905 34.3464 18.3638 34.2929C17.5225 32.3433 17.843 30.26 18.6443 28.3771C18.6042 28.4172 18.5374 28.4572 18.4573 28.4973Z" fill="#6BB267"/>
<path d="M30.6213 26.2673C30.3809 26.2406 30.1272 26.2006 29.8868 26.1471C29.7266 26.1071 29.5663 26.067 29.4061 26.0003C29.2458 25.9468 29.0722 25.8801 28.912 25.7999C28.8853 25.7866 28.8586 25.7732 28.8319 25.7599C28.6716 25.6798 28.5247 25.5996 28.3645 25.5195C27.9906 25.2925 27.63 25.0254 27.3095 24.7316C27.2961 24.7183 27.2828 24.7049 27.2561 24.6916C26.9623 24.4111 26.6952 24.0906 26.4815 23.7568C26.4281 23.6633 26.3614 23.5832 26.3079 23.4897C26.0676 23.0624 25.8806 22.6083 25.7604 22.1276C25.7471 22.0475 25.7337 21.9807 25.707 21.9006C25.6536 21.6068 25.6135 21.2996 25.5868 21.0059C25.5601 20.7388 25.5334 20.4717 25.5067 20.2046C25.4934 20.0711 25.48 19.9509 25.4533 19.8174C25.4399 19.7506 25.4399 19.6838 25.4266 19.617C25.4266 19.6037 25.4266 19.5903 25.4132 19.577C25.3999 19.5102 25.3865 19.4434 25.3732 19.3767C25.3598 19.3099 25.3465 19.2565 25.3331 19.1897C25.3064 19.0695 25.2663 18.9493 25.2396 18.8292C25.1996 18.7223 25.1595 18.6155 25.1194 18.5087C25.1061 18.482 25.1061 18.4686 25.0927 18.4419C25.0393 18.4552 24.9859 18.4553 24.9458 18.4686C24.8524 18.482 24.7722 18.5087 24.6788 18.5354C24.5586 18.5621 24.4384 18.6021 24.3316 18.6422C21.2869 19.6838 19.5375 22.6885 18.3223 25.4794C18.3757 25.5729 18.4157 25.6798 18.4291 25.7866C18.4959 26.1204 18.5493 26.4142 18.6828 26.7214C18.7362 26.8549 18.803 26.9751 18.8564 27.1086C18.9232 27.2689 18.9633 27.4425 18.9766 27.6161C18.9766 27.6294 18.9766 27.6294 18.9766 27.6428C19.0701 27.4558 19.1636 27.2822 19.257 27.1086C19.3906 26.8683 19.5375 26.6145 19.6844 26.3742C19.444 25.5329 19.3906 24.6248 19.5508 23.7568C19.6443 23.236 19.858 22.6885 20.2586 22.3145C20.5657 22.0341 21.0865 21.8071 21.5005 22.0208C21.7275 22.1409 21.8744 22.368 21.9546 22.6217C21.9946 22.7552 22.0347 22.8888 22.048 23.0223C22.1014 23.3428 22.1014 23.6767 22.1014 24.0105C22.2617 23.9304 22.4353 23.877 22.6089 23.8235C22.649 23.8102 22.689 23.7968 22.7291 23.7835C22.7424 23.7835 22.7558 23.7835 22.7691 23.7701C22.8226 23.7568 22.876 23.7434 22.9294 23.7434C23.0362 23.7167 23.1431 23.7034 23.2365 23.69C23.3434 23.6767 23.4502 23.6633 23.557 23.6633C23.6104 23.6633 23.6639 23.6633 23.7173 23.6633C23.7707 23.6633 23.8241 23.6633 23.8775 23.6633C23.971 23.6633 24.0778 23.6767 24.1713 23.6767C24.3048 23.69 24.4384 23.7034 24.5719 23.7301C24.7322 23.7568 24.9058 23.7968 25.066 23.8503C25.2396 23.9037 25.4132 23.9571 25.5868 24.0372C26.1076 24.2509 26.5884 24.5447 27.0024 24.9186C27.0958 24.9987 27.1893 25.0922 27.2694 25.1723C27.2828 25.1857 27.2828 25.1857 27.2961 25.199C27.7635 25.6798 28.2176 26.2006 28.8051 26.4943C28.9787 26.5745 29.1523 26.6412 29.3393 26.6813C29.3794 26.6947 29.4194 26.6947 29.4595 26.708C29.6197 26.7347 29.78 26.7347 29.9402 26.7347C30.2741 26.7214 30.6079 26.6279 30.9284 26.4943C30.875 26.3475 30.7682 26.2807 30.6213 26.2673Z" fill="#6BB267"/>
<path d="M54.0038 23.8512C53.7768 23.8646 53.5765 24.0115 53.483 24.2118C53.443 24.2919 53.4163 24.3854 53.4029 24.4655C53.3762 24.6792 53.4162 24.9062 53.483 25.1065C53.483 25.1065 53.483 25.1065 53.483 25.1199C53.5231 25.2534 53.5765 25.4003 53.67 25.5071C53.7635 25.614 53.9103 25.7074 54.0572 25.7208C54.2442 25.7208 54.4178 25.5873 54.4579 25.4003C54.4846 25.2668 54.4579 25.1332 54.4445 24.9863C54.4312 24.8528 54.4311 24.7059 54.4579 24.5723C54.4712 24.5056 54.4846 24.4388 54.4979 24.372C54.4979 24.3453 54.5113 24.332 54.5113 24.3053C54.5246 24.2519 54.5246 24.1851 54.5246 24.1317C54.4579 23.9047 54.2041 23.8379 54.0038 23.8512Z" fill="#604221"/>
<path d="M55.5797 23.8777C55.5397 23.8109 55.4729 23.7575 55.3928 23.7441C55.3794 23.7441 55.3661 23.7441 55.3394 23.7441C55.2592 23.7441 55.1791 23.7842 55.1123 23.851C54.9922 23.9712 54.912 24.1848 54.9387 24.3718C54.9521 24.4653 54.9922 24.5587 55.0589 24.6255C55.1658 24.719 55.2993 24.7457 55.4328 24.6923C55.5263 24.6522 55.5797 24.5854 55.6198 24.5053C55.7266 24.305 55.6999 24.0379 55.5797 23.8777Z" fill="#604221"/>
<path d="M32.5961 10.7233C32.4358 10.5364 32.1287 10.523 31.915 10.6031C31.6346 10.6966 31.4076 10.9236 31.2473 11.164C31.1271 11.351 31.0203 11.5513 30.9402 11.7516C30.82 12.0454 30.7532 12.3525 30.7265 12.673C30.7132 12.9 30.6731 13.1938 30.8467 13.354C31.047 13.5544 31.3141 13.3941 31.4743 13.2339C31.8482 12.8867 32.142 12.4593 32.3691 12.0053C32.4759 11.7916 32.5827 11.5646 32.6495 11.3242C32.6628 11.2575 32.6762 11.1774 32.6895 11.1106C32.6895 11.0972 32.6895 11.0839 32.6895 11.0705C32.7029 10.9503 32.6762 10.8168 32.5961 10.7233Z" fill="#604221"/>
<path d="M33.0769 13.2073C33.344 13.2207 33.6511 13.0738 33.7446 12.82C33.7847 12.6999 33.8247 12.5663 33.8514 12.4461C33.8782 12.3259 33.8648 12.1924 33.798 12.0722C33.7313 11.952 33.6111 11.8586 33.4909 11.8185C33.2772 11.7517 33.0235 11.8319 32.9167 12.0322C32.8365 12.1657 32.8365 12.326 32.7698 12.4595C32.7297 12.5396 32.6763 12.6064 32.6362 12.6999C32.5428 12.9803 32.8098 13.2073 33.0769 13.2073Z" fill="#604221"/>
<path d="M71.2176 33.6791C70.8704 32.6107 70.2427 31.5825 69.4148 30.7011C69.3347 30.621 69.2545 30.5542 69.1744 30.4741C68.6002 29.9667 67.9592 29.5126 67.2514 29.1521C66.6906 28.8583 66.0897 28.6313 65.462 28.471C65.4487 28.471 65.4353 28.4577 65.422 28.4577C64.781 28.2974 64.1533 28.2173 63.539 28.2173C62.2838 28.2173 61.1487 28.5511 60.254 29.1788C60.0804 29.299 59.9335 29.4325 59.7866 29.566C58.9987 30.2871 58.5179 31.2753 58.4245 32.3837C58.3978 32.6241 58.3978 32.8511 58.4111 33.0915C58.4912 34.9744 59.5596 36.8573 61.2021 38.2194C61.5627 38.5266 61.9633 38.7936 62.3772 39.0474C63.085 39.4613 63.8462 39.7952 64.6608 40.0089C66.6105 40.5163 68.5201 40.2626 69.8822 39.3011C70.0558 39.1809 70.216 39.0474 70.3629 38.9005C71.0173 38.1526 71.4312 37.2179 71.5381 36.1228C71.5781 35.3082 71.4713 34.4803 71.2176 33.6791ZM63.7794 39.1943C63.6993 39.2477 63.6058 39.261 63.5257 39.261C63.4589 39.261 63.3922 39.2477 63.3254 39.221C63.1785 39.1542 63.0449 39.0874 62.9114 39.0207C62.2571 38.6868 61.6695 38.2728 61.162 37.7921C59.8801 36.5902 59.0655 35.0145 58.9853 33.452C58.972 33.2117 58.972 32.9847 58.9987 32.7443C59.1055 31.5825 59.6263 30.5943 60.4142 29.8865C61.4158 28.9918 62.858 28.5244 64.4872 28.658C64.6207 28.6713 64.7543 28.7381 64.8344 28.8449C64.8344 28.8449 64.8344 28.8449 64.8344 28.8583C64.9145 28.9651 64.9546 29.0853 64.9412 29.2188L64.4605 34.3468L64.3269 35.7489L64.0331 38.807C64.0331 38.8604 64.0064 38.9272 63.9797 38.9672C63.9397 39.0607 63.8729 39.1408 63.7794 39.1943ZM71.1108 35.7222C70.8837 38.1526 68.8406 39.8353 66.1831 39.8353C66.0362 39.8353 65.9027 39.8353 65.7558 39.8219C65.6223 39.8085 65.4887 39.7418 65.3952 39.6483C65.3018 39.5415 65.2617 39.4079 65.2751 39.2744L65.3151 38.9005L66.1698 29.7263C66.1831 29.566 66.2766 29.4191 66.4235 29.339C66.5704 29.2589 66.744 29.2455 66.8909 29.3123C66.9577 29.339 67.0111 29.3657 67.0778 29.4058C67.799 29.753 68.4533 30.207 69.0008 30.7278C69.8021 31.489 70.4163 32.3837 70.7769 33.3452C71.0573 34.1197 71.1775 34.9343 71.1108 35.7222Z" fill="#EE1822"/>
<path d="M71.4302 33.8926C71.0696 32.7308 70.3619 31.6358 69.4004 30.7144C70.2283 31.5957 70.856 32.624 71.2032 33.6923C71.4569 34.4935 71.5637 35.3081 71.497 36.1227C71.3901 37.2177 70.9762 38.1525 70.3218 38.9004C71.0963 38.1792 71.5771 37.2044 71.6706 36.096C71.7507 35.3615 71.6572 34.6137 71.4302 33.8926Z" fill="white"/>
<path d="M67.6126 34.9072C67.666 34.3196 67.3588 33.7187 66.8514 33.3047L66.5977 36.0556C67.1585 35.9087 67.5591 35.4947 67.6126 34.9072Z" fill="#EE1822"/>
<path d="M63.032 32.7438C62.7782 32.9575 62.618 33.2513 62.5779 33.6118C62.5379 33.9857 62.6581 34.373 62.8851 34.7068C63.0053 34.8938 63.1655 35.0674 63.3391 35.2143L63.4192 34.3329L63.5795 32.5969L63.5928 32.4634C63.3792 32.5168 63.1922 32.6103 63.032 32.7438Z" fill="#EE1822"/>
<path d="M37.4726 19.2832C37.3124 18.749 37.072 18.2549 36.7515 17.8009C36.3909 17.2801 35.9369 16.826 35.4027 16.4521C35.336 16.3987 35.2559 16.3587 35.1891 16.3186C33.6267 15.317 31.5435 15.05 29.4469 15.5975C29.2733 15.6375 29.0997 15.691 28.9261 15.7444C27.9112 16.0649 26.9764 16.5723 26.1484 17.1866C25.7345 17.4937 25.3472 17.8276 25 18.2015C25.0267 18.2549 25.0534 18.295 25.0668 18.3484C25.0801 18.3751 25.0935 18.4018 25.1068 18.4419C25.1202 18.4686 25.1202 18.4819 25.1335 18.5086C25.1736 18.6155 25.2137 18.7223 25.2537 18.8291C25.2938 18.9493 25.3205 19.0695 25.3472 19.1897C25.3606 19.2565 25.3739 19.3099 25.3873 19.3767C25.4006 19.4434 25.414 19.5102 25.4273 19.577C25.4273 19.5903 25.4273 19.6037 25.4407 19.617C25.454 19.6838 25.454 19.7506 25.4674 19.8173C25.4807 19.9509 25.5074 20.0711 25.5208 20.2046C25.5475 20.4717 25.5742 20.7388 25.6009 21.0058C25.6276 21.313 25.6677 21.6068 25.7211 21.9006C25.7345 21.9807 25.7478 22.0475 25.7745 22.1276C25.8947 22.6083 26.0817 23.0624 26.322 23.4897C26.3755 23.5832 26.4289 23.6766 26.4956 23.7568C26.7227 24.0906 26.9764 24.4111 27.2702 24.6915C27.2835 24.7049 27.2969 24.7183 27.3236 24.7316C27.6441 25.0387 28.0046 25.3058 28.3786 25.5195C28.5255 25.613 28.6857 25.6931 28.8459 25.7599C28.8727 25.7732 28.8994 25.7866 28.9261 25.7999C29.0863 25.8667 29.2466 25.9335 29.4202 26.0002C29.5804 26.0536 29.7407 26.1071 29.9009 26.1471C30.1413 26.2005 30.3817 26.254 30.6354 26.2673C30.7689 26.2807 30.8758 26.3608 30.9425 26.4543C31.0226 26.5878 31.036 26.7881 30.9158 26.9217C30.6754 27.2021 30.4351 27.4959 30.1947 27.7763C30.1413 27.8431 30.0879 27.8965 30.0345 27.9633C29.981 28.03 29.9276 28.0835 29.8742 28.1502C29.8475 28.1769 29.8341 28.2036 29.8074 28.2303C29.7273 28.3238 29.6472 28.4173 29.5804 28.5108C29.4869 28.631 29.3801 28.7378 29.2866 28.858C29.2733 28.8713 29.2599 28.898 29.2466 28.9114C29.2199 28.9515 29.1798 28.9782 29.1531 29.0182C29.0997 29.0717 29.0596 29.1251 29.0062 29.1785C29.6338 29.1651 30.2748 29.0716 30.9158 28.898C31.0494 28.858 31.1962 28.8179 31.3298 28.7779C33.3863 28.1369 35.1357 26.8148 36.2975 25.1723C36.6981 24.6114 37.0186 24.0105 37.259 23.3962C37.5127 22.7419 37.6729 22.0742 37.7263 21.3931C37.7531 21.0593 37.7531 20.7254 37.713 20.3782C37.6596 20.0176 37.5794 19.6437 37.4726 19.2832ZM30.8223 24.785H30.809C30.4484 24.7316 30.0879 24.6381 29.7407 24.5179C29.7006 24.5046 29.6605 24.4912 29.6205 24.4779C29.5003 24.4245 29.3668 24.3577 29.2466 24.2909C29.2332 24.2776 29.2065 24.2776 29.1931 24.2642C29.0596 24.1841 28.8994 24.104 28.7658 24.0105C28.7525 23.9971 28.7525 23.9971 28.7391 23.9838C28.7124 23.9571 28.6723 23.917 28.6323 23.8903C28.4053 23.69 28.1515 23.4897 27.9512 23.2493C27.9112 23.1825 27.8577 23.1024 27.8177 23.0356C27.7643 22.9555 27.6975 22.8754 27.6441 22.7953C27.5506 22.6484 27.4705 22.4881 27.4037 22.3412C27.2702 21.9673 27.1767 21.5801 27.1099 21.1794C27.0832 20.9257 27.0565 20.672 27.0298 20.4183C27.0165 20.3114 27.0031 20.218 27.0031 20.1111C26.9897 20.031 26.9897 19.9642 26.9764 19.8841C26.9497 19.6838 26.923 19.4968 26.8963 19.3099C26.8696 19.1229 26.8295 18.9493 26.7894 18.7757C26.7627 18.6689 26.736 18.5621 26.696 18.4552C26.6826 18.4285 26.6692 18.3885 26.6692 18.3618C27.1366 17.9878 27.6574 17.654 28.2183 17.3869C28.3652 17.3068 28.5254 17.24 28.6857 17.1732C29.0329 17.0264 29.3935 16.9062 29.754 16.8127C30.3683 16.6524 30.9826 16.5723 31.5702 16.5723C32.7587 16.5723 33.827 16.8928 34.6816 17.4804L34.695 17.4937C35.6965 18.2015 36.3242 19.2832 36.431 20.5251C36.4711 20.9124 36.4577 21.2996 36.4043 21.6869C36.3108 22.3679 36.0838 23.049 35.7366 23.69C35.4027 24.331 34.9487 24.9319 34.4012 25.4794C33.8403 26.0536 33.1726 26.5477 32.4382 26.9484C32.4649 26.7881 32.4649 26.6412 32.4515 26.481C32.4382 26.3741 32.4248 26.2673 32.3981 26.1605C32.3847 26.1204 32.3848 26.0804 32.3714 26.0403C32.3714 26.0269 32.358 26.0136 32.358 26.0002C32.318 25.8667 32.2512 25.7332 32.1577 25.613C32.1444 25.5996 32.1444 25.5863 32.131 25.5863L32.1177 25.5729C32.1043 25.5462 32.0776 25.5328 32.0643 25.5061C32.0509 25.4928 32.0375 25.4794 32.0242 25.4527C31.9975 25.4127 31.9574 25.3859 31.9307 25.3592C31.8506 25.2791 31.7571 25.199 31.6636 25.1322C31.5835 25.0788 31.5034 25.0254 31.4233 24.9853C31.263 24.9052 31.1028 24.8651 30.9425 24.8251C30.9158 24.8117 30.8624 24.7984 30.8223 24.785Z" fill="#604221"/>
<path d="M70.2155 29.2449C69.6413 28.7241 69.0003 28.2701 68.3059 27.8828C67.8518 27.6291 67.3711 27.402 66.8904 27.2151C66.5565 27.0815 66.2093 26.9747 65.8621 26.8812C63.8189 26.3471 61.7891 26.5207 60.1466 27.3353C59.8528 27.4822 59.559 27.6424 59.2919 27.8427C57.823 28.871 56.9283 30.4334 56.7547 32.2362C56.6746 33.1443 56.7814 34.0523 57.0351 34.9337C57.1686 35.0405 57.2888 35.1741 57.3957 35.2809C57.4357 35.321 57.4891 35.3744 57.5292 35.4278C57.7295 35.6548 57.9298 35.8952 58.0901 36.1355C58.2637 36.3893 58.4106 36.6564 58.5441 36.9368C58.6643 37.1905 58.7578 37.4576 58.8513 37.7247C58.8646 37.7514 58.8646 37.7781 58.878 37.7914C58.9314 37.965 58.9714 38.1654 58.9714 38.3523C60.1199 39.661 61.6556 40.7293 63.3916 41.3436C63.6587 41.4371 63.9391 41.5172 64.2196 41.5973C65.0074 41.7976 65.7953 41.9045 66.5699 41.9045C68.159 41.9045 69.6279 41.4638 70.8031 40.6492C72.272 39.6209 73.1667 38.0585 73.3403 36.2557C73.554 33.7185 72.3121 31.1144 70.2155 29.2449ZM69.8416 39.2871C68.4795 40.2486 66.5832 40.5023 64.6202 39.9948C63.8056 39.7812 63.0311 39.4607 62.3366 39.0334C61.9227 38.793 61.5354 38.5126 61.1615 38.2054C59.519 36.8433 58.4506 34.9604 58.3705 33.0775C58.3572 32.8371 58.3705 32.6101 58.3839 32.3697C58.4907 31.2613 58.9714 30.2865 59.746 29.552C59.8929 29.4185 60.0531 29.285 60.2134 29.1648C61.1081 28.5371 62.2432 28.2033 63.4984 28.2033C64.1127 28.2033 64.7537 28.2834 65.3813 28.4437C65.3947 28.4437 65.4081 28.457 65.4214 28.457C66.0491 28.6173 66.65 28.8576 67.2108 29.1381C67.9186 29.4986 68.5596 29.9393 69.1338 30.4601C69.2139 30.5402 69.2941 30.607 69.3742 30.6871C70.3223 31.6085 71.0301 32.7169 71.404 33.8654C71.631 34.5865 71.7245 35.3343 71.6577 36.0688C71.5509 37.1638 71.0835 38.1386 70.309 38.8731C70.1754 39.0334 70.0152 39.1669 69.8416 39.2871Z" fill="#604221"/>
<path d="M66.8106 37.3784C66.7305 37.4986 66.6637 37.6054 66.6103 37.7256C66.5569 37.8458 66.5035 37.9526 66.4767 38.0728C66.45 38.2331 66.5569 38.38 66.7171 38.42C66.8774 38.4467 67.0243 38.3399 67.0643 38.1797C67.0643 38.1529 67.0643 38.1262 67.0643 38.1129C67.051 37.9927 67.0243 37.8725 66.9708 37.7523C66.9308 37.6188 66.8774 37.4986 66.8106 37.3784Z" fill="#F6C547"/>
<path d="M68.7354 37.3784C68.6686 37.2716 68.5751 37.1781 68.4683 37.098C68.3615 37.0045 68.2546 36.9244 68.1344 36.8442C68.1211 36.9911 68.1344 37.1247 68.1478 37.2582C68.1611 37.3918 68.1745 37.5253 68.2146 37.6455C68.268 37.7924 68.4416 37.8725 68.5885 37.8191C68.7354 37.7657 68.8155 37.5921 68.7621 37.4452C68.7621 37.4185 68.7487 37.4051 68.7354 37.3784Z" fill="#F6C547"/>
<path d="M69.6525 35.7228C69.6391 35.7094 69.6124 35.6961 69.5991 35.6827C69.4922 35.6293 69.372 35.6026 69.2385 35.5759C69.105 35.5492 68.9848 35.5358 68.8379 35.5225C68.9047 35.6426 68.9714 35.7628 69.0382 35.8697C69.105 35.9765 69.1851 36.0833 69.2786 36.1635C69.3988 36.2703 69.5857 36.2569 69.6925 36.1234C69.7994 36.0166 69.786 35.8296 69.6525 35.7228Z" fill="#F6C547"/>
<path d="M69.3337 34.1598C69.494 34.1732 69.6409 34.0664 69.6542 33.8928C69.6676 33.7325 69.5607 33.5856 69.3871 33.5723C69.3604 33.5723 69.3337 33.5723 69.307 33.5723C69.2002 33.5856 69.0933 33.639 68.9865 33.6925C68.8797 33.7459 68.7728 33.8126 68.666 33.8794C68.7728 33.9462 68.893 33.9996 68.9999 34.053C69.1201 34.1064 69.2269 34.1598 69.3337 34.1598Z" fill="#F6C547"/>
<path d="M68.4529 31.8894C68.3594 31.7558 68.1725 31.7158 68.0389 31.8092C68.0122 31.8226 67.9989 31.8493 67.9855 31.8627C67.9187 31.9428 67.8653 32.0496 67.8253 32.1564C67.7852 32.2633 67.7451 32.3835 67.7051 32.5037C67.8386 32.4903 67.9455 32.4636 68.0656 32.4235C68.1858 32.3968 68.2927 32.3568 68.3728 32.29C68.5063 32.2099 68.5464 32.0229 68.4529 31.8894Z" fill="#F6C547"/>
<path d="M61.8303 36.0431C61.7368 36.1232 61.6434 36.2034 61.5899 36.3102C61.5098 36.4437 61.5499 36.6307 61.6834 36.7108C61.817 36.7909 62.0039 36.7509 62.084 36.6173C62.0974 36.5906 62.1107 36.5773 62.1107 36.5506C62.1374 36.4437 62.1508 36.3235 62.1508 36.19C62.1508 36.0698 62.1508 35.9363 62.1241 35.8027C62.0173 35.8829 61.9238 35.963 61.8303 36.0431Z" fill="#F6C547"/>
<path d="M60.6277 34.3737C60.4808 34.4271 60.4007 34.6007 60.4541 34.7476C60.5075 34.8945 60.6811 34.9747 60.828 34.9212C60.8547 34.9079 60.8814 34.8945 60.8948 34.8812C60.9749 34.8144 61.055 34.7343 61.1218 34.6408C61.1886 34.5473 61.2553 34.4539 61.3221 34.3337C61.2019 34.3203 61.0817 34.3203 60.9616 34.3203C60.8414 34.3337 60.7212 34.347 60.6277 34.3737Z" fill="#F6C547"/>
<path d="M60.7616 32.2902C60.7082 32.2769 60.6681 32.2769 60.6147 32.2769C60.5079 32.2902 60.4144 32.357 60.3877 32.4638C60.3343 32.6107 60.4144 32.7843 60.5613 32.8377C60.588 32.8511 60.6147 32.8511 60.6414 32.8511C60.6681 32.8511 60.6815 32.8511 60.7082 32.8511C60.8017 32.8511 60.8951 32.8377 60.9886 32.811C61.1088 32.7843 61.229 32.7576 61.3492 32.7042C61.2557 32.6107 61.1622 32.5306 61.0687 32.4638C60.9619 32.397 60.8551 32.3303 60.7616 32.2902Z" fill="#F6C547"/>
<path d="M61.882 30.7675C61.882 30.7541 61.882 30.7541 61.882 30.7675C61.7752 30.634 61.6016 30.6206 61.468 30.7141C61.3479 30.8076 61.3211 30.9812 61.4013 31.1013C61.4013 31.1013 61.4146 31.1147 61.4146 31.1281C61.428 31.1414 61.4413 31.1681 61.468 31.1815C61.5615 31.2616 61.6817 31.315 61.8019 31.3684C61.9221 31.4218 62.0423 31.4619 62.1892 31.502C62.1624 31.3684 62.109 31.2349 62.069 31.1147C62.0156 30.9812 61.9621 30.861 61.882 30.7675Z" fill="#F6C547"/>
<path d="M63.3123 30.047C63.1788 30.0604 63.0719 30.1806 63.0586 30.3141C63.0586 30.3408 63.0586 30.3542 63.0586 30.3809C63.0586 30.4076 63.0719 30.4209 63.0719 30.4476C63.112 30.5678 63.1921 30.6747 63.2723 30.7815C63.3524 30.8883 63.4325 30.9952 63.5393 31.102C63.5794 30.9684 63.6061 30.8349 63.6195 30.7014C63.6328 30.5945 63.6462 30.4877 63.6462 30.3809C63.6462 30.3542 63.6462 30.3275 63.6462 30.3141C63.6195 30.1405 63.4726 30.0337 63.3123 30.047Z" fill="#F6C547"/>
<path d="M64.8207 28.8576C64.8207 28.8443 64.8074 28.8443 64.8207 28.8576C64.7272 28.7508 64.607 28.684 64.4735 28.6707C62.8443 28.5238 61.4021 29.0045 60.4005 29.8992C59.5993 30.6203 59.0919 31.5952 58.985 32.757C58.9583 32.984 58.9583 33.2244 58.9717 33.4647C59.0518 35.0272 59.8664 36.6029 61.1484 37.8048C61.6692 38.2855 62.2567 38.6995 62.8977 39.0334C63.0313 39.1001 63.1782 39.1669 63.3117 39.2337C63.3785 39.2604 63.4452 39.2737 63.512 39.2737C63.6055 39.2737 63.6856 39.247 63.7657 39.207C63.8592 39.1535 63.926 39.0734 63.9661 38.9799C63.9928 38.9265 64.0061 38.8731 64.0195 38.8197L64.2999 35.775L64.4334 34.3728L64.9142 29.2449C64.9409 29.0846 64.9008 28.9511 64.8207 28.8576ZM63.3117 30.0461C63.472 30.0194 63.6188 30.1396 63.6456 30.2999C63.6456 30.3266 63.6456 30.3533 63.6456 30.3666C63.6456 30.4735 63.6456 30.5803 63.6189 30.6871C63.6055 30.8207 63.5788 30.9542 63.5387 31.0877C63.4319 30.9809 63.3518 30.8741 63.2716 30.7672C63.1915 30.6604 63.1114 30.5536 63.0713 30.4334C63.058 30.4067 63.058 30.3933 63.058 30.3666C63.058 30.3399 63.058 30.3132 63.058 30.2999C63.0713 30.1797 63.1782 30.0728 63.3117 30.0461ZM61.1217 34.6533C61.0549 34.7467 60.9748 34.8402 60.8946 34.8936C60.8679 34.907 60.8546 34.9203 60.8279 34.9337C60.681 34.9871 60.5074 34.907 60.454 34.7601C60.4005 34.6132 60.4807 34.4396 60.6276 34.3862C60.7344 34.3461 60.8412 34.3461 60.9614 34.3461C61.0816 34.3461 61.2018 34.3461 61.322 34.3595C61.2552 34.4529 61.1884 34.5598 61.1217 34.6533ZM60.9748 32.8238C60.8813 32.8505 60.7878 32.8638 60.6943 32.8638C60.6676 32.8638 60.6543 32.8638 60.6276 32.8638C60.6008 32.8638 60.5741 32.8505 60.5474 32.8505C60.4005 32.797 60.3204 32.6234 60.3738 32.4766C60.4139 32.3697 60.5074 32.303 60.6008 32.2896C60.6409 32.2762 60.6943 32.2896 60.7477 32.303C60.8546 32.343 60.9481 32.4098 61.0415 32.4766C61.135 32.5433 61.2285 32.6234 61.322 32.7169C61.2151 32.757 61.0949 32.7971 60.9748 32.8238ZM62.1232 36.5495C62.1099 36.5762 62.1099 36.6029 62.0965 36.6163C62.0164 36.7498 61.8294 36.8032 61.6959 36.7098C61.5623 36.6296 61.5089 36.4427 61.6024 36.3091C61.6558 36.2157 61.7493 36.1222 61.8428 36.0421C61.9362 35.9619 62.0297 35.8818 62.1499 35.8017C62.1633 35.9352 62.1766 36.0554 62.1766 36.189C62.1633 36.3225 62.1499 36.4427 62.1232 36.5495ZM61.8027 31.3548C61.6825 31.3014 61.5623 31.248 61.4689 31.1679C61.4555 31.1545 61.4288 31.1412 61.4154 31.1144C61.4154 31.1144 61.4021 31.1011 61.4021 31.0877C61.322 30.9542 61.3487 30.7939 61.4689 30.7005C61.589 30.607 61.7626 30.6337 61.8695 30.7405L61.8828 30.7539C61.963 30.8474 62.003 30.9676 62.0564 31.0877C62.1099 31.2079 62.1499 31.3415 62.1766 31.475C62.0431 31.4483 61.9229 31.4082 61.8027 31.3548ZM62.8844 34.7067C62.6574 34.3728 62.5372 33.9856 62.5772 33.6116C62.6173 33.2511 62.7775 32.9573 63.0313 32.7436C63.1915 32.6101 63.3785 32.5166 63.5921 32.4632L63.5788 32.5967L63.4185 34.3328L63.3384 35.2141C63.1648 35.0539 63.0046 34.8936 62.8844 34.7067Z" fill="#BD1622"/>
<path d="M70.7758 33.3447C70.4153 32.3832 69.801 31.4752 68.9998 30.7273C68.4389 30.2065 67.7979 29.7525 67.0768 29.4053C67.01 29.3786 66.9566 29.3519 66.8898 29.3118C66.7429 29.245 66.5693 29.245 66.4224 29.3385C66.2755 29.4186 66.1821 29.5655 66.1687 29.7258L65.314 38.8866L65.274 39.2605C65.2606 39.3941 65.3007 39.5276 65.3942 39.6344C65.4877 39.7413 65.6078 39.808 65.7547 39.808C65.9016 39.8214 66.0485 39.8214 66.1821 39.8214C68.8395 39.8214 70.8827 38.1388 71.1097 35.7084C71.1765 34.9338 71.0563 34.1192 70.7758 33.3447ZM66.4892 38.072C66.5159 37.9518 66.556 37.845 66.6227 37.7248C66.6762 37.6046 66.7429 37.4978 66.8231 37.3776C66.8898 37.4978 66.9432 37.618 66.9833 37.7382C67.0234 37.8584 67.0634 37.9785 67.0768 38.0987C67.0768 38.1254 67.0768 38.1521 67.0768 38.1655C67.0501 38.3257 66.8898 38.4326 66.7296 38.4059C66.556 38.3792 66.4625 38.2323 66.4892 38.072ZM68.6793 33.8922C68.7861 33.8121 68.8929 33.7587 68.9998 33.7053C69.1066 33.6518 69.2134 33.5984 69.3202 33.5851C69.347 33.5851 69.3737 33.5851 69.4004 33.5851C69.5606 33.5984 69.6808 33.7453 69.6675 33.9056C69.6541 34.0658 69.5072 34.186 69.347 34.1727C69.2401 34.1593 69.1333 34.1192 69.0131 34.0658C68.8929 34.0124 68.7861 33.959 68.6793 33.8922ZM69.6942 36.1357C69.5873 36.2559 69.4004 36.2692 69.2802 36.1758C69.1867 36.0956 69.1066 35.9888 69.0398 35.882C68.973 35.7751 68.8929 35.6549 68.8395 35.5348C68.973 35.5348 69.1066 35.5615 69.2401 35.5882C69.3737 35.6149 69.4939 35.6416 69.6007 35.695C69.6274 35.7084 69.6407 35.7217 69.6541 35.7351C69.7876 35.8286 69.801 36.0155 69.6942 36.1357ZM68.4522 31.8891C68.5457 32.0227 68.5057 32.2096 68.3721 32.3031C68.2786 32.3699 68.1718 32.3966 68.065 32.4366C67.9581 32.4633 67.838 32.5034 67.7044 32.5168C67.7311 32.3966 67.7712 32.2764 67.8246 32.1696C67.8647 32.0627 67.9181 31.9559 67.9848 31.8758C67.9982 31.8624 68.0249 31.8357 68.0383 31.8224C68.1718 31.7155 68.3588 31.7556 68.4522 31.8891ZM68.1317 36.8435C68.2519 36.9236 68.3588 37.0037 68.4656 37.0972C68.5724 37.1907 68.6659 37.2708 68.7327 37.3776C68.746 37.391 68.7594 37.4177 68.7594 37.4444C68.8128 37.5913 68.7327 37.7649 68.5858 37.8183C68.4389 37.8717 68.2653 37.7916 68.2119 37.6447C68.1718 37.5245 68.1451 37.391 68.1451 37.2574C68.1317 37.1239 68.1317 36.9903 68.1317 36.8435ZM66.8498 33.3046C67.3572 33.7186 67.6644 34.3195 67.6109 34.9071C67.5575 35.4947 67.1569 35.9087 66.596 36.0556L66.8498 33.3046Z" fill="#BD1622"/>
<path d="M23.2887 33.9057C23.1285 34.3463 23.1018 34.8538 23.3021 35.2811C23.4089 35.4948 23.5692 35.6951 23.6226 35.9221C24.2636 36.2293 24.8378 36.6966 25.4521 37.0439C25.6257 37.1373 25.826 37.2709 26.0397 37.2308C26.24 37.1907 26.3735 37.0038 26.4136 36.8168C26.4536 36.6165 26.4269 36.4029 26.3869 36.2026C26.2667 34.9339 26.1465 33.7721 26.8409 32.7038C26.881 32.637 26.9344 32.5703 26.9744 32.5035C26.6806 32.2231 26.2266 32.0762 25.8126 32.0762C24.7043 32.0762 23.6626 32.8641 23.2887 33.9057Z" fill="#7E3629"/>
<path d="M26.8143 31.2615C26.7075 31.1681 26.5873 31.0879 26.4671 31.0345C25.6392 30.6205 24.6243 30.7274 23.7963 31.1547C23.6494 31.2348 23.5025 31.315 23.369 31.4218C22.4876 32.0628 21.9134 33.0777 21.5929 34.1193C21.4727 34.4932 21.406 34.9472 21.6463 35.2544C21.9134 35.5882 22.4075 35.5882 22.8215 35.6683C23.1019 35.7218 23.369 35.8152 23.6227 35.9354C23.5693 35.7084 23.4091 35.5081 23.3022 35.2944C23.1019 34.8671 23.142 34.3597 23.2889 33.919C23.6494 32.8774 24.7044 32.0895 25.8128 32.1028C26.2268 32.1028 26.6808 32.2497 26.9746 32.5302C27.0681 32.3966 27.1482 32.2497 27.1749 32.0895C27.2283 31.769 27.0547 31.4752 26.8143 31.2615Z" fill="#CE876E"/>
<path d="M57.5692 37.3243C57.2087 36.4697 56.3807 35.6685 55.4059 35.6818C55.4059 35.6952 55.3925 35.7219 55.3925 35.7352C55.0854 36.5231 54.4043 37.124 54.204 37.9386C54.0571 38.5396 54.1773 39.1672 54.3108 39.7681C54.3509 39.9818 54.4177 40.2222 54.5913 40.3423C54.8584 40.5293 55.2323 40.3691 55.5261 40.2222C56.1403 39.915 56.7947 39.7014 57.4624 39.5545C57.636 39.234 57.7695 38.9268 57.7829 38.5529C57.8229 38.1256 57.7428 37.7116 57.5692 37.3243Z" fill="#7E3629"/>
<path d="M58.8786 37.7919C58.8653 37.7652 58.8653 37.7385 58.8519 37.7252C58.7718 37.4581 58.6649 37.191 58.5448 36.9373C58.4112 36.6568 58.2643 36.3898 58.0907 36.136C57.9171 35.8823 57.7302 35.6419 57.5298 35.4283C57.4898 35.3749 57.4364 35.3348 57.3963 35.2814C57.2895 35.1745 57.1693 35.041 57.0358 34.9342C56.8755 34.7873 56.6885 34.6671 56.5016 34.627C56.3948 34.6003 56.2746 34.587 56.1544 34.6137C55.7137 34.7205 55.5802 35.2547 55.4199 35.682C56.3948 35.6553 57.2094 36.4565 57.5833 37.3245C57.7435 37.7118 57.8236 38.1258 57.8103 38.5531C57.7969 38.927 57.6634 39.2342 57.4898 39.5547C57.5165 39.5547 57.5566 39.5413 57.5833 39.5279C58.064 39.4345 58.6249 39.3276 58.8786 38.9137C58.9854 38.7401 59.0121 38.5531 58.9988 38.3528C58.9721 38.1658 58.932 37.9655 58.8786 37.7919Z" fill="#B8703E"/>
<path d="M30.9265 26.4546C30.606 26.5881 30.2721 26.6816 29.9383 26.695C29.778 26.7083 29.6178 26.695 29.4575 26.6682C29.4175 26.6682 29.3774 26.6549 29.3374 26.6415C29.1504 26.6015 28.9634 26.5347 28.8032 26.4546C28.2023 26.1608 27.7482 25.64 27.2942 25.1592C27.2808 25.1459 27.2808 25.1459 27.2675 25.1325C27.1874 25.0391 27.0939 24.9589 27.0004 24.8788C26.5864 24.5049 26.1057 24.2111 25.5849 23.9974C25.4113 23.9307 25.2377 23.8639 25.0641 23.8105C24.9038 23.7571 24.7436 23.717 24.57 23.6903C24.4364 23.6636 24.3029 23.6502 24.1694 23.6369C24.0759 23.6235 23.969 23.6235 23.8756 23.6235C23.8222 23.6235 23.7687 23.6235 23.7153 23.6235C23.6619 23.6235 23.6085 23.6235 23.5551 23.6235C23.4482 23.6235 23.3414 23.6369 23.2346 23.6502C23.1277 23.6636 23.0209 23.677 22.9274 23.7037C22.874 23.717 22.8206 23.7304 22.7672 23.7304C22.7538 23.7304 22.7405 23.7304 22.7271 23.7437C22.6871 23.7571 22.647 23.7704 22.6069 23.7838C22.4333 23.8372 22.2597 23.8906 22.0995 23.9707C22.0995 24.0909 22.0861 24.2245 22.0861 24.3447C22.0461 25.2794 21.8458 26.2142 21.4852 27.0822C21.325 27.4828 20.9911 27.9235 20.497 27.7366C20.0697 27.5763 19.9228 27.0422 19.7759 26.6682C19.7358 26.5614 19.7091 26.4546 19.6691 26.3478C19.5088 26.5881 19.3753 26.8418 19.2417 27.0822C19.1483 27.2558 19.0548 27.4428 18.9613 27.6164C18.9613 27.9102 18.8411 28.1906 18.6141 28.3642C17.8262 30.2471 17.4924 32.3303 18.3337 34.28C18.3604 34.3334 18.3871 34.3868 18.4138 34.4403C18.4806 34.4269 18.5607 34.4002 18.6275 34.3735C19.3352 34.0797 19.5889 33.2518 19.9228 32.5574C21.0045 30.3005 23.7554 28.9785 26.1858 29.5527C26.8402 29.6996 27.5212 29.98 28.1488 29.753C28.4693 29.6462 28.7231 29.4192 28.9501 29.1654C29.0035 29.112 29.0436 29.0586 29.097 29.0052C29.1237 28.9651 29.1637 28.9384 29.1905 28.8984C29.2038 28.885 29.2172 28.8583 29.2305 28.8449C29.324 28.7381 29.4308 28.6179 29.5243 28.4977C29.6044 28.4043 29.6846 28.3108 29.7513 28.2173C29.778 28.1906 29.7914 28.1639 29.8181 28.1372C29.8715 28.0704 29.9249 28.017 29.9783 27.9502C30.0318 27.8835 30.0852 27.83 30.1386 27.7633C30.379 27.4828 30.6193 27.189 30.8597 26.9086C31.02 26.7884 31.02 26.6015 30.9265 26.4546ZM25.5982 26.2142C25.5582 26.3878 25.5181 26.5614 25.4647 26.735C25.4513 26.7751 25.438 26.8018 25.4246 26.8418C25.4113 26.8686 25.4113 26.8819 25.3979 26.9086C25.3846 26.9353 25.3712 26.9754 25.3579 27.0021C25.3312 27.0555 25.3044 27.0956 25.2777 27.1356C25.211 27.2158 25.1442 27.2959 25.0507 27.3627C24.9572 27.4294 24.8638 27.4828 24.7569 27.5229C24.7035 27.5496 24.6367 27.563 24.5833 27.5763C24.5166 27.5897 24.4631 27.603 24.3964 27.6164C24.3163 27.6297 24.2361 27.6297 24.1694 27.6297C23.702 27.6164 23.1945 27.2024 23.3548 26.6816C23.3815 26.6148 23.4215 26.5481 23.4482 26.4813C23.4749 26.4279 23.515 26.3745 23.5417 26.3344C23.5551 26.3077 23.5684 26.281 23.5818 26.2543C23.5951 26.2276 23.6085 26.2009 23.6219 26.1741C23.6753 26.0406 23.702 25.8804 23.742 25.7468C23.7821 25.8403 23.8355 25.9338 23.8889 26.0273C23.8355 25.9338 23.7821 25.8403 23.742 25.7468C23.7687 25.6533 23.8088 25.5599 23.8489 25.4797C23.8756 25.4397 23.8889 25.413 23.9156 25.3863C23.9557 25.3462 23.9958 25.3061 24.0358 25.2661C24.0759 25.2394 24.1159 25.1993 24.1694 25.1726C24.2495 25.1325 24.3296 25.1058 24.4231 25.0791C24.5833 25.0391 24.7569 25.0391 24.9172 25.0925C24.9439 25.1058 24.9706 25.1058 24.9973 25.1192C25.1976 25.1993 25.3846 25.3596 25.5048 25.5465C25.5982 25.6934 25.6249 25.8403 25.6249 26.0005C25.6116 26.0673 25.6116 26.1341 25.5982 26.2142Z" fill="#3F7D3B"/>
<path d="M21.9836 22.595C21.9035 22.3546 21.7566 22.1143 21.5296 21.9941C21.1156 21.7938 20.6081 22.0074 20.2876 22.2879C19.887 22.6618 19.6734 23.1959 19.5799 23.7301C19.4196 24.5981 19.473 25.4928 19.7134 26.3475C19.7401 26.4543 19.7802 26.5611 19.8203 26.668C19.9538 27.0552 20.114 27.5894 20.5414 27.7363C21.0355 27.9099 21.356 27.4692 21.5296 27.082C21.8901 26.2139 22.1038 25.2792 22.1305 24.3444C22.1305 24.2242 22.1438 24.104 22.1438 23.9705C22.1572 23.6366 22.1439 23.3028 22.0904 22.9823C22.0637 22.8487 22.0237 22.7152 21.9836 22.595Z" fill="#604221"/>
<path d="M25.5089 25.5326C25.3887 25.3456 25.2151 25.1854 25.0015 25.1052C24.9747 25.0919 24.948 25.0919 24.9213 25.0785C24.7611 25.0251 24.5875 25.0251 24.4272 25.0652C24.3338 25.0785 24.2536 25.1186 24.1735 25.1587C24.1201 25.1854 24.08 25.2121 24.04 25.2521C23.9999 25.2922 23.9598 25.3323 23.9198 25.3723C23.8931 25.399 23.8664 25.4391 23.853 25.4658C23.7996 25.5459 23.7729 25.6394 23.7462 25.7329C23.7862 25.8264 23.8397 25.9198 23.8931 26.0133C23.8397 25.9198 23.7862 25.8264 23.7462 25.7329C23.7061 25.8798 23.6794 26.0267 23.626 26.1602C23.6126 26.1869 23.5993 26.2136 23.5859 26.2403C23.5726 26.267 23.5592 26.2937 23.5459 26.3205C23.5192 26.3739 23.4791 26.4273 23.4524 26.4673C23.4123 26.5341 23.3723 26.6009 23.3589 26.6677C23.1987 27.1751 23.6928 27.5891 24.1735 27.6158C24.2536 27.6158 24.3338 27.6158 24.4005 27.6024C24.4673 27.5891 24.5207 27.5757 24.5875 27.5624C24.6409 27.549 24.7077 27.5223 24.7611 27.509C24.8679 27.4689 24.9614 27.4155 25.0549 27.3487C25.135 27.2819 25.2151 27.2152 25.2819 27.1217C25.3086 27.0816 25.3487 27.0416 25.362 26.9882C25.3754 26.9614 25.3887 26.9347 25.4021 26.8947C25.4154 26.8813 25.4154 26.8546 25.4288 26.8279C25.4421 26.7878 25.4555 26.7611 25.4688 26.7211C25.5223 26.5475 25.5757 26.3739 25.6024 26.2003C25.6157 26.1335 25.6291 26.0534 25.6291 25.9866C25.6291 25.8264 25.589 25.6661 25.5089 25.5326Z" fill="#604221"/>
<path d="M18.7115 26.708C18.5779 26.4009 18.5245 26.1071 18.4578 25.7732C18.4311 25.6664 18.4044 25.5596 18.3509 25.4661C18.3242 25.4127 18.2842 25.3592 18.2441 25.3192C17.8702 24.9987 17.2425 25.2124 16.9354 25.5328C16.428 26.0537 16.3745 26.9751 16.655 27.6161C16.7885 27.9099 17.0022 28.1769 17.2693 28.3639C17.6165 28.5909 18.0438 28.6844 18.4711 28.4974C18.5512 28.4707 18.6047 28.4173 18.6714 28.3772C18.8984 28.2036 19.0186 27.9366 19.0186 27.6294C19.0186 27.6161 19.0186 27.6161 19.0186 27.6027C19.0053 27.4291 18.9652 27.2555 18.8984 27.0953C18.8317 26.9617 18.7649 26.8282 18.7115 26.708Z" fill="#604221"/>
<path d="M10.4856 123.324L7.1204 98.3524C7.05363 97.3909 7.18717 96.4027 7.48096 95.4813C17.2294 65.5951 41.6939 42.3858 72.3146 34.4402C76.9484 33.225 81.5822 36.6169 81.7692 41.411C81.7692 41.451 81.7692 41.4778 81.7692 41.5178C81.7692 41.7181 81.7692 41.9451 81.7425 42.1455L74.6648 123.324C74.6648 130.295 68.9761 135.984 62.0053 135.984H23.1719C16.2011 135.984 10.4856 130.282 10.4856 123.324Z" fill="#F8E8CE"/>
<path d="M62.0041 138H23.1707C15.1316 138 8.56149 131.51 8.49472 123.457L5.15622 98.6189C5.15622 98.5788 5.15622 98.5254 5.12951 98.4853C5.03604 97.2568 5.19628 96.0415 5.58355 94.853C10.4711 79.8432 19.1645 66.182 30.689 55.2985C42.2669 44.3616 56.4889 36.5095 71.8193 32.5166C74.6637 31.7822 77.6149 32.3564 79.9786 34.1325C82.2888 35.8551 83.6777 38.4992 83.7711 41.3703V41.5039C83.7711 41.7309 83.7711 41.998 83.7444 42.2917C83.7444 42.3185 83.7444 42.3185 83.7444 42.3318L76.6935 123.431C76.6401 131.456 70.0699 138 62.0041 138ZM9.12235 98.1381L12.4876 123.043C12.5143 123.137 12.5143 123.217 12.5143 123.31C12.5143 129.186 17.2816 133.967 23.1707 133.967H62.0175C67.8932 133.967 72.674 129.199 72.674 123.31C72.674 123.244 72.674 123.204 72.674 123.137L79.7516 41.9713C79.7516 41.7977 79.7783 41.6641 79.7783 41.5439V41.4504C79.7382 39.8213 78.9236 38.2856 77.6016 37.3107C76.2395 36.2825 74.5168 35.9486 72.8476 36.3759C58.1715 40.1818 44.5505 47.7268 33.4667 58.1963C22.4229 68.6125 14.1167 81.7127 9.4295 96.0816C9.18913 96.7493 9.09565 97.4437 9.12235 98.1381Z" fill="#604221"/>
<path d="M62.3606 53.8033C58.9821 50.5316 55.3097 47.5937 51.3837 45.0698C46.8299 47.6872 42.5834 50.8254 38.7107 54.3909C32.9151 59.7191 28.0275 65.9555 24.2617 72.806L26.6521 105.27C26.612 111.412 31.553 116.447 37.6958 116.54L66.1665 116.928C70.1594 115.272 73.9385 111.372 74.032 106.805L76.9699 73.1132C73.3243 66.0623 68.1028 59.3586 62.3606 53.8033Z" fill="#E5BE97"/>
<path d="M73.2719 123.324L76.6371 98.3524C76.7038 97.3909 76.5703 96.4027 76.2765 95.4813C66.5281 65.5951 42.0636 42.3858 11.4429 34.4402C6.80907 33.225 2.17524 36.6169 1.98828 41.411C1.98828 41.451 1.98828 41.4778 1.98828 41.5178C1.98828 41.7181 1.98828 41.9451 2.01499 42.1455L9.0926 123.324C9.0926 130.295 14.7814 135.984 21.7522 135.984H60.5989C67.5563 135.984 73.2719 130.282 73.2719 123.324Z" fill="#F8E8CE"/>
<path d="M60.6004 138H21.7536C13.6878 138 7.13103 131.456 7.07761 123.417L0.0267096 42.3185C0.0267096 42.2917 0.0267096 42.2917 0.0267096 42.2784C1.62973e-06 41.9713 0 41.7175 0 41.4772V41.3703C0.0934779 38.4992 1.48229 35.8551 3.77918 34.1325C6.12948 32.3564 9.10742 31.7822 11.9385 32.5166C27.2555 36.5095 41.4908 44.3616 53.0687 55.2985C64.6066 66.182 73.3 79.8699 78.1742 94.853C78.5615 96.0415 78.7084 97.2434 78.6283 98.4853C78.6283 98.5254 78.6283 98.5788 78.6015 98.6189L75.2631 123.457C75.1963 131.47 68.6395 138 60.6004 138ZM4.0329 41.9846L11.1105 123.15C11.1105 123.217 11.1105 123.257 11.1105 123.324C11.1105 129.199 15.8779 133.98 21.767 133.98H60.6137C66.4895 133.98 71.2702 129.213 71.2702 123.324C71.2702 123.23 71.2702 123.15 71.2969 123.057L74.6621 98.1515C74.7022 97.4571 74.6221 96.7626 74.395 96.095C69.7078 81.7394 61.4016 68.6258 50.3579 58.2097C39.2741 47.7535 25.653 40.1952 10.977 36.3893C9.32108 35.962 7.59842 36.2958 6.22296 37.3241C4.87421 38.3123 4.09967 39.8346 4.04626 41.4638V41.5573C4.00619 41.6641 4.0062 41.7976 4.0329 41.9846Z" fill="#604221"/>
<path d="M24.1039 99.4199C20.8589 99.4199 18.2148 102.064 18.2148 105.309C18.2148 108.554 20.8589 111.198 24.1039 111.198C27.349 111.198 29.9931 108.554 29.9931 105.309C29.9931 102.037 27.349 99.4199 24.1039 99.4199Z" fill="#604221"/>
<path d="M59.3598 99.4199C56.1148 99.4199 53.4707 102.064 53.4707 105.309C53.4707 108.554 56.1148 111.198 59.3598 111.198C62.6048 111.198 65.2489 108.554 65.2489 105.309C65.2623 102.037 62.6182 99.4199 59.3598 99.4199Z" fill="#604221"/>
<path d="M32.3711 115.698V115.739V115.765C32.4112 120.252 36.7111 123.898 41.9993 123.898C47.2875 123.898 51.6142 120.225 51.6275 115.725L51.5875 115.325H51.5474C51.3204 114.203 50.1319 113.348 48.7431 113.348H35.1888C33.7733 113.348 32.6115 114.203 32.3844 115.325" fill="#604221"/>
<path d="M47.5158 118.543C47.5158 117.982 46.8481 117.542 46.0335 117.542H37.9276C37.1264 117.542 36.4453 117.996 36.4453 118.543C36.4453 120.76 38.9291 122.536 41.9739 122.536C45.0319 122.563 47.4891 120.773 47.5158 118.543Z" fill="#FF5A5A"/>
<path d="M58.5574 103.292C58.5574 103.96 58.0232 104.507 57.3422 104.507C56.6611 104.507 56.127 103.973 56.127 103.292C56.127 102.611 56.6611 102.077 57.3422 102.077C57.9965 102.077 58.5574 102.624 58.5574 103.292Z" fill="white"/>
<path d="M23.2351 103.292C23.2351 103.96 22.701 104.507 22.0199 104.507C21.3389 104.507 20.8047 103.973 20.8047 103.292C20.8047 102.611 21.3389 102.077 22.0199 102.077C22.6876 102.077 23.2351 102.624 23.2351 103.292Z" fill="white"/>
<path d="M55.6863 79.6429H27.8032C27.082 79.6429 26.5078 78.6147 26.5078 77.3327C26.5078 76.0774 27.0954 75.0225 27.8032 75.0225H55.6729C56.394 75.0225 56.9682 76.0507 56.9682 77.3327C56.9682 78.588 56.3807 79.6429 55.6863 79.6429Z" fill="#EFD2AF"/>
<path d="M55.6863 96.1888H27.8032C27.082 96.1888 26.5078 95.1606 26.5078 93.8786C26.5078 92.6233 27.0954 91.5684 27.8032 91.5684H55.6729C56.394 91.5684 56.9682 92.5966 56.9682 93.8786C56.9682 95.1606 56.3807 96.1888 55.6863 96.1888Z" fill="#EFD2AF"/>
<path d="M55.6863 87.6288H27.8032C27.082 87.6288 26.5078 86.6005 26.5078 85.3185C26.5078 84.0633 27.0954 83.0083 27.8032 83.0083H55.6729C56.394 83.0083 56.9682 84.0366 56.9682 85.3185C56.9682 86.6005 56.3807 87.6288 55.6863 87.6288Z" fill="#EFD2AF"/>
<path d="M12.5684 34.7207V61.9895C12.5684 63.8057 14.064 65.3013 15.8802 65.3013H15.9202C17.7364 65.3013 19.232 63.8057 19.232 61.9895V36.9241C17.0687 36.0962 14.8519 35.3483 12.5684 34.7207Z" fill="#F57745"/>
<path d="M15.9329 66.9837H15.8928C13.1419 66.9837 10.8984 64.7402 10.8984 61.9893V34.7205C10.8984 34.1997 11.1388 33.6922 11.5661 33.3717C11.9935 33.0646 12.5276 32.9444 13.0484 33.0779C15.3587 33.7056 17.6422 34.4667 19.8857 35.3347C20.54 35.5751 20.9673 36.2028 20.9673 36.8972V61.9626C20.9273 64.7402 18.6838 66.9837 15.9329 66.9837ZM14.2503 36.9639V61.9893C14.2503 62.884 14.9848 63.6185 15.8795 63.6185H15.9195C16.8143 63.6185 17.5487 62.884 17.5487 61.9893V38.0857C16.4671 37.685 15.372 37.3245 14.2503 36.9639Z" fill="#604221"/>
<path d="M28.3095 57.7691H28.3496C30.1657 57.7691 31.6614 56.2734 31.6614 54.4573V43.28C29.5114 41.8912 27.2946 40.6092 24.9844 39.4741V54.4573C24.9977 56.3001 26.5067 57.7691 28.3095 57.7691Z" fill="#F57745"/>
<path d="M28.3626 59.4788H28.3225C25.5716 59.4788 23.3281 57.2354 23.3281 54.4845V39.5013C23.3281 38.9137 23.6219 38.3796 24.1294 38.0724C24.6235 37.7653 25.2511 37.7386 25.7586 38.0056C28.0821 39.1674 30.3924 40.4895 32.5958 41.905C33.0632 42.2121 33.357 42.7597 33.357 43.3205V54.4978C33.357 57.2354 31.1135 59.4788 28.3626 59.4788ZM26.7067 42.2789V54.4845C26.7067 55.3792 27.4412 56.1136 28.3359 56.1136H28.3759C29.2706 56.1136 30.0051 55.3792 30.0051 54.4845V44.2286C28.9234 43.5208 27.8151 42.8798 26.7067 42.2789Z" fill="#604221"/>
</svg>
