<?xml version="1.0" encoding="utf-8"?>
<!-- Generator: Adobe Illustrator 24.1.2, SVG Export Plug-In . SVG Version: 6.00 Build 0)  -->
<svg version="1.1" id="Layer_1" xmlns:v="https://vecta.io/nano"
	 xmlns="http://www.w3.org/2000/svg" xmlns:xlink="http://www.w3.org/1999/xlink" x="0px" y="0px" viewBox="0 0 202 141.1"
	 style="enable-background:new 0 0 202 141.1;" xml:space="preserve">
<style type="text/css">
	.st0{fill:#8FBB5E;}
	.st1{fill:#688043;}
	.st2{fill:#B7D490;}
	.st3{opacity:0.57;}
	.st4{fill:#A9C265;}
	.st5{opacity:0.29;}
	.st6{fill:#FFFFFF;}
	.st7{opacity:0.56;}
	.st8{fill:#DB613F;}
	.st9{opacity:0.33;}
	.st10{opacity:0.32;}
	.st11{fill:#EEDCD2;}
	.st12{opacity:0.38;}
	.st13{fill:#F6E267;}
	.st14{opacity:0.77;}
	.st15{fill:#5B4425;}
	.st16{fill:#ECB84D;}
	.st17{fill:#211F1D;}
	.st18{fill:none;}
	.st19{opacity:0.13;}
	.st20{fill:#486B55;}
	.st21{fill:#E27C55;}
	.st22{opacity:0.5;}
	.st23{fill:#030303;}
	.st24{opacity:0.24;}
	.st25{fill:#D0E3B5;}
	.st26{opacity:0.28;}
	.st27{fill:#C6DB99;}
	.st28{fill:#62538C;}
	.st29{fill:#F9EDFA;}
	.st30{opacity:0.2;}
	.st31{fill:#7B3C78;}
</style>
<g>
	<g>
		<g>
			<g>
				<g>
					<path class="st0" d="M56.4,63.2c-0.7,3-3.8,4.9-6.9,5.7c-3,0.8-6.2,0.8-9.2,1.8c-1.8,0.6-3.4,1.5-5.2,1.9
						c-2.4,0.6-4.9,0.3-7.3,0c2.5-1.1,4.6-3.2,5.7-5.7c0.9-2.3,1.1-4.9,2.6-6.8c1.4-1.9,4.1-2.9,6.4-2.3c0.9,0.2,1.8,0.7,2.8,0.7
						c2.2,0,3.8-2.1,5.1-3.9c1.9-2.5,4.4-4.7,7.3-6.1c2.9-1.3,6.3-1.7,9.3-0.6c1.7,0.6,3.3,1.6,5.1,1.7c3.2,0.1,5.9-2.6,9-2.5
						c2.6,0.1,4.7,2.2,6.5,4.1c2.3,2.4,4.9,4.8,8,5.9c1.2,0.5,2.7,0.8,3.2,2c0.9,2-1.6,4.8-0.2,6.5c-3.9-1.1-7.7-2.8-11.1-5
						c-1.8-1.1-3.6-2.4-5.6-2.8c-1.9-0.3-3.9,0.1-5.8,0.6c-2.8,0.7-5.6,1.4-8.3,2.1c-1.9,0.5-4,0.9-5.8,0.2
						c-1.3-0.6-2.7-1.7-3.9-1.1C56.8,60.2,56.7,61.9,56.4,63.2z"/>
				</g>
			</g>
			<g>
				<g>
					<path class="st1" d="M72.9,52.3c2.7-0.8,5.3-1.7,7.9-2.7c1.3-0.5,2.6-1,3.9-1c2.8,0,5.3,2.8,5,5.6c-0.1,1.3-0.7,2.6-0.1,3.8
						c1,1.8,3.6,1.2,5.7,1.3c3.1,0.2,5.8,2.9,6,5.9c-6.7,0.3-13.3,3-18.3,7.4c-0.5-2.3-3.1-3.5-5.5-4c-11.9-2.7-24.9,0.2-34.5,7.7
						c-1.9-1.3-3.7-2.5-5.6-3.8c-0.5-0.3-1-0.7-1.3-1.2c-0.3-0.6-0.2-1.3-0.1-2c0.2-1.7,0.5-3.4,1.3-4.9c0.8-1.5,2.2-2.8,3.9-2.9
						c1.6-0.1,3.1,0.8,4.7,1.3s3.6,0.5,4.4-1c1.2-2-1.1-5.3,0.8-6.7c1.5-1,3.8,0.7,5.3-0.4c0.7-0.5,0.9-1.5,1.4-2.2
						c0.9-1.2,2.8-1.4,4.3-1.1s2.9,1.1,4.4,1.4C68.7,53.5,70.8,52.9,72.9,52.3z"/>
				</g>
			</g>
			<g>
				<g>
					<g>
						<path class="st1" d="M30.5,71c0.6-0.8,1.3-1.4,2-2.1c0.7-0.7,1.4-1.3,2-2c0.6-0.6,1.3-1.2,2.1-1.2c1.3,0,2.1,1.3,2.6,2.5
							c0.4,1.2,1,2.6,2.2,3c0.8,0.2,1.6,0,2.4,0.3c0.5,0.2,0.9,0.6,1.3,1.1c0.8,0.9,1.7,1.9,2.5,2.8c0.9,1,1.8,2,2.3,3.3
							c0.6,1.5,0.4,3.2,0.6,4.9c0.4,3,1.9,5.8,2.2,8.8c0,0.3,0,0.5-0.1,0.8c-0.1,0.2-0.3,0.4-0.5,0.5c-1.5,1.1-3.1,2.1-4.9,2.7
							c-2.2,0.7-4.6,0.6-6.9,0.4c-3.2-0.3-6.5-0.9-9.4-2.3c-0.8-0.4-1.5-0.9-2.1-1.6c-0.7-0.9-0.8-2-1-3.1c-0.4-3.2-0.9-6.5-0.6-9.7
							C27.6,76.8,28.5,73.5,30.5,71z"/>
					</g>
				</g>
				<g>
					<g>
						<path class="st2" d="M36.5,76.6c-0.7-1.1-0.6-2.5-0.7-3.8c0-1.3-0.4-2.8-1.5-3.4C33.7,69,33,69,32.2,69.2
							c0.1-0.1,0.2-0.2,0.3-0.3c0.7-0.7,1.4-1.3,2-2c0.6-0.6,1.3-1.2,2.1-1.2c1.3,0,2.1,1.3,2.6,2.5c0.4,1.2,1,2.6,2.2,3
							c0.8,0.2,1.6,0,2.4,0.3c0.5,0.2,0.9,0.6,1.3,1.1c0.8,0.9,1.7,1.9,2.5,2.8c0.9,1,1.8,2,2.3,3.3c0.6,1.5,0.4,3.2,0.6,4.9
							c0,0.1,0,0.3,0.1,0.4c-1.6-1.5-2.8-3.5-4.2-5.2c-0.4-0.5-0.9-1-1.5-1.2c-0.5-0.1-0.9,0-1.4,0.1c-1.2,0.3-2.5,0.6-3.8,0.5
							C38.5,78.2,37.2,77.6,36.5,76.6z"/>
					</g>
				</g>
			</g>
			<g>
				<g>
					<g>
						<path class="st0" d="M47.6,77.6c-0.1-1.8-0.9-3.5-1.2-5.3s-0.2-3.8,1-5.1c2.6-2.8,7.7-0.2,11-2.1c2.8-1.6,3.2-5.5,5.4-7.8
							c1.4-1.4,3.4-2.1,5.3-2.6c1-0.3,2.1-0.6,3.2-0.3c1,0.3,1.9,1.5,1.5,2.5c-0.4,0.9-1.5,1.2-2.2,1.8c-1.4,1.4-0.4,3.9,1.3,4.9
							c1.7,1,3.7,1.1,5.6,1.8c4.7,1.7,7.6,6.7,8.2,11.7c0.6,5-0.7,10-2,14.8c-1.1,4.1-2.6,8.7-6.4,10.4c-1.8,0.9-4,0.9-6,0.8
							c-6.4-0.2-12.7-1-18.9-2.5c-3.4-0.8-7.1-2.1-8.6-5.3C42,89.9,48.1,83.8,47.6,77.6z"/>
					</g>
				</g>
				<g>
					<g class="st3">
						<g>
							<path class="st4" d="M82.3,75.7c-2.2-2.2-4.6-4.1-6.4-6.6c2.9,1.6,6.2,2.7,9.5,3.3c0.6,1.5,1.1,3.1,1.3,4.7
								c0.2,1.8,0.2,3.7,0,5.5C86.1,80,84.3,77.7,82.3,75.7z"/>
						</g>
					</g>
				</g>
				<g>
					<g>
						<path class="st2" d="M48.6,72.5c-0.4,1-0.6,2.2-1.4,3c0,0,0,0,0,0c-0.3-1-0.6-2.1-0.8-3.1c-0.3-1.8-0.2-3.8,1-5.1
							c2.6-2.8,7.7-0.2,11-2.1c2.8-1.6,3.2-5.5,5.4-7.8c1.4-1.4,3.4-2.1,5.3-2.6c1-0.3,2.1-0.6,3.2-0.3c1,0.3,1.9,1.5,1.5,2.5
							c-0.3,0.8-1.3,1.1-2,1.7c-1-0.3-2.1-0.8-3.2-0.8c-1.6,0.1-2.9,1.3-3.4,2.8c-0.6,1.5-0.5,3.1-0.4,4.7c0.1,1.6,0.3,3.2,0,4.7
							c-0.5,2.6-2.5,4.9-5.1,5.5c-2.6,0.7-5.5-0.5-6.9-2.7c-0.4-0.7-0.8-1.6-1.6-1.9C50.1,70.5,49.1,71.5,48.6,72.5z"/>
					</g>
				</g>
				<g class="st5">
					<g>
						<path class="st6" d="M79,81.9c-3,0.3-5.5-2.3-8.5-3.2c0.1,0.8,0.1,1.6,0.2,2.3c0,0.2,0,0.4-0.1,0.6c-0.2,0.3-0.7,0.2-1.1,0.1
							c-0.8-0.3-1.6-0.7-2.4-1c-0.2,3.1-2.4,6-5.3,7.1c-0.5,0.2-1,0.3-1.5,0.3c-1.9-0.2-2.6-2.1-2.8-3.7c-0.1-1-0.5-4.6,0.7-5.1
							c0.3-0.1,0.6,0,0.9,0c1.7,0.2,3.4-0.2,4.8-1.1c0.5-0.3,1-0.8,1.6-0.8c0.6-0.1,0.9,0.3,1.5,0.4c0.6,0.1,1.1-0.5,1.2-1.1
							c0.2-1.6-0.4-3,0.8-4.4c0.9-1.1,2.4-1.3,3.7-0.8c3.4,1.1,7.2,3.2,8.2,6.9C81.4,79.9,80.9,81.7,79,81.9z"/>
					</g>
				</g>
			</g>
			<g>
				<g>
					<g>
						<path class="st0" d="M75.8,64.6C75.2,63.9,75,62.9,75,62c0.1-2.7,2.1-5.1,4.7-5.7c2.6-0.6,5.5,0.7,6.8,3.1
							c0.4,0.8,0.7,1.7,1.4,2.3c1.2,1.2,3.2,0.9,4.8,0.8c2.3-0.2,4.7-0.1,6.9,0.7c2.2,0.8,4.1,2.5,4.8,4.7c0.7,2.2,0,4.9-2,6.2
							c-1.4,0.9-3.5,1.4-3.6,3c0,0.8,0.5,1.5,1,2.2c5.4,7.4,6.2,17.7,2.6,26.1c-3.6,8.4-11.5,14.8-20.3,17.1
							c-2.3-7.6-4.6-15.3-6.9-22.9c-0.7-2.5-1.5-5.1-1.1-7.6c0.6-3.5,3.2-6.3,5.7-8.9c2.5-2.6,4.9-5.7,5-9.2
							c0.1-3.2-2.1-6.3-5.1-7.4C78.4,65.9,76.8,65.7,75.8,64.6z"/>
					</g>
				</g>
				<g>
					<g>
						<path class="st2" d="M74.1,92c0.6-3.5,3.2-6.3,5.7-8.9c2.5-2.6,4.9-5.7,5-9.2c0.1-3.2-2.1-6.3-5.1-7.4c-1.4-0.5-3-0.7-3.9-1.8
							C75.2,63.9,75,62.9,75,62c0.1-2.7,2.1-5.1,4.7-5.7c2.6-0.6,5.5,0.7,6.8,3.1c0.4,0.8,0.7,1.7,1.4,2.3c1.2,1.2,3.2,0.9,4.8,0.8
							c2.3-0.2,4.7-0.1,6.9,0.7c2.2,0.8,4.1,2.5,4.8,4.7c0.7,2.2,0,4.9-2,6.2c-0.9,0.6-2.2,1-3,1.7c-1.1,0.3-2.1,0.8-2.7,1.7
							c-1.2,2.2,1.5,4.9,0.8,7.4c-0.6,2-3.1,2.7-5.2,2.4c-2.1-0.3-4-1.3-6.1-1.3c-1.6,0-3.2,0.5-4.5,1.5c-1.7,1.4-2.6,3.5-3.4,5.5
							c-1.2,3.2-1.9,6.6-2.3,10c-0.4-1.2-0.7-2.4-1.1-3.5C74.5,97.1,73.7,94.5,74.1,92z"/>
					</g>
				</g>
				<g class="st7">
					<g>
						<g>
							<path class="st6" d="M103.8,68.1c-0.1-1-0.8-1.7-1.6-2.3c-0.9-0.7-1.8-1.3-2.9-1.5c-1.1-0.2-2.3-0.1-3.1,0.6
								c0.6-0.1,0.9,0.7,0.6,1.2c-0.3,0.5-0.9,0.7-1.4,0.9c-3.3,1.2-6,3.9-7.2,7.2c1.8-1.7,4.6-1.8,7.1-1.8c2.5,0,5.3,0,7.2-1.6
								C103.3,70.1,103.9,69.1,103.8,68.1z"/>
						</g>
					</g>
				</g>
			</g>
			<g>
				<g>
					<path class="st1" d="M52,93.8c-2.7,1.2-5.6,2-8.5,2.5c-4,0.6-8.6,0.3-11.4-2.6c-1.9-1.9-2.6-4.9-1.9-7.4c0.7-2.4,2.4-4.8,1.3-7
						c-0.4-0.7-0.9-1.2-1.3-1.8c-1.1-1.9-0.1-4.4,1.2-6.2c1.4-1.8,3.1-3.4,3.7-5.5c-4.6,2.1-9.9,5-10.4,10.1
						c-0.4,4.2,2.9,8.5,1.5,12.5c-0.4,1-1,1.9-1.4,2.9c-1.4,3-0.7,6.9,1.7,9.2c0.4,0.4,0.9,0.8,1,1.4c0.1,0.9-0.7,1.5-1.4,2.1
						c-2.5,2.4-2.6,6.6-0.6,9.4c2,2.8,5.6,4.2,9,4.1c1,0,2.1-0.2,3.1,0.2c0.6,0.2,1.1,0.7,1.6,1.1c8.1,7.2,19.3,13.7,30.5,11.8
						c4.8-0.8,9.4-3.5,12-7.6c2.2-3.5,2.7-7.8,2.1-11.9c-1.2-7.6-6.3-15.1-13.2-18.5C64.4,89.3,58.1,91.1,52,93.8z"/>
				</g>
			</g>
			<g>
				<g>
					<g>
						<path class="st2" d="M26.2,103.9c0.6-0.6,1.5-1.3,1.4-2.1c-0.1-0.6-0.6-1-1-1.4c-2.4-2.3-3.1-6.2-1.7-9.2
							c0.4-1,1.1-1.9,1.4-2.9c1.4-4-1.9-8.3-1.5-12.5c0.5-5,5.8-8,10.4-10.1c-0.6,2.2-2.4,3.8-3.7,5.5c-1.4,1.8-2.4,4.3-1.2,6.2
							c0.4,0.7,1,1.2,1.3,1.8c1.1,2.2-0.6,4.6-1.3,7c-0.7,2.6,0,5.5,1.9,7.4c2.8,2.9,7.4,3.2,11.4,2.6c2.9-0.5,5.8-1.3,8.5-2.5
							c6-2.7,12.3-4.5,18.5-1.4c3.5,1.7,6.5,4.5,8.7,7.8c-3.1-0.9-6.5-0.8-9.5,0.4c-1,0.4-1.9,0.9-2.5,1.7c-0.9,1.2-1,2.7-1.7,4
							c-0.9,1.8-2.9,3-4.9,3c-2,0-3.9-1.3-4.8-3.1c-0.2-0.5-0.4-1-0.7-1.5c-1.1-1.5-3.6-1.3-5-0.1c-1.4,1.2-2.1,3.1-3,4.7
							c-1.9,3.7-5.8,6.5-9.6,8.2c-0.3-0.2,0.3,0.1,0,0c-1-0.4-2.1-0.2-3.1-0.2c-3.4,0.2-7-1.2-9-4.1
							C23.6,110.6,23.7,106.3,26.2,103.9z"/>
					</g>
				</g>
				<g class="st5">
					<g>
						<path class="st6" d="M46.6,116.3c-0.4,0.2-0.9,0.4-1.2,0.7s-0.6,0.8-0.5,1.2c0,0.2,0.2,0.4,0.3,0.6c0.9,1.2,2.3,1.8,3.7,2.3
							c2.7,1.1,5.6,1.9,8.5,2.4c0.4,0.1,0.9,0.1,1.2-0.1c0.5-0.4,0.3-1.2,0-1.7c-1.2-2.9-2.5-5.8-3.7-8.7c-0.4-1-1-2.1-2.1-2
							c-0.8,0-1.4,0.7-1.8,1.3C49.8,113.9,48.4,115.5,46.6,116.3z"/>
					</g>
				</g>
			</g>
		</g>
		<g>
			<g>
				<g>
					<path class="st8" d="M113.8,126.1c1.1-1.1,1.9-2.3,2.6-3.7c2.2-4.1,3-9.1,1.3-13.4c-1.7-4.3-6.5-7.5-11-6.6
						c-0.8,0.2-1.5,0.4-2.3,0.5c-2,0.1-3.8-1.1-5.8-1.4c-2.9-0.5-5.9,1-7.8,3.3c-1.9,2.3-2.7,5.3-3,8.2c-0.3,2.9-0.1,6,1.2,8.7
						c2.6,5.7,9.4,8.5,15.6,8.1C107.9,129.5,111.4,128.4,113.8,126.1z"/>
				</g>
			</g>
			<g class="st9">
				<g>
					<path class="st6" d="M112.8,117.5c-1.3,1.8-4.1,2.4-6.2,1.4c-2.1-1-3.4-3.1-3.8-5.4c-0.1-0.9-0.1-1.9,0.3-2.7
						c0.6-1.1,1.8-1.7,3-2.1c1.7-0.6,3.7-0.9,5.1,0.1c0.9,0.6,1.5,1.6,1.8,2.6C113.9,113.4,114.1,115.8,112.8,117.5z"/>
				</g>
			</g>
			<g>
				<g>
					<path class="st1" d="M91.4,95.2c0.8-0.8,2.2-0.4,2.9,0.5c0.7,0.8,1.1,1.9,1.9,2.7c1,1,2.5,1.4,4,1.7c-1.2-0.8-2-2.1-2.3-3.4
						c1.7,1.4,3.4,2.7,5,4.1c-0.2-2.4,0.4-4.9,1.8-7c0.1-0.2,0.3-0.4,0.6-0.5c0.5-0.2,1,0.3,1.1,0.8c0.1,0.5-0.1,1-0.3,1.5
						c-0.4,1.1-0.9,2.2-1.3,3.3c-0.3,0.7-0.6,1.6-0.1,2.3c0.5,0.6,1.4,0.6,2.1,0.3c0.7-0.3,1.2-0.9,1.8-1.4c1.9-1.6,4.7-2.1,7-1.3
						c-1.2,0.7-2.8,0.5-4.1,1.2c-0.9,0.5-1.5,1.4-2.3,2.1c-0.8,0.7-2,1.1-2.8,0.5c1.5,0.2,2.4,1.8,3.1,3.1c0.8,1.3,2.1,2.7,3.6,2.3
						c-1.4,0.6-3.2,0.2-4.3-1c-0.7-0.8-1.1-2-2.1-2.5c-0.6-0.3-1.4-0.3-2.1-0.5c-0.7-0.1-1.5-0.6-1.6-1.3c-3.4-0.4-7.1-1.8-8.7-4.9
						c-0.3-0.6-0.6-1.3-1-1.9C92.8,95.4,92.1,95,91.4,95.2z"/>
				</g>
			</g>
		</g>
		<g>
			<g>
				<g>
					<path class="st8" d="M89.5,123.2c-0.5-9.4-6.6-9.4-14.1-9c-7.5,0.4-13.5,1.2-12.9,10.6c0.4,6.8,4.5,12.8,14.8,12.2
						C86.5,136.4,89.9,129.9,89.5,123.2z"/>
				</g>
			</g>
			<g>
				<g>
					<path class="st8" d="M88,123.4c-0.5-8.4-5.9-8.4-12.6-8.1c-6.7,0.4-12,1-11.6,9.5c0.4,6,4,11.4,13.2,10.9
						C85.4,135.2,88.4,129.5,88,123.4z"/>
				</g>
			</g>
			<g class="st10">
				<g>
					<g>
						<path class="st8" d="M77.6,130.1c0-0.3,0.1-0.5,0.2-0.7c0.3-0.4,0.9-0.5,1.4-0.6c1.3-0.5,1.9-2.2,2.1-3.7
							c0.2-0.9,0.3-1.9,0-2.8c-0.9-2.5-3.8,0.7-4-1.6c-0.2-2.2,1.7-4.2,3.7-4.2c2,0,3.8,1.8,4.5,3.9c0.3,0.9,0.5,1.8,0.5,2.8
							c0.2,3.1-0.6,6.5-2.7,8.6c-1,0.9-2.3,1.6-3.6,1.3C78.6,132.9,77.5,131.6,77.6,130.1z"/>
					</g>
				</g>
			</g>
			<g class="st10">
				<g>
					<g>
						<path class="st8" d="M75.3,130.2c-0.1-0.3-0.2-0.5-0.3-0.7c-0.4-0.4-1-0.3-1.5-0.5c-1.4-0.3-2.1-1.9-2.6-3.4
							c-0.3-0.9-0.5-1.8-0.3-2.7c0.6-2.6,3.9,0.3,3.8-2c0-2.2-2.2-4-4.2-3.7c-2,0.3-3.6,2.2-4.1,4.4c-0.2,0.9-0.3,1.9-0.2,2.8
							c0.1,3.2,1.3,6.4,3.7,8.2c1.1,0.8,2.4,1.3,3.7,0.9C74.7,133.1,75.6,131.7,75.3,130.2z"/>
					</g>
				</g>
			</g>
			<g>
				<g>
					<g>
						<path class="st11" d="M81.1,120.7c0.1-0.2,0-0.4-0.2-0.4c-0.1-0.1-0.3,0-0.4,0.2c-0.1,0.2-0.1,0.9,0,1
							C80.7,121.5,81.1,120.9,81.1,120.7z"/>
					</g>
				</g>
				<g>
					<g>
						<path class="st11" d="M82.4,122.6c0.2,0,0.3-0.2,0.2-0.4c0-0.2-0.2-0.3-0.4-0.2c-0.2,0-0.7,0.4-0.7,0.5
							C81.6,122.6,82.2,122.6,82.4,122.6z"/>
					</g>
				</g>
				<g>
					<g>
						<path class="st11" d="M82.4,124.6c0.2,0,0.3-0.1,0.4-0.3c0-0.2-0.1-0.3-0.3-0.4c-0.2,0-0.8,0.1-0.9,0.2
							C81.6,124.3,82.2,124.6,82.4,124.6z"/>
					</g>
				</g>
				<g>
					<g>
						<path class="st11" d="M82.1,126.6c0.2,0.1,0.3,0,0.4-0.2c0.1-0.2,0-0.4-0.2-0.4c-0.2-0.1-0.8-0.1-0.9,0
							C81.4,126.1,81.9,126.5,82.1,126.6z"/>
					</g>
				</g>
				<g>
					<g>
						<path class="st11" d="M81.3,128.4c0.1,0.1,0.3,0.1,0.4,0c0.1-0.1,0-0.4-0.1-0.5c-0.1-0.1-0.8-0.3-0.8-0.2
							C80.8,127.7,81.2,128.3,81.3,128.4z"/>
					</g>
				</g>
				<g>
					<g>
						<path class="st11" d="M80.1,129.6c0.1,0.2,0.3,0.3,0.4,0.2c0.1-0.1,0.2-0.3,0.1-0.5c-0.1-0.2-0.5-0.7-0.6-0.7
							C79.9,128.7,80,129.4,80.1,129.6z"/>
					</g>
				</g>
				<g>
					<g>
						<path class="st11" d="M78.6,130.3c0,0.2,0.2,0.3,0.3,0.3c0.2,0,0.2-0.2,0.2-0.4c0-0.2-0.4-0.8-0.5-0.8
							C78.6,129.3,78.5,130.1,78.6,130.3z"/>
					</g>
				</g>
				<g>
					<g>
						<path class="st11" d="M79,120.6c0-0.2-0.2-0.3-0.3-0.3c-0.2,0-0.2,0.2-0.2,0.4c0,0.2,0.4,0.8,0.5,0.8
							C79.1,121.5,79.1,120.8,79,120.6z"/>
					</g>
				</g>
			</g>
			<g class="st12">
				<g>
					<path class="st13" d="M75.3,114.8c2.2-0.3,1.4,5.8,0.7,5.9C75.4,120.9,72.6,115.2,75.3,114.8z"/>
				</g>
			</g>
			<g>
				<g>
					<g>
						<path class="st11" d="M70.7,121.3c-0.1-0.2,0-0.4,0.1-0.5c0.1-0.1,0.3,0,0.4,0.2c0.1,0.2,0.2,0.9,0.1,1
							C71.2,122.1,70.8,121.5,70.7,121.3z"/>
					</g>
				</g>
				<g>
					<g>
						<path class="st11" d="M69.7,123.3c-0.2,0-0.3-0.2-0.3-0.4c0-0.2,0.2-0.3,0.4-0.3c0.2,0,0.8,0.4,0.8,0.5
							C70.5,123.3,69.8,123.4,69.7,123.3z"/>
					</g>
				</g>
				<g>
					<g>
						<path class="st11" d="M69.9,125.4c-0.2,0.1-0.3,0-0.4-0.2c0-0.2,0.1-0.3,0.2-0.4c0.2-0.1,0.8,0,0.9,0.1
							C70.6,125,70,125.3,69.9,125.4z"/>
					</g>
				</g>
				<g>
					<g>
						<path class="st11" d="M70.4,127.3c-0.2,0.1-0.3,0-0.4-0.1c-0.1-0.2,0-0.4,0.1-0.5c0.2-0.1,0.8-0.2,0.9-0.1
							C71.1,126.7,70.6,127.2,70.4,127.3z"/>
					</g>
				</g>
				<g>
					<g>
						<path class="st11" d="M71.4,129c-0.1,0.1-0.3,0.1-0.4,0c-0.1-0.1-0.1-0.3,0-0.5c0.1-0.1,0.7-0.4,0.8-0.3
							C71.9,128.2,71.5,128.8,71.4,129z"/>
					</g>
				</g>
				<g>
					<g>
						<path class="st11" d="M72.7,130c-0.1,0.2-0.2,0.3-0.4,0.2c-0.1-0.1-0.2-0.3-0.2-0.4c0.1-0.2,0.5-0.8,0.6-0.7
							C72.8,129.1,72.8,129.9,72.7,130z"/>
					</g>
				</g>
				<g>
					<g>
						<path class="st11" d="M74.3,130.5c0,0.2-0.2,0.3-0.3,0.3c-0.2,0-0.3-0.2-0.3-0.4c0-0.2,0.3-0.9,0.4-0.9
							C74.2,129.6,74.4,130.3,74.3,130.5z"/>
					</g>
				</g>
				<g>
					<g>
						<path class="st11" d="M72.8,121c0-0.2,0.2-0.3,0.3-0.3c0.2,0,0.3,0.2,0.3,0.4c0,0.2-0.3,0.9-0.4,0.9
							C72.9,121.9,72.7,121.2,72.8,121z"/>
					</g>
				</g>
			</g>
			<g class="st14">
				<g>
					<path class="st6" d="M82.7,117.9c-1.1-0.5-1.7-0.3-1.8,0c-0.2,0.2,0.2,0.2,1.3,0.8c1.2,0.7,1.8,1.7,2,1.7
						C84.5,120.3,84,118.5,82.7,117.9z"/>
				</g>
			</g>
			<g class="st14">
				<g>
					<path class="st6" d="M84.6,121.5c0.6-0.4,0.8,1.5,0.6,2.4S83.6,122.1,84.6,121.5z"/>
				</g>
			</g>
			<g class="st12">
				<g>
					<path class="st13" d="M78.5,122.3c1-0.3,2.9-0.3,2.2,2.5c-0.7,2.8-2.6,4-3.2,3.7C76.9,128.2,77,122.8,78.5,122.3z"/>
				</g>
			</g>
			<g class="st12">
				<g>
					<path class="st13" d="M73.3,122.7c-1-0.2-2.9,0.1-1.9,2.7c1,2.7,3,3.7,3.6,3.3C75.5,128.3,74.8,123,73.3,122.7z"/>
				</g>
			</g>
		</g>
		<g>
			<g>
				<g>
					<path class="st1" d="M13.5,14.9c2.2,0.9-0.1,8,6.5,37.3c6.6,29.3,1.7,40,1.7,40l-3.7-10.1C17.9,82.1,8.9,13.1,13.5,14.9z"/>
				</g>
			</g>
			<g>
				<g>
					<path class="st0" d="M9.3,29.5c1.8-1.5,13.3,50.3,13.3,50.3l-3.9,5.3C18.6,85.1,7.4,31.1,9.3,29.5z"/>
				</g>
			</g>
			<g>
				<g>
					<path class="st0" d="M21.6,27.7c1.6-0.1,3.6,53.5,3.6,53.5l-4.5,4.9C20.7,86.1,16.7,28,21.6,27.7z"/>
				</g>
			</g>
			<g>
				<g>
					<path class="st15" d="M23.7,129.3c-0.1-0.1-0.2-0.1-0.3,0c-0.1,0.1-0.1,0.2-0.1,0.4c-0.1,0.9-1.6,1.3-1.6,2.2
						c0.6-1.3,0.6-2.8,0.2-4.1c-0.1-0.3-0.2-0.6-0.2-0.9c0.1-0.2,0.2-0.4,0.4-0.6c1.6-1.5,4.2-1.6,6.3-0.8c0.7,0.3,1.5,0.6,2.2,0.4
						c0.2,0.4-0.4,0.8-0.4,1.3c0,0.4,0.3,0.7,0.5,1c0.7,0.9,0.7,2.2,0.1,3.1c0.3-1.1-0.5-2.2-1.2-3.1c0.2,0.7,0.4,1.4,0.7,2.1
						c-0.2-0.5-0.7-0.8-1-1.2c-0.3-0.4-0.6-1-0.4-1.5c-0.5,0.5-0.5,1.2-0.3,1.9c0.2,0.6,0.6,1.2,0.8,1.8c0.3,0.8,0.3,1.6,0.2,2.4
						c-0.1-0.7-0.4-1.5-0.8-2.1c-0.4-0.5-0.8-0.8-1.2-1.3c-0.3-0.5-0.5-1.1-0.2-1.6c-0.3,0.7-0.5,1.5-0.5,2.3
						c-0.2-0.9-0.5-1.7-0.9-2.5c0,1.2-1,2.3-0.7,3.4c-0.2-1.4-0.3-2.9-0.5-4.3c-0.7,2.2-1.4,4.6-0.5,6.8
						C23.3,133,23.1,131,23.7,129.3z"/>
				</g>
			</g>
			<g>
				<g>
					<path class="st16" d="M44.5,104.9c-0.5-5.6-4.1-10.3-9.1-12.9c-2.3-1.4-6.2-3.7-7.8-4.7c-2.3-1.4-1.2-10-1.4-10
						c-1.3,0.1-2.7,7.2-2.7,7.2l-2.2-4.4c-0.4,1-0.4,4.2-0.4,4.2c-2-4.5-4.8-6.7-4.8-6.7c1.6,3.6,2.2,8.5,1.7,10.5
						c-0.5,2-7.3,7.2-7.1,7.2c-3.6,3.5-5.6,8.2-5.2,13.2c0.6,6.2,5,11.3,11,13.8l-0.2,0c5.9,2.3,6,5.9,6,5.9s-0.1-0.6,0.7-1.3
						c0.8-0.7,1.2,0.9,1.2,0.9s1-1.3,1.4-1.4c0.5,0,1.8,1.2,1.8,1.2s1-1.4,1.8-1.5c0.8-0.2,1.8,1,1.8,1c-0.3-1.5,3.3-4.9,4.8-6.2
						C41.5,117.5,45.1,111.4,44.5,104.9z"/>
				</g>
			</g>
			<g>
				<g class="st5">
					<g>
						<path class="st17" d="M18.8,86.3c0.1,9.5-12,13-10.7,23.3c1,8.1,9.8,9.7,13.8,15.9c0.1,0.1,0.3,0,0.2-0.1
							c-3.7-8.6-16.7-8.4-12.8-21.2c2.2-6.9,9.9-10.2,9.5-17.9C19,86.2,18.8,86.2,18.8,86.3L18.8,86.3z"/>
					</g>
				</g>
				<g class="st5">
					<g>
						<path class="st17" d="M19.4,88.3c-0.8,7-8.6,11.6-8,19.1c0.6,7.6,9.5,10.8,11.7,17.8c0,0.1,0.2,0.1,0.2,0
							c-1.3-6.7-8.2-8.9-10.3-15.1c-3-9,5.9-13.4,6.5-21.7C19.6,88.3,19.4,88.2,19.4,88.3L19.4,88.3z"/>
					</g>
				</g>
				<g class="st5">
					<g>
						<path class="st17" d="M20.7,88c-0.1,6.6-3.8,12.7-3.2,19.4c0.6,6.5,6.1,11.2,6.9,17.6c0,0.2,0.2,0.1,0.2,0
							c0-6.4-5.6-11.1-6.2-17.7c-0.6-6.7,2.6-12.7,2.5-19.3C20.9,87.9,20.7,87.9,20.7,88L20.7,88z"/>
					</g>
				</g>
				<g class="st5">
					<g>
						<path class="st17" d="M25.5,85.8c2,9.3,14.6,10,15.6,20.3c0.8,8.1-7.4,11.7-9.9,18.6c0,0.1-0.3,0.1-0.2-0.1
							c1.7-9.2,14.5-11.9,7.7-23.5c-3.6-6.3-11.9-7.7-13.3-15.4C25.4,85.7,25.5,85.7,25.5,85.8L25.5,85.8z"/>
					</g>
				</g>
				<g class="st5">
					<g>
						<path class="st17" d="M25.4,87.9c2.4,6.7,11,9.4,12.1,16.8c1.1,7.5-6.9,12.6-7.4,19.9c0,0.1-0.2,0.1-0.2,0
							c-0.3-6.8,6-10.5,6.7-17c0.9-9.4-8.8-11.8-11.2-19.7C25.3,87.9,25.4,87.8,25.4,87.9L25.4,87.9z"/>
					</g>
				</g>
				<g class="st5">
					<g>
						<path class="st17" d="M24.2,87.9c1.6,6.4,6.5,11.5,7.5,18.2c0.9,6.5-3.4,12.3-2.8,18.7c0,0.2-0.2,0.2-0.2,0
							c-1.4-6.2,3-12.1,2.1-18.6c-0.9-6.7-5.3-11.8-6.8-18.2C23.9,87.8,24.1,87.7,24.2,87.9L24.2,87.9z"/>
					</g>
				</g>
				<g class="st10">
					<g>
						<path class="st17" d="M22.7,90.3c-1,10.7,2.4,21.6,3.7,32.2c0,0.3,0.5,0.3,0.5,0c-0.2-5.1-1.3-10-2.2-15.1
							c-1-5.7-1.2-11.3-1.8-17C22.8,90.2,22.7,90.2,22.7,90.3L22.7,90.3z"/>
					</g>
				</g>
			</g>
			<g>
				<g>
					
						<ellipse transform="matrix(0.9955 -9.433689e-02 9.433689e-02 0.9955 -9.9633 2.8296)" class="st18" cx="24.9" cy="106.8" rx="19.6" ry="17.2"/>
				</g>
			</g>
			<g class="st19">
				<g>
					<path d="M34.2,91.3c-2.3-1.4-5.3-3.1-6.7-4c-2.3-1.4-1.2-10-1.4-10c-1.3,0.1-2.7,7.2-2.7,7.2l-2.2-4.4c-0.4,1-0.4,4.2-0.4,4.2
						c-2-4.5-4.8-6.7-4.8-6.7c1.6,3.6,2.2,8.5,1.7,10.5c-0.3,1.2-2.7,3.4-4.6,5.1c0.5-0.1,0.9-0.2,1.4-0.3c-0.2,0.5-0.3,1.1-0.3,1.6
						c1.2-1.1,2.6-2,4.1-2.5c0.3-0.1,0.5-0.1,0.8-0.1c0.9,0.2,0.8,1.5,0.5,2.3c1.1-0.7,0.9-3.4,2.1-3.1c1-0.1,1,2.2,1,2.8
						c0.5-1.1,1.2-3.4,2.3-3.6c1.2-0.2,3.9,1.3,4.6,2.2c-0.5-0.8-0.3-2,0.6-2.2c0.9-0.2,1.9,0.1,2.8,0.5
						C33.5,91,33.8,91.2,34.2,91.3z"/>
				</g>
			</g>
		</g>
		<g>
			<g>
				<g>
					<path class="st20" d="M15.7,124c0,0-16-7.7-15.7-9.1c0.3-1.4,3.2-3.2,3.2-3.2L16.5,122L15.7,124z"/>
				</g>
			</g>
			<g>
				<g>
					<path class="st1" d="M14.8,126.3c0,0-13.8-3.3-14.2-4c-0.4-0.7-1.1-4.8,0-4.9c1.1-0.1,15.5,6.3,15.5,6.3L14.8,126.3z"/>
				</g>
			</g>
			<g>
				<g>
					<path class="st0" d="M14.9,127.7l-7.9,0c0,0-1.1-2.3,0-3.6c1.1-1.3,7.6,1.6,7.6,1.6L14.9,127.7z"/>
				</g>
			</g>
			<g>
				<g>
					<path class="st0" d="M16.5,122c0,0-8.1-5-7.6-7.2c0.5-2.2,2.8-2.1,2.8-2.1l5.5,8.7L16.5,122z"/>
				</g>
			</g>
			<g>
				<g>
					<path class="st20" d="M14.1,123.6c1-4.4,5-3.4,5-3.4l-2.9,9.2C16.2,129.4,13.1,128,14.1,123.6z"/>
				</g>
			</g>
			<g>
				<g>
					<path class="st21" d="M16.4,124.2c2.2-9.1,11.6-6.3,29.6,0.4c18,6.7,37.8,14.6,38,16.1c0.2,1.5-51.4-1.3-58.3-3
						C18.7,136,14.5,132.4,16.4,124.2z"/>
				</g>
			</g>
			<g class="st22">
				<g>
					<g>
						<path class="st23" d="M26.5,120.3c-0.1,0.3-0.3,0.6-0.4,1c-0.1,0.3-0.1,0.5-0.4,0.7c-0.1,0.1-0.3,0.1-0.4-0.1
							c-0.4-0.6,0.2-1.6,0.8-1.9C26.3,119.9,26.6,120.1,26.5,120.3L26.5,120.3z"/>
					</g>
				</g>
				<g>
					<g>
						<path class="st23" d="M22.8,128.8c0.2,0.6-0.1,1.2-0.2,1.8c-0.1,0.6-0.1,1.3-0.4,1.8c-0.1,0.2-0.4,0.2-0.5,0
							c-0.4-0.6-0.2-1.4,0-2.1c0.1-0.6,0.3-1.3,0.9-1.6C22.7,128.7,22.8,128.7,22.8,128.8L22.8,128.8z"/>
					</g>
				</g>
				<g>
					<g>
						<path class="st23" d="M21.6,122.9c-0.2,0.5-0.4,2.1-1.3,1.5c-0.2-0.1-0.2-0.3-0.2-0.5c0.1-0.7,0.4-1.2,1-1.5
							C21.4,122.3,21.7,122.7,21.6,122.9L21.6,122.9z"/>
					</g>
				</g>
				<g>
					<g>
						<path class="st23" d="M29.7,127.5c-0.4,0.7-0.6,1.4-0.8,2.2c-0.1,0.6-0.1,1.3-0.3,1.9c-0.1,0.2-0.4,0.2-0.4,0
							c-0.3-0.7-0.1-1.6,0.1-2.3c0.2-0.8,0.5-1.4,0.9-2.1C29.4,127,29.8,127.3,29.7,127.5L29.7,127.5z"/>
					</g>
				</g>
				<g>
					<g>
						<path class="st23" d="M35.4,132.6c-0.1,0.2-0.2,0.4-0.2,0.6c0,0.2,0,0.5,0,0.7c0,0.5,0,1-0.3,1.4c-0.1,0.2-0.4,0.1-0.5-0.1
							c-0.3-0.6-0.1-1.4,0-2c0.1-0.4,0.2-0.9,0.7-0.9C35.3,132.3,35.4,132.4,35.4,132.6L35.4,132.6z"/>
					</g>
				</g>
				<g>
					<g>
						<path class="st23" d="M36.1,123.5c0.1,0.6,0.2,1.5-0.2,2c-0.1,0.2-0.4,0.1-0.4-0.1c-0.3-0.6,0-1.4,0.2-2
							C35.8,123.2,36.1,123.3,36.1,123.5L36.1,123.5z"/>
					</g>
				</g>
				<g>
					<g>
						<path class="st23" d="M42.8,125.5c0.4,0.8,0.3,2.4-0.4,3c-0.2,0.2-0.5,0-0.5-0.2c-0.1-0.5,0.1-0.9,0.2-1.4
							c0.1-0.5,0.1-0.9,0.3-1.4C42.5,125.3,42.7,125.4,42.8,125.5L42.8,125.5z"/>
					</g>
				</g>
				<g>
					<g>
						<path class="st23" d="M41.6,134.7c0.2,0.7,0.3,1.9-0.6,2.2c-0.2,0.1-0.4,0-0.4-0.2c0-0.3,0.1-0.4,0.2-0.7
							c0.1-0.3,0.2-0.7,0.2-1.1C40.9,134.5,41.5,134.3,41.6,134.7L41.6,134.7z"/>
					</g>
				</g>
				<g>
					<g>
						<path class="st23" d="M48.8,137.3C48.8,137.3,48.8,137.4,48.8,137.3c0.3,0.5-0.5,0.8-0.7,0.4c-0.2-0.5-0.1-1.1-0.1-1.6
							c0-0.5,0.1-0.9,0.5-1.2c0.1-0.1,0.3,0,0.4,0.1c0.3,0.4,0.1,0.8,0.1,1.2c-0.1,0.5,0,1-0.2,1.5c-0.1-0.2-0.1-0.3-0.2-0.5
							C48.7,137.2,48.7,137.2,48.8,137.3L48.8,137.3z"/>
					</g>
				</g>
				<g>
					<g>
						<path class="st23" d="M56.4,131.4c-0.2,0.5-0.4,0.9-0.6,1.4c-0.2,0.4-0.2,0.9-0.5,1.2c-0.2,0.2-0.5,0.2-0.6-0.1
							c-0.3-1,0.5-2.3,1.2-2.9C56.2,130.7,56.5,131.1,56.4,131.4L56.4,131.4z"/>
					</g>
				</g>
				<g>
					<g>
						<path class="st23" d="M64.2,136.2c-0.2,0.4-0.3,0.8-0.3,1.2c0,0.4,0,0.5-0.3,0.8c-0.1,0.1-0.3,0.1-0.4,0
							c-0.6-0.6,0-1.8,0.5-2.4C63.9,135.5,64.4,135.9,64.2,136.2L64.2,136.2z"/>
					</g>
				</g>
				<g>
					<g>
						<path class="st23" d="M71.8,135.8c0.1,0.7-0.3,1.5-0.7,2c-0.2,0.2-0.5,0.1-0.6-0.2c-0.1-0.7,0-1.6,0.5-2.1
							C71.3,135.2,71.7,135.4,71.8,135.8L71.8,135.8z"/>
					</g>
				</g>
			</g>
		</g>
		<g class="st24">
			<g>
				<g>
					<path class="st6" d="M15.7,107.7c-0.5-0.1-1-0.3-1.5-0.6c-1.7-1-2.8-3.1-2.4-5.1c0.5-2.8,3.3-4,5.7-4.9
						c4.3-1.5,11.2-3.7,15.7-2.4c2.9,0.9,3,4.2,1.7,6.5c-2,3.3-6.1,4.7-9.9,5.5C22.4,107.3,18.6,108.4,15.7,107.7z"/>
				</g>
			</g>
		</g>
		<g class="st9">
			<g>
				<path class="st6" d="M21.4,121.1c-0.9,0.9-0.6,2.5,0.3,3.4c0.9,0.9,2.2,1.2,3.5,1.5c9.6,2.2,19.2,4.4,28.7,6.6
					c0.4,0.1,0.8,0.2,1.1,0c0.4-0.1,0.6-0.6,0.4-0.9c-0.1-0.1-0.3-0.2-0.4-0.3c-1.8-0.7-3.5-1.4-5.3-2.2c-8.2-3.4-16.4-6.7-25.1-8.6
					C23.6,120.4,22.2,120.3,21.4,121.1z"/>
			</g>
		</g>
	</g>
	<g>
		<g>
			<path class="st25" d="M90.7,22.9c-0.1-0.2-0.4-0.9-0.5-1.1c-0.9-1.9-4.4-2.1-7.9-0.5c-3.4,1.6-5.4,4.5-4.5,6.5
				c0.1,0.2,0.4,0.9,0.5,1.1c0.9,1.9,4.4,2.1,7.9,0.5C89.6,27.7,91.7,24.8,90.7,22.9z"/>
		</g>
		<g>
			<path class="st1" d="M90.8,23c-0.1-0.2-0.4-0.9-0.5-1.1c0,0,0,0,0,0c0.9,1.9-1.1,4.8-4.5,6.4c-3.4,1.6-6.9,1.4-7.8-0.5
				c0,0,0,0,0,0c0.1,0.2,0.4,0.9,0.5,1.1c0.9,1.9,4.4,2.1,7.9,0.5C89.7,27.8,91.7,24.9,90.8,23z"/>
		</g>
		<g class="st26">
			<path class="st27" d="M81.7,26.5c-0.2-0.2-0.5-0.1-0.7,0c-0.2,0.1-0.4,0.3-0.7,0.4c-0.6,0.1-1.1-0.5-1.1-1s0.5-1.1,1-1.4
				c0.2-0.1,0.5-0.2,0.6-0.4c0.2-0.3,0.1-0.7,0.3-0.9c0.4-0.5,1.2-0.2,1.8-0.4c0.4-0.1,0.6-0.5,0.8-0.7c0.3-0.4,0.7-0.7,1.2-0.9
				c0.5-0.1,1.1,0.1,1.2,0.6c0,0.1,0,0.2,0.1,0.3c0.2,0.3,0.6,0.1,0.8-0.1c0.2-0.2,0.5-0.5,0.8-0.4c0.2,0.1,0.3,0.3,0.3,0.5
				c0,0.2-0.1,0.4-0.2,0.6c-0.2,0.6,0,1.3,0.3,1.7c0.1,0.1,0.2,0.2,0.1,0.3c0,0.1-0.1,0.1-0.2,0.2c-0.5,0.2-1-0.1-1.5,0.1
				c-0.3,0.2-0.4,0.5-0.5,0.8c0,0.3,0,0.7-0.1,1c-0.2,0.4-0.6,0.7-1.1,0.7c-0.2,0-0.3,0-0.5,0c-0.3,0-0.5,0.2-0.7,0.3
				c-0.4,0.2-0.7,0.3-1.1,0.2c-0.4-0.1-0.8-0.3-0.9-0.7C81.8,27,81.9,26.7,81.7,26.5z"/>
		</g>
		<g class="st3">
			<path class="st6" d="M81.7,25.6c0.2-0.1,0.8-0.7,0.8-0.8c-0.1-0.2-0.9,0-1.1,0.1c-0.2,0.1-0.3,0.3-0.2,0.5
				C81.3,25.6,81.5,25.7,81.7,25.6z"/>
		</g>
		<g class="st3">
			<path class="st6" d="M83.4,22.2c0.1,0.2,0.5,0.6,0.6,0.6c0.2-0.1,0.1-0.7,0-0.9c-0.1-0.2-0.3-0.2-0.4-0.1
				C83.4,21.9,83.3,22.1,83.4,22.2z"/>
		</g>
		<g class="st3">
			<path class="st6" d="M85.7,25.2c-0.1-0.2-0.8-0.6-0.8-0.5c-0.2,0.1,0.2,0.8,0.3,0.9c0.1,0.2,0.3,0.2,0.5,0.1
				C85.7,25.6,85.8,25.4,85.7,25.2z"/>
		</g>
		<g class="st3">
			<path class="st6" d="M86.8,22.6c-0.2,0-0.9,0.4-0.8,0.5c0,0.2,0.8,0.2,1,0.2s0.3-0.2,0.3-0.4C87.1,22.7,86.9,22.5,86.8,22.6z"/>
		</g>
		<g class="st3">
			<path class="st6" d="M83.8,25.8c0.1-0.2,0.1-0.8,0-0.9c-0.2-0.1-0.5,0.4-0.6,0.6c-0.1,0.2,0,0.3,0.2,0.4
				C83.6,26,83.8,25.9,83.8,25.8z"/>
		</g>
		<g class="st3">
			<path class="st6" d="M86.3,24.3c-0.1-0.1-0.6-0.2-0.6-0.2c-0.1,0.1,0.2,0.5,0.3,0.5c0.1,0.1,0.2,0.1,0.3,0
				C86.5,24.5,86.5,24.4,86.3,24.3z"/>
		</g>
		<g class="st3">
			<path class="st6" d="M85.4,22c0,0.1-0.2,0.6-0.3,0.6c-0.1,0-0.2-0.5-0.2-0.6c0-0.1,0.1-0.2,0.2-0.2C85.3,21.8,85.4,21.9,85.4,22z
				"/>
		</g>
		<g class="st3">
			<path class="st6" d="M82.4,22.5c0.1,0.1,0.4,0.5,0.4,0.5c-0.1,0.1-0.5-0.1-0.6-0.1C82,22.8,82,22.7,82,22.6S82.3,22.4,82.4,22.5z
				"/>
		</g>
		<g class="st3">
			<path class="st6" d="M82.3,23.6c0.1,0,0.5,0.2,0.5,0.3c0,0.1-0.4,0.2-0.5,0.1s-0.2-0.1-0.2-0.2C82.1,23.7,82.2,23.6,82.3,23.6z"
				/>
		</g>
	</g>
	<g>
		<g>
			<path class="st25" d="M43.8,4.1C43.8,4,44,3.5,44,3.4c0.3-1.2-1.2-2.6-3.3-3.2c-2.1-0.6-4.1,0-4.5,1.2c0,0.1-0.2,0.6-0.2,0.7
				c-0.3,1.2,1.2,2.6,3.3,3.2C41.5,5.8,43.5,5.3,43.8,4.1z"/>
		</g>
		<g>
			<path class="st1" d="M43.8,4.1C43.8,4,44,3.6,44,3.4c0,0,0,0,0,0c-0.3,1.2-2.3,1.7-4.4,1.1c-2.1-0.6-3.6-2-3.3-3.2c0,0,0,0,0,0
				c0,0.1-0.2,0.6-0.2,0.7c-0.3,1.2,1.2,2.6,3.3,3.2C41.5,5.9,43.5,5.3,43.8,4.1z"/>
		</g>
		<g class="st26">
			<path class="st27" d="M38.4,2.3c0-0.2-0.2-0.2-0.3-0.3c-0.2,0-0.3,0-0.5-0.1c-0.3-0.2-0.3-0.6-0.1-0.9c0.2-0.3,0.6-0.3,1-0.2
				c0.1,0,0.3,0.1,0.5,0c0.2,0,0.3-0.2,0.5-0.3c0.4-0.1,0.6,0.4,1,0.5c0.2,0.1,0.4,0,0.6,0c0.3,0,0.6-0.1,0.8,0.1
				c0.3,0.1,0.4,0.5,0.3,0.7c0,0-0.1,0.1-0.1,0.1c0,0.2,0.2,0.3,0.4,0.3c0.2,0,0.4,0,0.5,0.1c0.1,0.1,0,0.3-0.1,0.3
				c-0.1,0.1-0.2,0.1-0.3,0.2c-0.3,0.2-0.5,0.5-0.5,0.9c0,0.1,0,0.2-0.1,0.2c0,0-0.1,0-0.1,0c-0.3-0.1-0.4-0.4-0.7-0.5
				c-0.2,0-0.4,0.1-0.5,0.2c-0.1,0.1-0.3,0.3-0.4,0.4c-0.2,0.1-0.5,0.1-0.7-0.1c-0.1-0.1-0.1-0.1-0.2-0.2c-0.1-0.1-0.3-0.1-0.4-0.2
				c-0.2-0.1-0.4-0.2-0.6-0.3c-0.1-0.2-0.2-0.4-0.1-0.6C38.3,2.6,38.4,2.4,38.4,2.3z"/>
		</g>
		<g class="st3">
			<path class="st6" d="M38.8,1.9c0.1,0,0.6,0,0.6-0.1c0-0.1-0.4-0.3-0.5-0.4c-0.1,0-0.3,0-0.3,0.2C38.6,1.7,38.7,1.9,38.8,1.9z"/>
		</g>
		<g class="st3">
			<path class="st6" d="M40.8,1c0,0.1,0,0.5,0.1,0.5c0.1,0,0.3-0.3,0.3-0.4c0-0.1,0-0.2-0.1-0.2C40.9,0.9,40.8,0.9,40.8,1z"/>
		</g>
		<g class="st3">
			<path class="st6" d="M40.7,3.2c0-0.1-0.1-0.5-0.2-0.5c-0.1,0-0.2,0.4-0.2,0.5c0,0.1,0.1,0.2,0.2,0.2C40.6,3.4,40.7,3.3,40.7,3.2z
				"/>
		</g>
		<g class="st3">
			<path class="st6" d="M42.2,2.4c-0.1-0.1-0.5-0.1-0.6-0.1c-0.1,0.1,0.3,0.4,0.4,0.5c0.1,0.1,0.2,0,0.3-0.1
				C42.3,2.6,42.3,2.5,42.2,2.4z"/>
		</g>
		<g class="st3">
			<path class="st6" d="M39.6,2.8c0.1,0,0.4-0.3,0.3-0.4c0-0.1-0.4,0-0.5,0c-0.1,0-0.1,0.2-0.1,0.2C39.4,2.8,39.6,2.8,39.6,2.8z"/>
		</g>
		<g class="st3">
			<path class="st6" d="M41.3,3.1c0-0.1-0.2-0.3-0.2-0.3c-0.1,0-0.1,0.3-0.1,0.4c0,0.1,0.1,0.1,0.2,0.1C41.3,3.2,41.4,3.1,41.3,3.1z
				"/>
		</g>
		<g class="st3">
			<path class="st6" d="M41.8,1.7c-0.1,0.1-0.3,0.2-0.3,0.2c-0.1-0.1,0.1-0.3,0.1-0.3c0.1-0.1,0.1-0.1,0.2,0
				C41.8,1.6,41.8,1.6,41.8,1.7z"/>
		</g>
		<g class="st3">
			<path class="st6" d="M40.2,0.8c0,0.1,0,0.4,0,0.4c-0.1,0-0.2-0.2-0.2-0.3c0-0.1,0-0.1,0.1-0.2C40.1,0.6,40.2,0.7,40.2,0.8z"/>
		</g>
		<g class="st3">
			<path class="st6" d="M39.8,1.2c0,0,0.1,0.3,0.1,0.3c0,0-0.2-0.1-0.3-0.1c0,0,0-0.1,0-0.2C39.7,1.2,39.7,1.2,39.8,1.2z"/>
		</g>
	</g>
	<g>
		<g>
			<g>
				<path class="st8" d="M188.8,60.8c-3.4-8-8.7-6.1-15-3.4c-6.3,2.7-11.3,5.2-7.8,13.2c2.5,5.7,7.9,9.6,16.6,5.9
					C190.4,73.2,191.3,66.6,188.8,60.8z"/>
			</g>
		</g>
		<g>
			<g>
				<path class="st8" d="M187.7,61.5c-3.1-7.1-7.8-5.4-13.4-3c-5.6,2.4-10.1,4.7-7,11.8c2.2,5.1,7,8.6,14.8,5.3
					C189.1,72.5,189.9,66.6,187.7,61.5z"/>
			</g>
		</g>
		<g class="st10">
			<g>
				<g>
					<path class="st8" d="M180.8,70.6c-0.1-0.2-0.1-0.5,0-0.7c0.1-0.5,0.7-0.7,1-1c1-0.8,0.9-2.5,0.7-3.9c-0.1-0.8-0.4-1.7-0.9-2.4
						c-1.6-1.9-3.1,1.8-4-0.1c-0.9-1.9,0.2-4.2,1.9-4.8c1.7-0.6,3.8,0.3,5.1,1.9c0.5,0.7,1,1.4,1.3,2.2c1.2,2.6,1.6,5.8,0.4,8.3
						c-0.5,1.1-1.5,2.1-2.6,2.3C182.5,72.6,181.1,71.8,180.8,70.6z"/>
				</g>
			</g>
		</g>
		<g class="st10">
			<g>
				<g>
					<path class="st8" d="M178.8,71.4c-0.1-0.2-0.3-0.4-0.5-0.5c-0.5-0.2-1,0-1.4,0.1c-1.3,0.1-2.4-1-3.3-2.1
						c-0.5-0.7-1-1.4-1.1-2.3c-0.3-2.5,3.4-1,2.7-3c-0.7-1.9-3.2-2.8-4.8-1.9c-1.6,0.9-2.4,3-2.1,5c0.1,0.9,0.4,1.7,0.7,2.5
						c1.1,2.7,3.1,5.1,5.7,6c1.2,0.4,2.5,0.4,3.5-0.4C179.1,74.1,179.5,72.5,178.8,71.4z"/>
				</g>
			</g>
		</g>
		<g>
			<g>
				<g>
					<path class="st11" d="M180.8,61.3c0-0.2-0.1-0.3-0.3-0.3c-0.1,0-0.3,0.1-0.3,0.3c0,0.2,0.2,0.8,0.3,0.8
						C180.7,62.2,180.8,61.5,180.8,61.3z"/>
				</g>
			</g>
			<g>
				<g>
					<path class="st11" d="M182.5,62.6c0.1-0.1,0.2-0.3,0.1-0.4c-0.1-0.1-0.3-0.2-0.4-0.1c-0.1,0.1-0.5,0.6-0.4,0.7
						C181.8,62.8,182.4,62.7,182.5,62.6z"/>
				</g>
			</g>
			<g>
				<g>
					<path class="st11" d="M183.2,64.3c0.2,0,0.3-0.2,0.2-0.3c0-0.2-0.2-0.3-0.4-0.2c-0.2,0-0.7,0.3-0.7,0.4
						C182.4,64.3,183,64.3,183.2,64.3z"/>
				</g>
			</g>
			<g>
				<g>
					<path class="st11" d="M183.5,66.1c0.2,0,0.3-0.1,0.3-0.3c0-0.2-0.1-0.3-0.3-0.3c-0.2,0-0.8,0.2-0.8,0.3
						C182.8,65.9,183.4,66.1,183.5,66.1z"/>
				</g>
			</g>
			<g>
				<g>
					<path class="st11" d="M183.4,67.9c0.2,0.1,0.3,0,0.4-0.2c0-0.2-0.1-0.3-0.2-0.4c-0.2-0.1-0.8,0-0.8,0.1
						C182.7,67.5,183.3,67.8,183.4,67.9z"/>
				</g>
			</g>
			<g>
				<g>
					<path class="st11" d="M182.8,69.3c0.1,0.1,0.3,0.2,0.4,0c0.1-0.1,0.1-0.3,0-0.4c-0.1-0.1-0.7-0.5-0.8-0.4
						C182.3,68.6,182.6,69.2,182.8,69.3z"/>
				</g>
			</g>
			<g>
				<g>
					<path class="st11" d="M181.6,70.4c0.1,0.2,0.3,0.2,0.4,0.1c0.1-0.1,0.1-0.3,0-0.4c-0.1-0.2-0.6-0.6-0.7-0.6
						C181.3,69.6,181.5,70.2,181.6,70.4z"/>
				</g>
			</g>
			<g>
				<g>
					<path class="st11" d="M179,61.9c-0.1-0.2-0.3-0.2-0.4-0.1c-0.1,0.1-0.1,0.3-0.1,0.4c0.1,0.2,0.6,0.6,0.7,0.6
						C179.3,62.7,179.1,62.1,179,61.9z"/>
				</g>
			</g>
		</g>
		<g class="st12">
			<g>
				<path class="st13" d="M174,58.1c1.8-1,3,4.6,2.5,4.9C176,63.3,171.7,59.2,174,58.1z"/>
			</g>
		</g>
		<g>
			<g>
				<g>
					<path class="st11" d="M172,65.1c-0.1-0.1-0.2-0.3-0.1-0.4c0.1-0.1,0.3-0.1,0.4,0c0.1,0.1,0.4,0.7,0.4,0.8
						C172.7,65.6,172.2,65.3,172,65.1z"/>
				</g>
			</g>
			<g>
				<g>
					<path class="st11" d="M171.8,67.2c-0.2,0-0.3-0.1-0.4-0.2c0-0.2,0.1-0.3,0.2-0.3c0.2,0,0.8,0.1,0.8,0.2
						C172.5,66.9,171.9,67.2,171.8,67.2z"/>
				</g>
			</g>
			<g>
				<g>
					<path class="st11" d="M172.6,68.9c-0.1,0.1-0.3,0.1-0.4-0.1c-0.1-0.1-0.1-0.3,0.1-0.4c0.1-0.1,0.7-0.3,0.8-0.2
						C173.1,68.3,172.7,68.8,172.6,68.9z"/>
				</g>
			</g>
			<g>
				<g>
					<path class="st11" d="M173.7,70.4c-0.1,0.1-0.3,0.1-0.4,0c-0.1-0.1-0.1-0.3,0-0.4c0.1-0.1,0.6-0.4,0.7-0.4
						C174,69.7,173.8,70.2,173.7,70.4z"/>
				</g>
			</g>
			<g>
				<g>
					<path class="st11" d="M175,71.5c-0.1,0.2-0.2,0.2-0.4,0.1c-0.1-0.1-0.2-0.3-0.1-0.4c0.1-0.2,0.5-0.6,0.6-0.6
						C175.2,70.7,175.1,71.4,175,71.5z"/>
				</g>
			</g>
			<g>
				<g>
					<path class="st11" d="M176.5,72c0,0.2-0.1,0.3-0.2,0.3c-0.1,0-0.3-0.2-0.3-0.3c0-0.2,0.2-0.8,0.2-0.8
						C176.3,71.2,176.5,71.9,176.5,72z"/>
				</g>
			</g>
			<g>
				<g>
					<path class="st11" d="M178.1,71.9c0,0.2,0,0.3-0.2,0.4c-0.1,0-0.3-0.1-0.3-0.3c0-0.2,0-0.9,0.1-0.9
						C177.7,71.2,178,71.8,178.1,71.9z"/>
				</g>
			</g>
			<g>
				<g>
					<path class="st11" d="M173.7,64.2c-0.1-0.2,0-0.3,0.2-0.4c0.1,0,0.3,0.1,0.3,0.3c0.1,0.2,0,0.9-0.1,0.9
						C174.1,65,173.7,64.4,173.7,64.2z"/>
				</g>
			</g>
		</g>
		<g class="st14">
			<g>
				<path class="st6" d="M181.3,58.4c-1.1,0-1.5,0.3-1.6,0.6c-0.1,0.3,0.3,0.1,1.4,0.2c1.3,0.2,2.1,0.9,2.2,0.8
					C183.6,59.9,182.6,58.5,181.3,58.4z"/>
			</g>
		</g>
		<g class="st14">
			<g>
				<path class="st6" d="M184.1,60.9c0.4-0.5,1.2,1,1.3,1.9C185.6,63.7,183.5,61.8,184.1,60.9z"/>
			</g>
		</g>
		<g class="st12">
			<g>
				<path class="st13" d="M179.1,63.6c0.7-0.6,2.4-1.1,2.7,1.5c0.3,2.6-1,4.3-1.6,4.2C179.5,69.1,178,64.4,179.1,63.6z"/>
			</g>
		</g>
		<g class="st12">
			<g>
				<path class="st13" d="M174.7,65.6c-0.9,0.1-2.5,1-0.8,2.9c1.7,2,3.8,2.2,4.1,1.7C178.4,69.7,176.1,65.3,174.7,65.6z"/>
			</g>
		</g>
	</g>
	<g>
		<g>
			<g>
				<path class="st8" d="M150.8,45.3c8.5-8.5,3.4-14.3-3.4-21.1c-6.8-6.7-12.6-11.9-21.1-3.3c-6.1,6.1-8.4,15.1,0.9,24.5
					C135.7,53.7,144.7,51.4,150.8,45.3z"/>
			</g>
		</g>
		<g>
			<g>
				<path class="st8" d="M149.3,44.1c7.6-7.6,3-12.8-3-18.9c-6-6-11.2-10.6-18.9-3c-5.5,5.5-7.5,13.5,0.8,21.9
					C135.8,51.7,143.9,49.6,149.3,44.1z"/>
			</g>
		</g>
		<g class="st10">
			<g>
				<g>
					<path class="st8" d="M134.1,39.9c0.3-0.2,0.6-0.4,0.9-0.4c0.7-0.1,1.2,0.5,1.8,0.8c1.6,0.8,3.7-0.1,5.4-1.1
						c1-0.6,2-1.3,2.6-2.4c1.6-3.1-3.9-3-1.9-5.2c1.9-2.1,5.5-1.9,7.2,0c1.7,2,1.5,5.1,0.2,7.6c-0.6,1.1-1.4,2-2.2,2.9
						c-2.8,2.9-6.7,5-10.5,4.8c-1.7-0.1-3.4-0.8-4.3-2.2C132.3,43.2,132.6,41,134.1,39.9z"/>
				</g>
			</g>
		</g>
		<g class="st10">
			<g>
				<g>
					<path class="st8" d="M132,37.8c0.2-0.3,0.4-0.6,0.4-0.9c0.1-0.7-0.5-1.2-0.8-1.8c-0.8-1.6,0.1-3.7,1.1-5.4c0.6-1,1.3-2,2.4-2.6
						c3.1-1.6,3,3.9,5.2,1.9c2.1-1.9,1.9-5.5,0-7.2c-2-1.7-5.1-1.5-7.6-0.2c-1.1,0.6-2,1.4-2.9,2.2c-2.9,2.8-5,6.7-4.7,10.5
						c0.1,1.7,0.8,3.4,2.3,4.3C128.7,39.6,131,39.3,132,37.8z"/>
				</g>
			</g>
		</g>
		<g>
			<g>
				<g>
					<path class="st11" d="M146.1,35.2c0.2-0.1,0.4-0.3,0.3-0.5c-0.1-0.2-0.3-0.3-0.5-0.2c-0.2,0.1-1,0.7-0.9,0.9
						C144.9,35.5,145.8,35.3,146.1,35.2z"/>
				</g>
			</g>
			<g>
				<g>
					<path class="st11" d="M145.3,38c0.2,0.1,0.5,0.1,0.6-0.1c0.1-0.2,0.1-0.4-0.1-0.6c-0.2-0.1-1.1-0.3-1.1-0.2
						C144.6,37.3,145.1,37.9,145.3,38z"/>
				</g>
			</g>
			<g>
				<g>
					<path class="st11" d="M143.4,39.8c0.1,0.2,0.4,0.3,0.6,0.1c0.2-0.1,0.2-0.4,0.1-0.6c-0.1-0.2-0.8-0.7-0.9-0.6
						C143.1,38.8,143.3,39.6,143.4,39.8z"/>
				</g>
			</g>
			<g>
				<g>
					<path class="st11" d="M141.3,41.2c0.1,0.2,0.3,0.3,0.5,0.3c0.2-0.1,0.3-0.3,0.2-0.6c-0.1-0.2-0.6-0.9-0.7-0.9
						C141.2,40.1,141.2,40.9,141.3,41.2z"/>
				</g>
			</g>
			<g>
				<g>
					<path class="st11" d="M138.9,42c0,0.2,0.2,0.4,0.4,0.4c0.2,0,0.4-0.3,0.4-0.5c0-0.2-0.3-1-0.5-1
						C139.1,40.8,138.9,41.7,138.9,42z"/>
				</g>
			</g>
			<g>
				<g>
					<path class="st11" d="M136.7,41.8c-0.1,0.2,0,0.5,0.2,0.5c0.2,0.1,0.4-0.1,0.5-0.3c0.1-0.2,0.2-1.1,0.1-1.2
						C137.4,40.9,136.8,41.6,136.7,41.8z"/>
				</g>
			</g>
			<g>
				<g>
					<path class="st11" d="M134.8,40.9c-0.2,0.2-0.1,0.5,0,0.6c0.2,0.1,0.4,0,0.6-0.2c0.2-0.2,0.5-1.1,0.4-1.2
						C135.7,40.1,134.9,40.7,134.8,40.9z"/>
				</g>
			</g>
			<g>
				<g>
					<path class="st11" d="M144.4,33.2c0.2-0.2,0.1-0.5,0-0.6c-0.2-0.1-0.4,0-0.6,0.2c-0.2,0.2-0.5,1.1-0.4,1.2
						C143.5,34,144.2,33.4,144.4,33.2z"/>
				</g>
			</g>
		</g>
		<g class="st12">
			<g>
				<path class="st13" d="M146.8,24.7c2.2,1.8-4.4,6.2-5.1,5.8C141,29.9,144.1,22.4,146.8,24.7z"/>
			</g>
		</g>
		<g>
			<g>
				<g>
					<path class="st11" d="M136.6,25.8c0.1-0.2,0.3-0.4,0.5-0.3c0.2,0.1,0.3,0.3,0.2,0.5c-0.1,0.2-0.7,1-0.9,0.9
						C136.4,26.9,136.5,26,136.6,25.8z"/>
				</g>
			</g>
			<g>
				<g>
					<path class="st11" d="M133.8,26.5c-0.1-0.2-0.1-0.5,0.1-0.6c0.2-0.1,0.4-0.1,0.6,0.1c0.1,0.2,0.3,1.1,0.2,1.1
						C134.6,27.3,134,26.7,133.8,26.5z"/>
				</g>
			</g>
			<g>
				<g>
					<path class="st11" d="M132,28.4c-0.2-0.1-0.3-0.4-0.1-0.6c0.1-0.2,0.4-0.2,0.6-0.1c0.2,0.1,0.7,0.8,0.6,0.9
						C133.1,28.8,132.2,28.6,132,28.4z"/>
				</g>
			</g>
			<g>
				<g>
					<path class="st11" d="M130.7,30.6c-0.2-0.1-0.3-0.3-0.3-0.5c0.1-0.2,0.3-0.3,0.6-0.2c0.2,0.1,0.9,0.6,0.9,0.7
						C131.8,30.7,130.9,30.7,130.7,30.6z"/>
				</g>
			</g>
			<g>
				<g>
					<path class="st11" d="M129.9,32.9c-0.2,0-0.4-0.2-0.4-0.4c0-0.2,0.3-0.4,0.5-0.4c0.2,0,1,0.3,1,0.5
						C131,32.8,130.1,32.9,129.9,32.9z"/>
				</g>
			</g>
			<g>
				<g>
					<path class="st11" d="M130,35.2c-0.2,0.1-0.5,0-0.5-0.2c-0.1-0.2,0.1-0.4,0.3-0.5c0.2-0.1,1.1-0.2,1.2-0.1
						C131,34.5,130.3,35.1,130,35.2z"/>
				</g>
			</g>
			<g>
				<g>
					<path class="st11" d="M130.9,37.1c-0.2,0.2-0.5,0.1-0.6,0c-0.1-0.2,0-0.4,0.2-0.6c0.2-0.2,1.1-0.5,1.2-0.4
						C131.7,36.2,131.1,36.9,130.9,37.1z"/>
				</g>
			</g>
			<g>
				<g>
					<path class="st11" d="M138.7,27.5c0.2-0.2,0.5-0.1,0.6,0c0.1,0.2,0,0.4-0.2,0.6c-0.2,0.2-1.1,0.5-1.2,0.4
						C137.9,28.3,138.5,27.6,138.7,27.5z"/>
				</g>
			</g>
		</g>
		<g class="st14">
			<g>
				<path class="st6" d="M150.1,34.4c-0.5-1.4-1.2-1.8-1.5-1.8c-0.4,0,0.1,0.4,0.4,1.9c0.4,1.7-0.1,3.1,0.1,3.3
					C149.3,38.1,150.7,36.1,150.1,34.4z"/>
			</g>
		</g>
		<g class="st14">
			<g>
				<path class="st6" d="M148.3,39.2c0.8,0.2-0.7,2.1-1.8,2.7C145.4,42.5,146.8,38.8,148.3,39.2z"/>
			</g>
		</g>
		<g class="st12">
			<g>
				<path class="st13" d="M142.3,34.1c1.1,0.7,2.7,2.5-0.5,4.2c-3.2,1.7-6,0.9-6.2,0.1C135.3,37.5,140.6,33.1,142.3,34.1z"/>
			</g>
		</g>
		<g class="st12">
			<g>
				<path class="st13" d="M137.4,29.4c-0.7-1.1-2.5-2.7-4.2,0.5c-1.7,3.2-0.9,6-0.1,6.2C134,36.4,138.4,31.1,137.4,29.4z"/>
			</g>
		</g>
	</g>
	<g>
		<g>
			<path class="st25" d="M200.8,34.4c0.1-0.1,0.6-0.7,0.7-0.9c1.2-1.5,0-4.5-2.7-6.7c-2.7-2.2-5.9-2.7-7.1-1.1
				c-0.1,0.1-0.6,0.7-0.7,0.9c-1.2,1.5,0,4.5,2.7,6.7C196.4,35.5,199.6,36,200.8,34.4z"/>
		</g>
		<g>
			<path class="st1" d="M200.8,34.5c0.1-0.1,0.6-0.7,0.7-0.9c0,0,0,0,0,0c-1.2,1.5-4.4,1-7.1-1.2c-2.7-2.1-3.9-5.1-2.8-6.6
				c0,0,0,0,0,0c-0.1,0.1-0.6,0.7-0.7,0.9c-1.2,1.5,0,4.5,2.7,6.7C196.4,35.5,199.6,36,200.8,34.5z"/>
		</g>
		<g class="st26">
			<path class="st27" d="M194.3,28.4c0.1-0.2-0.1-0.5-0.3-0.6c-0.2-0.1-0.4-0.2-0.6-0.4c-0.3-0.4-0.1-1.1,0.4-1.3
				c0.5-0.2,1.1-0.1,1.5,0.3c0.2,0.1,0.4,0.3,0.6,0.4c0.3,0,0.6-0.1,0.9-0.1c0.6,0.1,0.6,0.9,1,1.3c0.2,0.2,0.6,0.3,0.9,0.4
				c0.4,0.1,0.9,0.3,1.2,0.6c0.3,0.3,0.3,0.9,0,1.2c-0.1,0.1-0.1,0.1-0.2,0.2c-0.2,0.3,0.2,0.5,0.5,0.6s0.7,0.2,0.7,0.5
				c0,0.2-0.2,0.4-0.3,0.4c-0.2,0.1-0.4,0.1-0.6,0.1c-0.6,0.1-1,0.5-1.3,1c0,0.1-0.1,0.2-0.2,0.3c-0.1,0-0.1,0-0.2-0.1
				c-0.4-0.3-0.3-0.9-0.7-1.2c-0.2-0.2-0.6-0.1-0.9,0c-0.3,0.1-0.6,0.3-0.9,0.3c-0.4,0-0.8-0.2-1-0.6c-0.1-0.1-0.1-0.3-0.2-0.4
				c-0.1-0.2-0.3-0.3-0.5-0.5c-0.3-0.2-0.5-0.5-0.6-0.8c-0.1-0.3,0-0.7,0.2-1C193.9,28.7,194.2,28.6,194.3,28.4z"/>
		</g>
		<g class="st3">
			<path class="st6" d="M195.1,28.1c0.2,0.1,0.9,0.4,1,0.3c0.1-0.2-0.3-0.8-0.5-0.9c-0.2-0.1-0.4-0.1-0.5,0.1
				C194.9,27.7,194.9,28,195.1,28.1z"/>
		</g>
		<g class="st3">
			<path class="st6" d="M198.5,28.1c-0.1,0.1-0.3,0.7-0.2,0.7c0.1,0.1,0.6-0.2,0.7-0.3c0.1-0.1,0.1-0.3-0.1-0.4
				C198.8,28,198.6,28,198.5,28.1z"/>
		</g>
		<g class="st3">
			<path class="st6" d="M196.9,31.2c0.1-0.2,0.2-0.9,0.1-0.9c-0.2-0.1-0.6,0.4-0.7,0.6c-0.1,0.2,0,0.4,0.2,0.4
				C196.7,31.4,196.9,31.3,196.9,31.2z"/>
		</g>
		<g class="st3">
			<path class="st6" d="M199.5,31c-0.1-0.1-0.7-0.5-0.8-0.5c-0.1,0.1,0.1,0.7,0.2,0.9c0.1,0.1,0.3,0.2,0.5,0.1
				C199.6,31.4,199.7,31.2,199.5,31z"/>
		</g>
		<g class="st3">
			<path class="st6" d="M195.7,29.9c0.2,0,0.7-0.2,0.7-0.3c0-0.2-0.6-0.3-0.7-0.3s-0.3,0.1-0.3,0.3
				C195.4,29.8,195.6,29.9,195.7,29.9z"/>
		</g>
		<g class="st3">
			<path class="st6" d="M198,31.4c0-0.1,0-0.6-0.1-0.6c-0.1,0-0.3,0.4-0.3,0.5c0,0.1,0.1,0.2,0.2,0.2
				C197.8,31.6,197.9,31.5,198,31.4z"/>
		</g>
		<g class="st3">
			<path class="st6" d="M199.4,29.7c-0.1,0-0.6,0.1-0.6,0c0-0.1,0.3-0.4,0.4-0.4c0.1,0,0.2,0,0.3,0.1
				C199.6,29.5,199.6,29.6,199.4,29.7z"/>
		</g>
		<g class="st3">
			<path class="st6" d="M197.8,27.4c0,0.1-0.2,0.5-0.3,0.5c-0.1,0-0.1-0.4-0.1-0.6c0-0.1,0.1-0.2,0.2-0.2
				C197.8,27.2,197.9,27.3,197.8,27.4z"/>
		</g>
		<g class="st3">
			<path class="st6" d="M196.9,27.8c0,0.1,0,0.5,0,0.5c-0.1,0-0.3-0.3-0.3-0.4c0-0.1,0-0.2,0.1-0.2
				C196.7,27.6,196.8,27.7,196.9,27.8z"/>
		</g>
	</g>
	<g>
		<g>
			<g>
				<g>
					<path class="st28" d="M126.5,90.2c0,0,7.4,6.2,11,6.5c3.6,0.3,11.8-1.8,11.8-1.8l-0.6,1.2c0,0-5.1,2.9-11.7,1.4
						C130.4,96,126.3,92.4,126.5,90.2z"/>
				</g>
			</g>
			<g>
				<g>
					<g>
						<path class="st28" d="M136.8,97.5c-6.5-1.4-11.2-5-10.5-8.1c0.7-3,6.5-4.4,12.9-3c6.5,1.4,11.2,5,10.5,8.1
							C149.1,97.5,143.3,98.9,136.8,97.5z M139.2,86.6c-6.2-1.4-11.8-0.1-12.5,2.9c-0.6,2.9,3.9,6.4,10.2,7.8
							c6.2,1.4,11.8,0.1,12.5-2.9C149.9,91.5,145.4,88,139.2,86.6z"/>
					</g>
				</g>
			</g>
			<g>
				<g>
					<path class="st29" d="M137,96.6c-6.4-1.4-11-4.9-10.4-7.8c0.6-2.9,6.3-4.2,12.7-2.8c6.4,1.4,11,4.9,10.4,7.8
						C149,96.7,143.3,98,137,96.6z M139,87.1c-5-1.1-9.5-0.1-10,2.2c-0.5,2.3,3.2,5.1,8.2,6.2c5,1.1,9.5,0.1,10-2.2
						C147.7,91,144,88.2,139,87.1z"/>
				</g>
			</g>
			<g>
				<g>
					<g>
						<path class="st28" d="M137,96.7c-6.5-1.4-11.2-5-10.5-8c0.7-3,6.4-4.3,12.9-2.8c6.5,1.4,11.2,5,10.5,8
							C149.2,96.8,143.4,98.1,137,96.7z M139.3,86.1c-6.2-1.4-11.8-0.1-12.5,2.7c-0.6,2.9,3.9,6.3,10.2,7.7
							c6.2,1.4,11.8,0.1,12.5-2.7C150.1,90.9,145.5,87.4,139.3,86.1z"/>
					</g>
				</g>
			</g>
		</g>
		<g class="st30">
			<g>
				<path class="st31" d="M139.1,86.7c-5.5-1.2-10.4-0.1-11,2.4c-0.6,2.5,3.5,5.6,9,6.8c5.5,1.2,10.4,0.1,11-2.4
					C148.7,90.9,144.7,87.9,139.1,86.7z M137.2,95.5c-5-1.1-8.7-3.9-8.2-6.2c0.5-2.3,5-3.3,10-2.2c5,1.1,8.7,3.9,8.2,6.2
					C146.7,95.6,142.2,96.6,137.2,95.5z"/>
			</g>
		</g>
	</g>
</g>
</svg>
