<?xml version="1.0" encoding="utf-8"?>
<!-- Generator: Adobe Illustrator 24.1.2, SVG Export Plug-In . SVG Version: 6.00 Build 0)  -->
<svg version="1.1" id="Layer_1" xmlns:v="https://vecta.io/nano"
	 xmlns="http://www.w3.org/2000/svg" xmlns:xlink="http://www.w3.org/1999/xlink" x="0px" y="0px" viewBox="0 0 250 84"
	 style="enable-background:new 0 0 250 84;" xml:space="preserve">
<style type="text/css">
	.st0{fill:#8FBB5E;}
	.st1{fill:#688043;}
	.st2{fill:#B7D490;}
	.st3{opacity:0.57;}
	.st4{fill:#A9C265;}
	.st5{opacity:0.29;}
	.st6{fill:#FFFFFF;}
	.st7{opacity:0.56;}
	.st8{fill:#DB613F;}
	.st9{opacity:0.33;}
	.st10{opacity:0.32;}
	.st11{fill:#EEDCD2;}
	.st12{opacity:0.38;}
	.st13{fill:#F6E267;}
	.st14{opacity:0.77;}
	.st15{fill:#5B4425;}
	.st16{fill:#ECB84D;}
	.st17{fill:#211F1D;}
	.st18{fill:none;}
	.st19{opacity:0.13;}
	.st20{fill:#486B55;}
	.st21{fill:#E27C55;}
	.st22{opacity:0.5;}
	.st23{fill:#030303;}
	.st24{opacity:0.24;}
	.st25{fill:#D0E3B5;}
	.st26{opacity:0.28;}
	.st27{fill:#C6DB99;}
	.st28{fill:#62538C;}
	.st29{fill:#F9EDFA;}
	.st30{opacity:0.2;}
	.st31{fill:#7B3C78;}
	.st32{opacity:0.14;}
	.st33{opacity:0.54;}
	.st34{fill:#BF8C6A;}
	.st35{fill:#8C5229;}
	.st36{opacity:0.6;}
	.st37{fill:#CB8E61;}
	.st38{opacity:0.42;}
	.st39{fill:#A62420;}
	.st40{fill:#ECB54A;}
	.st41{fill:#B36618;}
	.st42{fill:#F9EB95;}
	.st43{fill:#F7F7E8;}
	.st44{fill:#E0AF8F;}
	.st45{opacity:0.4;}
</style>
<g>
	<g>
		<g>
			<g>
				<g>
					<path class="st0" d="M35.7,37.7c-0.4,1.8-2.2,2.9-4.1,3.4c-1.8,0.5-3.7,0.5-5.4,1.1c-1.1,0.4-2,0.9-3.1,1.1
						c-1.4,0.4-2.9,0.2-4.3,0c1.5-0.6,2.7-1.9,3.4-3.4c0.5-1.4,0.6-2.9,1.5-4c0.8-1.1,2.4-1.7,3.8-1.4c0.5,0.1,1.1,0.4,1.6,0.4
						c1.3,0,2.2-1.2,3-2.3c1.1-1.5,2.6-2.8,4.3-3.6c1.7-0.8,3.7-1,5.5-0.4c1,0.4,1.9,0.9,3,1c1.9,0.1,3.5-1.5,5.3-1.5
						c1.5,0.1,2.8,1.3,3.8,2.4c1.4,1.4,2.9,2.8,4.7,3.5c0.7,0.3,1.6,0.5,1.9,1.2c0.5,1.2-0.9,2.8-0.1,3.8c-2.3-0.6-4.5-1.6-6.5-2.9
						c-1.1-0.6-2.1-1.4-3.3-1.6c-1.1-0.2-2.3,0.1-3.4,0.4c-1.6,0.4-3.3,0.8-4.9,1.2c-1.1,0.3-2.4,0.5-3.4,0.1
						c-0.8-0.4-1.6-1-2.3-0.6C35.9,36,35.8,37,35.7,37.7z"/>
				</g>
			</g>
			<g>
				<g>
					<path class="st1" d="M45.4,31.3c1.6-0.5,3.1-1,4.7-1.6c0.8-0.3,1.5-0.6,2.3-0.6c1.6,0,3.1,1.6,2.9,3.3
						c-0.1,0.8-0.4,1.5-0.1,2.2c0.6,1.1,2.1,0.7,3.4,0.8c1.8,0.1,3.4,1.7,3.5,3.5c-3.9,0.2-7.8,1.8-10.8,4.4
						c-0.3-1.4-1.8-2.1-3.2-2.4c-7-1.6-14.7,0.1-20.3,4.5c-1.1-0.8-2.2-1.5-3.3-2.2c-0.3-0.2-0.6-0.4-0.8-0.7
						c-0.2-0.4-0.1-0.8-0.1-1.2c0.1-1,0.3-2,0.8-2.9s1.3-1.6,2.3-1.7c0.9-0.1,1.8,0.5,2.8,0.8c0.9,0.3,2.1,0.3,2.6-0.6
						c0.7-1.2-0.6-3.1,0.5-3.9c0.9-0.6,2.2,0.4,3.1-0.2c0.4-0.3,0.5-0.9,0.8-1.3c0.5-0.7,1.6-0.8,2.5-0.6c0.9,0.2,1.7,0.6,2.6,0.8
						C42.9,32,44.1,31.7,45.4,31.3z"/>
				</g>
			</g>
			<g>
				<g>
					<g>
						<path class="st1" d="M20.4,42.3c0.4-0.5,0.8-0.8,1.2-1.2c0.4-0.4,0.8-0.8,1.2-1.2c0.4-0.4,0.8-0.7,1.2-0.7
							c0.8,0,1.2,0.8,1.5,1.5c0.2,0.7,0.6,1.5,1.3,1.8c0.5,0.1,0.9,0,1.4,0.2c0.3,0.1,0.5,0.4,0.8,0.6c0.5,0.5,1,1.1,1.5,1.6
							c0.5,0.6,1.1,1.2,1.4,1.9c0.4,0.9,0.2,1.9,0.4,2.9c0.2,1.8,1.1,3.4,1.3,5.2c0,0.2,0,0.3-0.1,0.5c-0.1,0.1-0.2,0.2-0.3,0.3
							c-0.9,0.6-1.8,1.2-2.9,1.6c-1.3,0.4-2.7,0.4-4.1,0.2c-1.9-0.2-3.8-0.5-5.5-1.4c-0.5-0.2-0.9-0.5-1.2-0.9
							c-0.4-0.5-0.5-1.2-0.6-1.8c-0.2-1.9-0.5-3.8-0.4-5.7C18.7,45.7,19.2,43.8,20.4,42.3z"/>
					</g>
				</g>
				<g>
					<g>
						<path class="st2" d="M23.9,45.6c-0.4-0.6-0.4-1.5-0.4-2.2c0-0.8-0.2-1.6-0.9-2c-0.4-0.2-0.8-0.2-1.2-0.1
							c0.1-0.1,0.1-0.1,0.2-0.2c0.4-0.4,0.8-0.8,1.2-1.2c0.4-0.4,0.8-0.7,1.2-0.7c0.8,0,1.2,0.8,1.5,1.5c0.2,0.7,0.6,1.5,1.3,1.8
							c0.5,0.1,0.9,0,1.4,0.2c0.3,0.1,0.5,0.4,0.8,0.6c0.5,0.5,1,1.1,1.5,1.6c0.5,0.6,1.1,1.2,1.4,1.9c0.4,0.9,0.2,1.9,0.4,2.9
							c0,0.1,0,0.2,0.1,0.2c-0.9-0.9-1.6-2.1-2.5-3.1c-0.2-0.3-0.5-0.6-0.9-0.7c-0.3-0.1-0.5,0-0.8,0.1c-0.7,0.2-1.5,0.4-2.2,0.3
							C25.1,46.6,24.4,46.2,23.9,45.6z"/>
					</g>
				</g>
			</g>
			<g>
				<g>
					<g>
						<path class="st0" d="M30.5,46.2c-0.1-1.1-0.5-2.1-0.7-3.1c-0.2-1.1-0.1-2.2,0.6-3c1.5-1.6,4.5-0.1,6.5-1.2
							c1.6-0.9,1.9-3.2,3.2-4.6c0.8-0.8,2-1.2,3.1-1.5c0.6-0.2,1.2-0.4,1.9-0.2c0.6,0.2,1.1,0.9,0.9,1.5c-0.2,0.5-0.9,0.7-1.3,1.1
							c-0.8,0.8-0.2,2.3,0.8,2.9c1,0.6,2.2,0.6,3.3,1.1c2.8,1,4.5,3.9,4.8,6.9s-0.4,5.9-1.2,8.7c-0.6,2.4-1.5,5.1-3.8,6.1
							c-1.1,0.5-2.4,0.5-3.5,0.5c-3.8-0.1-7.5-0.6-11.1-1.5c-2-0.5-4.2-1.2-5.1-3.1C27.2,53.5,30.8,49.9,30.5,46.2z"/>
					</g>
				</g>
				<g>
					<g class="st3">
						<g>
							<path class="st4" d="M50.9,45.1c-1.3-1.3-2.7-2.4-3.8-3.9c1.7,0.9,3.7,1.6,5.6,1.9c0.4,0.9,0.6,1.8,0.8,2.8
								c0.1,1.1,0.1,2.2,0,3.2C53.2,47.6,52.1,46.3,50.9,45.1z"/>
						</g>
					</g>
				</g>
				<g>
					<g>
						<path class="st2" d="M31.1,43.2c-0.2,0.6-0.4,1.3-0.8,1.8l0,0c-0.2-0.6-0.4-1.2-0.5-1.8c-0.2-1.1-0.1-2.2,0.6-3
							c1.5-1.6,4.5-0.1,6.5-1.2c1.6-0.9,1.9-3.2,3.2-4.6c0.8-0.8,2-1.2,3.1-1.5c0.6-0.2,1.2-0.4,1.9-0.2c0.6,0.2,1.1,0.9,0.9,1.5
							c-0.2,0.5-0.8,0.6-1.2,1c-0.6-0.2-1.2-0.5-1.9-0.5c-0.9,0.1-1.7,0.8-2,1.6c-0.4,0.9-0.3,1.8-0.2,2.8s0.2,1.9,0,2.8
							c-0.3,1.5-1.5,2.9-3,3.2c-1.5,0.4-3.2-0.3-4.1-1.6c-0.2-0.4-0.5-0.9-0.9-1.1C32,42,31.4,42.6,31.1,43.2z"/>
					</g>
				</g>
				<g class="st5">
					<g>
						<path class="st6" d="M49,48.7c-1.8,0.2-3.2-1.4-5-1.9c0.1,0.5,0.1,0.9,0.1,1.4c0,0.1,0,0.2-0.1,0.4s-0.4,0.1-0.6,0.1
							c-0.5-0.2-0.9-0.4-1.4-0.6c-0.1,1.8-1.4,3.5-3.1,4.2c-0.3,0.1-0.6,0.2-0.9,0.2c-1.1-0.1-1.5-1.2-1.6-2.2
							c-0.1-0.6-0.3-2.7,0.4-3c0.2-0.1,0.4,0,0.5,0c1,0.1,2-0.1,2.8-0.6c0.3-0.2,0.6-0.5,0.9-0.5c0.4-0.1,0.5,0.2,0.9,0.2
							s0.6-0.3,0.7-0.6c0.1-0.9-0.2-1.8,0.5-2.6c0.5-0.6,1.4-0.8,2.2-0.5c2,0.6,4.2,1.9,4.8,4.1C50.4,47.6,50.1,48.6,49,48.7z"/>
					</g>
				</g>
			</g>
			<g>
				<g>
					<g>
						<path class="st0" d="M47.1,38.6c-0.4-0.4-0.5-1-0.5-1.5c0.1-1.6,1.2-3,2.8-3.4c1.5-0.4,3.2,0.4,4,1.8c0.2,0.5,0.4,1,0.8,1.4
							c0.7,0.7,1.9,0.5,2.8,0.5c1.4-0.1,2.8-0.1,4.1,0.4s2.4,1.5,2.8,2.8c0.4,1.3,0,2.9-1.2,3.7c-0.8,0.5-2.1,0.8-2.1,1.8
							c0,0.5,0.3,0.9,0.6,1.3c3.2,4.4,3.7,10.4,1.5,15.4s-6.8,8.7-12,10.1c-1.4-4.5-2.7-9-4.1-13.5c-0.4-1.5-0.9-3-0.6-4.5
							c0.4-2.1,1.9-3.7,3.4-5.2s2.9-3.4,2.9-5.4c0.1-1.9-1.2-3.7-3-4.4C48.6,39.3,47.7,39.2,47.1,38.6z"/>
					</g>
				</g>
				<g>
					<g>
						<path class="st2" d="M46.1,54.7c0.4-2.1,1.9-3.7,3.4-5.2s2.9-3.4,2.9-5.4c0.1-1.9-1.2-3.7-3-4.4c-0.8-0.3-1.8-0.4-2.3-1.1
							c-0.4-0.5-0.5-1.1-0.5-1.6c0.1-1.6,1.2-3,2.8-3.4c1.5-0.4,3.2,0.4,4,1.8c0.2,0.5,0.4,1,0.8,1.4c0.7,0.7,1.9,0.5,2.8,0.5
							c1.4-0.1,2.8-0.1,4.1,0.4s2.4,1.5,2.8,2.8s0,2.9-1.2,3.7c-0.5,0.4-1.3,0.6-1.8,1c-0.6,0.2-1.2,0.5-1.6,1
							c-0.7,1.3,0.9,2.9,0.5,4.4c-0.4,1.2-1.8,1.6-3.1,1.4c-1.2-0.2-2.4-0.8-3.6-0.8c-0.9,0-1.9,0.3-2.6,0.9c-1,0.8-1.5,2.1-2,3.2
							c-0.7,1.9-1.1,3.9-1.4,5.9c-0.2-0.7-0.4-1.4-0.6-2.1C46.3,57.7,45.8,56.2,46.1,54.7z"/>
					</g>
				</g>
				<g class="st7">
					<g>
						<g>
							<path class="st6" d="M63.6,40.6c-0.1-0.6-0.5-1-0.9-1.4c-0.5-0.4-1.1-0.8-1.7-0.9c-0.6-0.1-1.4-0.1-1.8,0.4
								c0.4-0.1,0.5,0.4,0.4,0.7c-0.2,0.3-0.5,0.4-0.8,0.5c-1.9,0.7-3.5,2.3-4.2,4.2c1.1-1,2.7-1.1,4.2-1.1s3.1,0,4.2-0.9
								C63.3,41.8,63.6,41.2,63.6,40.6z"/>
						</g>
					</g>
				</g>
			</g>
			<g>
				<g>
					<path class="st1" d="M33.1,55.8c-1.6,0.7-3.3,1.2-5,1.5c-2.4,0.4-5.1,0.2-6.7-1.5c-1.1-1.1-1.5-2.9-1.1-4.4
						c0.4-1.4,1.4-2.8,0.8-4.1c-0.2-0.4-0.5-0.7-0.8-1.1c-0.6-1.1-0.1-2.6,0.7-3.7c0.8-1.1,1.8-2,2.2-3.2c-2.7,1.2-5.8,2.9-6.1,5.9
						c-0.2,2.5,1.7,5,0.9,7.4c-0.2,0.6-0.6,1.1-0.8,1.7c-0.8,1.8-0.4,4.1,1,5.4c0.2,0.2,0.5,0.5,0.6,0.8c0.1,0.5-0.4,0.9-0.8,1.2
						c-1.5,1.4-1.5,3.9-0.4,5.5c1.2,1.6,3.3,2.5,5.3,2.4c0.6,0,1.2-0.1,1.8,0.1c0.4,0.1,0.6,0.4,0.9,0.6c4.8,4.2,11.4,8.1,18,6.9
						c2.8-0.5,5.5-2.1,7.1-4.5c1.3-2.1,1.6-4.6,1.2-7C51.1,61.5,48.1,57,44,55C40.4,53.1,36.7,54.2,33.1,55.8z"/>
				</g>
			</g>
			<g>
				<g>
					<g>
						<path class="st2" d="M17.9,61.7c0.4-0.4,0.9-0.8,0.8-1.2s-0.4-0.6-0.6-0.8c-1.4-1.4-1.8-3.7-1-5.4c0.2-0.6,0.6-1.1,0.8-1.7
							c0.8-2.4-1.1-4.9-0.9-7.4c0.3-2.9,3.4-4.7,6.1-5.9c-0.4,1.3-1.4,2.2-2.2,3.2c-0.8,1.1-1.4,2.5-0.7,3.7
							c0.2,0.4,0.6,0.7,0.8,1.1c0.6,1.3-0.4,2.7-0.8,4.1c-0.4,1.5,0,3.2,1.1,4.4c1.6,1.7,4.4,1.9,6.7,1.5c1.7-0.3,3.4-0.8,5-1.5
							c3.5-1.6,7.2-2.6,10.9-0.8c2.1,1,3.8,2.6,5.1,4.6c-1.8-0.5-3.8-0.5-5.6,0.2c-0.6,0.2-1.1,0.5-1.5,1c-0.5,0.7-0.6,1.6-1,2.4
							C40.4,64.3,39.2,65,38,65s-2.3-0.8-2.8-1.8c-0.1-0.3-0.2-0.6-0.4-0.9c-0.6-0.9-2.1-0.8-2.9-0.1c-0.8,0.7-1.2,1.8-1.8,2.8
							c-1.1,2.2-3.4,3.8-5.7,4.8c-0.2-0.1,0.2,0.1,0,0c-0.6-0.2-1.2-0.1-1.8-0.1c-2,0.1-4.1-0.7-5.3-2.4
							C16.4,65.6,16.4,63.1,17.9,61.7z"/>
					</g>
				</g>
				<g class="st5">
					<g>
						<path class="st6" d="M29.9,69c-0.2,0.1-0.5,0.2-0.7,0.4c-0.2,0.2-0.4,0.5-0.3,0.7c0,0.1,0.1,0.2,0.2,0.4
							c0.5,0.7,1.4,1.1,2.2,1.4c1.6,0.6,3.3,1.1,5,1.4c0.2,0.1,0.5,0.1,0.7-0.1c0.3-0.2,0.2-0.7,0-1c-0.7-1.7-1.5-3.4-2.2-5.1
							c-0.2-0.6-0.6-1.2-1.2-1.2c-0.5,0-0.8,0.4-1.1,0.8C31.8,67.6,31,68.5,29.9,69z"/>
					</g>
				</g>
			</g>
		</g>
		<g>
			<g>
				<g>
					<path class="st8" d="M69.5,74.8c0.6-0.6,1.1-1.4,1.5-2.2c1.3-2.4,1.8-5.4,0.8-7.9s-3.8-4.4-6.5-3.9c-0.5,0.1-0.9,0.2-1.4,0.3
						c-1.2,0.1-2.2-0.6-3.4-0.8c-1.7-0.3-3.5,0.6-4.6,1.9s-1.6,3.1-1.8,4.8c-0.2,1.7-0.1,3.5,0.7,5.1c1.5,3.4,5.5,5,9.2,4.8
						C66,76.8,68,76.1,69.5,74.8z"/>
				</g>
			</g>
			<g class="st9">
				<g>
					<path class="st6" d="M68.9,69.7c-0.8,1.1-2.4,1.4-3.7,0.8s-2-1.8-2.2-3.2c-0.1-0.5-0.1-1.1,0.2-1.6c0.4-0.6,1.1-1,1.8-1.2
						c1-0.4,2.2-0.5,3,0.1c0.5,0.4,0.9,0.9,1.1,1.5C69.5,67.3,69.6,68.7,68.9,69.7z"/>
				</g>
			</g>
			<g>
				<g>
					<path class="st1" d="M56.3,56.6c0.5-0.5,1.3-0.2,1.7,0.3s0.6,1.1,1.1,1.6c0.6,0.6,1.5,0.8,2.4,1c-0.7-0.5-1.2-1.2-1.4-2
						c1,0.8,2,1.6,2.9,2.4c-0.1-1.4,0.2-2.9,1.1-4.1c0.1-0.1,0.2-0.2,0.4-0.3c0.3-0.1,0.6,0.2,0.6,0.5c0.1,0.3-0.1,0.6-0.2,0.9
						c-0.2,0.6-0.5,1.3-0.8,1.9c-0.2,0.4-0.4,0.9-0.1,1.4c0.3,0.4,0.8,0.4,1.2,0.2c0.4-0.2,0.7-0.5,1.1-0.8c1.1-0.9,2.8-1.2,4.1-0.8
						c-0.7,0.4-1.6,0.3-2.4,0.7c-0.5,0.3-0.9,0.8-1.4,1.2S65.4,61.3,65,61c0.9,0.1,1.4,1.1,1.8,1.8c0.5,0.8,1.2,1.6,2.1,1.4
						c-0.8,0.4-1.9,0.1-2.5-0.6c-0.4-0.5-0.6-1.2-1.2-1.5c-0.4-0.2-0.8-0.2-1.2-0.3c-0.4-0.1-0.9-0.4-0.9-0.8
						c-2-0.2-4.2-1.1-5.1-2.9c-0.2-0.4-0.4-0.8-0.6-1.1C57.1,56.7,56.7,56.5,56.3,56.6z"/>
				</g>
			</g>
		</g>
		<g>
			<g>
				<g>
					<path class="st8" d="M55.2,73.1c-0.3-5.5-3.9-5.5-8.3-5.3S39,68.5,39.3,74c0.2,4,2.6,7.5,8.7,7.2C53.4,80.8,55.4,77,55.2,73.1z
						"/>
				</g>
			</g>
			<g>
				<g>
					<path class="st8" d="M54.3,73.2c-0.3-4.9-3.5-4.9-7.4-4.8c-4,0.2-7.1,0.6-6.9,5.6c0.2,3.5,2.4,6.7,7.8,6.4
						C52.7,80.1,54.5,76.8,54.3,73.2z"/>
				</g>
			</g>
			<g class="st10">
				<g>
					<g>
						<path class="st8" d="M48.1,77.1c0-0.2,0.1-0.3,0.1-0.4c0.2-0.2,0.5-0.3,0.8-0.4c0.8-0.3,1.1-1.3,1.2-2.2
							c0.1-0.5,0.2-1.1,0-1.6c-0.5-1.5-2.2,0.4-2.4-0.9c-0.1-1.3,1-2.5,2.2-2.5s2.2,1.1,2.6,2.3c0.2,0.5,0.3,1.1,0.3,1.6
							c0.1,1.8-0.4,3.8-1.6,5.1c-0.6,0.5-1.4,0.9-2.1,0.8C48.7,78.8,48.1,78,48.1,77.1z"/>
					</g>
				</g>
			</g>
			<g class="st10">
				<g>
					<g>
						<path class="st8" d="M46.8,77.2c-0.1-0.2-0.1-0.3-0.2-0.4c-0.2-0.2-0.6-0.2-0.9-0.3c-0.8-0.2-1.2-1.1-1.5-2
							C44,74,43.9,73.4,44,72.9c0.4-1.5,2.3,0.2,2.2-1.2c0-1.3-1.3-2.4-2.5-2.2c-1.2,0.2-2.1,1.3-2.4,2.6c-0.1,0.5-0.2,1.1-0.1,1.6
							c0.1,1.9,0.8,3.8,2.2,4.8c0.6,0.5,1.4,0.8,2.2,0.5C46.4,78.9,47,78.1,46.8,77.2z"/>
					</g>
				</g>
			</g>
			<g>
				<g>
					<g>
						<path class="st11" d="M50.2,71.6c0.1-0.1,0-0.2-0.1-0.2c-0.1-0.1-0.2,0-0.2,0.1s-0.1,0.5,0,0.6C50,72.1,50.2,71.7,50.2,71.6z"
							/>
					</g>
				</g>
				<g>
					<g>
						<path class="st11" d="M51,72.7c0.1,0,0.2-0.1,0.1-0.2c0-0.1-0.1-0.2-0.2-0.1c-0.1,0-0.4,0.2-0.4,0.3
							C50.5,72.7,50.9,72.7,51,72.7z"/>
					</g>
				</g>
				<g>
					<g>
						<path class="st11" d="M51,73.9c0.1,0,0.2-0.1,0.2-0.2s-0.1-0.2-0.2-0.2c-0.1,0-0.5,0.1-0.5,0.1C50.5,73.7,50.9,73.9,51,73.9z"
							/>
					</g>
				</g>
				<g>
					<g>
						<path class="st11" d="M50.8,75.1c0.1,0.1,0.2,0,0.2-0.1s0-0.2-0.1-0.2c-0.1-0.1-0.5-0.1-0.5,0C50.4,74.8,50.7,75,50.8,75.1z"
							/>
					</g>
				</g>
				<g>
					<g>
						<path class="st11" d="M50.3,76.1c0.1,0.1,0.2,0.1,0.2,0s0-0.2-0.1-0.3c-0.1-0.1-0.5-0.2-0.5-0.1C50,75.7,50.3,76.1,50.3,76.1z
							"/>
					</g>
				</g>
				<g>
					<g>
						<path class="st11" d="M49.6,76.8c0.1,0.1,0.2,0.2,0.2,0.1s0.1-0.2,0.1-0.3s-0.3-0.4-0.4-0.4C49.5,76.3,49.6,76.7,49.6,76.8z"
							/>
					</g>
				</g>
				<g>
					<g>
						<path class="st11" d="M48.7,77.2c0,0.1,0.1,0.2,0.2,0.2c0.1,0,0.1-0.1,0.1-0.2s-0.2-0.5-0.3-0.5
							C48.7,76.7,48.7,77.1,48.7,77.2z"/>
					</g>
				</g>
				<g>
					<g>
						<path class="st11" d="M49,71.5c0-0.1-0.1-0.2-0.2-0.2c-0.1,0-0.1,0.1-0.1,0.2S48.9,72,49,72S49,71.6,49,71.5z"/>
					</g>
				</g>
			</g>
			<g class="st12">
				<g>
					<path class="st13" d="M46.8,68.1c1.3-0.2,0.8,3.4,0.4,3.5C46.9,71.7,45.2,68.4,46.8,68.1z"/>
				</g>
			</g>
			<g>
				<g>
					<g>
						<path class="st11" d="M44.1,71.9c-0.1-0.1,0-0.2,0.1-0.3c0.1-0.1,0.2,0,0.2,0.1s0.1,0.5,0.1,0.6
							C44.4,72.4,44.1,72.1,44.1,71.9z"/>
					</g>
				</g>
				<g>
					<g>
						<path class="st11" d="M43.5,73.1c-0.1,0-0.2-0.1-0.2-0.2s0.1-0.2,0.2-0.2c0.1,0,0.5,0.2,0.5,0.3C44,73.1,43.6,73.2,43.5,73.1z
							"/>
					</g>
				</g>
				<g>
					<g>
						<path class="st11" d="M43.6,74.4c-0.1,0.1-0.2,0-0.2-0.1s0.1-0.2,0.1-0.2c0.1-0.1,0.5,0,0.5,0.1C44,74.1,43.7,74.3,43.6,74.4z
							"/>
					</g>
				</g>
				<g>
					<g>
						<path class="st11" d="M43.9,75.5c-0.1,0.1-0.2,0-0.2-0.1c-0.1-0.1,0-0.2,0.1-0.3c0.1-0.1,0.5-0.1,0.5-0.1S44,75.4,43.9,75.5z"
							/>
					</g>
				</g>
				<g>
					<g>
						<path class="st11" d="M44.5,76.5c-0.1,0.1-0.2,0.1-0.2,0c-0.1-0.1-0.1-0.2,0-0.3c0.1-0.1,0.4-0.2,0.5-0.2
							C44.8,76,44.6,76.4,44.5,76.5z"/>
					</g>
				</g>
				<g>
					<g>
						<path class="st11" d="M45.3,77.1c-0.1,0.1-0.1,0.2-0.2,0.1C45,77.1,45,77,45,77c0.1-0.1,0.3-0.5,0.4-0.4
							C45.3,76.5,45.3,77,45.3,77.1z"/>
					</g>
				</g>
				<g>
					<g>
						<path class="st11" d="M46.2,77.4c0,0.1-0.1,0.2-0.2,0.2c-0.1,0-0.2-0.1-0.2-0.2s0.2-0.5,0.2-0.5
							C46.1,76.8,46.3,77.2,46.2,77.4z"/>
					</g>
				</g>
				<g>
					<g>
						<path class="st11" d="M45.3,71.8c0-0.1,0.1-0.2,0.2-0.2c0.1,0,0.2,0.1,0.2,0.2s-0.2,0.5-0.2,0.5
							C45.4,72.3,45.3,71.9,45.3,71.8z"/>
					</g>
				</g>
			</g>
			<g class="st14">
				<g>
					<path class="st6" d="M51.1,69.9c-0.6-0.3-1-0.2-1.1,0c-0.1,0.1,0.1,0.1,0.8,0.5s1.1,1,1.2,1C52.2,71.4,51.9,70.3,51.1,69.9z"/>
				</g>
			</g>
			<g class="st14">
				<g>
					<path class="st6" d="M52.3,72.1c0.4-0.2,0.5,0.9,0.4,1.4S51.7,72.4,52.3,72.1z"/>
				</g>
			</g>
			<g class="st12">
				<g>
					<path class="st13" d="M48.7,72.5c0.6-0.2,1.7-0.2,1.3,1.5c-0.4,1.6-1.5,2.4-1.9,2.2C47.7,76,47.8,72.8,48.7,72.5z"/>
				</g>
			</g>
			<g class="st12">
				<g>
					<path class="st13" d="M45.6,72.8c-0.6-0.1-1.7,0.1-1.1,1.6c0.6,1.6,1.8,2.2,2.1,1.9C46.9,76.1,46.5,72.9,45.6,72.8z"/>
				</g>
			</g>
		</g>
		<g>
			<g>
				<g>
					<path class="st1" d="M10.4,9.3c1.3,0.5-0.1,4.7,3.8,22s1,23.6,1,23.6L13,49C13,48.9,7.7,8.2,10.4,9.3z"/>
				</g>
			</g>
			<g>
				<g>
					<path class="st0" d="M7.9,17.9C9,17,15.8,47.5,15.8,47.5l-2.3,3.1C13.4,50.6,6.8,18.8,7.9,17.9z"/>
				</g>
			</g>
			<g>
				<g>
					<path class="st0" d="M15.2,16.8c0.9-0.1,2.1,31.5,2.1,31.5l-2.6,2.9C14.6,51.2,12.3,17,15.2,16.8z"/>
				</g>
			</g>
			<g>
				<g>
					<path class="st15" d="M16.4,76.7c-0.1-0.1-0.1-0.1-0.2,0s-0.1,0.1-0.1,0.2c-0.1,0.5-0.9,0.8-0.9,1.3c0.4-0.8,0.4-1.6,0.1-2.4
						c-0.1-0.2-0.1-0.4-0.1-0.5c0.1-0.1,0.1-0.2,0.2-0.4c0.9-0.9,2.5-0.9,3.7-0.5c0.4,0.2,0.9,0.4,1.3,0.2c0.1,0.2-0.2,0.5-0.2,0.8
						c0,0.2,0.2,0.4,0.3,0.6c0.4,0.5,0.4,1.3,0.1,1.8c0.2-0.6-0.3-1.3-0.7-1.8c0.1,0.4,0.2,0.8,0.4,1.2c-0.1-0.3-0.4-0.5-0.6-0.7
						s-0.4-0.6-0.2-0.9c-0.3,0.3-0.3,0.7-0.2,1.1c0.1,0.4,0.4,0.7,0.5,1.1c0.2,0.5,0.2,0.9,0.1,1.4c-0.1-0.4-0.2-0.9-0.5-1.2
						c-0.2-0.3-0.5-0.5-0.7-0.8s-0.3-0.6-0.1-0.9c-0.2,0.4-0.3,0.9-0.3,1.4c-0.1-0.5-0.3-1-0.5-1.5c0,0.7-0.6,1.4-0.4,2
						c-0.1-0.8-0.2-1.7-0.3-2.5c-0.4,1.3-0.8,2.7-0.3,4C16.2,78.8,16.1,77.7,16.4,76.7z"/>
				</g>
			</g>
			<g>
				<g>
					<path class="st16" d="M28.7,62.3c-0.3-3.3-2.4-6.1-5.4-7.6c-1.4-0.8-3.7-2.2-4.6-2.8C17.4,51.1,18,46,17.9,46
						c-0.8,0.1-1.6,4.2-1.6,4.2L15,47.7c-0.2,0.6-0.2,2.5-0.2,2.5c-1.2-2.6-2.8-3.9-2.8-3.9c0.9,2.1,1.3,5,1,6.2s-4.3,4.2-4.2,4.2
						c-2.1,2.1-3.3,4.8-3.1,7.8c0.4,3.7,2.9,6.7,6.5,8.1h-0.1c3.5,1.4,3.5,3.5,3.5,3.5s-0.1-0.4,0.4-0.8s0.7,0.5,0.7,0.5
						s0.6-0.8,0.8-0.8c0.3,0,1.1,0.7,1.1,0.7s0.6-0.8,1.1-0.9s1.1,0.6,1.1,0.6c-0.2-0.9,1.9-2.9,2.8-3.7
						C26.9,69.7,29,66.1,28.7,62.3z"/>
				</g>
			</g>
			<g>
				<g class="st5">
					<g>
						<path class="st17" d="M13.5,51.3C13.6,56.9,6.4,59,7.2,65c0.6,4.8,5.8,5.7,8.1,9.4c0.1,0.1,0.2,0,0.1-0.1
							c-2.2-5.1-9.8-4.9-7.5-12.5C9.2,57.8,13.8,55.9,13.5,51.3C13.6,51.3,13.5,51.3,13.5,51.3L13.5,51.3z"/>
					</g>
				</g>
				<g class="st5">
					<g>
						<path class="st17" d="M13.9,52.5c-0.5,4.1-5.1,6.8-4.7,11.2c0.4,4.5,5.6,6.4,6.9,10.5c0,0.1,0.1,0.1,0.1,0
							c-0.8-3.9-4.8-5.2-6.1-8.9C8.3,60,13.6,57.5,13.9,52.5C14,52.5,13.9,52.5,13.9,52.5L13.9,52.5z"/>
					</g>
				</g>
				<g class="st5">
					<g>
						<path class="st17" d="M14.6,52.3c-0.1,3.9-2.2,7.5-1.9,11.4c0.4,3.8,3.6,6.6,4.1,10.4c0,0.1,0.1,0.1,0.1,0
							c0-3.8-3.3-6.5-3.7-10.4s1.5-7.5,1.5-11.4C14.8,52.3,14.6,52.3,14.6,52.3L14.6,52.3z"/>
					</g>
				</g>
				<g class="st5">
					<g>
						<path class="st17" d="M17.5,51c1.2,5.5,8.6,5.9,9.2,12c0.5,4.8-4.4,6.9-5.8,11c0,0.1-0.2,0.1-0.1-0.1c1-5.4,8.5-7,4.5-13.8
							C23.1,56.3,18.2,55.5,17.5,51C17.4,51,17.5,51,17.5,51L17.5,51z"/>
					</g>
				</g>
				<g class="st5">
					<g>
						<path class="st17" d="M17.4,52.3c1.4,3.9,6.5,5.5,7.1,9.9s-4.1,7.4-4.4,11.7c0,0.1-0.1,0.1-0.1,0c-0.2-4,3.5-6.2,3.9-10
							C24.5,58.3,18.8,56.9,17.4,52.3C17.4,52.3,17.4,52.2,17.4,52.3L17.4,52.3z"/>
					</g>
				</g>
				<g class="st5">
					<g>
						<path class="st17" d="M16.7,52.3C17.6,56,20.5,59,21.1,63c0.5,3.8-2,7.2-1.6,11c0,0.1-0.1,0.1-0.1,0c-0.8-3.7,1.8-7.1,1.2-11
							c-0.5-3.9-3.1-6.9-4-10.7C16.5,52.2,16.6,52.2,16.7,52.3L16.7,52.3z"/>
					</g>
				</g>
				<g class="st10">
					<g>
						<path class="st17" d="M15.8,53.7c-0.6,6.3,1.4,12.7,2.2,19c0,0.2,0.3,0.2,0.3,0c-0.1-3-0.8-5.9-1.3-8.9
							C16.4,60.4,16.3,57.1,15.8,53.7C15.9,53.6,15.8,53.6,15.8,53.7L15.8,53.7z"/>
					</g>
				</g>
			</g>
			<g>
				<g>
					
						<ellipse transform="matrix(0.9955 -9.435183e-02 9.435183e-02 0.9955 -5.9054 1.8962)" class="st18" cx="17.1" cy="63.4" rx="11.5" ry="10.1"/>
				</g>
			</g>
			<g class="st19">
				<g>
					<path d="M22.6,54.3c-1.4-0.8-3.1-1.8-3.9-2.4C17.3,51.1,18,46,17.9,46c-0.8,0.1-1.6,4.2-1.6,4.2L15,47.6
						c-0.2,0.6-0.2,2.5-0.2,2.5c-1.2-2.6-2.8-3.9-2.8-3.9c0.9,2.1,1.3,5,1,6.2c-0.2,0.7-1.6,2-2.7,3c0.3-0.1,0.5-0.1,0.8-0.2
						c-0.1,0.3-0.2,0.6-0.2,0.9c0.7-0.6,1.5-1.2,2.4-1.5c0.2-0.1,0.3-0.1,0.5-0.1c0.5,0.1,0.5,0.9,0.3,1.4c0.6-0.4,0.5-2,1.2-1.8
						c0.6-0.1,0.6,1.3,0.6,1.6c0.3-0.6,0.7-2,1.4-2.1c0.7-0.1,2.3,0.8,2.7,1.3c-0.3-0.5-0.2-1.2,0.4-1.3c0.5-0.1,1.1,0.1,1.6,0.3
						C22.2,54.1,22.4,54.2,22.6,54.3z"/>
				</g>
			</g>
		</g>
		<g>
			<g>
				<g>
					<path class="st20" d="M11.7,73.5c0,0-9.4-4.5-9.2-5.4s1.9-1.9,1.9-1.9l7.8,6.1L11.7,73.5z"/>
				</g>
			</g>
			<g>
				<g>
					<path class="st1" d="M11.2,74.9c0,0-8.1-1.9-8.4-2.4c-0.2-0.4-0.6-2.8,0-2.9s9.1,3.7,9.1,3.7L11.2,74.9z"/>
				</g>
			</g>
			<g>
				<g>
					<path class="st0" d="M11.2,75.7H6.6c0,0-0.6-1.4,0-2.1s4.5,0.9,4.5,0.9L11.2,75.7z"/>
				</g>
			</g>
			<g>
				<g>
					<path class="st0" d="M12.2,72.4c0,0-4.8-2.9-4.5-4.2C8,66.9,9.3,67,9.3,67l3.2,5.1L12.2,72.4z"/>
				</g>
			</g>
			<g>
				<g>
					<path class="st20" d="M10.8,73.3c0.6-2.6,2.9-2,2.9-2L12,76.7C12,76.7,10.2,75.9,10.8,73.3z"/>
				</g>
			</g>
			<g>
				<g>
					<path class="st21" d="M12.1,73.7c1.3-5.4,6.8-3.7,17.4,0.2s22.3,8.6,22.4,9.5s-30.3-0.8-34.3-1.8C13.5,80.6,11,78.5,12.1,73.7z
						"/>
				</g>
			</g>
			<g class="st22">
				<g>
					<g>
						<path class="st23" d="M18.1,71.4c-0.1,0.2-0.2,0.4-0.2,0.6c-0.1,0.2-0.1,0.3-0.2,0.4s-0.2,0.1-0.2-0.1
							c-0.2-0.4,0.1-0.9,0.5-1.1C17.9,71.1,18.1,71.2,18.1,71.4L18.1,71.4z"/>
					</g>
				</g>
				<g>
					<g>
						<path class="st23" d="M15.9,76.4c0.1,0.4-0.1,0.7-0.1,1.1c-0.1,0.4-0.1,0.8-0.2,1.1c-0.1,0.1-0.2,0.1-0.3,0
							c-0.2-0.4-0.1-0.8,0-1.2c0.1-0.4,0.2-0.8,0.5-0.9C15.8,76.3,15.9,76.3,15.9,76.4L15.9,76.4z"/>
					</g>
				</g>
				<g>
					<g>
						<path class="st23" d="M15.2,72.9c-0.1,0.3-0.2,1.2-0.8,0.9c-0.1-0.1-0.1-0.2-0.1-0.3c0.1-0.4,0.2-0.7,0.6-0.9
							C15.1,72.5,15.2,72.8,15.2,72.9L15.2,72.9z"/>
					</g>
				</g>
				<g>
					<g>
						<path class="st23" d="M19.9,75.6c-0.2,0.4-0.4,0.8-0.5,1.3c-0.1,0.4-0.1,0.8-0.2,1.1c-0.1,0.1-0.2,0.1-0.2,0
							c-0.2-0.4-0.1-0.9,0.1-1.4c0.1-0.5,0.3-0.8,0.5-1.2C19.8,75.3,20,75.5,19.9,75.6L19.9,75.6z"/>
					</g>
				</g>
				<g>
					<g>
						<path class="st23" d="M23.3,78.6c-0.1,0.1-0.1,0.2-0.1,0.4c0,0.1,0,0.3,0,0.4c0,0.3,0,0.6-0.2,0.8c-0.1,0.1-0.2,0.1-0.3-0.1
							c-0.2-0.4-0.1-0.8,0-1.2c0.1-0.2,0.1-0.5,0.4-0.5C23.2,78.4,23.3,78.5,23.3,78.6L23.3,78.6z"/>
					</g>
				</g>
				<g>
					<g>
						<path class="st23" d="M23.7,73.2c0.1,0.4,0.1,0.9-0.1,1.2c-0.1,0.1-0.2,0.1-0.2-0.1c-0.2-0.4,0-0.8,0.1-1.2
							C23.5,73.1,23.7,73.1,23.7,73.2L23.7,73.2z"/>
					</g>
				</g>
				<g>
					<g>
						<path class="st23" d="M27.7,74.4c0.2,0.5,0.2,1.4-0.2,1.8c-0.1,0.1-0.3,0-0.3-0.1c-0.1-0.3,0.1-0.5,0.1-0.8
							c0.1-0.3,0.1-0.5,0.2-0.8C27.5,74.3,27.6,74.4,27.7,74.4L27.7,74.4z"/>
					</g>
				</g>
				<g>
					<g>
						<path class="st23" d="M26.9,79.8c0.1,0.4,0.2,1.1-0.4,1.3c-0.1,0.1-0.2,0-0.2-0.1c0-0.2,0.1-0.2,0.1-0.4
							c0.1-0.2,0.1-0.4,0.1-0.6C26.5,79.7,26.9,79.6,26.9,79.8L26.9,79.8z"/>
					</g>
				</g>
				<g>
					<g>
						<path class="st23" d="M31.2,81.4L31.2,81.4c0.2,0.3-0.3,0.5-0.4,0.2s-0.1-0.6-0.1-0.9s0.1-0.5,0.3-0.7c0.1-0.1,0.2,0,0.2,0.1
							c0.2,0.2,0.1,0.5,0.1,0.7c-0.1,0.3,0,0.6-0.1,0.9c-0.1-0.1-0.1-0.2-0.1-0.3C31.1,81.3,31.1,81.3,31.2,81.4L31.2,81.4z"/>
					</g>
				</g>
				<g>
					<g>
						<path class="st23" d="M35.7,77.9c-0.1,0.3-0.2,0.5-0.4,0.8c-0.1,0.2-0.1,0.5-0.3,0.7c-0.1,0.1-0.3,0.1-0.4-0.1
							c-0.2-0.6,0.3-1.4,0.7-1.7C35.5,77.5,35.7,77.7,35.7,77.9L35.7,77.9z"/>
					</g>
				</g>
				<g>
					<g>
						<path class="st23" d="M40.3,80.7c-0.1,0.2-0.2,0.5-0.2,0.7s0,0.3-0.2,0.5c-0.1,0.1-0.2,0.1-0.2,0c-0.4-0.4,0-1.1,0.3-1.4
							C40.1,80.3,40.4,80.5,40.3,80.7L40.3,80.7z"/>
					</g>
				</g>
				<g>
					<g>
						<path class="st23" d="M44.7,80.5c0.1,0.4-0.2,0.9-0.4,1.2c-0.1,0.1-0.3,0.1-0.4-0.1c-0.1-0.4,0-0.9,0.3-1.2
							C44.4,80.1,44.7,80.2,44.7,80.5L44.7,80.5z"/>
					</g>
				</g>
			</g>
		</g>
		<g class="st24">
			<g>
				<g>
					<path class="st6" d="M11.7,63.9c-0.3-0.1-0.6-0.2-0.9-0.4c-1-0.6-1.6-1.8-1.4-3c0.3-1.6,1.9-2.4,3.4-2.9
						c2.5-0.9,6.6-2.2,9.2-1.4c1.7,0.5,1.8,2.5,1,3.8c-1.2,1.9-3.6,2.8-5.8,3.2C15.6,63.7,13.4,64.3,11.7,63.9z"/>
				</g>
			</g>
		</g>
		<g class="st9">
			<g>
				<path class="st6" d="M15.1,71.8c-0.5,0.5-0.4,1.5,0.2,2c0.5,0.5,1.3,0.7,2.1,0.9c5.7,1.3,11.3,2.6,16.9,3.9
					c0.2,0.1,0.5,0.1,0.6,0c0.2-0.1,0.4-0.4,0.2-0.5C35,78,34.9,78,34.9,77.9c-1.1-0.4-2.1-0.8-3.1-1.3c-4.8-2-9.7-3.9-14.8-5.1
					C16.4,71.4,15.5,71.4,15.1,71.8z"/>
			</g>
		</g>
	</g>
	<g>
		<g>
			<path class="st25" d="M55.9,14c-0.1-0.1-0.2-0.5-0.3-0.6c-0.5-1.1-2.6-1.2-4.7-0.3c-2,0.9-3.2,2.6-2.6,3.8
				c0.1,0.1,0.2,0.5,0.3,0.6c0.5,1.1,2.6,1.2,4.7,0.3C55.2,16.8,56.4,15.1,55.9,14z"/>
		</g>
		<g>
			<path class="st1" d="M55.9,14.1c-0.1-0.1-0.2-0.5-0.3-0.6l0,0c0.5,1.1-0.6,2.8-2.6,3.8c-2,0.9-4.1,0.8-4.6-0.3l0,0
				c0.1,0.1,0.2,0.5,0.3,0.6c0.5,1.1,2.6,1.2,4.7,0.3C55.3,16.9,56.4,15.2,55.9,14.1z"/>
		</g>
		<g class="st26">
			<path class="st27" d="M50.6,16.1c-0.1-0.1-0.3-0.1-0.4,0c-0.1,0.1-0.2,0.2-0.4,0.2c-0.4,0.1-0.6-0.3-0.6-0.6s0.3-0.6,0.6-0.8
				c0.1-0.1,0.3-0.1,0.4-0.2c0.1-0.2,0.1-0.4,0.2-0.5c0.2-0.3,0.7-0.1,1.1-0.2c0.2-0.1,0.4-0.3,0.5-0.4c0.2-0.2,0.4-0.4,0.7-0.5
				s0.6,0.1,0.7,0.4c0,0.1,0,0.1,0.1,0.2c0.1,0.2,0.4,0.1,0.5-0.1c0.1-0.1,0.3-0.3,0.5-0.2c0.1,0.1,0.2,0.2,0.2,0.3
				s-0.1,0.2-0.1,0.4c-0.1,0.4,0,0.8,0.2,1c0.1,0.1,0.1,0.1,0.1,0.2c0,0.1-0.1,0.1-0.1,0.1c-0.3,0.1-0.6-0.1-0.9,0.1
				c-0.2,0.1-0.2,0.3-0.3,0.5c0,0.2,0,0.4-0.1,0.6S53.1,17,52.9,17c-0.1,0-0.2,0-0.3,0c-0.2,0-0.3,0.1-0.4,0.2
				c-0.2,0.1-0.4,0.2-0.6,0.1s-0.5-0.2-0.5-0.4C50.6,16.4,50.7,16.2,50.6,16.1z"/>
		</g>
		<g class="st3">
			<path class="st6" d="M50.6,15.6c0.1-0.1,0.5-0.4,0.5-0.5c-0.1-0.1-0.5,0-0.6,0.1s-0.2,0.2-0.1,0.3C50.3,15.6,50.4,15.7,50.6,15.6
				z"/>
		</g>
		<g class="st3">
			<path class="st6" d="M51.6,13.6c0.1,0.1,0.3,0.4,0.4,0.4c0.1-0.1,0.1-0.4,0-0.5s-0.2-0.1-0.2-0.1C51.6,13.4,51.5,13.5,51.6,13.6z
				"/>
		</g>
		<g class="st3">
			<path class="st6" d="M52.9,15.4c-0.1-0.1-0.5-0.4-0.5-0.3c-0.1,0.1,0.1,0.5,0.2,0.5c0.1,0.1,0.2,0.1,0.3,0.1
				C52.9,15.6,53,15.5,52.9,15.4z"/>
		</g>
		<g class="st3">
			<path class="st6" d="M53.6,13.8c-0.1,0-0.5,0.2-0.5,0.3s0.5,0.1,0.6,0.1s0.2-0.1,0.2-0.2C53.7,13.9,53.6,13.8,53.6,13.8z"/>
		</g>
		<g class="st3">
			<path class="st6" d="M51.8,15.7c0.1-0.1,0.1-0.5,0-0.5c-0.1-0.1-0.3,0.2-0.4,0.4c-0.1,0.1,0,0.2,0.1,0.2S51.8,15.8,51.8,15.7z"/>
		</g>
		<g class="st3">
			<path class="st6" d="M53.3,14.8c-0.1-0.1-0.4-0.1-0.4-0.1c0,0.1,0.1,0.3,0.2,0.3c0.1,0.1,0.1,0.1,0.2,0S53.4,14.9,53.3,14.8z"/>
		</g>
		<g class="st3">
			<path class="st6" d="M52.7,13.5c0,0.1-0.1,0.4-0.2,0.4c-0.1,0-0.1-0.3-0.1-0.4s0.1-0.1,0.1-0.1C52.7,13.4,52.7,13.4,52.7,13.5z"
				/>
		</g>
		<g class="st3">
			<path class="st6" d="M51,13.8c0.1,0.1,0.2,0.3,0.2,0.3c-0.1,0.1-0.3-0.1-0.4-0.1c-0.1-0.1-0.1-0.1-0.1-0.2S50.9,13.7,51,13.8z"/>
		</g>
		<g class="st3">
			<path class="st6" d="M50.9,14.4c0.1,0,0.3,0.1,0.3,0.2c0,0.1-0.2,0.1-0.3,0.1c-0.1-0.1-0.1-0.1-0.1-0.1
				C50.8,14.5,50.9,14.4,50.9,14.4z"/>
		</g>
	</g>
	<g>
		<g>
			<path class="st25" d="M28.2,2.9c0-0.1,0.1-0.4,0.1-0.4c0.2-0.7-0.7-1.5-1.9-1.9s-2.4,0-2.6,0.7c0,0.1-0.1,0.4-0.1,0.4
				c-0.2,0.7,0.7,1.5,1.9,1.9C26.9,3.9,28.1,3.6,28.2,2.9z"/>
		</g>
		<g>
			<path class="st1" d="M28.2,2.9c0-0.1,0.1-0.3,0.1-0.4l0,0c-0.2,0.7-1.4,1-2.6,0.6s-2.1-1.2-1.9-1.9l0,0c0,0.1-0.1,0.4-0.1,0.4
				c-0.2,0.7,0.7,1.5,1.9,1.9C26.9,4,28.1,3.6,28.2,2.9z"/>
		</g>
		<g class="st26">
			<path class="st27" d="M25.1,1.9c0-0.1-0.1-0.1-0.2-0.2c-0.1,0-0.2,0-0.3-0.1c-0.2-0.1-0.2-0.4-0.1-0.5s0.4-0.2,0.6-0.1
				c0.1,0,0.2,0.1,0.3,0c0.1,0,0.2-0.1,0.3-0.2c0.2-0.1,0.4,0.2,0.6,0.3c0.1,0.1,0.2,0,0.4,0c0.2,0,0.4-0.1,0.5,0.1
				c0.2,0.1,0.2,0.3,0.2,0.4l-0.1,0.1c0,0.1,0.1,0.2,0.2,0.2s0.2,0,0.3,0.1c0.1,0.1,0,0.2-0.1,0.2c-0.1,0.1-0.1,0.1-0.2,0.1
				c-0.2,0.1-0.3,0.3-0.3,0.5c0,0.1,0,0.1-0.1,0.1H27c-0.2-0.1-0.2-0.2-0.4-0.3c-0.1,0-0.2,0.1-0.3,0.1c-0.1,0.1-0.2,0.2-0.2,0.2
				C26,3,25.8,3,25.7,2.8c-0.1-0.1-0.1-0.1-0.1-0.1c-0.1-0.1-0.2-0.1-0.2-0.1c-0.1-0.1-0.2-0.1-0.4-0.2c0-0.1-0.1-0.2,0-0.3
				L25.1,1.9z"/>
		</g>
		<g class="st3">
			<path class="st6" d="M25.3,1.6c0.1,0,0.4,0,0.4-0.1s-0.2-0.2-0.3-0.2c-0.1,0-0.2,0-0.2,0.1C25.2,1.5,25.2,1.6,25.3,1.6z"/>
		</g>
		<g class="st3">
			<path class="st6" d="M26.5,1.1c0,0.1,0,0.3,0.1,0.3s0.2-0.2,0.2-0.2s0-0.1-0.1-0.1C26.5,1.1,26.5,1.1,26.5,1.1z"/>
		</g>
		<g class="st3">
			<path class="st6" d="M26.4,2.4c0-0.1-0.1-0.3-0.1-0.3c-0.1,0-0.1,0.2-0.1,0.3s0.1,0.1,0.1,0.1C26.4,2.5,26.4,2.5,26.4,2.4z"/>
		</g>
		<g class="st3">
			<path class="st6" d="M27.3,1.9c-0.1-0.1-0.3-0.1-0.4-0.1c-0.1,0.1,0.2,0.2,0.2,0.3C27.2,2.2,27.2,2.1,27.3,1.9
				C27.4,2.1,27.4,2,27.3,1.9z"/>
		</g>
		<g class="st3">
			<path class="st6" d="M25.8,2.2C25.9,2.2,26,2,26,2c0-0.1-0.2,0-0.3,0s-0.1,0.1-0.1,0.1C25.7,2.2,25.8,2.2,25.8,2.2z"/>
		</g>
		<g class="st3">
			<path class="st6" d="M26.8,2.3c0-0.1-0.1-0.2-0.1-0.2c-0.1,0-0.1,0.2-0.1,0.2l0.1,0.1C26.8,2.4,26.8,2.3,26.8,2.3z"/>
		</g>
		<g class="st3">
			<path class="st6" d="M27.1,1.5c-0.1,0.1-0.2,0.1-0.2,0.1C26.8,1.5,27,1.4,27,1.4S27,1.4,27.1,1.5L27.1,1.5z"/>
		</g>
		<g class="st3">
			<path class="st6" d="M26.1,1c0,0.1,0,0.2,0,0.2C26,1.2,26,1.1,26,1C26,1,26,1,26.1,1C26.1,0.9,26.1,0.9,26.1,1z"/>
		</g>
		<g class="st3">
			<path class="st6" d="M25.9,1.2L26,1.4c0,0-0.1-0.1-0.2-0.1V1.2C25.8,1.2,25.8,1.2,25.9,1.2z"/>
		</g>
	</g>
	<g>
		<g>
			<g>
				<path class="st8" d="M113.6,36.3c-2-4.7-5.1-3.6-8.8-2c-3.7,1.6-6.7,3.1-4.6,7.8c1.5,3.4,4.7,5.7,9.8,3.5
					C114.6,43.6,115.1,39.7,113.6,36.3z"/>
			</g>
		</g>
		<g>
			<g>
				<path class="st8" d="M113,36.7c-1.8-4.2-4.6-3.2-7.9-1.8s-5.9,2.8-4.1,6.9c1.3,3,4.1,5.1,8.7,3.1
					C113.8,43.2,114.3,39.7,113,36.7z"/>
			</g>
		</g>
		<g class="st10">
			<g>
				<g>
					<path class="st8" d="M108.9,42.1c-0.1-0.1-0.1-0.3,0-0.4c0.1-0.3,0.4-0.4,0.6-0.6c0.6-0.5,0.5-1.5,0.4-2.3
						c-0.1-0.5-0.2-1-0.5-1.4c-0.9-1.1-1.8,1.1-2.4-0.1s0.1-2.5,1.1-2.8c1-0.4,2.2,0.2,3,1.1c0.3,0.4,0.6,0.8,0.8,1.3
						c0.7,1.5,0.9,3.4,0.2,4.9c-0.3,0.6-0.9,1.2-1.5,1.4C109.9,43.3,109.1,42.8,108.9,42.1z"/>
				</g>
			</g>
		</g>
		<g class="st10">
			<g>
				<g>
					<path class="st8" d="M107.7,42.6c-0.1-0.1-0.2-0.2-0.3-0.3c-0.3-0.1-0.6,0-0.8,0.1c-0.8,0.1-1.4-0.6-1.9-1.2
						c-0.3-0.4-0.6-0.8-0.6-1.4c-0.2-1.5,2-0.6,1.6-1.8c-0.4-1.1-1.9-1.6-2.8-1.1s-1.4,1.8-1.2,2.9c0.1,0.5,0.2,1,0.4,1.5
						c0.6,1.6,1.8,3,3.4,3.5c0.7,0.2,1.5,0.2,2.1-0.2C107.9,44.2,108.1,43.2,107.7,42.6z"/>
				</g>
			</g>
		</g>
		<g>
			<g>
				<g>
					<path class="st11" d="M108.9,36.6c0-0.1-0.1-0.2-0.2-0.2s-0.2,0.1-0.2,0.2c0,0.1,0.1,0.5,0.2,0.5
						C108.9,37.1,108.9,36.7,108.9,36.6z"/>
				</g>
			</g>
			<g>
				<g>
					<path class="st11" d="M109.9,37.4c0.1-0.1,0.1-0.2,0.1-0.2c-0.1-0.1-0.2-0.1-0.2-0.1c-0.1,0.1-0.3,0.4-0.2,0.4
						C109.5,37.5,109.9,37.4,109.9,37.4z"/>
				</g>
			</g>
			<g>
				<g>
					<path class="st11" d="M110.3,38.4c0.1,0,0.2-0.1,0.1-0.2c0-0.1-0.1-0.2-0.2-0.1c-0.1,0-0.4,0.2-0.4,0.2
						C109.9,38.4,110.2,38.4,110.3,38.4z"/>
				</g>
			</g>
			<g>
				<g>
					<path class="st11" d="M110.5,39.4c0.1,0,0.2-0.1,0.2-0.2c0-0.1-0.1-0.2-0.2-0.2s-0.5,0.1-0.5,0.2
						C110.1,39.3,110.4,39.4,110.5,39.4z"/>
				</g>
			</g>
			<g>
				<g>
					<path class="st11" d="M110.4,40.5c0.1,0.1,0.2,0,0.2-0.1s-0.1-0.2-0.1-0.2c-0.1-0.1-0.5,0-0.5,0.1
						C110,40.3,110.4,40.4,110.4,40.5z"/>
				</g>
			</g>
			<g>
				<g>
					<path class="st11" d="M110.1,41.3c0.1,0.1,0.2,0.1,0.2,0c0.1-0.1,0.1-0.2,0-0.2s-0.4-0.3-0.5-0.2
						C109.8,40.9,110,41.3,110.1,41.3z"/>
				</g>
			</g>
			<g>
				<g>
					<path class="st11" d="M109.4,42c0.1,0.1,0.2,0.1,0.2,0.1c0.1-0.1,0.1-0.2,0-0.2c-0.1-0.1-0.4-0.4-0.4-0.4
						C109.2,41.5,109.3,41.9,109.4,42z"/>
				</g>
			</g>
			<g>
				<g>
					<path class="st11" d="M107.9,37c-0.1-0.1-0.2-0.1-0.2-0.1c-0.1,0.1-0.1,0.2-0.1,0.2c0.1,0.1,0.4,0.4,0.4,0.4
						C108,37.4,107.9,37.1,107.9,37z"/>
				</g>
			</g>
		</g>
		<g class="st12">
			<g>
				<path class="st13" d="M104.9,34.7c1.1-0.6,1.8,2.7,1.5,2.9C106.1,37.8,103.6,35.4,104.9,34.7z"/>
			</g>
		</g>
		<g>
			<g>
				<g>
					<path class="st11" d="M103.7,38.9c-0.1-0.1-0.1-0.2-0.1-0.2c0.1-0.1,0.2-0.1,0.2,0c0.1,0.1,0.2,0.4,0.2,0.5
						C104.1,39.1,103.8,39,103.7,38.9z"/>
				</g>
			</g>
			<g>
				<g>
					<path class="st11" d="M103.6,40.1c-0.1,0-0.2-0.1-0.2-0.1c0-0.1,0.1-0.2,0.1-0.2c0.1,0,0.5,0.1,0.5,0.1
						C104,39.9,103.7,40.1,103.6,40.1z"/>
				</g>
			</g>
			<g>
				<g>
					<path class="st11" d="M104.1,41.1c-0.1,0.1-0.2,0.1-0.2-0.1c-0.1-0.1-0.1-0.2,0.1-0.2c0.1-0.1,0.4-0.2,0.5-0.1
						C104.4,40.7,104.1,41,104.1,41.1z"/>
				</g>
			</g>
			<g>
				<g>
					<path class="st11" d="M104.7,42c-0.1,0.1-0.2,0.1-0.2,0c-0.1-0.1-0.1-0.2,0-0.2s0.4-0.2,0.4-0.2S104.8,41.9,104.7,42z"/>
				</g>
			</g>
			<g>
				<g>
					<path class="st11" d="M105.5,42.6c-0.1,0.1-0.1,0.1-0.2,0.1c-0.1-0.1-0.1-0.2-0.1-0.2c0.1-0.1,0.3-0.4,0.4-0.4
						C105.6,42.1,105.6,42.6,105.5,42.6z"/>
				</g>
			</g>
			<g>
				<g>
					<path class="st11" d="M106.4,42.9c0,0.1-0.1,0.2-0.1,0.2c-0.1,0-0.2-0.1-0.2-0.2c0-0.1,0.1-0.5,0.1-0.5
						C106.3,42.4,106.4,42.9,106.4,42.9z"/>
				</g>
			</g>
			<g>
				<g>
					<path class="st11" d="M107.3,42.9c0,0.1,0,0.2-0.1,0.2S107,43,107,42.9s0-0.5,0.1-0.5C107.1,42.4,107.3,42.8,107.3,42.9z"/>
				</g>
			</g>
			<g>
				<g>
					<path class="st11" d="M104.7,38.3c-0.1-0.1,0-0.2,0.1-0.2s0.2,0.1,0.2,0.2c0.1,0.1,0,0.5-0.1,0.5
						C105,38.8,104.7,38.4,104.7,38.3z"/>
				</g>
			</g>
		</g>
		<g class="st14">
			<g>
				<path class="st6" d="M109.2,34.9c-0.6,0-0.9,0.2-0.9,0.4c-0.1,0.2,0.2,0.1,0.8,0.1c0.8,0.1,1.2,0.5,1.3,0.5
					C110.6,35.8,110,35,109.2,34.9z"/>
			</g>
		</g>
		<g class="st14">
			<g>
				<path class="st6" d="M110.9,36.4c0.2-0.3,0.7,0.6,0.8,1.1C111.7,38,110.5,36.9,110.9,36.4z"/>
			</g>
		</g>
		<g class="st12">
			<g>
				<path class="st13" d="M107.9,38c0.4-0.4,1.4-0.6,1.6,0.9s-0.6,2.5-0.9,2.5C108.1,41.2,107.3,38.4,107.9,38z"/>
			</g>
		</g>
		<g class="st12">
			<g>
				<path class="st13" d="M105.3,39.1c-0.5,0.1-1.5,0.6-0.5,1.7c1,1.2,2.2,1.3,2.4,1C107.5,41.6,106.1,39,105.3,39.1z"/>
			</g>
		</g>
	</g>
	<g>
		<g>
			<g>
				<path class="st8" d="M91.2,27.2c5-5,2-8.4-2-12.4c-4-3.9-7.4-7-12.4-1.9c-3.6,3.6-4.9,8.9,0.5,14.4
					C82.4,32.1,87.7,30.8,91.2,27.2z"/>
			</g>
		</g>
		<g>
			<g>
				<path class="st8" d="M90.4,26.5c4.5-4.5,1.8-7.5-1.8-11.1c-3.5-3.5-6.6-6.2-11.1-1.8c-3.2,3.2-4.4,7.9,0.5,12.9
					C82.4,31,87.2,29.7,90.4,26.5z"/>
			</g>
		</g>
		<g class="st10">
			<g>
				<g>
					<path class="st8" d="M81.4,24c0.2-0.1,0.4-0.2,0.5-0.2c0.4-0.1,0.7,0.3,1.1,0.5c0.9,0.5,2.2-0.1,3.2-0.6
						c0.6-0.4,1.2-0.8,1.5-1.4c0.9-1.8-2.3-1.8-1.1-3.1c1.1-1.2,3.2-1.1,4.2,0c1,1.2,0.9,3,0.1,4.5c-0.4,0.6-0.8,1.2-1.3,1.7
						c-1.6,1.7-3.9,2.9-6.2,2.8c-1-0.1-2-0.5-2.5-1.3C80.4,26,80.5,24.7,81.4,24z"/>
				</g>
			</g>
		</g>
		<g class="st10">
			<g>
				<g>
					<path class="st8" d="M80.2,22.8c0.1-0.2,0.2-0.4,0.2-0.5c0.1-0.4-0.3-0.7-0.5-1.1c-0.4-1,0.1-2.2,0.7-3.2
						c0.4-0.6,0.8-1.2,1.4-1.5c1.8-0.9,1.8,2.3,3.1,1.1c1.2-1.1,1.1-3.2,0-4.2c-1.2-1-3-0.9-4.5-0.1c-0.6,0.4-1.2,0.8-1.7,1.3
						c-1.7,1.6-2.9,3.9-2.8,6.2c0.1,1,0.5,2,1.4,2.5C78.2,23.8,79.6,23.7,80.2,22.8z"/>
				</g>
			</g>
		</g>
		<g>
			<g>
				<g>
					<path class="st11" d="M88.5,21.2c0.1-0.1,0.2-0.2,0.2-0.3c-0.1-0.1-0.2-0.2-0.3-0.1s-0.6,0.4-0.5,0.5
						C87.8,21.4,88.3,21.3,88.5,21.2z"/>
				</g>
			</g>
			<g>
				<g>
					<path class="st11" d="M88,22.9c0.1,0.1,0.3,0.1,0.4-0.1c0.1-0.1,0.1-0.2-0.1-0.4c-0.1-0.1-0.6-0.2-0.6-0.1
						C87.6,22.5,87.9,22.8,88,22.9z"/>
				</g>
			</g>
			<g>
				<g>
					<path class="st11" d="M86.9,24c0.1,0.1,0.2,0.2,0.4,0.1c0.1-0.1,0.1-0.2,0.1-0.4c-0.1-0.1-0.5-0.4-0.5-0.4
						C86.7,23.4,86.8,23.8,86.9,24z"/>
				</g>
			</g>
			<g>
				<g>
					<path class="st11" d="M85.7,24.8c0.1,0.1,0.2,0.2,0.3,0.2c0.1-0.1,0.2-0.2,0.1-0.4c-0.1-0.1-0.4-0.5-0.4-0.5
						C85.6,24.1,85.6,24.6,85.7,24.8z"/>
				</g>
			</g>
			<g>
				<g>
					<path class="st11" d="M84.2,25.3c0,0.1,0.1,0.2,0.2,0.2s0.2-0.2,0.2-0.3c0-0.1-0.2-0.6-0.3-0.6C84.4,24.5,84.2,25.1,84.2,25.3z
						"/>
				</g>
			</g>
			<g>
				<g>
					<path class="st11" d="M82.9,25.1c-0.1,0.1,0,0.3,0.1,0.3c0.1,0.1,0.2-0.1,0.3-0.2c0.1-0.1,0.1-0.6,0.1-0.7
						C83.4,24.6,83,25,82.9,25.1z"/>
				</g>
			</g>
			<g>
				<g>
					<path class="st11" d="M81.8,24.6c-0.1,0.1-0.1,0.3,0,0.4s0.2,0,0.4-0.1c0.1-0.1,0.3-0.6,0.2-0.7C82.4,24.1,81.9,24.5,81.8,24.6
						z"/>
				</g>
			</g>
			<g>
				<g>
					<path class="st11" d="M87.5,20.1c0.1-0.1,0.1-0.3,0-0.4s-0.2,0-0.4,0.1c-0.1,0.1-0.3,0.6-0.2,0.7
						C86.9,20.5,87.4,20.2,87.5,20.1z"/>
				</g>
			</g>
		</g>
		<g class="st12">
			<g>
				<path class="st13" d="M88.9,15.1c1.3,1.1-2.6,3.7-3,3.4C85.5,18.1,87.3,13.7,88.9,15.1z"/>
			</g>
		</g>
		<g>
			<g>
				<g>
					<path class="st11" d="M82.9,15.7c0.1-0.1,0.2-0.2,0.3-0.2c0.1,0.1,0.2,0.2,0.1,0.3s-0.4,0.6-0.5,0.5
						C82.8,16.4,82.8,15.8,82.9,15.7z"/>
				</g>
			</g>
			<g>
				<g>
					<path class="st11" d="M81.2,16.1c-0.1-0.1-0.1-0.3,0.1-0.4c0.1-0.1,0.2-0.1,0.4,0.1c0.1,0.1,0.2,0.6,0.1,0.6
						C81.7,16.6,81.4,16.2,81.2,16.1z"/>
				</g>
			</g>
			<g>
				<g>
					<path class="st11" d="M80.2,17.2c-0.1-0.1-0.2-0.2-0.1-0.4c0.1-0.1,0.2-0.1,0.4-0.1c0.1,0.1,0.4,0.5,0.4,0.5
						C80.8,17.5,80.3,17.4,80.2,17.2z"/>
				</g>
			</g>
			<g>
				<g>
					<path class="st11" d="M79.4,18.5c-0.1-0.1-0.2-0.2-0.2-0.3c0.1-0.1,0.2-0.2,0.4-0.1c0.1,0.1,0.5,0.4,0.5,0.4
						C80.1,18.6,79.5,18.6,79.4,18.5z"/>
				</g>
			</g>
			<g>
				<g>
					<path class="st11" d="M78.9,19.9c-0.1,0-0.2-0.1-0.2-0.2s0.2-0.2,0.3-0.2s0.6,0.2,0.6,0.3S79.1,19.9,78.9,19.9z"/>
				</g>
			</g>
			<g>
				<g>
					<path class="st11" d="M79,21.2c-0.1,0.1-0.3,0-0.3-0.1c-0.1-0.1,0.1-0.2,0.2-0.3s0.6-0.1,0.7-0.1C79.6,20.8,79.2,21.2,79,21.2z
						"/>
				</g>
			</g>
			<g>
				<g>
					<path class="st11" d="M79.5,22.4c-0.1,0.1-0.3,0.1-0.4,0s0-0.2,0.1-0.4s0.6-0.3,0.7-0.2C80,21.8,79.6,22.2,79.5,22.4z"/>
				</g>
			</g>
			<g>
				<g>
					<path class="st11" d="M84.1,16.7c0.1-0.1,0.3-0.1,0.4,0s0,0.2-0.1,0.4c-0.1,0.1-0.6,0.3-0.7,0.2C83.7,17.2,84,16.8,84.1,16.7z"
						/>
				</g>
			</g>
		</g>
		<g class="st14">
			<g>
				<path class="st6" d="M90.8,20.8c-0.3-0.8-0.7-1.1-0.9-1.1c-0.2,0,0.1,0.2,0.2,1.1c0.2,1-0.1,1.8,0.1,1.9
					C90.4,23,91.2,21.8,90.8,20.8z"/>
			</g>
		</g>
		<g class="st14">
			<g>
				<path class="st6" d="M89.8,23.6c0.5,0.1-0.4,1.2-1.1,1.6S88.9,23.4,89.8,23.6z"/>
			</g>
		</g>
		<g class="st12">
			<g>
				<path class="st13" d="M86.2,20.6c0.6,0.4,1.6,1.5-0.3,2.5s-3.5,0.5-3.7,0.1C82.1,22.6,85.2,20,86.2,20.6z"/>
			</g>
		</g>
		<g class="st12">
			<g>
				<path class="st13" d="M83.4,17.8c-0.4-0.6-1.5-1.6-2.5,0.3s-0.5,3.5-0.1,3.7C81.4,22,83.9,18.8,83.4,17.8z"/>
			</g>
		</g>
	</g>
	<g>
		<g>
			<path class="st25" d="M120.7,20.8c0.1-0.1,0.4-0.4,0.4-0.5c0.7-0.9,0-2.6-1.6-3.9s-3.5-1.6-4.2-0.6c-0.1,0.1-0.4,0.4-0.4,0.5
				c-0.7,0.9,0,2.6,1.6,3.9C118.1,21.4,120,21.7,120.7,20.8z"/>
		</g>
		<g>
			<path class="st1" d="M120.7,20.8c0.1-0.1,0.4-0.4,0.4-0.5l0,0c-0.7,0.9-2.6,0.6-4.2-0.7c-1.6-1.2-2.3-3-1.6-3.9l0,0
				c-0.1,0.1-0.4,0.4-0.4,0.5c-0.7,0.9,0,2.6,1.6,3.9C118.1,21.4,120,21.7,120.7,20.8z"/>
		</g>
		<g class="st26">
			<path class="st27" d="M116.9,17.2c0.1-0.1-0.1-0.3-0.2-0.4s-0.2-0.1-0.4-0.2c-0.2-0.2-0.1-0.6,0.2-0.8c0.3-0.1,0.6-0.1,0.9,0.2
				c0.1,0.1,0.2,0.2,0.4,0.2c0.2,0,0.4-0.1,0.5-0.1c0.4,0.1,0.4,0.5,0.6,0.8c0.1,0.1,0.4,0.2,0.5,0.2c0.2,0.1,0.5,0.2,0.7,0.4
				c0.2,0.2,0.2,0.5,0,0.7c-0.1,0.1-0.1,0.1-0.1,0.1c-0.1,0.2,0.1,0.3,0.3,0.4c0.2,0.1,0.4,0.1,0.4,0.3c0,0.1-0.1,0.2-0.2,0.2
				c-0.1,0.1-0.2,0.1-0.4,0.1c-0.4,0.1-0.6,0.3-0.8,0.6c0,0.1-0.1,0.1-0.1,0.2c-0.1,0-0.1,0-0.1-0.1c-0.2-0.2-0.2-0.5-0.4-0.7
				c-0.1-0.1-0.4-0.1-0.5,0c-0.2,0.1-0.4,0.2-0.5,0.2c-0.2,0-0.5-0.1-0.6-0.4c-0.1-0.1-0.1-0.2-0.1-0.2c-0.1-0.1-0.2-0.2-0.3-0.3
				c-0.2-0.1-0.3-0.3-0.4-0.5s0-0.4,0.1-0.6C116.6,17.4,116.8,17.4,116.9,17.2z"/>
		</g>
		<g class="st3">
			<path class="st6" d="M117.3,17.1c0.1,0.1,0.5,0.2,0.6,0.2c0.1-0.1-0.2-0.5-0.3-0.5c-0.1-0.1-0.2-0.1-0.3,0.1
				C117.2,16.8,117.2,17,117.3,17.1z"/>
		</g>
		<g class="st3">
			<path class="st6" d="M119.3,17.1c-0.1,0.1-0.2,0.4-0.1,0.4c0.1,0.1,0.4-0.1,0.4-0.2c0.1-0.1,0.1-0.2-0.1-0.2
				C119.5,17,119.4,17,119.3,17.1z"/>
		</g>
		<g class="st3">
			<path class="st6" d="M118.4,18.9c0.1-0.1,0.1-0.5,0.1-0.5c-0.1-0.1-0.4,0.2-0.4,0.4c-0.1,0.1,0,0.2,0.1,0.2
				C118.3,19,118.4,19,118.4,18.9z"/>
		</g>
		<g class="st3">
			<path class="st6" d="M119.9,18.8c-0.1-0.1-0.4-0.3-0.5-0.3c-0.1,0.1,0.1,0.4,0.1,0.5c0.1,0.1,0.2,0.1,0.3,0.1
				C120,19,120,18.9,119.9,18.8z"/>
		</g>
		<g class="st3">
			<path class="st6" d="M117.7,18.1c0.1,0,0.4-0.1,0.4-0.2s-0.4-0.2-0.4-0.2s-0.2,0.1-0.2,0.2C117.5,18.1,117.6,18.1,117.7,18.1z"/>
		</g>
		<g class="st3">
			<path class="st6" d="M119,19c0-0.1,0-0.4-0.1-0.4s-0.2,0.2-0.2,0.3c0,0.1,0.1,0.1,0.1,0.1C118.9,19.1,119,19.1,119,19z"/>
		</g>
		<g class="st3">
			<path class="st6" d="M119.9,18c-0.1,0-0.4,0.1-0.4,0s0.2-0.2,0.2-0.2c0.1,0,0.1,0,0.2,0.1S120,17.9,119.9,18z"/>
		</g>
		<g class="st3">
			<path class="st6" d="M118.9,16.7c0,0.1-0.1,0.3-0.2,0.3s-0.1-0.2-0.1-0.4c0-0.1,0.1-0.1,0.1-0.1C118.9,16.5,119,16.6,118.9,16.7z
				"/>
		</g>
		<g class="st3">
			<path class="st6" d="M118.4,16.9c0,0.1,0,0.3,0,0.3c-0.1,0-0.2-0.2-0.2-0.2C118.2,16.9,118.2,16.9,118.4,16.9
				C118.3,16.8,118.3,16.8,118.4,16.9z"/>
		</g>
	</g>
	<g>
		<g>
			<g>
				<g>
					<path class="st28" d="M76.9,53.6c0,0,4.4,3.7,6.5,3.8c2.1,0.2,6.9-1.1,6.9-1.1L90,57.1c0,0-3,1.7-6.9,0.8
						C79.2,57,76.8,54.9,76.9,53.6z"/>
				</g>
			</g>
			<g>
				<g>
					<g>
						<path class="st28" d="M83,57.9c-3.8-0.8-6.6-2.9-6.2-4.8c0.4-1.8,3.8-2.6,7.6-1.8c3.8,0.8,6.6,2.9,6.2,4.8
							C90.2,57.9,86.8,58.8,83,57.9z M84.4,51.5c-3.7-0.8-6.9-0.1-7.4,1.7c-0.4,1.7,2.3,3.8,6,4.6s6.9,0.1,7.4-1.7
							C90.7,54.4,88.1,52.3,84.4,51.5z"/>
					</g>
				</g>
			</g>
			<g>
				<g>
					<path class="st29" d="M83.1,57.4c-3.8-0.8-6.5-2.9-6.1-4.6s3.7-2.5,7.5-1.6s6.5,2.9,6.1,4.6S86.8,58.2,83.1,57.4z M84.3,51.8
						c-2.9-0.6-5.6-0.1-5.9,1.3c-0.3,1.4,1.9,3,4.8,3.7c2.9,0.6,5.6,0.1,5.9-1.3S87.2,52.5,84.3,51.8z"/>
				</g>
			</g>
			<g>
				<g>
					<g>
						<path class="st28" d="M83.1,57.5c-3.8-0.8-6.6-2.9-6.2-4.7s3.8-2.5,7.6-1.6c3.8,0.8,6.6,2.9,6.2,4.7
							C90.3,57.5,86.9,58.3,83.1,57.5z M84.5,51.2c-3.7-0.8-6.9-0.1-7.4,1.6c-0.4,1.7,2.3,3.7,6,4.5s6.9,0.1,7.4-1.6
							C90.8,54,88.1,52,84.5,51.2z"/>
					</g>
				</g>
			</g>
		</g>
		<g class="st30">
			<g>
				<path class="st31" d="M84.4,51.6c-3.2-0.7-6.1-0.1-6.5,1.4s2.1,3.3,5.3,4s6.1,0.1,6.5-1.4C90,54,87.7,52.3,84.4,51.6z
					 M83.2,56.8c-2.9-0.6-5.1-2.3-4.8-3.7c0.3-1.4,2.9-1.9,5.9-1.3s5.1,2.3,4.8,3.7S86.2,57.4,83.2,56.8z"/>
			</g>
		</g>
	</g>
</g>
<g>
	<g>
		<g>
			<g>
				<g>
					<g>
						<polygon class="st8" points="239.4,11.1 240.7,11.1 242.6,24.2 240.7,24.2 240.7,24.4 239.4,24.4 239.4,24.2 237.5,24.2 
													"/>
					</g>
				</g>
				<g>
					<g>
						<path class="st6" d="M233.2,22.6h13.6c0.5,0,1,0.5,1,1v4.2h-15.7v-4.2C232.2,23,232.7,22.6,233.2,22.6z"/>
					</g>
				</g>
				<g>
					<g>
						<g>
							<path class="st11" d="M242.9,22.7c0-0.1,0-0.1,0-0.2h0.4c0,0.1,0,0.2-0.1,0.2l-0.8,5h-0.4L242.9,22.7z"/>
						</g>
					</g>
					<g>
						<g>
							<path class="st11" d="M245.8,23.1c0-0.2,0-0.3,0.1-0.5h0.4c0,0.2,0,0.4-0.1,0.5c-0.2,1.7-0.3,3.3-0.4,4.7h-0.4
								C245.6,26.3,245.7,24.8,245.8,23.1z"/>
						</g>
					</g>
					<g>
						<g>
							<polygon class="st11" points="239.4,22.6 239.8,22.6 239.3,27.8 238.9,27.8 							"/>
						</g>
					</g>
					<g>
						<g>
							<path class="st11" d="M236.7,22.6h0.4c-0.1,1.7-0.4,3.5-0.7,5.2h-0.5C236.4,26.1,236.6,24.3,236.7,22.6z"/>
						</g>
					</g>
					<g>
						<g>
							<polygon class="st11" points="233.9,22.6 234.4,22.6 233.9,27.8 233.4,27.8 							"/>
						</g>
					</g>
				</g>
				<g>
					<g>
						<path class="st8" d="M232.8,27.4h14.5c1.4,0,2.4,1.1,2.4,2.4V68c0,1.4-1.1,2.4-2.4,2.4h-14.5c-1.4,0-2.4-1.1-2.4-2.4V29.8
							C230.4,28.5,231.4,27.4,232.8,27.4z"/>
					</g>
				</g>
				<g class="st3">
					<g>
						<g>
							<path class="st8" d="M230.4,68.4V33.9c1.6,0.3,3.1,1.1,4.3,2.2c1.5,1.4,2.6,3.2,3.4,5c1.7,3.7,2.7,7.7,3.4,11.7
								c1.1,5.8,1.7,11.9-0.5,17.3c-0.1,0.1-0.1,0.2-0.1,0.3h-8.5C231.3,70.5,230.4,69.5,230.4,68.4z"/>
						</g>
					</g>
				</g>
				<g class="st32">
					<g>
						<path class="st6" d="M241.6,35c-1.5-0.7-2.9-1.9-3.1-3.5c0-0.2,0-0.4,0.1-0.6c0.1-0.4,0.4-0.6,0.8-0.8c0.5-0.2,1-0.4,1.5-0.5
							c1.9-0.4,3.9-0.4,5.8,0.1c0.3,0.1,0.7,0.2,0.8,0.5c0.1,0.2,0.1,0.5,0.1,0.7c0,0.9-0.1,1.8-0.5,2.6s-1,1.5-1.8,1.8
							C244.2,35.9,242.8,35.6,241.6,35z"/>
					</g>
				</g>
			</g>
			<g>
				<g>
					<g>
						<polygon class="st16" points="216.1,0.2 217.5,0.2 219.7,14.6 217.5,14.6 217.5,14.8 216.1,14.8 216.1,14.6 214,14.6 						
							"/>
					</g>
				</g>
				<g>
					<g>
						<path class="st6" d="M209.2,12.9h15.3c0.5,0,1,0.5,1,1v4.7h-17.3v-4.7C208.2,13.3,208.7,12.9,209.2,12.9z"/>
					</g>
				</g>
				<g>
					<g>
						<g>
							<path class="st11" d="M220,13c0-0.1,0-0.1,0-0.2h0.5c0,0.1,0,0.2-0.1,0.2l-0.8,5.5h-0.5L220,13z"/>
						</g>
					</g>
					<g>
						<g>
							<path class="st11" d="M223.2,13.4c0-0.2,0-0.4,0.1-0.5h0.5c0,0.2,0,0.4-0.1,0.6c-0.2,1.9-0.3,3.6-0.4,5.2h-0.5
								C222.9,17,223.1,15.4,223.2,13.4z"/>
						</g>
					</g>
					<g>
						<g>
							<polygon class="st11" points="216.2,12.9 216.7,12.9 216.1,18.6 215.6,18.6 							"/>
						</g>
					</g>
					<g>
						<g>
							<path class="st11" d="M213.2,12.9h0.5c-0.2,2-0.4,3.9-0.8,5.8h-0.5C212.7,16.7,213,14.8,213.2,12.9z"/>
						</g>
					</g>
					<g>
						<g>
							<polygon class="st11" points="210.1,12.9 210.6,12.9 210,18.6 209.5,18.6 							"/>
						</g>
					</g>
				</g>
				<g>
					<g>
						<path class="st16" d="M208.9,18.2h15.9c1.5,0,2.7,1.2,2.7,2.7V63c0,1.5-1.2,2.7-2.7,2.7h-15.9c-1.5,0-2.7-1.2-2.7-2.7V20.9
							C206.2,19.5,207.4,18.2,208.9,18.2z"/>
					</g>
				</g>
				<g class="st33">
					<g>
						<g>
							<path class="st16" d="M206.2,63.5V25.4c1.8,0.3,3.4,1.2,4.7,2.4c1.7,1.5,2.8,3.5,3.8,5.6c1.9,4.1,3,8.5,3.8,13
								c1.2,6.3,1.9,13.2-0.5,19.2c-0.1,0.1-0.1,0.2-0.1,0.4h-9.4C207.2,65.8,206.2,64.8,206.2,63.5z"/>
						</g>
					</g>
				</g>
				<g class="st32">
					<g>
						<path class="st6" d="M218.6,26.6c-1.7-0.8-3.3-2.1-3.4-3.9c0-0.2,0-0.4,0.1-0.7c0.1-0.4,0.5-0.7,0.8-0.8
							c0.5-0.2,1.1-0.4,1.7-0.5c2.1-0.4,4.3-0.4,6.5,0.1c0.4,0.1,0.7,0.2,0.9,0.5c0.1,0.2,0.2,0.5,0.2,0.8c0,0.9-0.1,2-0.5,2.8
							c-0.4,0.9-1.1,1.7-2,2C221.4,27.6,219.9,27.2,218.6,26.6z"/>
					</g>
				</g>
			</g>
		</g>
	</g>
	<g>
		<g>
			<g>
				<path class="st34" d="M149.2,50.7c-2.9,4.7-1.3,10.8,0.9,15.9c0.2,0.5,0.5,1.1,1,1.3c0.4,0.2,0.9,0.1,1.3,0.1
					c5.6-0.8,11.3-0.4,16.7,1.1c3.2,0.9,6.3,2.2,9.5,3.3c4,1.4,8.1,2.4,12.2,3.5c4.9,1.2,9.8,2.5,14.7,3.7c3.1,0.8,6.2,1.5,9.3,1.3
					c6-0.5,10.9-4.7,14.9-9.2c3.4-3.8,6.5-8,7.6-12.9c1.1-4.9-0.2-10.7-4.2-13.7c-4.9-3.6-11.6-2.3-17.6-1.6
					c-10.7,1.3-21.6,0.4-32.4-0.5c-2.1-0.2-4.1-0.4-6.1-1c-3.1-1-6.4-3.1-9.4-1.7c-1.5,0.7-2.6,2.2-4.3,2.5c-0.8,0.1-1.6,0-2.4,0
					c-2.3,0-4.3,1.5-6.2,2.8C152.6,47,150.6,48.6,149.2,50.7z"/>
			</g>
			<g>
				<path class="st35" d="M209.1,61.3c-1.4,1.2-3,2.3-4.4,3.6c-1.4,1.3-2.6,2.9-2.9,4.8c-0.4,2.4,0.6,4.9,2.3,6.7
					c1.7,1.8,4,2.9,6.3,3.6c1.5,0.5,3.2,0.8,4.8,0.6c1.5-0.2,2.8-1,4.1-1.8c6.2-4.1,10.6-10.5,14.8-16.6c0.8-1.2,1.6-2.3,2.1-3.7
					s0.6-2.8,0-4.1c0.3-0.1,0.1,0.5-0.2,0.4c-0.2-0.1-0.3-0.4-0.3-0.7c0.1-4.1-2.7-8.1-6.5-9.5c-0.8-0.3-1.6-0.5-2.4-0.4
					c-1.5,0.2-2.7,1.3-3.8,2.3c-1.9,1.8-3.8,3.7-5.6,5.7C214.7,55.2,212.3,58.6,209.1,61.3z"/>
			</g>
			<g>
				<path class="st0" d="M213.5,61.8c-2.2-1.6-3.2-4.6-2.4-7.2c0.8-2.6,3.1-4.4,5.2-6.1c1.5-1.1,3.1-2.3,4.9-2.3
					c1.8,0,3.7,1.9,2.9,3.6c1.3-0.5,3.1-0.9,3.8,0.3c1.1-3.6,5-6.1,8.7-5.7c1.2,0.1,2.5,0.6,2.9,1.8c0.4,1.1-0.3,2.4-1.1,3.3
					c-0.8,0.9-1.9,1.6-2.4,2.7c1.4,0,2.9,0.1,4.3,0.3c1.1,0.2,2.5,1.1,2,2.1c-0.4,0.8-1.7,1.4-1.2,2c1.5,0.1,3,0.2,4.3,0.9
					c1.3,0.7,2.2,2.3,1.7,3.7c-0.2,0.5-0.5,0.9-0.9,1.2c-1.8,1.6-4.4,1.8-6.8,1.5c-2.4-0.2-4.8-0.9-7.1-0.7c0.4,1,0.7,2.3-0.1,3.1
					c-0.8,0.9-2.3,0.5-3.4,0c-2.9-1.1-6-2-9.1-2.6C217.5,63.4,215.3,63.1,213.5,61.8z"/>
			</g>
			<g class="st36">
				<path class="st0" d="M220.7,53c0.6-0.5,1.5-0.5,2.2-0.1c0.6,0.5,0.9,1.4,0.5,2.1c3.3-0.2,5.6-3.7,8.9-4.1c0,1.9-0.7,3.8-2,5.1
					c2.8-0.2,5.6,0.4,8,1.9c1,0.6,2,1.8,1.3,2.7c-0.4,0.6-1.3,0.6-2,0.6c-3-0.2-5.9-0.4-8.9-0.5c0.5,0.5,1,1,1.2,1.7
					c0.2,0.7,0.1,1.5-0.4,1.9c-0.6,0.4-1.3,0.3-2,0.1c-3.7-0.9-7.5-1.8-11.2-2.7c-0.5-0.1-0.9-0.2-1.4-0.5c-0.6-0.4-0.9-1-1.2-1.6
					c-0.8-1.9-0.7-4.3,0.3-6.1c1-1.9,2.9-3.2,5-3.5c0.5-0.1,1-0.1,1.4,0.3C221,50.9,220,52.3,220.7,53z"/>
			</g>
			<g>
				<g>
					<path class="st37" d="M220.9,62.9c0-0.3,0.1-0.5,0.3-0.8c0.3-0.5,0.5-1,0.8-1.5c0.2-0.4,0.5-0.9,0.9-1.1
						c0.9-0.4,1.9,0.5,2.8,0.8c1.2,0.4,2.4-0.1,3.6-0.4c1.2-0.3,2.7-0.4,3.4,0.7c0.4,0.5,0.4,1.3,0.8,1.8c0.7,1,2.3,0.9,3.5,1.1
						c2.1,0.3,4,1.7,4.9,3.6c0.1,0.2,0.2,0.4,0.1,0.7c-0.1,0.4-0.4,0.6-0.8,0.7c-2.1,1-4.1,1.9-6.2,2.9c-2.1,1-4.7,1.9-6.5,0.6
						c-0.4-0.3-0.7-0.6-1-0.9c-1.3-1-3-1.1-4.5-1.7c-1.5-0.6-3-2-2.5-3.6c0.2-0.6,0.6-1.1,0.6-1.7C221.1,63.6,220.9,63.2,220.9,62.9
						z"/>
				</g>
				<g class="st38">
					<path class="st6" d="M231.2,61.3c-0.6-0.2-1.3-0.2-2-0.1c-0.3,0.7-0.6,1.4-1.3,1.7c-1,0.4-2.2-0.1-3.1,0.4
						c-0.1,0-0.1,0.1-0.2,0.2c0,0.1,0,0.2,0,0.3c0.1,0.6,0.3,1.1,0.4,1.7c0,0.1,0,0.1,0.1,0.2c0,0.1,0.1,0.1,0.2,0.1
						c0.5,0.2,1,0.3,1.4,0.5c0.5,0.2,1.2,0.3,1.6,0c0.3-0.2,0.3-0.6,0.4-0.9c0.1-0.5,0.3-0.9,0.5-1.4c0.1-0.3,0.3-0.5,0.5-0.7
						c0.2-0.2,0.5-0.2,0.8-0.3c0.4-0.1,0.8-0.2,1.1-0.4c0.1-0.1,0.2-0.1,0.3-0.3c0.1-0.2,0.1-0.5-0.1-0.7
						C231.6,61.4,231.4,61.3,231.2,61.3z"/>
				</g>
				<g class="st38">
					<path class="st6" d="M235.9,64.1c-0.3-0.1-0.6,0-0.9,0.1c-0.6,0.1-1.2,0.3-1.5,0.8c0,0.1-0.1,0.1-0.1,0.2
						c0,0.1,0.1,0.1,0.1,0.2c0.4,0.4,0.7,0.8,0.9,1.3c0.1,0.1,0.1,0.2,0.2,0.3c0.1,0.1,0.3,0,0.4,0c0.9-0.2,1.9-0.5,2.8-0.8
						c0.1,0,0.2-0.1,0.2-0.1c0.1-0.1,0-0.3-0.1-0.5c-0.4-0.6-1-0.9-1.6-1.3C236.3,64.2,236.1,64.1,235.9,64.1z"/>
				</g>
			</g>
			<g>
				<ellipse class="st8" cx="228.6" cy="59.1" rx="13.9" ry="4.5"/>
				<g class="st38">
					<g>
						<path class="st8" d="M228.7,62.3c7.4-0.3,13.3-2.1,13.6-4c0,0.1,0,0.1,0,0.2c0,0.3,0.1,1.3,0.1,1.5c0.1,2-6,3.9-13.7,4.2
							c-7.6,0.3-13.9-1-14-3c0-0.3-0.1-1.3-0.1-1.5c0-0.1,0-0.1,0-0.2C215.3,61.4,221.4,62.6,228.7,62.3z"/>
					</g>
				</g>
				<g>
					<path class="st39" d="M226.1,58.3c0.1-0.2-0.2-0.4-0.4-0.5c-2.7-1.5-6.3-1-8.7,0.9c-0.3,0.3-0.7,0.7-0.5,1
						c0.1,0.2,0.2,0.3,0.4,0.4c1.4,0.8,3.2,1.1,4.8,0.8c1.6-0.3,3.2-1.1,4.3-2.4C226,58.4,226.1,58.3,226.1,58.3z"/>
				</g>
				<g>
					<path class="st39" d="M226.1,56.1c1.8-0.3,3.7-0.3,5.5-0.2c0.3,0,0.7,0.1,1,0.1c0.2,0,0.4,0.1,0.4,0.3c0,0.1-0.1,0.1-0.1,0.2
						c-0.7,0.6-1.4,1.2-2.2,1.4c-0.4,0.1-0.8,0.1-1.1,0.1c-0.8,0-1.6,0-2.4,0c-0.4-0.5-0.8-1-1.2-1.6c0,0-0.1-0.1-0.1-0.2
						C225.7,56.2,225.9,56.2,226.1,56.1z"/>
				</g>
				<g>
					<path class="st39" d="M239.5,57.4c-1.2-0.9-2.8-1-4.3-1c-0.6,0-1.2,0-1.7,0.3c-0.3,0.1-0.6,0.3-0.8,0.5
						c-0.4,0.3-0.9,0.6-1.3,0.9c-0.1,0.1-0.2,0.1-0.2,0.2c-0.1,0.2-0.1,0.5,0.1,0.7c0.2,0.2,0.4,0.3,0.6,0.4
						c1.1,0.4,2.3,0.3,3.4,0.2c1.3-0.1,2.6-0.2,3.9-0.3c0.2,0,0.5,0,0.7-0.2c0.2-0.2,0.3-0.6,0.2-0.9
						C240,57.8,239.8,57.6,239.5,57.4z"/>
				</g>
				<g>
					<path class="st39" d="M227.5,59.3c-0.3,0-0.5,0-0.8,0.1c-0.3,0.1-0.5,0.3-0.7,0.5c-0.4,0.3-0.9,0.5-1.2,0.7s-0.6,0.7-0.3,1.1
						c0.3,0.3,0.8,0.3,1.3,0.3c1.7,0,3.4-0.1,5.1-0.1c0.6,0,1.2,0,1.7-0.3c0.2-0.1,0.4-0.3,0.3-0.5c0-0.1-0.1-0.1-0.2-0.2
						c-0.5-0.3-1.1-0.7-1.6-1c-0.3-0.2-0.6-0.4-1-0.5c-0.2-0.1-0.5-0.1-0.7-0.1C228.7,59.3,228.1,59.3,227.5,59.3z"/>
				</g>
				<g class="st22">
					<path class="st40" d="M228.3,61.3c0.1,0,0.1,0,0.2-0.1c0-0.1,0-0.1,0-0.2c0-0.1,0-0.2-0.1-0.4c0,0-0.1,0.1-0.1,0.1
						c0,0.1-0.1,0.3-0.1,0.4C228.2,61.2,228.2,61.3,228.3,61.3z"/>
				</g>
				<g class="st22">
					<path class="st40" d="M229.8,60.4c0.1,0,0.1-0.1,0.1-0.2c0-0.1-0.1-0.1-0.1-0.2c-0.1-0.1-0.2-0.2-0.3-0.3c0,0,0,0.1,0,0.1
						c0,0.1,0.1,0.3,0.1,0.4C229.7,60.4,229.7,60.4,229.8,60.4z"/>
				</g>
				<g class="st22">
					<path class="st40" d="M233.6,58.4c0-0.1-0.1-0.1-0.2-0.1c-0.1,0-0.1,0.1-0.2,0.1c-0.1,0.1-0.2,0.2-0.2,0.3c0,0,0.1,0,0.1,0
						c0.1-0.1,0.2-0.1,0.3-0.2C233.6,58.6,233.6,58.5,233.6,58.4z"/>
				</g>
				<g class="st22">
					<path class="st40" d="M235,57.2c0-0.1-0.1-0.1-0.2-0.1c-0.1,0-0.1,0.1-0.2,0.1c-0.1,0.1-0.2,0.2-0.2,0.3c0,0,0.1,0,0.1,0
						c0.1-0.1,0.2-0.1,0.3-0.2C235,57.3,235,57.3,235,57.2z"/>
				</g>
				<g class="st22">
					<path class="st40" d="M237.8,58.2c0-0.1,0-0.1-0.1-0.2c-0.1,0-0.1,0-0.2,0c-0.1,0-0.2,0.1-0.3,0.1c0,0,0.1,0,0.1,0.1
						c0.1,0,0.3,0,0.4,0C237.7,58.3,237.8,58.3,237.8,58.2z"/>
				</g>
				<g class="st22">
					<path class="st40" d="M230.2,57c-0.1,0-0.1,0-0.2,0.1s0,0.1,0,0.2c0,0.1,0,0.2,0,0.4c0,0,0.1-0.1,0.1-0.1
						c0.1-0.1,0.1-0.2,0.1-0.4C230.2,57.1,230.2,57,230.2,57z"/>
				</g>
				<g class="st22">
					<path class="st40" d="M228.1,56.4c-0.1,0-0.1,0.1-0.1,0.2c0,0.1,0.1,0.1,0.1,0.2c0.1,0.1,0.2,0.2,0.2,0.3c0,0,0-0.1,0-0.1
						c0-0.1-0.1-0.3-0.1-0.4C228.2,56.4,228.1,56.4,228.1,56.4z"/>
				</g>
				<g class="st22">
					<path class="st40" d="M231.6,61.3c0.1,0,0.1-0.1,0.1-0.2c0-0.1-0.1-0.1-0.1-0.2c-0.1-0.1-0.2-0.2-0.3-0.3c0,0,0,0.1,0,0.1
						c0,0.1,0.1,0.3,0.1,0.4C231.5,61.2,231.5,61.3,231.6,61.3z"/>
				</g>
				<g class="st22">
					<path class="st40" d="M227,60.2c0,0.1,0.1,0,0.2,0c0-0.1,0.1-0.1,0.1-0.2c0-0.1,0-0.2,0-0.4c0,0-0.1,0-0.1,0.1
						c-0.1,0.1-0.2,0.2-0.2,0.3C226.9,60.1,226.9,60.2,227,60.2z"/>
				</g>
				<g class="st22">
					<path class="st40" d="M223.1,57.4c0,0.1,0,0.1,0,0.2s0.1,0,0.2,0c0.1,0,0.2,0,0.4,0c0,0-0.1-0.1-0.1-0.1
						c-0.1-0.1-0.2-0.1-0.4-0.2C223.2,57.3,223.1,57.3,223.1,57.4z"/>
				</g>
				<g class="st22">
					<path class="st40" d="M223.9,58.7c0,0.1,0.1,0.1,0.1,0.1c0.1,0,0.1-0.1,0.2-0.1c0.1-0.1,0.2-0.2,0.3-0.2c0,0-0.1,0-0.1,0
						c-0.1,0-0.3,0-0.4,0.1C223.9,58.6,223.9,58.7,223.9,58.7z"/>
				</g>
				<g class="st22">
					<path class="st40" d="M221.2,58.5c0,0.1,0,0.1,0.1,0.2c0.1,0,0.1,0,0.2,0c0.1,0,0.2-0.1,0.4-0.1c0,0-0.1-0.1-0.1-0.1
						c-0.1,0-0.3,0-0.4,0C221.3,58.4,221.2,58.4,221.2,58.5z"/>
				</g>
				<g class="st22">
					<path class="st40" d="M219.6,60c0,0.1,0,0.1,0.1,0.2c0.1,0,0.1,0,0.2,0c0.1,0,0.2-0.1,0.4-0.1c0,0-0.1-0.1-0.1-0.1
						c-0.1,0-0.3,0-0.4,0C219.7,59.9,219.6,59.9,219.6,60z"/>
				</g>
				<g class="st22">
					<path class="st40" d="M219.8,57.8c0,0.1,0,0.1,0.1,0.2c0.1,0,0.1,0,0.2,0c0.1,0,0.2-0.1,0.4-0.1c0,0-0.1-0.1-0.1-0.1
						c-0.1,0-0.3,0-0.4,0C219.9,57.8,219.9,57.8,219.8,57.8z"/>
				</g>
			</g>
			<g>
				<g>
					<path class="st41" d="M221.7,57.2c1.2-0.5,2.6-0.9,3.9-0.7c0.3,0,0.7,0.1,1,0.1c0.8,0,1.7-0.5,2.4,0c0.3,0.2,0.4,0.6,0.6,0.9
						c0.6,0.8,2,0.7,2.7,1.5c0.1,0.1,0.1,0.2,0.1,0.3c0,0.1-0.1,0.2-0.1,0.3c-0.2,0.3-0.1,0.7-0.2,1.1c-0.2,1-1.5,1.3-2.1,2.1
						c-0.5,0.7-0.5,1.7-0.7,2.5c0,0.2-0.1,0.5-0.3,0.6c-0.1,0.1-0.3,0.2-0.5,0.2c-3,0.9-6.4,0.9-9-0.8c-1.2-0.8-2.2-1.9-3.1-3
						c-0.2-0.3-0.5-0.6-0.6-0.9c-0.2-0.6,0-1.2,0.3-1.8c0.3-0.6,0.6-1.1,1-1.7c0.3-0.4,0.7-0.8,1.1-0.7c0.2,0,0.4,0.2,0.7,0.2
						C220,57.9,220.9,57.6,221.7,57.2z"/>
				</g>
				<g>
					<g>
						<path class="st41" d="M216.3,59.8c0.3-0.6,0.6-1.1,1-1.7c0.3-0.4,0.7-0.8,1.1-0.7c0,0,0.1,0,0.1,0c-0.4,2,0.1,4.2,1.4,5.8
							c0.1,0.1,0.2,0.2,0.3,0.3c0.2,0.1,0.4,0.1,0.7,0.1c1.5,0,2.8,1.6,4.4,1.3c0.1,0,0.2-0.1,0.3-0.1c0.1-0.1,0.1-0.2,0.1-0.3
							c0.1-0.8-0.3-1.6-0.3-2.4c0-0.2,0-0.4,0.1-0.6c0.1-0.1,0.3-0.2,0.4-0.3c0.9-0.4,1.9,0,2.9,0c0.8,0,1.5-0.1,2.2-0.5
							c0.2-0.1,0.4-0.2,0.5-0.4c0.4-0.5,0.1-1.2,0-1.8c0.3,0.1,0.5,0.2,0.7,0.4c0.1,0.1,0.1,0.2,0.1,0.3c0,0.1-0.1,0.2-0.1,0.3
							c-0.2,0.3-0.1,0.7-0.2,1.1c-0.2,1-1.5,1.3-2.1,2.1c-0.5,0.7-0.5,1.7-0.7,2.5c0,0.2-0.1,0.5-0.3,0.6c-0.1,0.1-0.3,0.2-0.5,0.2
							c-3,0.9-6.4,0.9-9-0.8c-1.2-0.8-2.2-1.9-3.1-3c-0.2-0.3-0.5-0.6-0.6-0.9C215.8,61,216,60.3,216.3,59.8z"/>
					</g>
				</g>
				<g class="st38">
					<path class="st6" d="M226,57.5c0.1,0,0.2-0.1,0.3-0.1c0.1,0,0.2,0.1,0.3,0.1c0.7,0.4,1.3,0.9,1.8,1.5c0.1,0.1,0.1,0.2,0.1,0.3
						c0,0.1-0.1,0.2-0.2,0.3c-0.2,0.2-0.5,0.2-0.8,0.2c-0.6,0-1.2,0.1-1.8,0.1c-0.9,0-1.9,0.2-2.3,0.9c-0.1,0.2-0.2,0.4-0.4,0.5
						c-0.2,0.1-0.5,0.1-0.8,0c-0.8-0.3-1.7-0.6-2.1-1.4c0-0.1-0.1-0.2,0-0.3c0-0.1,0.1-0.1,0.2-0.1c0.9-0.4,2-0.7,2.8-1.4
						c0.2-0.2,0.4-0.4,0.6-0.5c0.3-0.1,0.6-0.1,0.8,0C225.2,57.7,225.6,57.7,226,57.5z"/>
				</g>
			</g>
			<g>
				<g>
					<path class="st37" d="M209.7,64.1c0-0.3,0.1-0.5,0.3-0.8c0.3-0.5,0.5-1,0.8-1.5c0.2-0.4,0.5-0.9,0.9-1.1
						c0.9-0.4,1.9,0.5,2.8,0.8c1.2,0.4,2.4-0.1,3.6-0.4c1.2-0.3,2.7-0.4,3.4,0.7c0.4,0.5,0.4,1.3,0.8,1.8c0.7,1,2.3,0.9,3.5,1.1
						c2.1,0.3,4,1.7,4.9,3.6c0.1,0.2,0.2,0.4,0.1,0.7c-0.1,0.4-0.4,0.6-0.8,0.7c-2.1,1-4.1,1.9-6.2,2.9c-2.1,1-4.7,1.9-6.5,0.6
						c-0.4-0.3-0.7-0.6-1-0.9c-1.3-1-3-1.1-4.5-1.7c-1.5-0.6-3-2-2.5-3.6c0.2-0.6,0.6-1.1,0.6-1.7C209.9,64.8,209.7,64.5,209.7,64.1
						z"/>
				</g>
				<g class="st38">
					<path class="st6" d="M219.9,62.5c-0.6-0.2-1.3-0.2-2-0.1c-0.3,0.7-0.6,1.4-1.3,1.7c-1,0.4-2.2-0.1-3.1,0.4
						c-0.1,0-0.1,0.1-0.2,0.2c0,0.1,0,0.2,0,0.3c0.1,0.6,0.3,1.1,0.4,1.7c0,0.1,0,0.1,0.1,0.2c0,0.1,0.1,0.1,0.2,0.1
						c0.5,0.2,1,0.3,1.4,0.5c0.5,0.2,1.2,0.3,1.6,0c0.3-0.2,0.3-0.6,0.4-0.9c0.1-0.5,0.3-0.9,0.5-1.4c0.1-0.3,0.3-0.5,0.5-0.7
						c0.2-0.2,0.5-0.2,0.8-0.3c0.4-0.1,0.8-0.2,1.1-0.4c0.1-0.1,0.2-0.1,0.3-0.3c0.1-0.2,0.1-0.5-0.1-0.7S220.2,62.6,219.9,62.5z"/>
				</g>
				<g class="st38">
					<path class="st6" d="M224.7,65.3c-0.3-0.1-0.6,0-0.9,0.1c-0.6,0.1-1.2,0.3-1.5,0.8c0,0.1-0.1,0.1-0.1,0.2
						c0,0.1,0.1,0.1,0.1,0.2c0.4,0.4,0.7,0.8,0.9,1.3c0.1,0.1,0.1,0.2,0.2,0.3c0.1,0.1,0.3,0,0.4,0c0.9-0.2,1.9-0.5,2.8-0.8
						c0.1,0,0.2-0.1,0.2-0.1c0.1-0.1,0-0.3-0.1-0.5c-0.4-0.6-1-0.9-1.6-1.3C225,65.4,224.9,65.3,224.7,65.3z"/>
				</g>
			</g>
			<g>
				<path class="st6" d="M213.5,60.1c1.2-0.1,2.4,0.8,2.9,2c0.5,1.1,0.5,2.4,0.5,3.7c0,0.8,0,1.6,0,2.5c0,0.6,0.1,1.3,0.6,1.5
					c0.5,0.2,1.1-0.2,1.3-0.7s0.1-1.1,0-1.7c-0.3-1.4-0.5-2.9-0.8-4.3c0.7,0.1,1.1,0.9,1,1.6c0.6,0.1,0.9-0.6,0.9-1.2
					c0-0.8-0.5-1.4-0.8-2.1c-0.3-0.7-0.3-1.6,0.3-2.1c0.7-0.6,1.9,0,2.3,0.8c0.4,0.8,0.4,1.8,0.6,2.7c0.2,0.9,0.8,1.9,1.7,2
					c0.3,0,0.6,0,0.9,0c0.8,0.1,1.2,1,1.2,1.8c0,0.8-0.2,1.5-0.1,2.3c0.1,0.7,0.8,1.5,1.4,1.1c0.2-0.1,0.2-0.3,0.3-0.6
					c0.1-0.9-0.4-1.7-0.7-2.6s-0.2-2,0.6-2.3c0.1-2.2-3.7-2.7-3.8-4.9c2.4,0.6,4.9,0.5,7.3-0.2c0.3-0.1,0.7-0.2,1,0
					c0.2,0.2,0.2,0.4,0.2,0.6c0.1,1.3,0.2,2.5,0.3,3.8c0.4,0.3,1,0,1.2-0.4c0.2-0.5,0-1-0.1-1.4c-0.2-0.7-0.4-1.5-0.7-2.2
					c-0.2-0.6-0.4-1.3-0.8-1.8c-0.5-0.6-1.4-0.8-2.1-0.9c-1.6-0.3-3.2-0.5-4.8-0.6c-0.9,0-1.9,0-2.8-0.4c-0.5-0.2-1-0.6-1.6-0.7
					c-0.5-0.1-1.1-0.1-1.6,0c-4.2,0.4-8.5,0.8-12.7,1.1c0.2,1.4,1.5,2.6,2.9,2.6c0.8,0,1.5-0.3,2.3-0.3
					C212.7,58.8,213.6,59.3,213.5,60.1z"/>
			</g>
			<g>
				<g>
					<path class="st42" d="M223.7,64.6c0.3,0,0.6,0,0.9,0c0.2,0,0.3,0.1,0.4,0.2c0,0,0,0,0,0c-0.3-0.1-0.6,0-0.9,0
						c-0.2,0-0.4-0.1-0.6-0.2C223.5,64.6,223.6,64.6,223.7,64.6z"/>
				</g>
				<g>
					<path class="st42" d="M221.2,55.5c0.4,0.1,0.7,0.3,1,0.5c0,0-0.1,0-0.1,0C221.8,55.8,221.5,55.6,221.2,55.5z"/>
				</g>
				<g>
					<path class="st42" d="M209.2,58.9c0.8,0,1.5-0.3,2.3-0.3c0.3,0,0.6,0.1,0.9,0.3c-0.2-0.1-0.4-0.1-0.5-0.1
						c-0.8,0-1.5,0.3-2.3,0.3c-0.5,0-0.9-0.1-1.3-0.3C208.6,58.8,208.9,58.9,209.2,58.9z"/>
				</g>
				<g>
					<path class="st42" d="M214.5,60.3c-0.3-0.1-0.7-0.2-1-0.1c0-0.1,0-0.1,0-0.2C213.9,60,214.2,60.1,214.5,60.3z"/>
				</g>
			</g>
			<g>
				<ellipse class="st8" cx="208" cy="59.3" rx="13.9" ry="3.9"/>
				<g class="st38">
					<g>
						<path class="st8" d="M208.1,62.9c7.4-0.3,13.3-2.1,13.6-4c0,0.1,0,0.1,0,0.2c0,0.3,0.1,1.3,0.1,1.5c0.1,2-6,3.9-13.7,4.2
							c-7.6,0.3-13.9-1-14-3c0-0.3-0.1-1.3-0.1-1.5c0-0.1,0-0.1,0-0.2C194.7,62,200.7,63.3,208.1,62.9z"/>
					</g>
				</g>
				<g>
					<path class="st39" d="M205.5,58.9c0.1-0.2-0.2-0.4-0.4-0.5c-2.7-1.5-6.3-1-8.7,0.9c-0.3,0.3-0.7,0.7-0.5,1
						c0.1,0.2,0.2,0.3,0.4,0.4c1.4,0.8,3.2,1.1,4.8,0.8c1.6-0.3,3.2-1.1,4.3-2.4C205.4,59,205.4,59,205.5,58.9z"/>
				</g>
				<g>
					<path class="st39" d="M205.4,56.8c1.8-0.3,3.7-0.3,5.5-0.2c0.3,0,0.7,0.1,1,0.1c0.2,0,0.4,0.1,0.4,0.3c0,0.1-0.1,0.1-0.1,0.2
						c-0.7,0.6-1.4,1.2-2.2,1.4c-0.4,0.1-0.8,0.1-1.1,0.1c-0.8,0-1.6,0-2.4,0c-0.4-0.5-0.8-1-1.2-1.6c0,0-0.1-0.1-0.1-0.2
						C205.1,56.9,205.3,56.8,205.4,56.8z"/>
				</g>
				<g>
					<path class="st39" d="M218.9,58c-1.2-0.9-2.8-1-4.3-1c-0.6,0-1.2,0-1.7,0.3c-0.3,0.1-0.6,0.3-0.8,0.5c-0.4,0.3-0.9,0.6-1.3,0.9
						c-0.1,0.1-0.2,0.1-0.2,0.2c-0.1,0.2-0.1,0.5,0.1,0.7s0.4,0.3,0.6,0.4c1.1,0.4,2.3,0.3,3.4,0.2c1.3-0.1,2.6-0.2,3.9-0.3
						c0.2,0,0.5,0,0.7-0.2c0.2-0.2,0.3-0.6,0.2-0.9C219.4,58.4,219.2,58.2,218.9,58z"/>
				</g>
				<g>
					<path class="st39" d="M206.9,59.9c-0.3,0-0.5,0-0.8,0.1c-0.3,0.1-0.5,0.3-0.7,0.5c-0.4,0.3-0.9,0.5-1.2,0.7
						c-0.4,0.3-0.6,0.7-0.3,1.1c0.3,0.3,0.8,0.3,1.3,0.3c1.7,0,3.4-0.1,5.1-0.1c0.6,0,1.2,0,1.7-0.3c0.2-0.1,0.4-0.3,0.3-0.5
						c0-0.1-0.1-0.1-0.2-0.2c-0.5-0.3-1.1-0.7-1.6-1c-0.3-0.2-0.6-0.4-1-0.5c-0.2-0.1-0.5-0.1-0.7-0.1
						C208.1,59.9,207.5,59.9,206.9,59.9z"/>
				</g>
				<g class="st22">
					<path class="st40" d="M207.6,62c0.1,0,0.1,0,0.2-0.1c0-0.1,0-0.1,0-0.2c0-0.1,0-0.2-0.1-0.4c0,0-0.1,0.1-0.1,0.1
						c0,0.1-0.1,0.3-0.1,0.4C207.6,61.9,207.6,61.9,207.6,62z"/>
				</g>
				<g class="st22">
					<path class="st40" d="M209.2,61.1c0.1,0,0.1-0.1,0.1-0.2c0-0.1-0.1-0.1-0.1-0.2c-0.1-0.1-0.2-0.2-0.3-0.3c0,0,0,0.1,0,0.1
						c0,0.1,0.1,0.3,0.1,0.4C209,61,209.1,61.1,209.2,61.1z"/>
				</g>
				<g class="st22">
					<path class="st40" d="M213,59.1c0-0.1-0.1-0.1-0.2-0.1c-0.1,0-0.1,0.1-0.2,0.1c-0.1,0.1-0.2,0.2-0.2,0.3c0,0,0.1,0,0.1,0
						c0.1-0.1,0.2-0.1,0.3-0.2C212.9,59.2,213,59.1,213,59.1z"/>
				</g>
				<g class="st22">
					<path class="st40" d="M214.4,57.9c0-0.1-0.1-0.1-0.2-0.1c-0.1,0-0.1,0.1-0.2,0.1c-0.1,0.1-0.2,0.2-0.2,0.3c0,0,0.1,0,0.1,0
						c0.1-0.1,0.2-0.1,0.3-0.2C214.3,58,214.4,57.9,214.4,57.9z"/>
				</g>
				<g class="st22">
					<path class="st40" d="M217.2,58.8c0-0.1,0-0.1-0.1-0.2c-0.1,0-0.1,0-0.2,0c-0.1,0-0.2,0.1-0.3,0.1c0,0,0.1,0,0.1,0.1
						c0.1,0,0.3,0,0.4,0C217.1,58.9,217.2,58.9,217.2,58.8z"/>
				</g>
				<g class="st22">
					<path class="st40" d="M209.6,57.6c-0.1,0-0.1,0-0.2,0.1s0,0.1,0,0.2c0,0.1,0,0.2,0,0.4c0,0,0.1-0.1,0.1-0.1
						c0.1-0.1,0.1-0.2,0.1-0.4C209.6,57.7,209.6,57.6,209.6,57.6z"/>
				</g>
				<g class="st22">
					<path class="st40" d="M207.4,57c-0.1,0-0.1,0.1-0.1,0.2s0.1,0.1,0.1,0.2c0.1,0.1,0.2,0.2,0.2,0.3c0,0,0-0.1,0-0.1
						c0-0.1-0.1-0.3-0.1-0.4C207.5,57.1,207.5,57,207.4,57z"/>
				</g>
				<g class="st22">
					<path class="st40" d="M210.9,61.9c0.1,0,0.1-0.1,0.1-0.2c0-0.1-0.1-0.1-0.1-0.2c-0.1-0.1-0.2-0.2-0.3-0.3c0,0,0,0.1,0,0.1
						c0,0.1,0.1,0.3,0.1,0.4C210.8,61.8,210.9,61.9,210.9,61.9z"/>
				</g>
				<g class="st22">
					<path class="st40" d="M206.3,60.9c0,0.1,0.1,0,0.2,0c0-0.1,0.1-0.1,0.1-0.2c0-0.1,0-0.2,0-0.4c0,0-0.1,0-0.1,0.1
						c-0.1,0.1-0.2,0.2-0.2,0.3C206.3,60.8,206.3,60.8,206.3,60.9z"/>
				</g>
				<g class="st22">
					<path class="st40" d="M202.5,58c0,0.1,0,0.1,0,0.2c0.1,0,0.1,0,0.2,0c0.1,0,0.2,0,0.4,0c0,0-0.1-0.1-0.1-0.1
						c-0.1-0.1-0.2-0.1-0.4-0.2C202.6,58,202.5,57.9,202.5,58z"/>
				</g>
				<g class="st22">
					<path class="st40" d="M203.2,59.3c0,0.1,0.1,0.1,0.1,0.1c0.1,0,0.1-0.1,0.2-0.1c0.1-0.1,0.2-0.2,0.3-0.2c0,0-0.1,0-0.1,0
						c-0.1,0-0.3,0-0.4,0.1C203.3,59.2,203.2,59.3,203.2,59.3z"/>
				</g>
				<g class="st22">
					<path class="st40" d="M200.5,59.1c0,0.1,0,0.1,0.1,0.2c0.1,0,0.1,0,0.2,0c0.1,0,0.2-0.1,0.4-0.1c0,0-0.1-0.1-0.1-0.1
						c-0.1,0-0.3,0-0.4,0C200.6,59,200.6,59,200.5,59.1z"/>
				</g>
				<g class="st22">
					<path class="st40" d="M199,60.6c0,0.1,0,0.1,0.1,0.2c0.1,0,0.1,0,0.2,0c0.1,0,0.2-0.1,0.4-0.1c0,0-0.1-0.1-0.1-0.1
						c-0.1,0-0.3,0-0.4,0C199.1,60.5,199,60.6,199,60.6z"/>
				</g>
				<g class="st22">
					<path class="st40" d="M199.2,58.5c0,0.1,0,0.1,0.1,0.2c0.1,0,0.1,0,0.2,0c0.1,0,0.2-0.1,0.4-0.1c0,0-0.1-0.1-0.1-0.1
						c-0.1,0-0.3,0-0.4,0C199.3,58.4,199.2,58.4,199.2,58.5z"/>
				</g>
			</g>
			<g>
				<path class="st43" d="M217.7,67.5c0,0.2,0.1,0.3,0.1,0.5c0.1,0.2,0.1,0.3,0.1,0.5c0,0.2-0.2,0.3-0.3,0.3c-0.1,0-0.1-0.1-0.2-0.1
					c-0.3-0.2-0.4-0.6-0.4-0.9c0-0.1,0-0.2,0.1-0.3c0.1-0.1,0.2,0,0.3,0s0.2,0.2,0.2,0.3"/>
			</g>
			<g>
				<path class="st43" d="M226.3,68.5c0,0.2-0.1,0.4,0,0.6c0.1,0.2,0.2,0.4,0.4,0.4c0.2,0,0.4-0.2,0.4-0.4c0-0.2,0-0.4-0.1-0.6
					c-0.1-0.1-0.1-0.2-0.2-0.3c-0.1-0.1-0.3-0.1-0.4,0C226.2,68.3,226.2,68.5,226.3,68.5"/>
			</g>
			<g class="st38">
				<path class="st6" d="M217.6,60.4c-1.1,0.7-2.4,0.7-3.7,0.7c-0.4,0-0.8,0-0.9-0.3c-0.1-0.2-0.1-0.4,0-0.6
					c0.1-0.2,0.3-0.3,0.4-0.5c0.7-0.6,1.4-1.3,2.1-1.9c-0.1,0.1-0.1,0.2-0.2,0.3c0.2-0.3,0.7-0.4,1.1-0.3c0.7,0.1,1.4,0.6,1.6,1.3
					c0.1,0.3,0.1,0.6,0,0.8C218.1,60.1,217.9,60.2,217.6,60.4z"/>
			</g>
			<g class="st38">
				<path class="st6" d="M237.4,58.6c0.2,0,0.5-0.1,0.6-0.2c0.2-0.2,0.2-0.4,0.1-0.7c-0.1-0.2-0.3-0.4-0.5-0.5
					c-0.2-0.1-0.3-0.2-0.5-0.2c-0.3,0-0.5,0.1-0.8,0.1c-0.3,0-0.5-0.1-0.8-0.1c-0.3,0-0.6,0-0.8,0.2c-0.3,0.3-0.2,0.7,0.1,1
					c0.3,0.3,0.7,0.3,1,0.4C236.4,58.6,236.9,58.6,237.4,58.6z"/>
			</g>
			<g class="st38">
				<path class="st6" d="M233,45.9c-0.5,0.2-0.9,0.7-1.3,1.2c-0.2,0.3-0.4,0.6-0.7,0.9c-0.2,0.3-0.4,0.6-0.3,1
					c0.5,0,0.9-0.4,1.4-0.6c0.6-0.3,1.3-0.3,2-0.3c0.1,0,0.2,0,0.3,0.1c0.1,0.1,0.1,0.2,0,0.3c-0.1,0.7-0.1,1.3-0.2,2
					c1.5-0.5,2.7-1.7,3.2-3.2c0.1-0.2,0.1-0.4,0.1-0.6c-0.1-0.3-0.3-0.5-0.6-0.6c-0.3-0.1-0.6-0.1-0.9-0.1c-0.6,0-1.3,0-1.9,0
					C233.7,45.8,233.4,45.8,233,45.9z"/>
			</g>
			<g class="st38">
				<path class="st6" d="M227.5,51.1c0-0.3-0.2-0.5-0.4-0.6c-0.4-0.2-0.8-0.2-1.3-0.1c-0.4,0.1-0.8,0.3-1.2,0.5
					c-0.4,0.2-0.9,0.4-1.3,0.7c-0.2,0.1-0.4,0.3-0.3,0.4c0.4,0.1,0.8,0.1,1.2,0.4c0.1,0.1,0.3,0.3,0.4,0.4c0.4,0.3,0.9,0.3,1.4,0.1
					c0.4-0.2,0.8-0.5,1.1-0.9C227.3,51.7,227.5,51.4,227.5,51.1z"/>
			</g>
			<g>
				<g>
					<path class="st0" d="M220.6,81.9c0,1.7-2.5,2.3-3.9,1.4s-1.9-2.7-2.3-4.3c-2.1,0.8-4.7,0.3-6.3-1.3c-1-0.9-1.7-2.2-2.9-2.9
						c-0.7-0.4-1.5-0.5-2.1-1c-1.3-0.8-1.7-2.6-1.5-4.1c0.2-1.5,0.8-3,1.2-4.5c2.7,0.6,4.6-2.4,7.1-3.4c0.5-0.2,1.2-0.3,1.7-0.1
						c1.1,0.5,1.1,2.1,0.8,3.3c1.3-0.1,3.1,0.4,2.9,1.6c0,0.3-0.2,0.5-0.3,0.8c-0.1,0.9,1,1.5,1.8,1.3c0.9-0.2,1.5-0.9,2.2-1.4
						s1.5-1.1,2.4-0.8c1.6,0.4,1.6,2.6,1.1,4.2c1.6-0.4,3.3-0.9,5-0.7c1.7,0.2,3.4,1.3,3.8,2.9c0.2,0.8,0.1,1.7-0.1,2.5
						c-0.8,3.1-3.8,5.9-6.9,5.2c-0.7-0.2-1.3-0.5-2-0.5c-0.7,0-1.5,0.3-1.6,1C220.6,81.4,220.6,81.6,220.6,81.9z"/>
				</g>
				<g class="st36">
					<path class="st0" d="M222.4,77.4c-2.4,0-4.8-0.3-7.1-0.9c1.4,1,2.6,2.5,3.3,4.1c-0.6,0.4-1.4-0.3-1.8-0.9
						c-0.7-1.2-1.6-2.5-3-2.6c-0.6,0-1.2,0.2-1.8,0.2c-1.1,0-2-0.7-2.8-1.4c-2.3-2.1-4.1-4.8-5.2-7.7c1.2-0.2,2.1-1.1,3.2-1.8
						c1-0.7,2.6-1,3.3,0c0.5,0.7,0.3,1.6,0.4,2.4s0.5,1.9,1.3,1.8c0.3,0,0.7-0.2,1,0c0.2,0.1,0.2,0.4,0.3,0.6
						c0.3,1.2,1.7,1.9,2.9,1.9c1.2,0.1,2.5-0.3,3.7-0.4c1.6-0.1,3.3,0.2,4.7,1c-0.4,0.9-1.6,1.1-2.6,1.1c-1,0-2-0.1-2.8,0.5
						C220.7,75.7,221.7,76.4,222.4,77.4z"/>
				</g>
			</g>
			<g class="st38">
				<path class="st6" d="M229.5,76c-0.2,0.7-0.8,1.2-1.3,1.6c-0.2,0.2-0.5,0.3-0.8,0.3c-0.3,0-0.6-0.4-0.6-0.7s0-0.6,0-1
					c0-0.9-0.5-1.8-1.2-2.4c-0.3-0.3-0.7-0.4-0.9-0.8s-0.4-0.8-0.1-1.1c0.3-0.4,0.9-0.3,1.3-0.3c0.7,0.1,1.3,0,1.9,0.3
					c0.3,0.2,0.6,0.4,0.8,0.7C229.3,73.7,229.8,74.9,229.5,76z"/>
			</g>
			<g>
				<path class="st44" d="M167.7,65.9c-3.5-2.9-6.4-6.9-7.1-11.4c-0.6-4.3,0.8-8.5,3.1-12.3c1.2-0.6,2.2-1.6,3.4-2.2
					c3-1.4,6.3,0.7,9.4,1.7c2,0.6,4.1,0.8,6.1,1c10.8,0.9,21.6,1.9,32.4,0.5c4.9-0.6,10.2-1.6,14.6,0c-1.1,0.3-2.2,0.8-3.2,1.5
					c-2.2,1.4-4,3.4-5.7,5.3c-2,2.2-4.1,4.5-6.1,6.7c-2.4,2.6-4.7,5.2-7.7,7.1c-2.2,1.5-4.7,2.5-7.2,3.5c-6.7,2.7-13.9,5.2-21,3.9
					C174.5,70.5,170.8,68.5,167.7,65.9z"/>
			</g>
			<g class="st45">
				<path class="st44" d="M181.1,48.9c0.6,0,1.3,0,1.9-0.3c0.6-0.3,1-0.9,0.9-1.6c-0.1-1-1.1-1.6-2.1-1.8c-0.7-0.2-1.5-0.3-2.3-0.2
					c-0.6,0-1.2,0.1-1.8,0c-1.1-0.1-2-0.9-3-1.3c-1.1-0.4-2.3-0.5-3.4-0.2c-0.6,0.2-1.2,0.4-1.5,0.9c-0.5,0.8-0.2,2,0.6,2.6
					c0.8,0.6,1.8,0.8,2.8,0.8c1,0,2-0.1,2.9,0C177.9,48,179.4,48.8,181.1,48.9z"/>
			</g>
			<g class="st45">
				<path class="st44" d="M190.7,60.6c0.4,1.5,1.9,2.6,3.4,2.8c1.5,0.2,3.1-0.3,4.4-1.2c1.3-0.8,2.4-1.9,3.6-3c1-0.9,2-1.8,2.7-3
					c0.7-1.2,0.9-2.7,0.2-3.8c-0.6-1-1.9-1.5-3.2-1.5c-1.2,0-2.4,0.5-3.5,1.1c-1.5,0.8-2.9,1.7-4.2,2.7c-1,0.7-1.9,1.5-2.6,2.5
					C190.8,58.1,190.4,59.4,190.7,60.6z"/>
			</g>
			<g class="st45">
				<path class="st44" d="M168.5,55.2c-0.3,0.9-0.3,1.9,0,2.7c0.3,1,1.1,1.8,2,2.5c0.4,0.3,0.9,0.6,1.4,0.6c0.6,0,1.1-0.3,1.5-0.6
					c0.4-0.3,0.8-0.6,0.9-1c0.2-0.6,0-1.3,0.1-1.9c0.1-0.9,0.7-1.6,0.9-2.5c0.2-1.1-0.5-2.3-1.6-2.8c-1-0.5-2.3-0.3-3.3,0.3
					S168.8,54.1,168.5,55.2z"/>
			</g>
			<g class="st45">
				<path class="st44" d="M215.3,49.5c0.1-0.2,0.2-0.5,0.2-0.7c0-1-0.7-1.9-1.6-2.3c-0.9-0.4-1.9-0.4-2.9-0.4
					c-0.4,0-0.8,0.1-1.2,0.3c-0.5,0.4-0.7,1.2-0.2,1.7c0.3,0.3,0.7,0.5,0.7,0.9c0.3,0.2,0.7,0.5,1,0.7c0.3,0.2,0.7,0.5,1.1,0.6
					c0.5,0.1,0.9,0.1,1.4,0C214.4,50.2,215,50,215.3,49.5z"/>
			</g>
			<g class="st45">
				<path class="st44" d="M184.1,54.9c0.4,0.7,1.3,0.7,2.1,0.7c0.5,0,1.1-0.1,1.4-0.6c0.2-0.4,0-1-0.3-1.4c-0.4-0.5-1-0.9-1.7-0.9
					c-0.6,0-1.3,0.3-1.6,0.9C183.9,54,183.9,54.5,184.1,54.9z"/>
			</g>
		</g>
		<g>
			<path class="st35" d="M211.7,45.2c-7.7,5.5-13.2,13.6-18.5,21.6c1.5-5.7,5-10.6,8.4-15.3c1-1.4,2-2.8,3.3-4
				c1.2-1.1,2.6-1.9,4.1-2.4C209.9,44.7,211,44.5,211.7,45.2z"/>
		</g>
		<g>
			<path class="st35" d="M186.9,59.6c-0.6,1.6-1.1,3.1-1.6,4.7c-0.3,0.8-1.2,3.1-2.4,2.1c-1.2-1.1,0.8-5.3,1.3-6.3
				c2-4.1,4.7-14.6,10.9-13.9c-0.1,0-3.8,5.2-4.3,5.8C189,54.3,187.9,56.9,186.9,59.6z"/>
		</g>
		<g>
			<path class="st35" d="M179.2,44.5c0.1,1.3-0.9,2.4-1.8,3.5c-3.4,4.2-4,10-5.6,15.2c-0.2,0.6-0.4,1.2-0.9,1.4
				c-0.8-2.5,0.1-5.1,1-7.5c1.3-3.5,2.6-6.9,4.4-10.1C177,45.8,177.9,44.6,179.2,44.5z"/>
		</g>
	</g>
</g>
</svg>
