<?xml version="1.0" encoding="utf-8"?>
<!-- Generator: Adobe Illustrator 24.1.2, SVG Export Plug-In . SVG Version: 6.00 Build 0)  -->
<svg version="1.1" id="Layer_1" xmlns:v="https://vecta.io/nano"
	 xmlns="http://www.w3.org/2000/svg" xmlns:xlink="http://www.w3.org/1999/xlink" x="0px" y="0px" viewBox="0 0 172.9 141.1"
	 style="enable-background:new 0 0 172.9 141.1;" xml:space="preserve">
<style type="text/css">
	.st0{fill:#DB613F;}
	.st1{fill:#FFFFFF;}
	.st2{fill:#EEDCD2;}
	.st3{opacity:0.57;}
	.st4{opacity:0.14;}
	.st5{fill:#ECB84D;}
	.st6{opacity:0.54;}
	.st7{fill:#BF8C6A;}
	.st8{fill:#8C5229;}
	.st9{fill:#8FBB5E;}
	.st10{opacity:0.6;}
	.st11{fill:#CB8E61;}
	.st12{opacity:0.42;}
	.st13{fill:#A62420;}
	.st14{opacity:0.5;}
	.st15{fill:#ECB54A;}
	.st16{fill:#B36618;}
	.st17{fill:#F9EB95;}
	.st18{fill:#F7F7E8;}
	.st19{fill:#E0AF8F;}
	.st20{opacity:0.4;}
</style>
<g>
	<g>
		<g>
			<g>
				<g>
					<g>
						<polygon class="st0" points="155.6,18.4 157.7,18.4 160.9,40.5 157.7,40.5 157.7,40.8 155.6,40.8 155.6,40.5 152.3,40.5 
													"/>
					</g>
				</g>
				<g>
					<g>
						<path class="st1" d="M145.1,37.8h23c0.9,0,1.7,0.8,1.7,1.7v7.1h-26.4v-7.1C143.4,38.5,144.2,37.8,145.1,37.8z"/>
					</g>
				</g>
				<g>
					<g>
						<g>
							<path class="st2" d="M161.5,38c0-0.1,0-0.2,0-0.3h0.7c0,0.1,0,0.3-0.1,0.4l-1.3,8.4h-0.7L161.5,38z"/>
						</g>
					</g>
					<g>
						<g>
							<path class="st2" d="M166.4,38.6c0-0.3,0-0.5,0.1-0.8h0.7c0,0.3,0,0.6-0.1,0.9c-0.3,2.9-0.5,5.5-0.6,7.9h-0.7
								C166,44.1,166.2,41.5,166.4,38.6z"/>
						</g>
					</g>
					<g>
						<g>
							<polygon class="st2" points="155.6,37.8 156.3,37.8 155.4,46.6 154.7,46.6 							"/>
						</g>
					</g>
					<g>
						<g>
							<path class="st2" d="M151,37.8h0.7c-0.2,2.9-0.6,5.9-1.2,8.8h-0.8C150.4,43.7,150.8,40.7,151,37.8z"/>
						</g>
					</g>
					<g>
						<g>
							<polygon class="st2" points="146.3,37.8 147.1,37.8 146.2,46.6 145.5,46.6 							"/>
						</g>
					</g>
				</g>
				<g>
					<g>
						<path class="st0" d="M144.4,45.9h24.4c2.3,0,4.1,1.8,4.1,4.1v64.4c0,2.3-1.8,4.1-4.1,4.1h-24.4c-2.3,0-4.1-1.8-4.1-4.1V50
							C140.3,47.8,142.1,45.9,144.4,45.9z"/>
					</g>
				</g>
				<g class="st3">
					<g>
						<g>
							<path class="st0" d="M140.3,115V56.9c2.7,0.5,5.2,1.8,7.2,3.7c2.5,2.3,4.4,5.4,5.8,8.5c2.9,6.2,4.5,13,5.8,19.8
								c1.8,9.7,2.9,20-0.8,29.2c-0.1,0.2-0.1,0.3-0.2,0.5h-14.3C141.9,118.5,140.3,116.9,140.3,115z"/>
						</g>
					</g>
				</g>
				<g class="st4">
					<g>
						<path class="st1" d="M159.3,58.8c-2.5-1.1-4.9-3.2-5.3-5.9c0-0.3,0-0.7,0.1-1c0.2-0.6,0.7-1,1.3-1.3c0.8-0.4,1.7-0.6,2.6-0.8
							c3.2-0.6,6.6-0.6,9.8,0.2c0.5,0.1,1.1,0.3,1.4,0.8c0.2,0.3,0.2,0.8,0.2,1.2c0,1.5-0.2,3-0.8,4.3c-0.6,1.3-1.7,2.5-3,3.1
							C163.6,60.2,161.3,59.7,159.3,58.8z"/>
					</g>
				</g>
			</g>
			<g>
				<g>
					<g>
						<polygon class="st5" points="116.3,0 118.6,0 122.3,24.4 118.6,24.4 118.6,24.7 116.3,24.7 116.3,24.4 112.7,24.4 						"/>
					</g>
				</g>
				<g>
					<g>
						<path class="st1" d="M104.6,21.4h25.8c0.9,0,1.7,0.8,1.7,1.7v8h-29.2v-8C102.9,22.2,103.7,21.4,104.6,21.4z"/>
					</g>
				</g>
				<g>
					<g>
						<g>
							<path class="st2" d="M122.9,21.7c0-0.1,0-0.2,0-0.3h0.8c0,0.1,0,0.3-0.1,0.4l-1.4,9.3h-0.8L122.9,21.7z"/>
						</g>
					</g>
					<g>
						<g>
							<path class="st2" d="M128.3,22.3c0-0.3,0-0.6,0.1-0.9h0.8c0,0.3,0,0.7-0.1,1c-0.3,3.2-0.5,6.1-0.7,8.7h-0.8
								C127.8,28.4,128,25.6,128.3,22.3z"/>
						</g>
					</g>
					<g>
						<g>
							<polygon class="st2" points="116.4,21.4 117.2,21.4 116.2,31.1 115.4,31.1 							"/>
						</g>
					</g>
					<g>
						<g>
							<path class="st2" d="M111.3,21.4h0.8c-0.3,3.3-0.7,6.5-1.3,9.7H110C110.6,27.9,111.1,24.7,111.3,21.4z"/>
						</g>
					</g>
					<g>
						<g>
							<polygon class="st2" points="106.1,21.4 107,21.4 106,31.1 105.2,31.1 							"/>
						</g>
					</g>
				</g>
				<g>
					<g>
						<path class="st5" d="M104.1,30.4h26.8c2.6,0,4.6,2.1,4.6,4.6v71c0,2.6-2.1,4.6-4.6,4.6h-26.8c-2.6,0-4.6-2.1-4.6-4.6v-71
							C99.5,32.5,101.5,30.4,104.1,30.4z"/>
					</g>
				</g>
				<g class="st6">
					<g>
						<g>
							<path class="st5" d="M99.5,106.7V42.5c3,0.5,5.8,2,8,4.1c2.8,2.6,4.8,5.9,6.4,9.4c3.2,6.9,5,14.4,6.4,21.9
								c2,10.7,3.2,22.2-0.8,32.3c-0.1,0.2-0.2,0.4-0.2,0.6h-15.9C101.2,110.7,99.5,108.9,99.5,106.7z"/>
						</g>
					</g>
				</g>
				<g class="st4">
					<g>
						<path class="st1" d="M120.5,44.6c-2.8-1.3-5.5-3.5-5.8-6.5c0-0.4,0-0.7,0.1-1.1c0.2-0.7,0.8-1.1,1.4-1.4
							c0.9-0.4,1.9-0.7,2.9-0.9c3.6-0.7,7.3-0.6,10.9,0.2c0.6,0.1,1.2,0.3,1.5,0.8c0.2,0.4,0.3,0.8,0.3,1.3c0,1.6-0.2,3.3-0.9,4.8
							c-0.7,1.5-1.8,2.8-3.3,3.4C125.2,46.2,122.7,45.6,120.5,44.6z"/>
					</g>
				</g>
			</g>
		</g>
	</g>
	<g>
		<g>
			<g>
				<g>
					<path class="st7" d="M2.6,85.4c-4.8,7.9-2.2,18.2,1.4,26.8c0.4,0.9,0.8,1.8,1.7,2.2c0.7,0.3,1.5,0.2,2.2,0.1
						c9.4-1.3,19.1-0.7,28.2,1.9c5.5,1.5,10.7,3.8,16.1,5.6c6.8,2.3,13.7,4.1,20.7,5.8c8.3,2.1,16.5,4.2,24.8,6.2
						c5.2,1.3,10.4,2.6,15.7,2.1c10.1-0.9,18.4-8,25.2-15.5c5.7-6.3,10.9-13.5,12.8-21.8c1.9-8.3-0.3-18-7.2-23.1
						c-8.2-6.1-19.6-3.9-29.8-2.7c-18.1,2.3-36.5,0.7-54.6-0.9c-3.5-0.3-7-0.6-10.3-1.7c-5.3-1.7-10.9-5.2-15.9-2.9
						c-2.6,1.2-4.5,3.7-7.2,4.2c-1.3,0.2-2.7,0-4,0c-3.9,0-7.3,2.5-10.5,4.8C8.4,79.2,4.8,81.8,2.6,85.4z"/>
				</g>
				<g>
					<path class="st8" d="M103.7,103.3c-2.4,2.1-5.1,3.9-7.4,6.1c-2.3,2.2-4.3,4.9-4.9,8.1c-0.8,4.1,1,8.3,3.9,11.3
						c2.9,3,6.7,4.8,10.6,6.1c2.6,0.8,5.4,1.4,8.1,1c2.5-0.4,4.8-1.6,6.9-3c10.5-6.9,17.9-17.6,24.9-28.1c1.3-2,2.7-3.9,3.5-6.2
						c0.8-2.2,1-4.8,0-6.9c0.4-0.1,0.2,0.8-0.3,0.6c-0.4-0.2-0.4-0.7-0.4-1.2c0.1-6.9-4.5-13.7-11-16.1c-1.3-0.5-2.6-0.8-4-0.6
						c-2.5,0.3-4.6,2.2-6.4,4c-3.2,3.1-6.4,6.2-9.4,9.6C113.1,93,109,98.8,103.7,103.3z"/>
				</g>
				<g>
					<path class="st9" d="M111.1,104.1c-3.7-2.7-5.4-7.8-4.1-12.2c1.3-4.4,5.2-7.5,8.9-10.3c2.5-1.9,5.2-3.9,8.3-3.8
						c3.1,0,6.2,3.3,4.9,6.1c2.2-0.9,5.2-1.5,6.5,0.4c1.9-6.1,8.4-10.4,14.7-9.7c2,0.2,4.2,1.1,4.9,3c0.7,1.9-0.4,4-1.8,5.5
						c-1.4,1.5-3.2,2.7-4.1,4.5c2.4-0.1,4.8,0.1,7.2,0.6c1.8,0.4,4.1,1.8,3.3,3.5c-0.6,1.3-2.9,2.3-2,3.5c2.5,0.1,5.1,0.3,7.2,1.5
						s3.7,3.9,2.8,6.3c-0.3,0.8-0.9,1.5-1.6,2.1c-3,2.7-7.5,3-11.5,2.6c-4-0.4-8-1.5-12-1.1c0.6,1.8,1.1,4-0.2,5.3
						c-1.4,1.5-3.9,0.8-5.8,0.1c-5-1.9-10.1-3.3-15.3-4.3C117.9,106.9,114.1,106.3,111.1,104.1z"/>
				</g>
				<g class="st10">
					<path class="st9" d="M123.2,89.3c1-0.9,2.6-0.9,3.7-0.1c1.1,0.8,1.4,2.4,0.9,3.5c5.6-0.4,9.5-6.2,15-6.9c0,3.2-1.2,6.4-3.4,8.7
						c4.7-0.3,9.5,0.8,13.6,3.1c1.7,1,3.4,3,2.2,4.6c-0.7,1-2.2,1-3.4,0.9c-5-0.3-10-0.6-15-0.9c0.8,0.8,1.6,1.7,2,2.8
						c0.4,1.1,0.2,2.5-0.8,3.2c-0.9,0.7-2.2,0.4-3.4,0.2c-6.3-1.5-12.6-3-18.9-4.6c-0.8-0.2-1.6-0.4-2.3-0.8c-1-0.6-1.6-1.6-2-2.7
						c-1.4-3.3-1.2-7.2,0.5-10.4c1.7-3.1,5-5.4,8.5-6c0.8-0.1,1.7-0.1,2.3,0.5C123.8,85.7,122.1,88.1,123.2,89.3z"/>
				</g>
				<g>
					<g>
						<path class="st11" d="M123.7,105.9c0-0.5,0.2-0.9,0.5-1.3c0.4-0.9,0.9-1.7,1.3-2.6c0.4-0.7,0.8-1.5,1.5-1.8
							c1.6-0.7,3.1,0.9,4.7,1.4c2,0.7,4.1-0.2,6.1-0.7c2-0.5,4.6-0.6,5.8,1.1c0.6,0.9,0.7,2.1,1.4,3c1.3,1.7,3.8,1.5,5.9,1.8
							c3.5,0.5,6.7,2.8,8.2,6c0.2,0.3,0.3,0.7,0.2,1.1c-0.1,0.6-0.8,1-1.3,1.2c-3.5,1.6-7,3.3-10.4,4.9c-3.5,1.6-7.9,3.2-11,1
							c-0.6-0.5-1.2-1-1.8-1.5c-2.1-1.7-5-1.9-7.5-2.9c-2.5-1-5-3.5-4.2-6c0.3-1,1.1-1.9,1-2.9C124,107.1,123.6,106.5,123.7,105.9z"
							/>
					</g>
					<g class="st12">
						<path class="st1" d="M140.9,103.2c-1.1-0.3-2.3-0.3-3.4-0.1c-0.4,1.2-1.1,2.4-2.3,2.9c-1.6,0.7-3.7-0.2-5.3,0.7
							c-0.1,0.1-0.2,0.2-0.3,0.3c-0.1,0.1,0,0.3,0,0.5c0.2,0.9,0.4,1.9,0.6,2.8c0,0.1,0,0.2,0.1,0.3c0.1,0.1,0.2,0.1,0.3,0.2
							c0.8,0.3,1.6,0.5,2.4,0.8c0.9,0.3,1.9,0.5,2.7-0.1c0.4-0.4,0.6-0.9,0.8-1.5c0.2-0.8,0.6-1.6,0.9-2.3c0.2-0.4,0.5-0.9,0.9-1.2
							c0.4-0.3,0.8-0.3,1.3-0.4c0.6-0.2,1.3-0.4,1.9-0.7c0.2-0.1,0.4-0.2,0.5-0.4c0.2-0.3,0.1-0.8-0.2-1.1
							C141.7,103.5,141.3,103.3,140.9,103.2z"/>
					</g>
					<g class="st12">
						<path class="st1" d="M148.9,107.9c-0.5-0.1-1,0-1.5,0.1c-1,0.2-2,0.5-2.5,1.3c-0.1,0.1-0.1,0.2-0.1,0.4c0,0.1,0.1,0.2,0.2,0.3
							c0.6,0.7,1.1,1.4,1.6,2.2c0.1,0.2,0.2,0.3,0.4,0.4c0.2,0.1,0.5,0.1,0.7,0c1.6-0.3,3.1-0.8,4.7-1.3c0.1,0,0.3-0.1,0.4-0.2
							c0.2-0.2,0.1-0.6-0.1-0.8c-0.6-1-1.7-1.6-2.7-2.1C149.5,108.1,149.3,108,148.9,107.9z"/>
					</g>
				</g>
				<g>
					
						<image style="overflow:visible;" width="47" height="16" xlink:href="D9F49AF1.png"  transform="matrix(1 0 0 1 113.0917 93.1054)">
					</image>
					<g class="st12">
						<g>
							<path class="st0" d="M136.8,104.9c12.5-0.6,22.5-3.5,23-6.8c0,0.1,0.1,0.2,0.1,0.3c0,0.4,0.1,2.2,0.1,2.6
								c0.1,3.3-10.2,6.5-23,7.1c-12.9,0.6-23.4-1.7-23.6-5c0-0.4-0.1-2.2-0.1-2.6c0-0.1,0-0.2,0-0.3
								C114.1,103.4,124.4,105.5,136.8,104.9z"/>
						</g>
					</g>
					<g>
						<path class="st13" d="M132.4,98.2c0.1-0.4-0.3-0.7-0.6-0.9c-4.6-2.5-10.6-1.7-14.8,1.5c-0.5,0.4-1.1,1.1-0.8,1.7
							c0.1,0.3,0.4,0.4,0.7,0.6c2.4,1.4,5.4,1.9,8.1,1.4c2.8-0.5,5.4-1.9,7.2-4.1C132.2,98.4,132.3,98.3,132.4,98.2z"/>
					</g>
					<g>
						<path class="st13" d="M132.3,94.6c3.1-0.5,6.2-0.6,9.3-0.3c0.6,0,1.1,0.1,1.7,0.2c0.3,0,0.7,0.2,0.6,0.5
							c0,0.1-0.1,0.2-0.2,0.3c-1.1,1-2.3,2.1-3.8,2.4c-0.6,0.1-1.3,0.2-1.9,0.2c-1.4,0-2.8,0.1-4.1,0.1c-0.6-0.9-1.3-1.8-1.9-2.6
							c-0.1-0.1-0.1-0.2-0.1-0.3C131.8,94.7,132.1,94.6,132.3,94.6z"/>
					</g>
					<g>
						<path class="st13" d="M155.1,96.7c-2-1.5-4.7-1.8-7.3-1.8c-1,0-1.9,0-2.8,0.4c-0.5,0.2-0.9,0.5-1.4,0.9
							c-0.7,0.5-1.4,1.1-2.2,1.6c-0.2,0.1-0.3,0.2-0.4,0.4c-0.2,0.3-0.1,0.8,0.2,1.1c0.3,0.3,0.7,0.5,1.1,0.6
							c1.8,0.6,3.8,0.5,5.8,0.3c2.2-0.2,4.4-0.4,6.6-0.6c0.4,0,0.9-0.1,1.2-0.4c0.4-0.3,0.5-1,0.3-1.4
							C155.9,97.3,155.5,97,155.1,96.7z"/>
					</g>
					<g>
						<path class="st13" d="M134.7,99.9c-0.5,0-0.9,0-1.3,0.1c-0.5,0.2-0.8,0.5-1.1,0.8c-0.6,0.5-1.5,0.8-2.1,1.2
							c-0.6,0.5-1,1.3-0.6,1.8c0.4,0.5,1.4,0.5,2.2,0.5c2.9-0.1,5.7-0.1,8.6-0.2c1,0,2-0.1,2.8-0.4c0.4-0.2,0.7-0.5,0.6-0.8
							c-0.1-0.1-0.2-0.2-0.3-0.3c-0.9-0.6-1.8-1.2-2.7-1.7c-0.5-0.3-1.1-0.7-1.7-0.8c-0.4-0.1-0.8-0.1-1.2-0.1
							C136.8,99.9,135.8,99.9,134.7,99.9z"/>
					</g>
					<g class="st14">
						<path class="st15" d="M136,103.3c0.1,0.1,0.2,0,0.3-0.1c0-0.1,0-0.2,0-0.4c0-0.2-0.1-0.4-0.1-0.6c-0.1,0-0.1,0.1-0.1,0.2
							c-0.1,0.2-0.2,0.4-0.2,0.6C135.9,103.1,136,103.3,136,103.3z"/>
					</g>
					<g class="st14">
						<path class="st15" d="M138.6,101.8c0.1,0,0.2-0.2,0.2-0.3c0-0.1-0.1-0.2-0.2-0.3c-0.1-0.1-0.3-0.3-0.4-0.4c0,0.1,0,0.2,0,0.2
							c0.1,0.2,0.1,0.4,0.2,0.6C138.4,101.7,138.5,101.8,138.6,101.8z"/>
					</g>
					<g class="st14">
						<path class="st15" d="M145,98.5c0-0.1-0.2-0.2-0.3-0.1c-0.1,0-0.2,0.1-0.3,0.2c-0.1,0.2-0.3,0.3-0.4,0.5c0.1,0,0.2,0,0.2,0
							c0.2-0.1,0.4-0.2,0.6-0.3C145,98.6,145,98.6,145,98.5z"/>
					</g>
					<g class="st14">
						<path class="st15" d="M147.4,96.4c0-0.1-0.2-0.2-0.3-0.1c-0.1,0-0.2,0.1-0.3,0.2c-0.1,0.2-0.3,0.3-0.4,0.5c0.1,0,0.2,0,0.2,0
							c0.2-0.1,0.4-0.2,0.6-0.3C147.3,96.6,147.4,96.5,147.4,96.4z"/>
					</g>
					<g class="st14">
						<path class="st15" d="M152.2,98c0-0.1-0.1-0.2-0.2-0.3s-0.2,0-0.3,0.1c-0.2,0.1-0.4,0.2-0.6,0.2c0,0.1,0.1,0.1,0.2,0.1
							c0.2,0,0.4,0,0.7,0C152,98.2,152.1,98.1,152.2,98z"/>
					</g>
					<g class="st14">
						<path class="st15" d="M139.3,96c-0.1-0.1-0.2,0-0.3,0.1s-0.1,0.2-0.1,0.4c0,0.2,0,0.4,0,0.6c0.1,0,0.1-0.1,0.2-0.2
							c0.1-0.2,0.2-0.4,0.2-0.6C139.4,96.1,139.4,96,139.3,96z"/>
					</g>
					<g class="st14">
						<path class="st15" d="M135.7,95c-0.1,0-0.2,0.1-0.2,0.3c0,0.1,0.1,0.2,0.2,0.3c0.1,0.2,0.3,0.3,0.4,0.5c0-0.1,0-0.1,0-0.2
							c0-0.2-0.1-0.4-0.2-0.6C135.9,95.1,135.8,95,135.7,95z"/>
					</g>
					<g class="st14">
						<path class="st15" d="M141.6,103.2c0.1,0,0.2-0.2,0.2-0.3c0-0.1-0.1-0.2-0.2-0.3c-0.1-0.1-0.3-0.3-0.4-0.4c0,0.1,0,0.2,0,0.2
							c0.1,0.2,0.1,0.4,0.2,0.6C141.4,103.1,141.5,103.2,141.6,103.2z"/>
					</g>
					<g class="st14">
						<path class="st15" d="M133.9,101.5c0.1,0.1,0.2,0,0.3,0c0.1-0.1,0.1-0.2,0.1-0.3c0-0.2,0-0.4,0.1-0.6c-0.1,0-0.1,0.1-0.2,0.1
							c-0.1,0.2-0.3,0.4-0.3,0.6C133.8,101.3,133.8,101.4,133.9,101.5z"/>
					</g>
					<g class="st14">
						<path class="st15" d="M127.3,96.6c-0.1,0.1,0,0.2,0.1,0.3c0.1,0.1,0.2,0.1,0.3,0.1c0.2,0,0.4,0,0.6,0c0-0.1-0.1-0.1-0.2-0.2
							c-0.2-0.1-0.4-0.2-0.6-0.3C127.5,96.5,127.4,96.5,127.3,96.6z"/>
					</g>
					<g class="st14">
						<path class="st15" d="M128.6,98.9c0,0.1,0.1,0.2,0.3,0.2c0.1,0,0.2-0.1,0.3-0.2c0.2-0.1,0.3-0.3,0.5-0.4c-0.1-0.1-0.1,0-0.2,0
							c-0.2,0-0.4,0.1-0.6,0.2C128.7,98.7,128.6,98.8,128.6,98.9z"/>
					</g>
					<g class="st14">
						<path class="st15" d="M124,98.5c0,0.1,0.1,0.2,0.2,0.3c0.1,0,0.2,0,0.4,0c0.2-0.1,0.4-0.1,0.6-0.2c0-0.1-0.1-0.1-0.2-0.1
							c-0.2,0-0.4-0.1-0.7-0.1C124.2,98.3,124.1,98.4,124,98.5z"/>
					</g>
					<g class="st14">
						<path class="st15" d="M121.4,101c0,0.1,0.1,0.2,0.2,0.3c0.1,0,0.2,0,0.4,0c0.2-0.1,0.4-0.1,0.6-0.2c0-0.1-0.1-0.1-0.2-0.1
							c-0.2,0-0.4-0.1-0.7-0.1C121.6,100.9,121.5,101,121.4,101z"/>
					</g>
					<g class="st14">
						<path class="st15" d="M121.8,97.4c0,0.1,0.1,0.2,0.2,0.3c0.1,0,0.2,0,0.4,0c0.2-0.1,0.4-0.1,0.6-0.2c0-0.1-0.1-0.1-0.2-0.1
							c-0.2,0-0.4-0.1-0.7-0.1C122,97.3,121.8,97.3,121.8,97.4z"/>
					</g>
				</g>
				<g>
					<g>
						<path class="st16" d="M124.9,96.4c2.1-0.8,4.3-1.5,6.6-1.2c0.6,0.1,1.2,0.2,1.8,0.2c1.4-0.1,2.9-0.9,4,0
							c0.5,0.4,0.6,1.1,1,1.6c1.1,1.4,3.4,1.2,4.6,2.5c0.1,0.1,0.2,0.3,0.2,0.5c0,0.2-0.1,0.4-0.2,0.5c-0.3,0.6-0.1,1.2-0.3,1.9
							c-0.3,1.7-2.5,2.3-3.5,3.6c-0.9,1.2-0.9,2.8-1.2,4.3c-0.1,0.4-0.2,0.8-0.5,1c-0.2,0.2-0.5,0.3-0.8,0.4
							c-5,1.5-10.8,1.5-15.1-1.4c-2-1.3-3.6-3.2-5.2-5.1c-0.4-0.5-0.8-0.9-1-1.5c-0.3-1,0.1-2.1,0.5-3c0.5-1,1.1-1.9,1.8-2.8
							c0.5-0.6,1.2-1.3,1.9-1.2c0.4,0,0.7,0.3,1.1,0.4C122,97.5,123.5,96.9,124.9,96.4z"/>
					</g>
					<g>
						<g>
							<path class="st16" d="M115.8,100.7c0.5-1,1.1-1.9,1.8-2.8c0.5-0.6,1.2-1.3,1.9-1.2c0.1,0,0.1,0,0.1,0
								c-0.7,3.4,0.2,7.1,2.4,9.7c0.2,0.2,0.3,0.4,0.5,0.5c0.3,0.2,0.8,0.1,1.1,0.1c2.6,0,4.8,2.7,7.4,2.1c0.2,0,0.4-0.1,0.5-0.2
								c0.1-0.1,0.1-0.3,0.1-0.4c0.2-1.3-0.5-2.6-0.5-4c0-0.4,0-0.7,0.2-1c0.2-0.2,0.4-0.4,0.7-0.5c1.5-0.6,3.3-0.1,5,0
								c1.3,0,2.6-0.2,3.8-0.8c0.3-0.2,0.6-0.3,0.9-0.6c0.6-0.8,0.1-1.9,0.1-3c0.4,0.2,0.8,0.4,1.2,0.8c0.1,0.1,0.2,0.3,0.2,0.5
								c0,0.2-0.1,0.4-0.2,0.5c-0.3,0.6-0.1,1.2-0.3,1.9c-0.3,1.7-2.5,2.3-3.5,3.6c-0.9,1.2-0.9,2.8-1.2,4.3c-0.1,0.4-0.2,0.8-0.5,1
								c-0.2,0.2-0.5,0.3-0.8,0.4c-5,1.5-10.8,1.5-15.1-1.4c-2-1.3-3.6-3.2-5.2-5.1c-0.4-0.5-0.8-0.9-1-1.5
								C115,102.7,115.4,101.6,115.8,100.7z"/>
						</g>
					</g>
					<g class="st12">
						<path class="st1" d="M132.2,96.9c0.2-0.1,0.4-0.1,0.6-0.1c0.2,0,0.4,0.1,0.6,0.2c1.2,0.6,2.2,1.5,3,2.6
							c0.1,0.1,0.2,0.3,0.2,0.5c0,0.2-0.1,0.3-0.3,0.4c-0.4,0.3-0.8,0.3-1.3,0.3c-1,0.1-2,0.1-3,0.2c-1.4,0.1-3.1,0.3-3.9,1.5
							c-0.2,0.3-0.3,0.7-0.6,0.8c-0.4,0.2-0.9,0.1-1.3,0c-1.4-0.5-2.9-1.1-3.6-2.4c-0.1-0.1-0.1-0.3-0.1-0.4
							c0.1-0.1,0.2-0.2,0.3-0.2c1.6-0.7,3.4-1.1,4.7-2.3c0.3-0.3,0.6-0.7,1.1-0.9c0.4-0.2,0.9-0.1,1.4-0.1
							C130.8,97.2,131.5,97.1,132.2,96.9z"/>
					</g>
				</g>
				<g>
					<g>
						<path class="st11" d="M104.7,108c0-0.5,0.2-0.9,0.5-1.3c0.4-0.9,0.9-1.7,1.3-2.6c0.4-0.7,0.8-1.5,1.5-1.8
							c1.6-0.7,3.1,0.9,4.7,1.4c2,0.7,4.1-0.2,6.1-0.7c2-0.5,4.6-0.6,5.8,1.1c0.6,0.9,0.7,2.1,1.4,3c1.3,1.7,3.8,1.5,5.9,1.8
							c3.5,0.5,6.7,2.8,8.2,6c0.2,0.3,0.3,0.7,0.2,1.1c-0.1,0.6-0.8,1-1.3,1.2c-3.5,1.6-7,3.3-10.4,4.9c-3.5,1.6-7.9,3.2-11,1
							c-0.6-0.5-1.2-1-1.8-1.5c-2.1-1.7-5-1.9-7.5-2.9c-2.5-1-5-3.5-4.2-6c0.3-1,1.1-1.9,1-2.9C105.1,109.2,104.7,108.6,104.7,108z"
							/>
					</g>
					<g class="st12">
						<path class="st1" d="M122,105.3c-1.1-0.3-2.3-0.3-3.4-0.1c-0.4,1.2-1.1,2.4-2.3,2.9c-1.6,0.7-3.7-0.2-5.3,0.7
							c-0.1,0.1-0.2,0.2-0.3,0.3c-0.1,0.1,0,0.3,0,0.5c0.2,0.9,0.4,1.9,0.6,2.8c0,0.1,0,0.2,0.1,0.3c0.1,0.1,0.2,0.1,0.3,0.2
							c0.8,0.3,1.6,0.5,2.4,0.8c0.9,0.3,1.9,0.5,2.7-0.1c0.4-0.4,0.6-0.9,0.8-1.5c0.2-0.8,0.6-1.6,0.9-2.3c0.2-0.4,0.5-0.9,0.9-1.2
							c0.4-0.3,0.8-0.3,1.3-0.4c0.6-0.2,1.3-0.4,1.9-0.7c0.2-0.1,0.4-0.2,0.5-0.4c0.2-0.3,0.1-0.8-0.2-1.1S122.4,105.4,122,105.3z"
							/>
					</g>
					<g class="st12">
						<path class="st1" d="M130,110c-0.5-0.1-1,0-1.5,0.1c-1,0.2-2,0.5-2.5,1.3c-0.1,0.1-0.1,0.2-0.1,0.4c0,0.1,0.1,0.2,0.2,0.3
							c0.6,0.7,1.1,1.4,1.6,2.2c0.1,0.2,0.2,0.3,0.4,0.4c0.2,0.1,0.5,0.1,0.7,0c1.6-0.3,3.1-0.8,4.7-1.3c0.1,0,0.3-0.1,0.4-0.2
							c0.2-0.2,0.1-0.6-0.1-0.8c-0.6-1-1.7-1.6-2.7-2.1C130.6,110.2,130.3,110,130,110z"/>
					</g>
				</g>
				<g>
					<path class="st1" d="M111.1,101.2c2.1-0.2,4,1.4,4.9,3.4c0.9,1.9,0.9,4.1,0.9,6.2c0,1.4,0,2.8,0,4.2c0,1,0.1,2.2,1,2.6
						c0.9,0.4,1.9-0.3,2.2-1.2c0.3-0.9,0.2-1.9,0-2.8c-0.4-2.4-0.9-4.8-1.3-7.3c1.1,0.2,1.9,1.6,1.6,2.7c1,0.1,1.6-1.1,1.5-2
						c-0.1-1.3-0.8-2.4-1.3-3.6c-0.5-1.2-0.6-2.7,0.4-3.5c1.2-1,3.1,0,3.9,1.3c0.7,1.4,0.7,3,1.1,4.5c0.3,1.5,1.3,3.1,2.9,3.3
						c0.5,0.1,1-0.1,1.5,0c1.3,0.2,1.9,1.7,2,3c0,1.3-0.3,2.6-0.2,3.9c0.1,1.2,1.4,2.6,2.4,1.8c0.3-0.2,0.4-0.6,0.5-0.9
						c0.3-1.5-0.6-2.9-1.1-4.3c-0.5-1.4-0.4-3.4,1-4c0.2-3.6-6.3-4.6-6.4-8.2c4.1,1,8.4,0.8,12.3-0.4c0.6-0.2,1.2-0.3,1.7,0.1
						c0.3,0.3,0.3,0.7,0.4,1.1c0.2,2.1,0.3,4.3,0.5,6.4c0.6,0.6,1.7,0.1,2-0.7c0.3-0.8,0.1-1.6-0.2-2.4c-0.4-1.3-0.8-2.5-1.1-3.8
						c-0.3-1.1-0.7-2.2-1.4-3c-0.9-1-2.3-1.3-3.6-1.6c-2.7-0.5-5.4-0.9-8.1-1c-1.6-0.1-3.2,0-4.7-0.7c-0.9-0.4-1.7-1-2.7-1.3
						c-0.9-0.2-1.8-0.2-2.7-0.1c-7.1,0.6-14.3,1.3-21.4,1.9c0.3,2.4,2.6,4.3,5,4.4c1.3,0,2.6-0.5,3.9-0.4
						C109.7,99,111.2,99.9,111.1,101.2z"/>
				</g>
				<g>
					<g>
						<path class="st17" d="M128.3,108.8c0.5,0.1,1-0.1,1.5,0c0.3,0.1,0.5,0.2,0.7,0.3c0,0,0,0-0.1,0c-0.5-0.1-1,0-1.5,0
							c-0.4,0-0.7-0.2-1.1-0.4C128,108.8,128.2,108.8,128.3,108.8z"/>
					</g>
					<g>
						<path class="st17" d="M124.1,93.4c0.6,0.2,1.2,0.6,1.7,0.9c0,0-0.1,0-0.1,0C125.1,94,124.6,93.7,124.1,93.4z"/>
					</g>
					<g>
						<path class="st17" d="M103.9,99.2c1.3,0,2.6-0.5,3.9-0.4c0.5,0,1.1,0.2,1.6,0.5c-0.3-0.1-0.6-0.2-0.9-0.2
							c-1.3,0-2.6,0.4-3.9,0.4c-0.8,0-1.5-0.2-2.2-0.6C102.8,99.1,103.3,99.2,103.9,99.2z"/>
					</g>
					<g>
						<path class="st17" d="M112.8,101.6c-0.5-0.2-1.1-0.3-1.7-0.2c0-0.1,0-0.2,0-0.3C111.7,101.1,112.3,101.3,112.8,101.6z"/>
					</g>
				</g>
				<g>
					
						<image style="overflow:visible;" width="48" height="16" xlink:href="D9F49AF3.png"  transform="matrix(1 0 0 1 78.0917 94.1054)">
					</image>
					<g class="st12">
						<g>
							<path class="st0" d="M102,106c12.5-0.6,22.5-3.5,23-6.8c0,0.1,0.1,0.2,0.1,0.3c0,0.4,0.1,2.2,0.1,2.6
								c0.1,3.3-10.2,6.5-23,7.1s-23.4-1.7-23.6-5c0-0.4-0.1-2.2-0.1-2.6c0-0.1,0-0.2,0-0.3C79.3,104.5,89.5,106.6,102,106z"/>
						</g>
					</g>
					<g>
						<path class="st13" d="M97.5,99.2c0.1-0.4-0.3-0.7-0.6-0.9c-4.6-2.5-10.6-1.7-14.8,1.5c-0.5,0.4-1.1,1.1-0.8,1.7
							c0.1,0.3,0.4,0.4,0.7,0.6c2.4,1.4,5.4,1.9,8.1,1.4s5.4-1.9,7.2-4.1C97.4,99.4,97.5,99.3,97.5,99.2z"/>
					</g>
					<g>
						<path class="st13" d="M97.5,95.6c3.1-0.5,6.2-0.6,9.3-0.3c0.6,0,1.1,0.1,1.7,0.2c0.3,0,0.7,0.2,0.6,0.5c0,0.1-0.1,0.2-0.2,0.3
							c-1.1,1-2.3,2.1-3.8,2.4c-0.6,0.1-1.3,0.2-1.9,0.2c-1.4,0-2.8,0.1-4.1,0.1c-0.6-0.9-1.3-1.8-1.9-2.6C97,96.2,97,96.1,97,96
							C96.9,95.8,97.2,95.7,97.5,95.6z"/>
					</g>
					<g>
						<path class="st13" d="M120.2,97.7c-2-1.5-4.7-1.8-7.3-1.8c-1,0-1.9,0-2.8,0.4c-0.5,0.2-0.9,0.5-1.4,0.9
							c-0.7,0.5-1.4,1.1-2.2,1.6c-0.2,0.1-0.3,0.2-0.4,0.4c-0.2,0.3-0.1,0.8,0.2,1.1c0.3,0.3,0.7,0.5,1.1,0.6
							c1.8,0.6,3.8,0.5,5.8,0.3c2.2-0.2,4.4-0.4,6.6-0.6c0.4,0,0.9-0.1,1.2-0.4c0.4-0.3,0.5-1,0.3-1.4C121,98.4,120.7,98,120.2,97.7
							z"/>
					</g>
					<g>
						<path class="st13" d="M99.9,100.9c-0.5,0-0.9,0-1.3,0.1c-0.5,0.2-0.8,0.5-1.1,0.8c-0.6,0.5-1.5,0.8-2.1,1.2
							c-0.6,0.5-1,1.3-0.6,1.8c0.4,0.5,1.4,0.5,2.2,0.5c2.9-0.1,5.7-0.1,8.6-0.2c1,0,2-0.1,2.8-0.4c0.4-0.2,0.7-0.5,0.6-0.8
							c-0.1-0.1-0.2-0.2-0.3-0.3c-0.9-0.6-1.8-1.2-2.7-1.7c-0.5-0.3-1.1-0.7-1.7-0.8c-0.4-0.1-0.8-0.1-1.2-0.1
							C101.9,101,100.9,100.9,99.9,100.9z"/>
					</g>
					<g class="st14">
						<path class="st15" d="M101.2,104.4c0.1,0.1,0.2,0,0.3-0.1c0-0.1,0-0.2,0-0.4c0-0.2-0.1-0.4-0.1-0.6c-0.1,0-0.1,0.1-0.1,0.2
							c-0.1,0.2-0.2,0.4-0.2,0.6C101.1,104.2,101.1,104.3,101.2,104.4z"/>
					</g>
					<g class="st14">
						<path class="st15" d="M103.8,102.8c0.1,0,0.2-0.2,0.2-0.3c0-0.1-0.1-0.2-0.2-0.3c-0.1-0.1-0.3-0.3-0.4-0.4c0,0.1,0,0.2,0,0.2
							c0.1,0.2,0.1,0.4,0.2,0.6C103.6,102.8,103.7,102.9,103.8,102.8z"/>
					</g>
					<g class="st14">
						<path class="st15" d="M110.2,99.5c0-0.1-0.2-0.2-0.3-0.1c-0.1,0-0.2,0.1-0.3,0.2c-0.1,0.2-0.3,0.3-0.4,0.5c0.1,0,0.2,0,0.2,0
							c0.2-0.1,0.4-0.2,0.6-0.3C110.1,99.7,110.2,99.6,110.2,99.5z"/>
					</g>
					<g class="st14">
						<path class="st15" d="M112.5,97.5c0-0.1-0.2-0.2-0.3-0.1c-0.1,0-0.2,0.1-0.3,0.2c-0.1,0.2-0.3,0.3-0.4,0.5c0.1,0,0.2,0,0.2,0
							c0.2-0.1,0.4-0.2,0.6-0.3C112.5,97.6,112.6,97.5,112.5,97.5z"/>
					</g>
					<g class="st14">
						<path class="st15" d="M117.3,99.1c0-0.1-0.1-0.2-0.2-0.3s-0.2,0-0.3,0.1c-0.2,0.1-0.4,0.2-0.6,0.2c0,0.1,0.1,0.1,0.2,0.1
							c0.2,0,0.4,0,0.7,0C117.2,99.2,117.3,99.2,117.3,99.1z"/>
					</g>
					<g class="st14">
						<path class="st15" d="M104.5,97c-0.1-0.1-0.2,0-0.3,0.1s-0.1,0.2-0.1,0.4c0,0.2,0,0.4,0,0.6c0.1,0,0.1-0.1,0.2-0.2
							c0.1-0.2,0.2-0.4,0.2-0.6C104.5,97.2,104.5,97.1,104.5,97z"/>
					</g>
					<g class="st14">
						<path class="st15" d="M100.9,96c-0.1,0-0.2,0.1-0.2,0.3s0.1,0.2,0.2,0.3c0.1,0.2,0.3,0.3,0.4,0.5c0-0.1,0-0.1,0-0.2
							c0-0.2-0.1-0.4-0.2-0.6C101,96.1,101,96,100.9,96z"/>
					</g>
					<g class="st14">
						<path class="st15" d="M106.8,104.3c0.1,0,0.2-0.2,0.2-0.3c0-0.1-0.1-0.2-0.2-0.3c-0.1-0.1-0.3-0.3-0.4-0.4c0,0.1,0,0.2,0,0.2
							c0.1,0.2,0.1,0.4,0.2,0.6C106.6,104.2,106.7,104.3,106.8,104.3z"/>
					</g>
					<g class="st14">
						<path class="st15" d="M99,102.6c0.1,0.1,0.2,0,0.3,0c0.1-0.1,0.1-0.2,0.1-0.3c0-0.2,0-0.4,0.1-0.6c-0.1,0-0.1,0.1-0.2,0.1
							c-0.1,0.2-0.3,0.4-0.3,0.6C99,102.4,99,102.5,99,102.6z"/>
					</g>
					<g class="st14">
						<path class="st15" d="M92.5,97.7c-0.1,0.1,0,0.2,0.1,0.3c0.1,0.1,0.2,0.1,0.3,0.1c0.2,0,0.4,0,0.6,0c0-0.1-0.1-0.1-0.2-0.2
							c-0.2-0.1-0.4-0.2-0.6-0.3C92.7,97.6,92.5,97.6,92.5,97.7z"/>
					</g>
					<g class="st14">
						<path class="st15" d="M93.8,100c0,0.1,0.1,0.2,0.3,0.2c0.1,0,0.2-0.1,0.3-0.2c0.2-0.1,0.3-0.3,0.5-0.4c-0.1-0.1-0.1,0-0.2,0
							c-0.2,0-0.4,0.1-0.6,0.2C93.9,99.8,93.8,99.9,93.8,100z"/>
					</g>
					<g class="st14">
						<path class="st15" d="M89.2,99.5c0,0.1,0.1,0.2,0.2,0.3c0.1,0,0.2,0,0.4,0c0.2-0.1,0.4-0.1,0.6-0.2c0-0.1-0.1-0.1-0.2-0.1
							c-0.2,0-0.4-0.1-0.7-0.1C89.4,99.4,89.2,99.4,89.2,99.5z"/>
					</g>
					<g class="st14">
						<path class="st15" d="M86.6,102.1c0,0.1,0.1,0.2,0.2,0.3c0.1,0,0.2,0,0.4,0c0.2-0.1,0.4-0.1,0.6-0.2c0-0.1-0.1-0.1-0.2-0.1
							c-0.2,0-0.4-0.1-0.7-0.1C86.8,102,86.6,102,86.6,102.1z"/>
					</g>
					<g class="st14">
						<path class="st15" d="M87,98.5c0,0.1,0.1,0.2,0.2,0.3c0.1,0,0.2,0,0.4,0c0.2-0.1,0.4-0.1,0.6-0.2c0-0.1-0.1-0.1-0.2-0.1
							c-0.2,0-0.4-0.1-0.7-0.1C87.1,98.3,87,98.4,87,98.5z"/>
					</g>
				</g>
				<g>
					<path class="st18" d="M118.2,113.7c0,0.3,0.1,0.6,0.2,0.8c0.1,0.3,0.2,0.5,0.2,0.8s-0.3,0.6-0.6,0.5c-0.1,0-0.2-0.1-0.3-0.2
						c-0.5-0.4-0.7-1-0.6-1.6c0-0.2,0.1-0.4,0.2-0.5c0.2-0.1,0.4-0.1,0.5,0.1c0.2,0.1,0.3,0.3,0.4,0.4"/>
				</g>
				<g>
					<path class="st18" d="M132.6,115.4c-0.1,0.3-0.1,0.7,0,1c0.1,0.3,0.4,0.6,0.7,0.6c0.3,0,0.6-0.3,0.7-0.6c0.1-0.3,0-0.7-0.2-0.9
						c-0.1-0.2-0.2-0.4-0.4-0.5c-0.2-0.1-0.4-0.2-0.6,0c-0.2,0.1-0.2,0.4-0.1,0.6"/>
				</g>
				<g class="st12">
					<path class="st1" d="M118.1,101.7c-1.8,1.2-4,1.2-6.2,1.2c-0.6,0-1.3-0.1-1.6-0.6c-0.2-0.3-0.1-0.7,0.1-1.1
						c0.2-0.3,0.5-0.6,0.7-0.8c1.2-1.1,2.4-2.2,3.5-3.3c-0.1,0.2-0.2,0.3-0.3,0.5c0.3-0.6,1.1-0.7,1.8-0.6c1.2,0.2,2.3,1.1,2.8,2.3
						c0.2,0.5,0.2,1,0,1.4C118.8,101.2,118.5,101.5,118.1,101.7z"/>
				</g>
				<g class="st12">
					<path class="st1" d="M151.5,98.7c0.4,0,0.8-0.1,1-0.4c0.3-0.3,0.3-0.8,0.1-1.1c-0.2-0.4-0.5-0.6-0.8-0.8
						c-0.3-0.1-0.5-0.3-0.8-0.3c-0.4,0-0.9,0.1-1.3,0.1c-0.5,0-0.9-0.1-1.4-0.2c-0.5-0.1-1,0-1.3,0.3c-0.4,0.5-0.3,1.3,0.2,1.7
						s1.1,0.6,1.8,0.6C149.7,98.8,150.6,98.8,151.5,98.7z"/>
				</g>
				<g class="st12">
					<path class="st1" d="M144.1,77.3c-0.9,0.3-1.6,1.2-2.1,2c-0.4,0.5-0.7,1-1.1,1.5c-0.3,0.5-0.7,1-0.5,1.6c0.9-0.1,1.6-0.6,2.4-1
						c1-0.5,2.2-0.5,3.3-0.6c0.2,0,0.3,0,0.4,0.1c0.1,0.1,0.1,0.3,0.1,0.4c-0.1,1.1-0.3,2.2-0.4,3.4c2.5-0.8,4.6-2.9,5.4-5.4
						c0.1-0.3,0.2-0.7,0.1-1c-0.1-0.5-0.6-0.9-1-1c-0.5-0.2-1-0.2-1.5-0.2c-1.1,0-2.1,0-3.2,0C145.2,77.1,144.6,77.1,144.1,77.3z"/>
				</g>
				<g class="st12">
					<path class="st1" d="M134.8,86c0-0.5-0.4-0.9-0.8-1.1c-0.6-0.4-1.4-0.4-2.1-0.3c-0.7,0.2-1.4,0.5-2,0.8
						c-0.8,0.4-1.5,0.7-2.3,1.1c-0.3,0.1-0.6,0.5-0.5,0.7c0.7,0.1,1.4,0.2,2,0.7c0.2,0.2,0.4,0.5,0.7,0.7c0.6,0.5,1.6,0.5,2.3,0.2
						c0.7-0.3,1.3-0.9,1.9-1.5C134.4,87,134.8,86.5,134.8,86z"/>
				</g>
				<g>
					<g>
						<path class="st9" d="M123.1,138c-0.1,2.8-4.2,3.9-6.5,2.3c-2.3-1.6-3.2-4.6-3.9-7.3c-3.6,1.3-7.9,0.5-10.7-2.1
							c-1.7-1.6-2.9-3.8-4.9-4.9c-1.1-0.6-2.5-0.9-3.6-1.6c-2.2-1.4-2.9-4.4-2.6-6.9c0.3-2.6,1.3-5,2-7.5c4.5,1,7.8-4.1,12.1-5.8
							c0.9-0.4,2-0.6,2.8-0.2c1.9,0.9,1.8,3.6,1.3,5.6c2.2-0.1,5.2,0.7,4.9,2.8c-0.1,0.5-0.4,0.9-0.4,1.4c-0.2,1.5,1.6,2.5,3.1,2.2
							c1.5-0.3,2.6-1.4,3.7-2.4c1.1-1,2.6-1.8,4-1.4c2.6,0.7,2.6,4.4,1.9,7.1c2.7-0.8,5.6-1.5,8.4-1.2s5.7,2.1,6.4,4.9
							c0.4,1.3,0.2,2.8-0.2,4.1c-1.4,5.2-6.4,10-11.7,8.8c-1.2-0.3-2.2-0.8-3.4-0.9c-1.2-0.1-2.5,0.6-2.7,1.7
							C123.1,137.1,123.2,137.6,123.1,138z"/>
					</g>
					<g class="st10">
						<path class="st9" d="M126.1,130.5c-4,0-8-0.5-11.9-1.5c2.4,1.7,4.4,4.2,5.6,6.9c-1,0.8-2.3-0.5-3-1.5c-1.2-2-2.7-4.3-5-4.4
							c-1-0.1-2,0.3-3,0.3c-1.8,0-3.4-1.2-4.7-2.4c-3.9-3.5-7-8.1-8.8-13.1c2.1-0.3,3.6-1.9,5.3-3.1c1.7-1.2,4.4-1.7,5.6,0
							c0.8,1.1,0.6,2.7,0.6,4.1c0,1.4,0.8,3.2,2.2,3.1c0.6,0,1.2-0.3,1.7,0c0.3,0.2,0.4,0.7,0.5,1.1c0.6,2,2.8,3.1,5,3.3
							c2.1,0.1,4.2-0.5,6.3-0.7c2.7-0.2,5.5,0.4,8,1.7c-0.8,1.5-2.7,1.8-4.3,1.8c-1.6,0-3.4-0.2-4.8,0.8
							C123.3,127.5,125,128.8,126.1,130.5z"/>
					</g>
				</g>
				<g class="st12">
					<path class="st1" d="M138,128.1c-0.4,1.1-1.3,2-2.2,2.7c-0.4,0.3-0.8,0.6-1.3,0.5c-0.5-0.1-0.9-0.6-1.1-1.1
						c-0.1-0.5,0-1.1-0.1-1.6c0-1.5-0.8-3.1-2-4c-0.5-0.4-1.1-0.8-1.6-1.3c-0.4-0.5-0.6-1.3-0.2-1.9c0.5-0.6,1.4-0.5,2.2-0.4
						c1.1,0.1,2.3,0,3.2,0.5c0.5,0.3,1,0.7,1.4,1.2C137.7,124.2,138.7,126.2,138,128.1z"/>
				</g>
				<g>
					<path class="st19" d="M33.7,111c-5.9-4.9-10.9-11.6-12-19.2c-1.1-7.3,1.4-14.4,5.3-20.8c2-0.9,3.7-2.8,5.7-3.7
						c5.1-2.3,10.6,1.3,15.9,2.9c3.3,1.1,6.8,1.4,10.3,1.7c18.2,1.6,36.5,3.2,54.6,0.9c8.2-1,17.2-2.6,24.7,0
						c-1.9,0.6-3.8,1.4-5.4,2.5c-3.7,2.4-6.7,5.7-9.7,9c-3.4,3.8-6.9,7.6-10.3,11.4c-4,4.4-8,8.8-12.9,12c-3.8,2.5-8,4.2-12.2,5.9
						c-11.3,4.5-23.5,8.8-35.5,6.6C45.3,118.8,39,115.4,33.7,111z"/>
				</g>
				<g class="st20">
					<path class="st19" d="M56.4,82.3c1.1,0.1,2.2,0,3.2-0.6c0.9-0.5,1.7-1.6,1.6-2.7c-0.1-1.7-1.9-2.7-3.6-3.1
						c-1.3-0.3-2.6-0.4-3.9-0.4c-1,0-2,0.2-3,0.1c-1.8-0.3-3.3-1.4-5-2.1c-1.8-0.7-3.8-0.9-5.7-0.4c-1,0.3-2,0.7-2.6,1.6
						c-0.9,1.4-0.3,3.4,1,4.4c1.3,1.1,3,1.4,4.7,1.4c1.7,0,3.3-0.2,5-0.1C51,80.7,53.6,82.1,56.4,82.3z"/>
				</g>
				<g class="st20">
					<path class="st19" d="M72.6,102c0.6,2.6,3.1,4.4,5.8,4.7c2.6,0.3,5.3-0.6,7.5-2s4.1-3.3,6.1-5.1c1.7-1.5,3.4-3,4.5-5
						s1.5-4.5,0.3-6.4c-1.1-1.8-3.3-2.6-5.3-2.6c-2.1,0-4,0.9-5.9,1.8c-2.5,1.3-4.8,2.9-7.1,4.6c-1.6,1.2-3.3,2.5-4.4,4.2
						C72.8,97.9,72.1,100.1,72.6,102z"/>
				</g>
				<g class="st20">
					<path class="st19" d="M35.1,93c-0.4,1.5-0.5,3.1-0.1,4.6c0.6,1.7,1.9,3.1,3.3,4.1c0.7,0.5,1.5,0.9,2.4,0.9c0.9,0,1.8-0.5,2.6-1
						c0.6-0.4,1.3-0.9,1.6-1.7c0.4-1,0-2.2,0.1-3.3c0.2-1.5,1.2-2.7,1.5-4.2c0.4-1.9-0.9-3.9-2.6-4.8c-1.8-0.8-3.9-0.5-5.6,0.5
						C36.8,89.4,35.7,91.1,35.1,93z"/>
				</g>
				<g class="st20">
					<path class="st19" d="M114.2,83.3c0.2-0.4,0.3-0.8,0.3-1.2c0-1.7-1.2-3.1-2.7-3.8c-1.5-0.7-3.2-0.8-4.9-0.7
						c-0.7,0-1.4,0.1-2,0.5c-0.9,0.6-1.1,2.1-0.4,2.9c0.4,0.5,1.1,0.9,1.2,1.5c0.6,0.4,1.2,0.8,1.8,1.2c0.6,0.4,1.1,0.8,1.8,1
						c0.8,0.2,1.6,0.1,2.4,0C112.6,84.5,113.7,84.2,114.2,83.3z"/>
				</g>
				<g class="st20">
					<path class="st19" d="M61.5,92.4c0.7,1.1,2.3,1.3,3.6,1.2c0.9,0,1.9-0.2,2.3-0.9c0.4-0.7,0.1-1.6-0.4-2.3
						c-0.7-0.9-1.7-1.5-2.8-1.6c-1.1-0.1-2.2,0.5-2.7,1.5C61.1,90.9,61.1,91.8,61.5,92.4z"/>
				</g>
			</g>
			<g>
				<path class="st8" d="M108.1,76C95.1,85.4,85.8,99,77,112.4c2.6-9.5,8.4-17.8,14.1-25.9c1.7-2.4,3.4-4.7,5.5-6.7
					c2-1.8,4.3-3.2,6.9-4.1C105,75.2,106.9,74.9,108.1,76z"/>
			</g>
			<g>
				<path class="st8" d="M66.3,100.4c-1,2.6-1.8,5.3-2.8,7.9c-0.5,1.4-2,5.3-4,3.5c-2.1-1.8,1.3-8.9,2.2-10.6
					c3.4-6.9,8-24.6,18.4-23.4c-0.2,0-6.4,8.7-7.2,9.8C69.8,91.4,67.9,95.8,66.3,100.4z"/>
			</g>
			<g>
				<path class="st8" d="M53.3,74.9c0.2,2.3-1.5,4.1-3,5.9c-5.8,7.2-6.8,16.9-9.5,25.7c-0.3,0.9-0.7,2-1.6,2.4
					c-1.4-4.1,0.2-8.6,1.7-12.7c2.2-5.8,4.3-11.7,7.5-17.1C49.5,77.2,51,75.1,53.3,74.9z"/>
			</g>
		</g>
	</g>
</g>
</svg>
