<svg width="96" height="78" viewBox="0 0 96 78" fill="none" xmlns="http://www.w3.org/2000/svg">
<path d="M96 9.23349C92.4678 10.7996 88.6719 11.8581 84.6878 12.3341C88.7544 9.89701 91.8772 6.03805 93.3478 1.44009C89.5424 3.69641 85.3272 5.33521 80.841 6.2185C77.2481 2.39149 72.1294 0 66.4647 0C55.5872 0 46.7685 8.81642 46.7685 19.6908C46.7685 21.2341 46.943 22.737 47.2787 24.1782C30.9097 23.357 16.3971 15.5176 6.68302 3.60443C4.98769 6.5127 4.01642 9.89526 4.01642 13.5039C4.01642 20.3354 7.49382 26.3625 12.7786 29.8936C9.54979 29.7914 6.51307 28.9057 3.85735 27.4308C3.85594 27.513 3.85594 27.5955 3.85594 27.6783C3.85594 37.219 10.645 45.1778 19.6551 46.9865C18.0022 47.4366 16.2623 47.677 14.4658 47.677C13.1968 47.677 11.9629 47.5538 10.7605 47.3239C13.2667 55.1471 20.5403 60.8401 29.1589 60.9991C22.4183 66.2802 13.9258 69.4283 4.69834 69.4283C3.1087 69.4283 1.54083 69.3352 0 69.1534C8.71616 74.7403 19.069 78 30.1916 78C66.4187 78 86.229 47.9951 86.229 21.9742C86.229 21.1204 86.21 20.2711 86.1721 19.4268C90.02 16.6505 93.3594 13.1823 96 9.23349Z" fill="#55ACEE" fill-opacity="0.3"/>
</svg>
